<?xml version="1.0" standalone="no"?>
<!DOCTYPE svg PUBLIC "-//W3C//DTD SVG 1.1//EN" "http://www.w3.org/Graphics/SVG/1.1/DTD/svg11.dtd" >
<svg>
<metadata>
Created by FontForge 20090914 at Sun Jan 30 22:33:20 2022
 By www-data
Copyright &#194;&#169; 2016 by FontfabricLLC. All rights reserved.
</metadata>
<defs>
<font id="UniNeueBlack-Italic" horiz-adv-x="650" >
  <font-face 
    font-family="Uni Neue Black"
    font-weight="900"
    font-style="italic"
    font-stretch="normal"
    units-per-em="1000"
    panose-1="0 0 0 0 0 0 0 0 0 0"
    ascent="750"
    descent="-250"
    x-height="521.999"
    cap-height="715"
    bbox="-164.455 -311 1163 1062"
    underline-thickness="50"
    underline-position="-175"
    slope="-10"
    unicode-range="U+0020-U+25CA"
  />
<missing-glyph horiz-adv-x="189" 
 />
    <glyph glyph-name=".notdef" horiz-adv-x="189" 
 />
    <glyph glyph-name="space" unicode=" " horiz-adv-x="189" 
 />
    <glyph glyph-name="exclam" unicode="!" horiz-adv-x="280" 
d="M193 239h-108c-14.667 0 -21 7 -19 21l35 272l30 165c2 12 9 18 21 18h132c14 0 20 -7.33301 18 -22l-28 -167l-58 -269c-2 -12 -9.66699 -18 -23 -18zM207 74c-4.66699 -25.333 -16.832 -46.332 -36.499 -62.999s-43.167 -25 -70.5 -25c-30.667 0 -54.334 11 -71.001 33
s-22 49 -16 81c5.33301 26.667 17.5 48 36.5 64s42.5 24 70.5 24c30 0 53.5 -10.833 70.5 -32.5s22.5 -48.834 16.5 -81.501z" />
    <glyph glyph-name="quotedbl" unicode="&#x22;" horiz-adv-x="420" 
d="M276 693l-76.998 -272c-2.66699 -11.333 -10.334 -17 -23.001 -17h-87c-14.667 0 -20.334 7.33301 -17.001 22l57 271c2 12 9.33301 18 22 18h108c7.33301 0 12.5 -2 15.5 -6s3.5 -9.33301 1.5 -16zM462.002 693l-76 -272c-2.66699 -11.333 -10.667 -17 -24 -17h-86
c-15.333 0 -21.333 7.33301 -18 22l57 271c2 12 9.33301 18 22 18h108c7.33301 0 12.5 -2 15.5 -6s3.5 -9.33301 1.5 -16z" />
    <glyph glyph-name="numbersign" unicode="#" horiz-adv-x="769" 
d="M229 0h-108.999c-7.33301 0 -12.5 2 -15.5 6s-3.5 9.33301 -1.5 16l41 147h-112c-7.33301 0 -12.5 2 -15.5 6s-3.5 9.33301 -1.5 16l26 92c3.33301 12 11 18 23 18h117l30 114h-112c-7.33301 0 -12.5 2 -15.5 6s-3.5 9.33301 -1.5 16l26 92
c2.66699 11.333 10.334 17 23.001 17h117l42 152c2.66699 11.333 10.334 17 23.001 17h109c7.33301 0 12.5 -2 15.5 -6s3.5 -9.33301 1.5 -16l-41 -147h111l42 152c2.66699 11.333 10.334 17 23.001 17h109c7.33301 0 12.5 -2 15.5 -6s3.5 -9.33301 1.5 -16l-41 -147h112
c7.33301 0 12.5 -2 15.5 -6s3.5 -9.33301 1.5 -16l-26 -92c-2.66699 -11.333 -10.334 -17 -23.001 -17h-117l-30 -114h111c6.66699 0 11.667 -2.16699 15 -6.5s4 -9.83301 2 -16.5l-25 -92c-2.66699 -11.333 -10.334 -17 -23.001 -17h-117l-42 -152
c-2.66699 -11.333 -10.334 -17 -23.001 -17h-109c-7.33301 0 -12.5 2 -15.5 6s-3.5 9.33301 -1.5 16l41 147h-111l-42 -152c-2.66699 -11.333 -10.334 -17 -23.001 -17zM361.001 415l-30 -114h111l30 114h-111z" />
    <glyph glyph-name="dollar" unicode="$" horiz-adv-x="604" 
d="M302 -106l-104.998 -0.00292969c-14 0 -20 7.33301 -18 22l13 76c-69.333 12 -130.666 43 -183.999 93c-10 8.66699 -10.667 18 -2 28l88 107c8 10 17.333 11 28 3c52 -42 105.333 -63 160 -63c58 0 89.333 17.667 94 53c2.66699 14.667 -3.5 26.5 -18.5 35.5
s-43.5 19.167 -85.5 30.5c-66.667 18.667 -117.834 48.334 -153.501 89.001s-48.167 93 -37.5 157c10 62.667 36.333 110.334 79 143.001s96.334 52.334 161.001 59.001l12 70c2 12 9 18 21 18h105c14 0 20 -7.33301 18 -22l-12 -73c54 -12 102.333 -33.667 145 -65
c11.333 -7.33301 12.333 -16.666 3 -27.999l-96 -110c-7.33301 -10 -17 -11.333 -29 -4c-46 29.333 -93.333 44 -142 44c-24.667 0 -42.834 -3.5 -54.501 -10.5s-18.5 -18.5 -20.5 -34.5c-2 -14 4.33301 -25.167 19 -33.5s39.667 -17.833 75 -28.5
c11.333 -4 20.833 -7.16699 28.5 -9.5s17.834 -6 30.501 -11s23.167 -9.83301 31.5 -14.5l29.5 -17c11.333 -6.66699 20.666 -13.667 27.999 -21s15.166 -15.666 23.499 -24.999s14.666 -19.5 18.999 -30.5s8.16602 -22.833 11.499 -35.5s4.83301 -26.834 4.5 -42.501
s-2.16602 -32.167 -5.49902 -49.5c-24.667 -116.667 -101 -184.334 -229 -203.001l-14 -79c-2 -12 -9 -18 -21 -18z" />
    <glyph glyph-name="percent" unicode="%" horiz-adv-x="835" 
d="M366 472c-19.333 -100.667 -78.333 -150.999 -177 -150.999c-42.667 0 -76.334 14.667 -101.001 44s-33 64.666 -25 105.999l19 101c18.667 99.333 78.334 149 179.001 149c42.667 0 76 -14.5 100 -43.5s32 -64.167 24 -105.5zM234 0.000976562h-108
c-8 0 -13.167 2.33301 -15.5 7s-1.16602 10.334 3.50098 17.001l494 672c5.33301 8 13.333 12 24 12h109c8 0 13.167 -2.33301 15.5 -7s1.16602 -10.334 -3.50098 -17.001l-495 -672c-5.33301 -8 -13.333 -12 -24 -12zM186 469.001c-4.66699 -23.333 3 -35 23 -35
c18 0 29.333 11.333 34 34l20 107c2 10 1 18 -3 24s-10.333 9 -19 9c-20 0 -31.667 -11 -35 -33zM787 146.001c-18 -100.667 -77.3359 -151 -178.003 -151c-42.667 0 -76 14.5 -100 43.5s-32.333 64.5 -25 106.5l18 99c18.667 100 78.334 150 179.001 150
c42.667 0 75.834 -14.5 99.501 -43.5s31.834 -64.167 24.501 -105.5zM605.997 143.001c-2 -10.667 -0.831055 -19.167 3.50195 -25.5s11.166 -9.5 20.499 -9.5c18 0 29.333 11.333 34 34l19 106c2 10 1 18 -3 24s-10.667 9 -20 9c-18.667 0 -30.334 -11 -35.001 -33z" />
    <glyph glyph-name="ampersand" unicode="&#x26;" horiz-adv-x="605" 
d="M366 46c-55.333 -37.333 -111.666 -55.9971 -168.999 -55.9971c-54.667 0 -100.334 19.833 -137.001 59.5s-49.667 90.834 -39 153.501c14 82 64.333 150.333 151 205c-26 54 -35 103 -27 147c8.66699 51.333 32.334 93.166 71.001 125.499s86.667 48.5 144 48.5
c50 0 89.5 -17.667 118.5 -53s39.833 -77.333 32.5 -126c-12.667 -74 -58.334 -138.667 -137.001 -194l35 -63c5.33301 6.66699 19.333 26 42 58c6 11.333 15 13.666 27 6.99902l82 -43c12.667 -6 16 -15.333 10 -28c-23.333 -42.667 -52 -85.334 -86 -128.001l38 -68
l38 -67c4 -6.66699 4.5 -12.334 1.5 -17.001s-8.16699 -7 -15.5 -7h-140c-10.667 0 -18.667 4.66699 -24 14c-1.33301 3.33301 -3 6.83301 -5 10.5s-4 7.66699 -6 12s-3.66699 7.5 -5 9.5zM178 204.003c-3.33301 -16.667 -0.166992 -30.666 9.5 -41.999s24.5 -17 44.5 -17
c23.333 0 46 8.33301 68 25c-6.66699 11.333 -16 28.833 -28 52.5s-21.333 41.167 -28 52.5c-39.333 -24.667 -61.333 -48.334 -66 -71.001zM292.999 550.004c-3.33301 -16.667 1.00195 -38.667 13.002 -66c34.667 22.667 53.667 44.667 57 66
c3.33301 29.333 -6.33398 44 -29.001 44s-36.334 -14.667 -41.001 -44z" />
    <glyph glyph-name="quotesingle" unicode="'" horiz-adv-x="234" 
d="M276 693l-76.998 -272c-2.66699 -11.333 -10.334 -17 -23.001 -17h-87c-14.667 0 -20.334 7.33301 -17.001 22l57 271c2 12 9.33301 18 22 18h108c7.33301 0 12.5 -2 15.5 -6s3.5 -9.33301 1.5 -16z" />
    <glyph glyph-name="parenleft" unicode="(" horiz-adv-x="316" 
d="M227 -116l-116.997 0.000976562c-11.333 0 -19 5.33301 -23 16c-50.667 156.667 -62.334 313 -35.001 469s91.666 305 192.999 447c6 8 14 12 24 12h125c8 0 13.167 -2.33301 15.5 -7s1.16602 -10.334 -3.50098 -17.001c-110.667 -152.667 -179 -303 -205 -451
c-27.333 -155.333 -13.333 -304 42 -446c5.33301 -15.333 0 -23 -16 -23z" />
    <glyph glyph-name="parenright" unicode=")" horiz-adv-x="315" 
d="M121 829l116.997 -0.000976562c11.333 0 19 -5.33301 23 -16c50.667 -156.667 62.334 -313 35.001 -469s-91.666 -305 -192.999 -447c-6 -8 -14 -12 -24 -12h-125c-8 0 -13.167 2.33301 -15.5 7s-1.16602 10.334 3.50098 17.001c110.667 152.667 179 303 205 451
c27.333 155.333 13.333 304 -42 446c-5.33301 15.333 0 23 16 23z" />
    <glyph glyph-name="asterisk" unicode="*" horiz-adv-x="464" 
d="M169 326l-74 59c-11.333 8.66699 -12 18 -2 28l62 70l-68 24c-13.333 5.33301 -17 14 -11 26l46 94c5.33301 12 14 15.667 26 11l75 -24l15 83c2 12 9 18 21 18h101c14 0 20 -7.33301 18 -22l-14 -79l79 24c14.667 4.66699 23 -0.333008 25 -15l14 -95
c2 -12 -3 -20 -15 -24l-83 -27l36 -63c6 -11.333 3.66699 -20.666 -7 -27.999l-88 -60c-12 -8.66699 -21 -6.33398 -27 6.99902l-36 74l-65 -78c-8 -10 -17.333 -11 -28 -3z" />
    <glyph glyph-name="plus" unicode="+" 
d="M434 415h138c14.667 0 21 -7.33301 19 -22l-22 -119c-2 -12 -9 -18 -21 -18h-141l-29 -162c-2 -12 -9.33301 -18 -22 -18h-120c-14 0 -20 7.33301 -18 22l28 158h-141c-14 0 -20 7.33301 -18 22l20 119c2 12 9.33301 18 22 18h144l29 161c2 12 9 18 21 18h121
c14 0 20 -7.33301 18 -22z" />
    <glyph glyph-name="comma" unicode="," horiz-adv-x="256" 
d="M200 138l-129.999 -274.999c-4.66699 -10 -12.334 -15 -23.001 -15h-98c-16 0 -21.333 7.66699 -16 23l108 275c4 10.667 12 16 24 16h120c7.33301 0 12.5 -2.33301 15.5 -7s2.83301 -10.334 -0.5 -17.001z" />
    <glyph glyph-name="hyphen" unicode="-" horiz-adv-x="381" 
d="M307 219h-243c-14 0 -20 7.33301 -18 22l21 122c2 12 9 18 21 18h243c14 0 20 -7.33301 18 -22l-21 -122c-2 -12 -9 -18 -21 -18z" />
    <glyph glyph-name="period" unicode="." horiz-adv-x="257" 
d="M197 74c-4.66699 -25.333 -16.5 -46.1689 -35.5 -62.502s-43.167 -24.5 -72.5 -24.5c-30.667 0 -54.167 11 -70.5 33s-21.833 49 -16.5 81c5.33301 26.667 17.5 47.834 36.5 63.501s42.833 23.5 71.5 23.5c30.667 0 54.167 -10.667 70.5 -32s21.833 -48.666 16.5 -81.999
z" />
    <glyph glyph-name="slash" unicode="/" horiz-adv-x="491" 
d="M540 691l-383.001 -677c-5.33301 -9.33301 -13.666 -14 -24.999 -14h-133c-8 -0 -13.333 2.33301 -16 7s-2 10.334 2 17.001l386 677c4.66699 9.33301 12.667 14 24 14h131c7.33301 0 12.5 -2.33301 15.5 -7s2.5 -10.334 -1.5 -17.001z" />
    <glyph glyph-name="zero" unicode="0" horiz-adv-x="618" 
d="M572 261c-32 -183.333 -136.333 -275 -313 -275c-74.667 0 -132.667 26.167 -174 78.5s-55 117.833 -41 196.5l35 197c32 180.667 136 271 312 271c75.333 0 133.5 -25.833 174.5 -77.5s54.5 -116.167 40.5 -193.5zM230 252c-10 -57.333 10.333 -86 61 -86
c52 0 82.333 28.667 91 86l38 214c10 56.667 -10.333 85 -61 85s-81 -28 -91 -84z" />
    <glyph glyph-name="one" unicode="1" horiz-adv-x="415" 
d="M290 0l-144.999 0.000976562c-14.667 0 -21 7.33301 -19 22l82 468l-80 -55c-11.333 -8 -20.333 -5.33301 -27 8l-48 104c-4.66699 11.333 -2.33398 20.666 6.99902 27.999l198 132c7.33301 5.33301 16 8 26 8h128c14 0 20 -7.33301 18 -22l-119 -675
c-2 -12 -9 -18 -21 -18z" />
    <glyph glyph-name="two" unicode="2" horiz-adv-x="567" 
d="M469 0l-462.005 0.000976562c-14.667 0 -21 7.33301 -19 22l21 117c2 9.33301 6.33301 17 13 23l160 135c78.667 66 130.334 112.5 155.001 139.5s38.667 51.167 42 72.5c2.66699 15.333 -0.166016 26.833 -8.49902 34.5s-23.833 11.5 -46.5 11.5
c-42.667 0 -85.667 -19 -129 -57c-11.333 -10.667 -20.666 -9.33398 -27.999 3.99902l-60 105c-6 10.667 -4.66699 20 4 28c71.333 62.667 152.333 94 243 94c74 0 130 -20.333 168 -61s51.333 -93 40 -157c-5.33301 -35.333 -17.666 -68.5 -36.999 -99.5
s-51.333 -69.833 -96 -116.5c-59.333 -55.333 -109.666 -97 -150.999 -125h218c14 0 20 -7.33301 18 -22l-23 -130c-2 -12 -9.33301 -18 -22 -18z" />
    <glyph glyph-name="three" unicode="3" horiz-adv-x="570" 
d="M531 232c-14.667 -80.667 -47.502 -141.834 -98.502 -183.501s-118.5 -62.5 -202.5 -62.5c-103.333 0 -182.666 30 -237.999 90c-8 10 -7 19.333 3 28l84 100c8 7.33301 17.667 6.33301 29 -3c28 -26 73.667 -39 137 -39c56.667 0 90.334 27 101.001 81
c4.66699 24.667 0 43.167 -14 55.5s-35 18.5 -63 18.5c-20.667 0 -43 -3.66699 -67 -11c-14 -3.33301 -22.667 1.33398 -26 14.001l-16 65c-2.66699 10 0.333008 18.667 9 26l69 56c44 38 74 63.333 90 76h-202c-14 0 -20 7.33301 -18 22l24 132c2 12 9 18 21 18h411
c6.66699 0 11.667 -2 15 -6s4.33301 -9.33301 3 -16l-19 -107c-2 -9.33301 -6.33301 -17 -13 -23l-167 -132l-1 -2c52 2 92 -17.833 120 -59.5s37.667 -87.5 29 -137.5z" />
    <glyph glyph-name="four" unicode="4" horiz-adv-x="603" 
d="M447 0l-142.002 0.000976562c-14 0 -20 7.33301 -18 22l14 86h-286c-14 0 -20 7.33301 -18 22l19 105c2 10.667 5 18.667 9 24l292 443c6 8.66699 14.333 13 25 13h156c8 0 13.333 -2.33301 16 -7s1.66699 -10.334 -3 -17.001l-272 -417h92l42 119
c4 10.667 11.667 16 23 16h119c14.667 0 21 -7.33301 19 -22l-20 -113h50c6.66699 0 11.834 -2.16699 15.501 -6.5s4.83398 -9.83301 3.50098 -16.5l-23 -125c-2 -12 -9 -18 -21 -18h-55l-15 -90c-2 -12 -9.33301 -18 -22 -18z" />
    <glyph glyph-name="five" unicode="5" horiz-adv-x="576" 
d="M544 238c-30 -168 -134.335 -251.999 -313.002 -251.999c-89.333 0 -160.666 31 -213.999 93c-7.33301 9.33301 -6.66602 18.666 2.00098 27.999l78 94c8.66699 10 18 10.667 28 2c37.333 -28 83 -42 137 -42c28 0 50.667 7.66699 68 23s28.333 36.333 33 63
c4 22.667 -0.833008 39.834 -14.5 51.501s-34.5 17.5 -62.5 17.5c-40 0 -77 -9 -111 -27c-8 -4.66699 -17 -5.33398 -27 -2.00098l-74 25c-12 4.66699 -16.667 12.667 -14 24l76 361c2 12 9.33301 18 22 18h399c14 0 20 -7.33301 18 -22l-24 -134c-2 -12 -9 -18 -21 -18
h-253l-19 -93c20 10.667 53.667 16 101 16c67.333 0 118 -21.333 152 -64s45 -96.667 33 -162z" />
    <glyph glyph-name="six" unicode="6" horiz-adv-x="595" 
d="M560 235c-13.333 -75.333 -47.1719 -135.666 -101.505 -180.999s-121.166 -68 -200.499 -68s-138.666 22.667 -177.999 68s-52.666 104.666 -39.999 177.999l41 229c14 80 49.833 144.667 107.5 194s125.834 74 204.501 74c86 0 156.667 -21.333 212 -64
c11.333 -8 12.666 -17.333 3.99902 -28l-87 -113c-8 -10 -17.667 -10.667 -29 -2c-30.667 22 -71 33 -121 33c-60 0 -95 -30.333 -105 -91l-7 -35c32 16 67.667 24 107 24c70.667 0 123.334 -19.667 158.001 -59s46.334 -92.333 35.001 -159zM226.994 239
c-10 -52 9.33301 -78 58 -78c50 0 79.667 26 89 78c4 22 0.5 39.167 -10.5 51.5s-28.5 18.5 -52.5 18.5c-47.333 0 -75.333 -23.333 -84 -70z" />
    <glyph glyph-name="seven" unicode="7" horiz-adv-x="523" 
d="M218 0l-159.999 -0.000976562c-7.33301 0 -12.333 2.33301 -15 7s-2 10.334 2 17.001l293 519h-249c-14 0 -20 7.33301 -18 22l22 132c2.66699 12 10 18 22 18h444c14 0 20 -7.33301 18 -22l-17 -108c-0.666992 -6 -3.33398 -13.667 -8.00098 -23l-310 -548
c-4.66699 -9.33301 -12.667 -14 -24 -14z" />
    <glyph glyph-name="eight" unicode="8" horiz-adv-x="613" 
d="M570 220c-28.667 -156 -132.669 -234 -312.002 -234c-76 0 -136.333 21.667 -181 65s-61 99.666 -49 168.999c6.66699 36.667 20.334 69.334 41.001 98.001s46.667 50.667 78 66c-38.667 40 -53 87.667 -43 143c10 60 40.833 108.667 92.5 146s115.834 56 192.501 56
c74.667 0 131.334 -19 170.001 -57s52.667 -89.333 42 -154c-4.66699 -24.667 -14.334 -49.667 -29.001 -75s-33.667 -46 -57 -62c50 -34 68.333 -87.667 55 -161zM216.998 224c-4 -22.667 0.167969 -40.168 12.501 -52.501s31.833 -18.5 58.5 -18.5
c26 0 47.333 6.16699 64 18.5s27 29.5 31 51.5c3.33301 20.667 -1.16699 36.834 -13.5 48.501s-31.5 17.5 -57.5 17.5c-26.667 0 -48.334 -5.66699 -65.001 -17s-26.667 -27.333 -30 -48zM274.999 508.999c-3.33301 -20.667 0.667969 -36.5 12.001 -47.5
s28.666 -16.5 51.999 -16.5c50 0 78.667 21.333 86 64c3.33301 18.667 -0.666992 33.334 -12 44.001s-29 16 -53 16c-23.333 0 -42.5 -5.33301 -57.5 -16s-24.167 -25.334 -27.5 -44.001z" />
    <glyph glyph-name="nine" unicode="9" horiz-adv-x="595" 
d="M543 230c-13.333 -76 -46.8311 -135.667 -100.498 -179s-122.834 -65 -207.501 -65c-86 0 -157 28.667 -213 86c-8 9.33301 -8 18.666 0 27.999l83 101c8 9.33301 17.333 9.66602 28 0.999023c36 -28 78.667 -42 128 -42c54 0 86.667 29.667 98 89l6 36
c-30.667 -15.333 -65.667 -23 -105 -23c-60.667 0 -109.834 23.667 -147.501 71s-51.167 102.333 -40.5 165c13.333 72.667 46.333 129.334 99 170.001s119 61 199 61c78.667 0 138 -22.667 178 -68s53.333 -104.666 40 -177.999zM256.002 489
c-4 -22 -0.833984 -39.833 9.49902 -53.5s27.5 -20.5 51.5 -20.5c48.667 0 76.667 22.333 84 67l1 6c3.33301 23.333 0 41.5 -10 54.5s-26.333 19.5 -49 19.5c-24 0 -43.667 -6.5 -59 -19.5s-24.666 -30.833 -27.999 -53.5z" />
    <glyph glyph-name="colon" unicode=":" horiz-adv-x="287" 
d="M211 74c-4.66699 -26 -16.832 -47.167 -36.499 -63.5s-42.834 -24.5 -69.501 -24.5c-32.667 0 -57.5 10.833 -74.5 32.5s-22.5 49.167 -16.5 82.5c4.66699 26 16.5 47.167 35.5 63.5s41.833 24.5 68.5 24.5c32.667 0 57.667 -10.833 75 -32.5s23.333 -49.167 18 -82.5z
M274.002 421c-5.33301 -26 -17.6699 -47.167 -37.0029 -63.5s-42.666 -24.5 -69.999 -24.5c-32 0 -56.667 10.833 -74 32.5s-23.333 49.167 -18 82.5c4.66699 26 16.834 47.167 36.501 63.5s42.834 24.5 69.501 24.5c32.667 0 58 -10.833 76 -32.5s23.667 -49.167 17 -82.5z
" />
    <glyph glyph-name="semicolon" unicode=";" horiz-adv-x="283" 
d="M61 -149h-97.998c-16 0 -21.333 8 -16 24l108 274c4 10.667 12 16 24 16h119c17.333 0 22.666 -8 15.999 -24l-130 -275c-4.66699 -10 -12.334 -15 -23.001 -15zM270.002 422c-4.66699 -25.333 -16.667 -46.1689 -36 -62.502s-43 -24.5 -71 -24.5
c-30 0 -53.333 11 -70 33s-22 49 -16 81c5.33301 26.667 17.5 47.834 36.5 63.501s42.5 23.5 70.5 23.5c30 0 53.333 -10.667 70 -32s22 -48.666 16 -81.999z" />
    <glyph glyph-name="less" unicode="&#x3c;" 
d="M518 218l-24.001 -135.001c-3.33301 -16 -11.666 -20 -24.999 -12l-361 205c-9.33301 5.33301 -13 14 -11 26l15 73c2 11.333 7.66699 19 17 23l437 210c7.33301 3.33301 13 3.33301 17 0s5.33301 -9.33301 4 -18l-27 -142c-2 -10 -8 -17 -18 -21l-244 -87l207 -97
c10.667 -5.33301 15 -13.666 13 -24.999z" />
    <glyph glyph-name="equal" unicode="=" 
d="M567 368h-443c-14 0 -20 7.33301 -18 22l22 126c2 12.667 9 19 21 19h443c14 0 20 -7.66699 18 -23l-22 -126c-2 -12 -9 -18 -21 -18zM527 136h-444c-6.66699 0 -11.667 2.16699 -15 6.5s-4.33301 9.83301 -3 16.5l22 126c2 12 9 18 21 18h444c14 0 20 -7.33301 18 -22
l-22 -126c-2 -12.667 -9 -19 -21 -19z" />
    <glyph glyph-name="greater" unicode="&#x3e;" 
d="M549 285l-435.999 -211.999c-8 -4 -14 -4.16699 -18 -0.5s-5.33301 9.5 -4 17.5l28 143c2 10 7.66699 17 17 21l245 98l-207 86c-11.333 5.33301 -16 13.666 -14 24.999l25 135c3.33301 16 11.666 20 24.999 12l360 -205c10 -5.33301 14 -14.333 12 -27l-16 -71
c-2 -10.667 -7.66699 -18 -17 -22z" />
    <glyph glyph-name="question" unicode="?" horiz-adv-x="503" 
d="M294 232l-125.999 -0.000976562c-14 0 -20 7.33301 -18 22l4 23c5.33301 31.333 15.166 58.166 29.499 80.499s30 39.333 47 51s33.667 22.334 50 32.001s30.833 20.834 43.5 33.501s20.667 27.667 24 45c2.66699 16 -0.666016 29 -9.99902 39s-26.333 15 -51 15
c-46 0 -88.333 -17.333 -127 -52c-11.333 -11.333 -20.333 -9.33301 -27 6l-43 99c-4.66699 11.333 -2.66699 20.333 6 27c60 50.667 132 76 216 76c30.667 0 59.167 -4 85.5 -12s49.833 -20.167 70.5 -36.5s35.5 -39 44.5 -68s10.167 -62.167 3.5 -99.5
c-5.33301 -31.333 -15.166 -58 -29.499 -80s-29.833 -39 -46.5 -51s-33.334 -23.167 -50.001 -33.5s-32 -23.333 -46 -39s-23.333 -34.5 -28 -56.5l-2 -13c-0.666992 -5.33301 -7.33398 -8 -20.001 -8zM306.001 72.999c-4.66699 -25.333 -16.833 -46.1689 -36.5 -62.502
s-43.167 -24.5 -70.5 -24.5c-30.667 0 -54.334 11 -71.001 33s-22 49 -16 81c5.33301 26.667 17.5 47.834 36.5 63.501s42.5 23.5 70.5 23.5c30.667 0 54.334 -10.667 71.001 -32s22 -48.666 16 -81.999z" />
    <glyph glyph-name="at" unicode="@" horiz-adv-x="846" 
d="M559 -75c-68 -38 -141.003 -57.0029 -219.003 -57.0029c-106 0 -188.167 35.833 -246.5 107.5s-77.166 161.834 -56.499 270.501l23 131c20.667 116 69.834 203.667 147.501 263s181.5 89 311.5 89c82 0 151 -15.333 207 -46s99.333 -69.667 130 -117
c4.66699 -10 6.33398 -19 5.00098 -27l-43 -250c-23.333 -140 -87.333 -210 -192 -210c-42.667 0 -72.334 12.333 -89.001 37c-36 -26 -85.667 -39 -149 -39c-46 0 -81.667 16.5 -107 49.5s-33.333 75.833 -24 128.5l17 95c8.66699 50.667 30.167 91.667 64.5 123
s79.5 47 135.5 47c61.333 0 115.333 -13.333 162 -40c9.33301 -5.33301 13 -14 11 -26l-37 -206c-5.33301 -26.667 3.66699 -40 27 -40s37.666 13.667 42.999 41l45 261c-12 22.667 -38.5 43.834 -79.5 63.501s-86.5 29.5 -136.5 29.5c-88 0 -158.833 -20.167 -212.5 -60.5
s-87.5 -99.166 -101.5 -176.499l-21 -120c-14 -68 -3.66699 -127.5 31 -178.5s84.334 -76.5 149.001 -76.5c62.667 0 120.334 13.333 173.001 40c14.667 6.66699 23.667 2 27 -14l14 -68c2 -11.333 -1 -19.333 -9 -24zM395.997 264.997c-6.66699 -38.667 3.66699 -58 31 -58
c10.667 0 24.667 2 42 6l30 169c-7.33301 4.66699 -18 7 -32 7c-32 0 -51.333 -17 -58 -51z" />
    <glyph glyph-name="A" unicode="A" horiz-adv-x="649" 
d="M589 0l-153 -0.000976562c-13.333 0 -20.333 6.33301 -21 19l-8 88h-200l-38 -92c-3.33301 -10 -11 -15 -23 -15h-166c-7.33301 0 -12.5 2.33301 -15.5 7s-2.83301 10.334 0.5 17.001l323 676c4.66699 10 12.667 15 24 15h173c13.333 0 21 -6 23 -18l100 -676
c2 -14 -4.33301 -21 -19 -21zM374 503.999h-4c-15.333 -43.333 -45.333 -118.333 -90 -225h111c-10 106.667 -15.667 181.667 -17 225z" />
    <glyph glyph-name="B" unicode="B" horiz-adv-x="627" 
d="M300 0l-259.998 0.00195312c-14 0 -20 7.33301 -18 22l118 675c2 12 9 18 21 18h246c70.667 0 124.667 -19.833 162 -59.5s50.666 -89.834 39.999 -150.501c-9.33301 -60 -38.333 -102.667 -87 -128c57.333 -32.667 80 -85.334 68 -158.001
c-24.667 -146 -121.334 -219 -290.001 -219zM260.002 293.002l-21.999 -123h79c45.333 0 71.666 21.667 78.999 65c5.33301 38.667 -14 58 -58 58h-78zM305.003 550.002l-18.002 -105h60c20.667 0 36.334 4.33301 47.001 13s17.667 22.334 21 41.001
c3.33301 17.333 0.833008 30.166 -7.5 38.499s-23.166 12.5 -44.499 12.5h-58z" />
    <glyph glyph-name="C" unicode="C" horiz-adv-x="574" 
d="M531 42c-72 -37.333 -149.336 -56.002 -232.003 -56.002c-94 0 -163.333 26.833 -208 80.5s-59 126.5 -43 218.5l33 184c14.667 83.333 50.5 147.5 107.5 192.5s131.5 67.5 223.5 67.5c75.333 0 139.333 -22.333 192 -67c10.667 -8 11.334 -17.333 2.00098 -28l-85 -103
c-9.33301 -9.33301 -19 -10.666 -29 -3.99902c-29.333 17.333 -61.666 26 -96.999 26c-69.333 0 -109.333 -33 -120 -99l-32 -190c-5.33301 -35.333 -0.833008 -61.166 13.5 -77.499s39.5 -24.5 75.5 -24.5c40.667 0 80.334 10.667 119.001 32
c12.667 6 21.667 3.33301 27 -8l56 -119c5.33301 -12.667 4.33301 -21 -3 -25z" />
    <glyph glyph-name="D" unicode="D" horiz-adv-x="648" 
d="M275 0l-234.999 -0.00292969c-14 0 -20 7.33301 -18 22l119 675c2 12 9 18 21 18h233c37.333 0 71.5 -5.33301 102.5 -16s58.667 -27.167 83 -49.5s41.166 -53.666 50.499 -93.999s9.33301 -87.166 0 -140.499l-23 -139c-18 -103.333 -55 -175.166 -111 -215.499
s-130 -60.5 -222 -60.5zM304.001 538.997l-64 -363h72c27.333 0 49 8 65 24s27 43 33 81l29 162c11.333 64 -10.667 96 -66 96h-69z" />
    <glyph glyph-name="E" unicode="E" horiz-adv-x="581" 
d="M605 693l-23 -133c-2 -12 -9.33301 -18 -22 -18h-253l-18 -96h213c14.667 0 21 -7.33301 19 -22l-24 -128c-2 -12 -9 -18 -21 -18h-217l-19 -104h267c14 0 20 -7.33301 18 -22l-22 -134c-2 -12 -9 -18 -21 -18h-442c-14 -0 -20 7.33301 -18 22l120 675c2 12 9 18 21 18
h424c14 0 20 -7.33301 18 -22z" />
    <glyph glyph-name="F" unicode="F" horiz-adv-x="554" 
d="M601 693l-22 -135c-2 -12 -9 -18 -21 -18h-252l-21 -118h211c14.667 0 21 -7.33301 19 -22l-25 -134c-2 -12 -9 -18 -21 -18h-214l-42 -230c-2 -12 -9 -18 -21 -18h-152c-14 -0 -20 7.33301 -18 22l120 675c2 12 9 18 21 18h420c14 0 20 -7.33301 18 -22z" />
    <glyph glyph-name="G" unicode="G" horiz-adv-x="633" 
d="M550 81c-34 -28.667 -75.334 -51.5 -124.001 -68.5s-97.667 -25.5 -147 -25.5c-82.667 0 -145.334 27 -188.001 81s-57 122.667 -43 206l34 201c13.333 80.667 48.333 143.167 105 187.5s129 66.5 217 66.5c88.667 0 164.334 -23.333 227.001 -70
c10.667 -8 11.667 -17.333 3 -28l-93 -107c-8 -9.33301 -17.333 -10.666 -28 -3.99902c-36.667 21.333 -78.334 32 -125.001 32c-32 0 -57.5 -8.33301 -76.5 -25s-30.833 -39.334 -35.5 -68.001l-33 -198c-4.66699 -29.333 -1.16699 -52.833 10.5 -70.5
s30.834 -26.5 57.501 -26.5c30.667 0 58.334 5.66699 83.001 17l18 94h-81c-14 0 -20 7.66699 -18 23l19 111c2 12 9 18 21 18h244c14.667 0 21 -7.66699 19 -23l-54 -301c-3.33301 -10.667 -7.33301 -18 -12 -22z" />
    <glyph glyph-name="H" unicode="H" horiz-adv-x="670" 
d="M447 448l44 249c2 12 9 18 21 18h152c14 0 20 -7.33301 18 -22l-119 -675c-2 -12 -9 -18 -21 -18h-152c-14 -0 -20 7.33301 -18 22l43 250h-157l-45 -254c-2 -12 -9 -18 -21 -18h-152c-14 -0 -20 7.33301 -18 22l119 675c2 12 9 18 21 18h152c14 0 20 -7.33301 18 -22
l-43 -245h158z" />
    <glyph glyph-name="I" unicode="I" horiz-adv-x="320" 
d="M332 693l-119 -675c-2 -12 -9 -18 -21 -18h-152c-14 -0 -20 7.33301 -18 22l119 675c2 12 9 18 21 18h152c14 0 20 -7.33301 18 -22z" />
    <glyph glyph-name="J" unicode="J" horiz-adv-x="532" 
d="M471 247c-14.667 -85.333 -48.332 -150.167 -100.999 -194.5s-120.334 -66.5 -203.001 -66.5c-74 0 -138.333 22 -193 66c-10 8 -11 17.333 -3 28l84 109c7.33301 10 16.666 11.333 27.999 4c28.667 -18.667 61 -28 97 -28c54.667 0 87.334 29 98.001 87l77 445
c2 12 9.33301 18 22 18h152c14.667 0 21 -7.33301 19 -22z" />
    <glyph glyph-name="K" unicode="K" horiz-adv-x="653" 
d="M496 715l195.999 0.000976562c8.66699 0 14.167 -2.5 16.5 -7.5s0.5 -10.833 -5.5 -17.5l-263 -295l178 -371c3.33301 -6.66699 3.5 -12.334 0.5 -17.001s-8.16699 -7 -15.5 -7h-172c-11.333 0 -19.666 5 -24.999 15l-103 245l-58 -60l-32 -182c-2 -12 -9 -18 -21 -18
h-152c-6.66699 0 -11.667 2 -15 6s-4.33301 9.33301 -3 16l120 675c2 12 9 18 21 18h152c14 0 20 -7.33301 18 -22l-39 -217l178 227c6 8 14 12 24 12z" />
    <glyph glyph-name="L" unicode="L" horiz-adv-x="523" 
d="M332 693l-91 -517h236c14 0 20 -7.33301 18 -22l-23 -136c-2 -12 -9 -18 -21 -18h-411c-14 -0 -20 7.33301 -18 22l119 675c2 12 9 18 21 18h152c14 0 20 -7.33301 18 -22z" />
    <glyph glyph-name="M" unicode="M" horiz-adv-x="862" 
d="M190 0l-148.999 -0.000976562c-6.66699 0 -11.667 2 -15 6s-4.33301 9.33301 -3 16l117 675c2 12 9.33301 18 22 18h171c12.667 0 20.334 -5.66699 23.001 -17l34 -125c27.333 -112 44.333 -185.667 51 -221h3c38 74.667 80.333 148.334 127 221.001l80 129
c5.33301 8.66699 13.333 13 24 13h181c14 0 20 -7.33301 18 -22l-118 -675c-2 -12 -9 -18 -21 -18h-150c-14 -0 -20 7.33301 -18 22l10 64c7.33301 44 30 153.667 68 329l-5 1c-32.667 -64.667 -75.334 -138.667 -128.001 -222l-23 -35
c-5.33301 -8.66699 -13.333 -13 -24 -13h-107c-12.667 0 -20.334 5.66699 -23.001 17l-9 30c-25.333 102.667 -42 177 -50 223l-5 -1c-12 -100.667 -27.333 -206.667 -46 -318l-12 -79c-2 -12 -9.66699 -18 -23 -18z" />
    <glyph glyph-name="N" unicode="N" horiz-adv-x="689" 
d="M190 0h-149.999c-14 -0 -20 7.33301 -18 22l119 675c2 12 9 18 21 18h157c13.333 0 21.333 -5.66699 24 -17l42 -150c27.333 -84.667 48.666 -164.667 63.999 -240l4 2c8 74 21 164.667 39 272l21 115c2 12 9 18 21 18h149c14 0 20 -7.33301 18 -22l-119 -675
c-2 -12 -9 -18 -21 -18h-157c-11.333 -0 -19 5.33301 -23 16l-45 130c-32.667 88 -57 176.333 -73 265l-4 -2c-9.33301 -132 -20.333 -233 -33 -303l-15 -88c-2 -12 -9 -18 -21 -18z" />
    <glyph glyph-name="O" unicode="O" horiz-adv-x="659" 
d="M616 258c-15.333 -87.333 -51.6699 -154.501 -109.003 -201.501s-132.333 -70.5 -225 -70.5c-85.333 0 -149.666 28.667 -192.999 86s-56.666 132 -39.999 224l30 168c14.667 83.333 50.834 148.333 108.501 195s131.5 70 221.5 70c85.333 0 150 -27.167 194 -81.5
s57.667 -129.166 41 -224.499zM241.996 272.999c-12.667 -72.667 10.667 -109.001 70 -109.001c29.333 0 53.333 9.33301 72 28s30.667 44.334 36 77.001l30 174c12.667 72 -10 108 -68 108c-59.333 0 -95.333 -34.333 -108 -103z" />
    <glyph glyph-name="P" unicode="P" horiz-adv-x="630" 
d="M162 715h231.998c90.667 0 156.667 -25 198 -75s54.333 -118 39 -204c-13.333 -72.667 -45.666 -131 -96.999 -175s-115.666 -66 -192.999 -66h-96l-32 -177c-2 -12 -9 -18 -21 -18h-152c-14 -0 -20 7.33301 -18 22l119 675c2 12 9 18 21 18zM337.998 370
c56.667 0 89 28 97 84c9.33301 56.667 -13 85 -67 85h-63l-30 -169h63z" />
    <glyph glyph-name="Q" unicode="Q" horiz-adv-x="664" 
d="M606 0l-124 -87c-10 -8 -19.333 -6.33301 -28 5l-55 84c-40 -10 -79 -15 -117 -15c-86.667 0 -151.334 28.167 -194.001 84.5s-55.667 131.166 -39 224.499l30 168c14.667 83.333 50.834 148.333 108.501 195s131.5 70 221.5 70c85.333 0 150 -27.167 194 -81.5
s57.667 -129.166 41 -224.499l-29 -165c-11.333 -61.333 -32.333 -112.333 -63 -153l57 -76c7.33301 -12 6.33301 -21.667 -3 -29zM242 273c-12.667 -72 10.666 -108 69.999 -108c29.333 0 53.333 9.33301 72 28s30.667 44 36 76l30 174
c12.667 72.667 -9.66602 109 -66.999 109c-60 0 -96.333 -34.667 -109 -104z" />
    <glyph glyph-name="R" unicode="R" horiz-adv-x="632" 
d="M193 0l-153 0.000976562c-14 0 -20 7.33301 -18 22l118 675c2 12 9 18 21 18h238c82 0 143.5 -24.833 184.5 -74.5s55.167 -112.834 42.5 -189.501c-15.333 -98 -68 -166.667 -158 -206l96 -222c6.66699 -15.333 1.66699 -23 -15 -23h-164c-11.333 -0 -19 5.33301 -23 16
l-68 203h-45l-35 -201c-2 -12 -9 -18 -21 -18zM305 540.001l-27 -150h66c26 0 45.833 5.66699 59.5 17s22.5 29.333 26.5 54c8 52.667 -12.333 79 -61 79h-64z" />
    <glyph glyph-name="S" unicode="S" horiz-adv-x="612" 
d="M575 194c-30 -138.667 -133.33 -207.998 -309.997 -207.998c-96.667 0 -180.667 33 -252 99c-9.33301 8.66699 -10 18 -2 28l88 112c7.33301 10.667 17 11.667 29 3c52 -42 105.667 -63 161 -63c56 0 86.333 16 91 48c2 14.667 -4.16699 26.5 -18.5 35.5
s-41.833 19.167 -82.5 30.5c-67.333 19.333 -119 49.166 -155 89.499s-48.667 92.5 -38 156.5c11.333 70 43.166 121.5 95.499 154.5s116.833 49.5 193.5 49.5c93.333 0 174.666 -24.667 243.999 -74c11.333 -7.33301 12.666 -16.666 3.99902 -27.999l-97 -116
c-8 -8.66699 -17.667 -10 -29 -4c-46 30 -94 45 -144 45c-44 0 -68 -13.333 -72 -40c-2 -13.333 4.16699 -24.333 18.5 -33s38.5 -18.334 72.5 -29.001l29 -9.5c7.33301 -2.33301 17.333 -6 30 -11s23.334 -9.83301 32.001 -14.5l30 -16.5
c11.333 -6.33301 20.833 -13.333 28.5 -21s15.667 -16.167 24 -25.5s14.666 -19.5 18.999 -30.5s8.16602 -22.833 11.499 -35.5s4.83301 -26.834 4.5 -42.501s-2.16602 -32.167 -5.49902 -49.5z" />
    <glyph glyph-name="T" unicode="T" horiz-adv-x="571" 
d="M111 715h506c14 0 20 -7.33301 18 -22l-24 -136c-2 -12 -9 -18 -21 -18h-158l-92 -521c-2 -12 -9 -18 -21 -18h-152c-14 -0 -20 7.33301 -18 22l91 517h-156c-14.667 0 -21 7.33301 -19 22l25 136c2 12 9 18 21 18z" />
    <glyph glyph-name="U" unicode="U" horiz-adv-x="665" 
d="M606 256c-30.667 -179.333 -136.668 -269 -318.001 -269c-86.667 0 -150 26.667 -190 80s-51.667 128.333 -35 225l72 405c2 12 9 18 21 18h155c14 0 20 -7.33301 18 -22l-75 -423c-13.333 -69.333 7.33398 -104 62.001 -104c25.333 0 46.5 8.66699 63.5 26
s28.5 42.333 34.5 75l73 430c2 12 9.33301 18 22 18h154c14.667 0 21 -7.33301 19 -22z" />
    <glyph glyph-name="V" unicode="V" horiz-adv-x="658" 
d="M374 0l-178 -0.000976562c-12.667 0 -20 6 -22 18l-96 676c-2 14 4.33301 21 19 21h156c13.333 0 20.333 -6.33301 21 -19l24 -241c11.333 -112 17.333 -190.667 18 -236h6c30.667 88 59 161 85 219l117 262c4 10 12 15 24 15h169c8 0 13.333 -2.16699 16 -6.5
s2.33398 -10.166 -0.999023 -17.499l-335 -676c-4.66699 -10 -12.334 -15 -23.001 -15z" />
    <glyph glyph-name="W" unicode="W" horiz-adv-x="975" 
d="M337 0l-175.999 -0.000976562c-12.667 0 -19.667 6.33301 -21 19l-61 675c-0.666992 14 5.66602 21 18.999 21h157c13.333 0 20 -6.66699 20 -20l4 -137c3.33301 -103.333 2.33301 -218.333 -3 -345h5c30 104 68.667 219 116 345l49 131c4 10.667 11.667 16 23 16h170
c12 0 18.667 -6.33301 20 -19l8 -140c6 -101.333 8.33301 -212.333 7 -333h5c38 128 76.333 245.333 115 352l50 134c4 10.667 11.667 16 23 16h164c7.33301 0 12.5 -2.16699 15.5 -6.5s3.16699 -9.83301 0.5 -16.5l-299 -677c-4 -10 -12 -15 -24 -15h-176
c-12 0 -18.667 6.33301 -20 19l-5 134c-2 50.667 -1.66699 155.334 1 314.001h-6c-18 -78.667 -43 -159.667 -75 -243l-82 -208c-5.33301 -10.667 -13.333 -16 -24 -16z" />
    <glyph glyph-name="X" unicode="X" horiz-adv-x="626" 
d="M492 715l176.001 -0.00195312c8 0 13.333 -2.16699 16 -6.5s1.66699 -10.166 -3 -17.499l-232 -335l126 -333c5.33301 -15.333 0 -23 -16 -23h-164c-11.333 0 -18.666 5.66699 -21.999 17l-64 204l-122 -207c-5.33301 -9.33301 -13.333 -14 -24 -14h-182
c-8.66699 0 -14.334 2.33301 -17.001 7s-1.66699 10.334 3 17.001l240 335l-106 333c-2 6.66699 -1.5 12.167 1.5 16.5s8.16699 6.5 15.5 6.5h158c11.333 0 18.666 -5.66699 21.999 -17l52 -204l118 207c5.33301 9.33301 13.333 14 24 14z" />
    <glyph glyph-name="Y" unicode="Y" horiz-adv-x="600" 
d="M330 0l-151.001 0.000976562c-14.667 0 -21 7.33301 -19 22l39 217l-121 454c-2 6.66699 -1.5 12 1.5 16s8.16699 6 15.5 6h158c12 0 19 -6 21 -18l50 -276h3l145 280c4.66699 9.33301 12.334 14 23.001 14h166c8 0 13.167 -2.33301 15.5 -7s1.5 -10.334 -2.5 -17.001
l-282 -457l-40 -216c-2 -12 -9.33301 -18 -22 -18z" />
    <glyph glyph-name="Z" unicode="Z" horiz-adv-x="605" 
d="M508 0l-501 -0.000976562c-15.333 0 -21.333 7.33301 -18 22l20 106c1.33301 6.66699 5.33301 14.334 12 23.001l334 391h-231c-14 0 -20 7.33301 -18 22l23 133c2 12 9 18 21 18h471c15.333 0 21.333 -7.33301 18 -22l-20 -104c-1.33301 -7.33301 -5 -15 -11 -23
l-326 -393h253c14 0 20 -7.33301 18 -22l-24 -133c-2 -12 -9 -18 -21 -18z" />
    <glyph glyph-name="bracketleft" unicode="[" horiz-adv-x="316" 
d="M285 685l-116 -658h58c14 0 20 -7.33301 18 -22l-18 -103c-2 -12 -9 -18 -21 -18h-193c-6.66699 0 -11.667 2 -15 6s-4.33301 9.33301 -3 16l158 904c2 12 9.33301 18 22 18h192c14.667 0 21 -7.33301 19 -22l-18 -103c-2.66699 -12 -10 -18 -22 -18h-61z" />
    <glyph glyph-name="backslash" unicode="\" horiz-adv-x="483" 
d="M402 0h-121c-11.333 0 -18.666 5.66699 -21.999 17l-162 676c-3.33301 14.667 2.66699 22 18 22h118c11.333 0 18.666 -5.66699 21.999 -17l165 -676c3.33301 -14.667 -2.66699 -22 -18 -22z" />
    <glyph glyph-name="bracketright" unicode="]" horiz-adv-x="315" 
d="M64 27l116.001 658h-58c-14 0 -20 7.33301 -18 22l18 103c2 12 9 18 21 18h193c6.66699 0 11.667 -2 15 -6s4.33301 -9.33301 3 -16l-158 -904c-2 -12 -9.33301 -18 -22 -18h-192c-14.667 0 -21 7.33301 -19 22l18 103c3.33301 12 10.666 18 21.999 18h61z" />
    <glyph glyph-name="asciicircum" unicode="^" 
d="M251 540h-125.998c-8.66699 0 -14 2.66699 -16 8s-0.333008 11.333 5 18l220 245c7.33301 7.33301 15.666 11 24.999 11h129c11.333 0 19.333 -4.66699 24 -14l132 -243c3.33301 -7.33301 3.66602 -13.333 0.999023 -18s-7.66699 -7 -15 -7h-131
c-10.667 0 -18.667 5.33301 -24 16l-73 146l-126 -150c-6.66699 -8 -15 -12 -25 -12z" />
    <glyph glyph-name="underscore" unicode="_" horiz-adv-x="542" 
d="M458 -36l-19 -106c-2 -12 -9 -18 -21 -18h-436c-14 0 -20 7.33301 -18 22l18 106c2 12 9 18 21 18h437c14 0 20 -7.33301 18 -22z" />
    <glyph glyph-name="grave" unicode="`" horiz-adv-x="244" 
d="M224 746l69.001 -128c3.33301 -6.66699 3.66602 -12.334 0.999023 -17.001s-8 -7 -16 -7h-76c-10 0 -18 4 -24 12l-94 130c-4.66699 6.66699 -5.66699 12.334 -3 17.001s8 7 16 7h103c10.667 0 18.667 -4.66699 24 -14z" />
    <glyph glyph-name="a" unicode="a" horiz-adv-x="508" 
d="M413 21c-68.667 -23.333 -138.668 -34.999 -210.001 -34.999c-77.333 0 -132.666 18.667 -165.999 56s-45.333 83 -36 137c8.66699 48 31.667 83.167 69 105.5s91 33.5 161 33.5c21.333 0 44.333 -2.33301 69 -7l-1 2c4 21.333 2.16699 36.833 -5.5 46.5
s-24.167 14.5 -49.5 14.5c-43.333 0 -80.333 -5.66699 -111 -17c-12.667 -5.33301 -21.334 -2 -26.001 10l-28 103c-4 12 -3 19.667 3 23c50.667 28.667 120.334 43 209.001 43c72 0 124.167 -23.333 156.5 -70s40.5 -112.334 24.5 -197.001l-40 -227
c-2 -10.667 -8.33301 -17.667 -19 -21zM180.999 174.001c-2.66699 -12.667 0.167969 -22.833 8.50098 -30.5s21.5 -11.5 39.5 -11.5c13.333 0 26.666 2 39.999 6l11 64c-18.667 4 -33 6 -43 6c-33.333 0 -52 -11.333 -56 -34z" />
    <glyph glyph-name="b" unicode="b" horiz-adv-x="542" 
d="M275 521c23.333 10 51.334 15.001 84.001 15.001c54 0 96.667 -22.333 128 -67s41.333 -99.334 30 -164.001l-18 -104c-11.333 -66.667 -39.333 -119.167 -84 -157.5s-105.334 -57.5 -182.001 -57.5c-78 0 -148.333 17.333 -211 52c-9.33301 5.33301 -13 14 -11 26
l114 633c2 12 9 18 21 18h142c14 0 20 -7.33301 18 -22zM317.001 216.001l19.001 110c2.66699 18 0.166992 32.5 -7.5 43.5s-18.834 16.5 -33.501 16.5c-18 0 -33.333 -3 -46 -9l-41 -228c14.667 -3.33301 29 -5 43 -5c35.333 0 57.333 24 66 72z" />
    <glyph glyph-name="c" unicode="c" horiz-adv-x="451" 
d="M395 24c-48 -25.333 -103.999 -38 -167.999 -38c-70 0 -124 21.833 -162 65.5s-50.667 101.5 -38 173.5l22 123c11.333 62.667 39.833 109.667 85.5 141s102.5 47 170.5 47c59.333 0 109.333 -15.333 150 -46c10 -7.33301 11 -16.666 3 -27.999l-69 -91
c-8 -8.66699 -17.667 -10 -29 -4c-16.667 9.33301 -36.334 14 -59.001 14c-40.667 0 -64.334 -18.667 -71.001 -56l-20 -113c-8.66699 -46 8.33301 -69 51 -69c22.667 0 47 6.66699 73 20c13.333 7.33301 22.333 4.66602 27 -8.00098l44 -103
c4.66699 -12 1.33398 -21.333 -9.99902 -28z" />
    <glyph glyph-name="d" unicode="d" horiz-adv-x="544" 
d="M441 23c-66.667 -24.667 -135.001 -37 -205.001 -37c-69.333 0 -125 22 -167 66s-56.333 100.333 -43 169l22 122c10.667 57.333 37 103.833 79 139.5s92 53.5 150 53.5c32.667 0 60.334 -6 83.001 -18l32 179c2 12 9 18 21 18h141c14.667 0 21 -7.33301 19 -22
l-113 -649c-2 -10.667 -8.33301 -17.667 -19 -21zM208.999 208c-8.66699 -41.333 5.66699 -62 43 -62c16 0 30.667 2 44 6l38 220c-11.333 9.33301 -25.666 14 -42.999 14c-32.667 0 -53.334 -23.667 -62.001 -71z" />
    <glyph glyph-name="e" unicode="e" horiz-adv-x="524" 
d="M49 343c11.333 62.667 39.668 110.502 85.001 143.502s102.333 49.5 171 49.5c70.667 0 124.5 -18.833 161.5 -56.5s49.167 -92.834 36.5 -165.501l-16 -92c-2 -12 -9.33301 -18 -22 -18h-256l-1 -2c-8 -44 9.66699 -66 53 -66c38 0 76.333 11 115 33
c12.667 7.33301 21.667 5 27 -7l46 -93c5.33301 -11.333 2.66602 -20.333 -8.00098 -27c-57.333 -37.333 -126 -56 -206 -56c-72.667 0 -128.667 20.667 -168 62s-53.333 94.666 -42 159.999zM325.002 313.002l3 18c4.66699 37.333 -8.33301 56 -39 56
c-15.333 0 -27.833 -4.83301 -37.5 -14.5s-16.167 -22.5 -19.5 -38.5l-4 -21h97z" />
    <glyph glyph-name="f" unicode="f" horiz-adv-x="350" 
d="M386 566c-10 2.66699 -27.3301 4.00098 -51.9971 4.00098c-32.667 0 -52.334 -18.667 -59.001 -56l-1 -11h81c14 0 20 -7.33301 18 -22l-19 -112c-2 -12 -9.33301 -18 -22 -18h-86l-59 -333c-2 -12 -9.33301 -18 -22 -18h-141c-14 0 -20 7.33301 -18 22l90 513
c11.333 64.667 35.666 113.167 72.999 145.5s90.666 48.5 159.999 48.5c33.333 0 59.333 -1.66699 78 -5c12.667 -2.66699 18 -10.667 16 -24l-20 -117c-0.666992 -6.66699 -2.5 -11.334 -5.5 -14.001s-6.83301 -3.66699 -11.5 -3z" />
    <glyph glyph-name="g" unicode="g" horiz-adv-x="545" 
d="M464 65c-17.333 -102.667 -46.6709 -173 -88.0039 -211s-110 -57 -206 -57c-75.333 0 -135.666 18.333 -180.999 55c-11.333 8 -12.666 17.333 -3.99902 28l75 95c8 10 17.667 11.333 29 4c26 -14.667 59 -22 99 -22c49.333 0 79 22.333 89 67
c-25.333 -6.66699 -50.666 -10 -75.999 -10c-64.667 0 -112.5 21.167 -143.5 63.5s-40.5 96.5 -28.5 162.5l17 89c12 68 41.333 119.5 88 154.5s105.334 52.5 176.001 52.5c75.333 0 146.333 -13 213 -39c10.667 -4.66699 15 -13 13 -25zM211.995 224
c-7.33301 -39.333 7.00098 -59 43.001 -59c19.333 0 34.666 3.66699 45.999 11l34 194c-8 5.33301 -21.333 8 -40 8c-38 0 -59.667 -18 -65 -54z" />
    <glyph glyph-name="h" unicode="h" horiz-adv-x="547" 
d="M274 519c24 11.333 53.332 17 87.999 17c58.667 0 101.334 -22.333 128.001 -67s33.667 -103 21 -175l-48 -276c-2 -12 -9 -18 -21 -18h-141c-14 -0 -20 7.33301 -18 22l50 291c3.33301 22 1.83301 38.333 -4.5 49s-19.833 16 -40.5 16c-14.667 0 -28 -2.66699 -40 -8
l-62 -352c-2 -12 -9 -18 -21 -18h-141c-14 -0 -20 7.33301 -18 22l119 675c2 12 9 18 21 18h139c14.667 0 21 -7.33301 19 -22z" />
    <glyph glyph-name="i" unicode="i" horiz-adv-x="276" 
d="M165 0h-141c-14.667 -0 -21 7.33301 -19 22l85 482c2 12 9.33301 18 22 18h141c14 0 20 -7.33301 18 -22l-85 -482c-2 -12 -9 -18 -21 -18zM307 668c-5.33301 -24.667 -17.501 -45.167 -36.501 -61.5s-42.167 -24.5 -69.5 -24.5c-29.333 0 -52.166 11 -68.499 33
s-21.5 48.667 -15.5 80c5.33301 26 17.333 46.667 36 62s41.667 23 69 23c30 0 53.167 -10.5 69.5 -31.5s21.5 -47.833 15.5 -80.5z" />
    <glyph glyph-name="j" unicode="j" horiz-adv-x="284" 
d="M192 0c-13.333 -78 -39.499 -131.334 -78.499 -160.001s-88.833 -43 -149.5 -43c-16 0 -32.667 1.33301 -50 4c-12 2 -17 10 -15 24l22 126c2 12.667 8.33301 18.334 19 17.001c3.33301 -0.666992 8.66602 -1 15.999 -1c32 0 51.333 18.667 58 56l83 481c2 12 9 18 21 18
h142c14 0 20 -7.33301 18 -22zM309.001 667.999c-4.66699 -24.667 -16.5 -45.167 -35.5 -61.5s-42.167 -24.5 -69.5 -24.5c-30 0 -53.167 11 -69.5 33s-21.5 48.667 -15.5 80c5.33301 26 17.333 46.667 36 62s41.667 23 69 23c30 0 53.167 -10.5 69.5 -31.5
s21.5 -47.833 15.5 -80.5z" />
    <glyph glyph-name="k" unicode="k" horiz-adv-x="525" 
d="M374 522h162.999c8.66699 0 14 -2.5 16 -7.5s0.333008 -10.833 -5 -17.5l-173 -195l108 -279c5.33301 -15.333 0 -23 -16 -23h-152c-11.333 0 -18.666 5.66699 -21.999 17l-45 153l-42 -42l-19 -110c-2 -12 -9.33301 -18 -22 -18h-141c-14 -0 -20 7.33301 -18 22l120 675
c2 12 9 18 21 18h141c14.667 0 21 -7.33301 19 -22l-56 -315l99 132c6 8 14 12 24 12z" />
    <glyph glyph-name="l" unicode="l" horiz-adv-x="309" 
d="M247 -8c-18.667 -4 -38.6641 -6.00195 -59.9971 -6.00195c-56.667 0 -99.334 20.833 -128.001 62.5s-37.334 94.5 -26.001 158.5l86 490c2 12 9 18 21 18h141c14 0 20 -7.33301 18 -22l-87 -493c-6.66699 -37.333 6.66602 -56 39.999 -56h8
c7.33301 0.666992 12.5 -0.666016 15.5 -3.99902s4.16699 -8.66602 3.5 -15.999l-20 -113c-2 -10.667 -6 -17 -12 -19z" />
    <glyph glyph-name="m" unicode="m" horiz-adv-x="795" 
d="M429 497c48 26 94.667 38.999 140 38.999c70.667 0 123.167 -24.167 157.5 -72.5s44.833 -110.166 31.5 -185.499l-47 -260c-2 -12 -9 -18 -21 -18h-138c-14 -0 -20 7.33301 -18 22l50 287c8 46.667 -7.33301 70 -46 70c-16 0 -29.667 -3.33301 -41 -10
c3.33301 -32 2.33301 -62.333 -3 -91l-46 -260c-2 -12 -9 -18 -21 -18h-138c-14 -0 -20 7.33301 -18 22l50 287c8 46.667 -5 70 -39 70c-16 0 -28.667 -2.33301 -38 -7l-62 -354c-2 -12 -9.33301 -18 -22 -18h-139c-14 -0 -20 7.33301 -18 22l81 452c2 10 8 17 18 21
c68 27.333 136 41 204 41c48.667 0 89.667 -13 123 -39z" />
    <glyph glyph-name="n" unicode="n" horiz-adv-x="547" 
d="M165 0h-143c-14 -0 -20 7.33301 -18 22l80 452c2 10 7.66699 17 17 21c71.333 27.333 141 41 209 41c78.667 0 135 -22.167 169 -66.5s44.667 -104.5 32 -180.5l-48 -271c-2 -12 -9 -18 -21 -18h-141c-14 -0 -20 7.33301 -18 22l48 287c8 46.667 -7 70 -45 70
c-18 0 -31 -2.33301 -39 -7l-61 -354c-2 -12 -9 -18 -21 -18z" />
    <glyph glyph-name="o" unicode="o" horiz-adv-x="544" 
d="M497 189c-23.333 -135.333 -114.001 -203.002 -272.001 -203.002c-68.667 0 -122 22.5 -160 67.5s-51.333 100.833 -40 167.5l20 114c11.333 64.667 40.333 114.334 87 149.001s106.667 52 180 52c69.333 0 123.833 -21.667 163.5 -65s53.834 -97.666 42.501 -162.999z
M206.999 201.998c-3.33301 -18 -1.16406 -32.166 6.50293 -42.499s19.5 -15.5 35.5 -15.5c35.333 0 56.666 18 63.999 54l22 120c3.33301 18 1.16602 32.667 -6.50098 44s-19.834 17 -36.501 17s-30.5 -4.83301 -41.5 -14.5s-18.167 -22.834 -21.5 -39.501z" />
    <glyph glyph-name="p" unicode="p" horiz-adv-x="543" 
d="M101 498c66.667 25.333 135.334 37.998 206.001 37.998c70 0 125.667 -21.667 167 -65s55.666 -99.666 42.999 -168.999l-21 -122c-10.667 -57.333 -37 -104 -79 -140s-92 -54 -150 -54c-32 0 -60 6 -84 18l-31 -176c-2 -12 -9 -18 -21 -18h-142
c-14 0 -20 7.33301 -18 22l113 646c2 10.667 7.66699 17.334 17 20.001zM316 206.998l19 108c7.33301 42 -7.33398 63 -44.001 63c-18 0 -32.333 -2.66699 -43 -8l-39 -220c12.667 -9.33301 26.334 -14 41.001 -14c35.333 0 57.333 23.667 66 71z" />
    <glyph glyph-name="q" unicode="q" horiz-adv-x="542" 
d="M396 -190h-141.001c-14 0 -20 7.33301 -18 22l30 171c-22.667 -11.333 -50.667 -17 -84 -17c-54 0 -96.833 22.5 -128.5 67.5s-41.5 99.833 -29.5 164.5l19 104c11.333 66 39.333 118.167 84 156.5s105.334 57.5 182.001 57.5c77.333 0 147.333 -17.333 210 -52
c10 -6 13.667 -14.667 11 -26l-113 -630c-2.66699 -12 -10 -18 -22 -18zM206.999 197c-2.66699 -18 -0.333008 -32.5 7 -43.5s18.333 -16.5 33 -16.5c17.333 0 33 3 47 9l40 227c-10 3.33301 -24 5 -42 5c-36.667 0 -58.667 -23.667 -66 -71z" />
    <glyph glyph-name="r" unicode="r" horiz-adv-x="358" 
d="M165 0h-142.002c-14 -0 -20 7.33301 -18 22l78 448c2 10 7.66699 17.333 17 22c62 29.333 127.333 44 196 44c22.667 0 47.334 -3 74.001 -9c12.667 -2.66699 18 -10.667 16 -24l-21 -121c-2 -12.667 -10 -18 -24 -16c-13.333 2 -26.666 3 -39.999 3
c-19.333 0 -37.333 -3 -54 -9l-61 -342c-2 -12 -9 -18 -21 -18z" />
    <glyph glyph-name="s" unicode="s" horiz-adv-x="495" 
d="M454 153c-20 -111.333 -101.333 -167.002 -244 -167.002c-82 0 -152.667 22.333 -212 67c-9.33301 8 -10.333 17.333 -3 28l70 95c7.33301 9.33301 17 10.666 29 3.99902c38.667 -25.333 79 -38 121 -38c33.333 0 51.666 8 54.999 24
c1.33301 9.33301 -2.5 15.833 -11.5 19.5s-23.5 7.16699 -43.5 10.5c-62.667 10.667 -108 32.334 -136 65.001s-36.667 74 -26 124c22.667 100.667 105.334 151 248.001 151c66 0 126 -15 180 -45c12.667 -7.33301 14.334 -16.666 5.00098 -27.999l-71 -94
c-6.66699 -9.33301 -15.667 -11 -27 -5c-29.333 15.333 -64 23 -104 23c-30.667 0 -47.334 -6.33301 -50.001 -19c-1.33301 -8 2.5 -13.667 11.5 -17s27.5 -7.66602 55.5 -12.999c20 -4 38.5 -9.5 55.5 -16.5s34.833 -17.167 53.5 -30.5s32 -31.833 40 -55.5
s9.33301 -51.167 4 -82.5z" />
    <glyph glyph-name="t" unicode="t" horiz-adv-x="349" 
d="M314 354l-73 0.000976562l-27 -152c-6.66699 -38 8 -57 44 -57c2.66699 0 6.33398 0.166992 11.001 0.5s8 0.5 10 0.5c7.33301 1.33301 12.833 0.166016 16.5 -3.50098s4.83398 -9.16699 3.50098 -16.5l-20 -113c-2 -11.333 -8.33301 -18 -19 -20
c-20 -4.66699 -40.667 -7 -62 -7c-64.667 0 -111.334 19.5 -140.001 58.5s-36.334 96.5 -23.001 172.5l71 410c2 12 9.33301 18 22 18h123c14 0 20.667 -7 20 -21l-6 -118h71c14 0 20 -7.33301 18 -22l-19 -112c-2 -12 -9 -18 -21 -18z" />
    <glyph glyph-name="u" unicode="u" horiz-adv-x="543" 
d="M379 522h143c14 0 20 -7.33301 18 -22l-80 -452c-2 -10 -7.66699 -17 -17 -21c-70 -27.333 -139.333 -41 -208 -41c-77.333 0 -132.833 22.333 -166.5 67s-44.167 105 -31.5 181l48 270c2 12 9 18 21 18h141c14 0 20 -7.33301 18 -22l-48 -287
c-8 -46.667 6.33301 -70 43 -70c14 0 26.333 2.33301 37 7l61 354c2 12 9 18 21 18z" />
    <glyph glyph-name="v" unicode="v" horiz-adv-x="523" 
d="M296 0l-157 0.000976562c-12.667 0 -20.334 6 -23.001 18l-70 483c-2 14 4.33301 21 19 21h141c12.667 0 19.667 -6.33301 21 -19l15 -185c4 -53.333 6.33301 -96 7 -128h2l47 127l76 189c4 10.667 11.667 16 23 16h149c7.33301 0 12.333 -2.33301 15 -7
s2.33398 -10.334 -0.999023 -17.001l-240 -483c-6 -10 -14 -15 -24 -15z" />
    <glyph glyph-name="w" unicode="w" horiz-adv-x="755" 
d="M259 0l-150.001 -0.00195312c-12.667 0 -19.667 6.33301 -21 19l-40 482c-1.33301 14 5 21 19 21h140c13.333 0 20 -6.66699 20 -20l1 -164c0 -12 -0.666992 -33 -2 -63l-3 -68h5c14 48.667 28.667 95.334 44 140.001l54 152c4 10.667 11.667 16 23 16h141
c13.333 0 20 -6.66699 20 -20l2 -146c0 -64.667 -0.333008 -112 -1 -142h4c10 36 23.667 79.667 41 131l56 168c4 10.667 11.667 16 23 16h139c16.667 0 21.667 -7.66699 15 -23l-207 -484c-4 -10 -12.333 -15 -25 -15h-149c-13.333 0 -20 6.66699 -20 20l-3 140
c-1.33301 50.667 -1.33301 93 0 127h-4l-12.5 -37.5l-18 -54.5c-6.33301 -19.333 -10.166 -30.666 -11.499 -33.999l-56 -145c-4 -10.667 -12 -16 -24 -16z" />
    <glyph glyph-name="x" unicode="x" horiz-adv-x="519" 
d="M375 522h160.001c8 0 13.333 -2.33301 16 -7s1.66699 -10.334 -3 -17.001l-153 -241l88 -234c5.33301 -15.333 0 -23 -16 -23h-168c-12.667 0 -20 6 -22 18l-34 123l-72 -127c-5.33301 -9.33301 -13.333 -14 -24 -14h-165c-8 0 -13.333 2.33301 -16 7
s-1.66699 10.334 3 17.001l165 250l-85 225c-4.66699 15.333 0.666016 23 15.999 23h171c12 0 19 -6 21 -18l23 -131l71 135c4.66699 9.33301 12.667 14 24 14z" />
    <glyph glyph-name="y" unicode="y" horiz-adv-x="540" 
d="M297 176l58.001 328.001c2 12 9 18 21 18h140c14 0 20 -7.33301 18 -22l-77 -435c-17.333 -99.333 -47.333 -168.833 -90 -208.5s-109 -59.5 -199 -59.5c-73.333 0 -132.333 17.333 -177 52c-10 7.33301 -11 16.666 -3 27.999l74 98c7.33301 10 16.666 11.667 27.999 5
c24.667 -15.333 56.667 -23 96 -23c26.667 0 46.667 5 60 15s22.333 28 27 54c-23.333 -8 -47.666 -12 -72.999 -12c-62.667 0 -108.167 21.667 -136.5 65s-36.5 100.333 -24.5 171l45 254c2 12 9 18 21 18h141c14 0 20 -7.33301 18 -22l-48 -268
c-8.66699 -43.333 3.66602 -65 36.999 -65c19.333 0 34 3 44 9z" />
    <glyph glyph-name="z" unicode="z" horiz-adv-x="494" 
d="M401 0h-397c-14 -0 -20 7.33301 -18 22l15 81c2 9.33301 6 17 12 23l217 241h-147c-14 0 -20 7.66699 -18 23l21 114c2 12 9 18 21 18h375c14 0 20 -7.33301 18 -22l-13 -76c-2 -9.33301 -5.66699 -17 -11 -23l-217 -245h166c14.667 0 21 -7.66699 19 -23l-22 -115
c-2 -12 -9 -18 -21 -18z" />
    <glyph glyph-name="braceleft" unicode="{" horiz-adv-x="345" 
d="M234 -116l-55.998 0.00390625c-45.333 0 -79.333 15.667 -102 47s-29.334 73 -20.001 125l26 148c11.333 52.667 1 82.667 -31 90c-14 3.33301 -20 10.666 -18 21.999l13 83c2 9.33301 8.66699 15.666 20 18.999c19.333 5.33301 35.166 17.666 47.499 36.999
s20.5 41 24.5 65l25 148c10.667 57.333 29.167 98.333 55.5 123s64.833 37 115.5 37h62c14 0 20 -7.33301 18 -22l-18 -107c-2 -12 -9 -18 -21 -18h-11c-12.667 0 -24.167 -4.5 -34.5 -13.5s-16.833 -21.5 -19.5 -37.5l-25 -141
c-5.33301 -32.667 -17.5 -61.334 -36.5 -86.001s-41.833 -41.667 -68.5 -51c19.333 -8 35 -25.667 47 -53s15 -56.666 9 -87.999l-25 -141c-2.66699 -14.667 -2 -24.834 2 -30.501s12.333 -8.5 25 -8.5h18c14 0 20 -7.33301 18 -22l-19 -107c-2 -12 -9 -18 -21 -18z" />
    <glyph glyph-name="bar" unicode="|" horiz-adv-x="281" 
d="M136 -139h-127c-6.66699 0 -11.667 2 -15 6s-4.33301 9.33301 -3 16l168 960c2 12 9.33301 18 22 18h127c14 0 20 -7.33301 18 -22l-169 -960c-2 -12 -9 -18 -21 -18z" />
    <glyph glyph-name="braceright" unicode="}" horiz-adv-x="344" 
d="M144 829l55.998 -0.00390625c45.333 0 79.333 -15.667 102 -47s29.334 -73 20.001 -125l-26 -148c-11.333 -52.667 -1 -82.667 31 -90c14 -3.33301 20 -10.666 18 -21.999l-13 -83c-2 -9.33301 -8.66699 -15.666 -20 -18.999
c-19.333 -5.33301 -35.166 -17.666 -47.499 -36.999s-20.5 -41 -24.5 -65l-25 -148c-10.667 -57.333 -29.167 -98.333 -55.5 -123s-64.833 -37 -115.5 -37h-62c-14 0 -20 7.33301 -18 22l18 107c2 12 9 18 21 18h11c12.667 0 24.167 4.5 34.5 13.5s16.833 21.5 19.5 37.5
l25 141c5.33301 32.667 17.5 61.334 36.5 86.001s41.833 41.667 68.5 51c-19.333 8 -35 25.667 -47 53s-15 56.666 -9 87.999l25 141c2.66699 14.667 2 24.834 -2 30.501s-12.333 8.5 -25 8.5h-18c-14 0 -20 7.33301 -18 22l19 107c2 12 9 18 21 18z" />
    <glyph glyph-name="asciitilde" unicode="~" 
d="M577 278c-41.333 -46 -88.6631 -69 -141.996 -69c-30.667 0 -61.834 8.5 -93.501 25.5s-57.5 25.5 -77.5 25.5c-30 0 -55.333 -9.66699 -76 -29c-10.667 -9.33301 -20.334 -9 -29.001 1l-72 87c-8 10 -8 19.333 0 28c39.333 50.667 88.666 76 147.999 76
c27.333 0 59 -8.5 95 -25.5s63 -25.5 81 -25.5c27.333 0 51.333 9.66699 72 29c10.667 10.667 20 10.667 28 0l71 -89c7.33301 -10 5.66602 -21.333 -5.00098 -34z" />
    <glyph glyph-name="exclamdown" unicode="&#xa1;" horiz-adv-x="271" 
d="M124 -190h-130c-14.667 0 -21 7.33301 -19 22l28 165l59 265c2 12 9.33301 18 22 18h106c14.667 0 21 -7 19 -21l-34 -262l-30 -169c-2 -12 -9 -18 -21 -18zM263 422c-5.33301 -26 -17.499 -46.998 -36.499 -62.998s-42.5 -24 -70.5 -24
c-30.667 0 -54.334 10.667 -71.001 32s-22 48.666 -16 81.999c4.66699 25.333 16.667 46.166 36 62.499s43 24.5 71 24.5c30 0 53.5 -11 70.5 -33s22.5 -49 16.5 -81z" />
    <glyph glyph-name="cent" unicode="&#xa2;" horiz-adv-x="483" 
d="M258 -107l-95 -0.000976562c-14 0 -20 7.33301 -18 22l14 82c-46.667 14.667 -81.167 42.167 -103.5 82.5s-28.5 88.833 -18.5 145.5l22 123c9.33301 52 31 93.333 65 124s76.667 50.334 128 59.001l14 79c2 12 9 18 21 18h95c14 0 20 -7.33301 18 -22l-13 -78
c30.667 -8 57 -20.667 79 -38c10 -7.33301 11 -16.666 3 -27.999l-70 -91c-7.33301 -8.66699 -16.666 -10 -27.999 -4c-17.333 9.33301 -37 14 -59 14c-41.333 0 -65.333 -18.667 -72 -56l-20 -113c-8 -46 9.33301 -69 52 -69c23.333 0 47.333 6.66699 72 20
c13.333 7.33301 22.333 4.66602 27 -8.00098l45 -103c5.33301 -12 2.66602 -21 -8.00098 -27c-34 -18.667 -72.333 -30.667 -115 -36l-14 -78c-2 -12 -9 -18 -21 -18z" />
    <glyph glyph-name="sterling" unicode="&#xa3;" horiz-adv-x="546" 
d="M450 0l-434.999 0.000976562c-14 0 -20 7.33301 -18 22l20 115c2 9.33301 9 15.666 21 18.999c37.333 8 61 41.333 71 100l5 26h-49c-14 0 -20 7.33301 -18 22l20 112c2 12.667 9 19 21 19h56l15 74c12 70.667 38.167 125 78.5 163s93.833 57 160.5 57
c72.667 0 131.334 -20.333 176.001 -61c9.33301 -8.66699 9.66602 -18 0.999023 -28l-81 -89c-8 -8.66699 -17.667 -10 -29 -4c-24.667 14 -50.334 21 -77.001 21c-36.667 0 -59 -24 -67 -72l-10 -61h102c14 0 20 -7.66699 18 -23l-20 -112c-2 -12 -9 -18 -21 -18h-105
l-4 -25c-10.667 -48.667 -33 -83 -67 -103h260c14 0 20 -7.66699 18 -23l-20 -113c-2 -12 -9.33301 -18 -22 -18z" />
    <glyph glyph-name="currency" unicode="&#xa4;" horiz-adv-x="612" 
d="M390 132c-38 -18 -77.001 -27 -117.001 -27s-73.667 7.66699 -101 23l-69 -62c-10 -9.33301 -19.667 -8.33301 -29 3l-47 64c-7.33301 10.667 -6.66602 20 2.00098 28l65 57c-13.333 36.667 -16 79.334 -8 128.001c8 45.333 24 84.333 48 117l-40 53
c-9.33301 10 -8.66602 19.333 2.00098 28l76 67c11.333 10 21 9.33301 29 -2l39 -51c36 18.667 75.333 28 118 28c44.667 0 82.667 -10.667 114 -32l67 58c10 9.33301 19.333 8.66602 28 -2.00098l48 -63c7.33301 -10.667 6.66602 -20 -2.00098 -28l-72 -64
c10 -31.333 11 -67.666 3 -108.999c-8 -44.667 -23.667 -84.334 -47 -119.001l50 -66c8 -10 7 -19.333 -3 -28l-77 -67c-11.333 -8.66699 -21 -8 -29 2zM227.999 346c-4.66699 -27.333 -0.5 -49.5 12.5 -66.5s32.5 -25.5 58.5 -25.5c25.333 0 47.5 8.5 66.5 25.5
s31.167 39.167 36.5 66.5c4.66699 27.333 0.5 49.333 -12.5 66s-32.5 25 -58.5 25c-25.333 0 -47.5 -8.5 -66.5 -25.5s-31.167 -38.833 -36.5 -65.5z" />
    <glyph glyph-name="yen" unicode="&#xa5;" horiz-adv-x="638" 
d="M349 0l-149.002 0.000976562c-14 0 -20 7.33301 -18 22l7 47h-101c-14.667 0 -21 7.33301 -19 22l16 81c2 12.667 9 19 21 19h105l7 35h-102c-14 0 -20 7.33301 -18 22l15 91c2 12 9 18 21 18h52l-85 336c-3.33301 14.667 2.33398 22 17.001 22h155
c12.667 0 20 -6 22 -18l46 -291h4l134 294c4.66699 10 12.334 15 23.001 15h171c8 0 13.333 -2.33301 16 -7s2 -10.334 -2 -17.001l-201 -334h39c14 0 20 -7.66699 18 -23l-16 -90c-2 -12 -9 -18 -21 -18h-98l-6 -35h94c14 0 20 -7.66699 18 -23l-15 -81
c-2 -12 -9 -18 -21 -18h-99l-9 -51c-2 -12 -9 -18 -21 -18z" />
    <glyph glyph-name="brokenbar" unicode="&#xa6;" horiz-adv-x="284" 
d="M235 413h-127c-14.667 0 -21 7.33301 -19 22l72 408c2 12 9.33301 18 22 18h127c14 0 20 -7.33301 18 -22l-72 -408c-2 -12 -9 -18 -21 -18zM138 -139h-128c-14.667 0 -21 7.33301 -19 22l73 410c2 12 9.33301 18 22 18h127c14 0 20 -7.33301 18 -22l-72 -410
c-2 -12 -9 -18 -21 -18z" />
    <glyph glyph-name="section" unicode="&#xa7;" horiz-adv-x="502" 
d="M191 305c-3.33301 -16.667 3.16699 -31.3311 19.5 -43.998s40.166 -22.334 71.499 -29.001c16.667 16 26.334 33.333 29.001 52c4 28 -24.667 49.667 -86 65c-20 -14.667 -31.333 -29.334 -34 -44.001zM428 20.0029c-10.667 -56.667 -37.166 -102.337 -79.499 -137.004
s-94.5 -52 -156.5 -52c-94 0 -160 37 -198 111c-4.66699 10.667 -2 19.667 8 27l98 65c10.667 6.66699 19.667 4.33398 27 -6.99902c16.667 -24.667 41.334 -37 74.001 -37c14.667 0 27.5 3.66699 38.5 11s17.5 16.666 19.5 27.999c2 12.667 -3.16699 23.334 -15.5 32.001
s-32.833 19.334 -61.5 32.001c-56 24.667 -94 47.334 -114 68.001c-30 31.333 -41.333 70.333 -34 117c10 62 41.667 108.667 95 140c-26.667 38 -35.667 82 -27 132c8.66699 53.333 34.5 96.5 77.5 129.5s93.5 49.5 151.5 49.5c64 0 114.667 -21.667 152 -65
c8.66699 -9.33301 8 -19 -2 -29l-86 -71c-8 -7.33301 -17.333 -7.33301 -28 0c-16.667 11.333 -35.334 17 -56.001 17c-15.333 0 -27.833 -3.66699 -37.5 -11s-15.167 -17 -16.5 -29c-0.666992 -10.667 3.5 -21 12.5 -31s18.167 -17.667 27.5 -23s24.333 -13 45 -23
c24 -11.333 42.167 -20.666 54.5 -27.999s26.833 -18.333 43.5 -33s27.667 -32 33 -52s5.33301 -42.667 0 -68c-10.667 -52.667 -38 -96 -82 -130c35.333 -30 47.666 -74.333 36.999 -133z" />
    <glyph glyph-name="dieresis" unicode="&#xa8;" horiz-adv-x="371" 
d="M231 676c-10.667 -54.667 -40.6689 -81.998 -90.002 -81.998c-22.667 0 -40.667 7.66699 -54 23s-17.666 35.666 -12.999 60.999s15.334 45.166 32.001 59.499s37.334 21.5 62.001 21.5c22 0 39.167 -7.83301 51.5 -23.5s16.166 -35.5 11.499 -59.5zM444.998 676.002
c-10.667 -54.667 -41 -81.999 -91 -81.999c-22.667 0 -40.5 7.66699 -53.5 23s-17.167 35.666 -12.5 60.999c4.66699 26 15.334 46 32.001 60s37 21 61 21c22.667 0 40.167 -7.83301 52.5 -23.5s16.166 -35.5 11.499 -59.5z" />
    <glyph glyph-name="copyright" unicode="&#xa9;" horiz-adv-x="766" 
d="M747 348c-19.333 -112.667 -67 -201.166 -143 -265.499s-163.667 -96.5 -263 -96.5c-46.667 0 -89.834 8.66699 -129.501 26s-73.167 41.5 -100.5 72.5s-46.666 69.667 -57.999 116s-12 96.5 -2 150.5c20 117.333 69 209.666 147 276.999s168 101 270 101
c92.667 0 167 -35.5 223 -106.5s74.667 -162.5 56 -274.5zM138 351.001c-16 -86.667 -2.99902 -154.167 39.001 -202.5s102 -72.5 180 -72.5c73.333 0 138.5 24.167 195.5 72.5s92.833 115.833 107.5 202.5c15.333 90.667 3 161.167 -37 211.5s-97 75.5 -171 75.5
c-76.667 0 -144.334 -25 -203.001 -75s-95.667 -120.667 -111 -212zM510.001 191.001c-36.667 -29.333 -82.3359 -44 -137.003 -44c-48 0 -86.667 15.333 -116 46s-39.333 72.667 -30 126l12 63c10 56.667 33.5 99.667 70.5 129s82.167 44 135.5 44
c44.667 0 81.334 -11.333 110.001 -34c10 -8 10.667 -17.333 2 -28l-60 -72c-7.33301 -9.33301 -16.666 -11 -27.999 -5c-13.333 7.33301 -28 11 -44 11c-26.667 0 -43 -16 -49 -48l-10 -53c-3.33301 -16.667 -1.66602 -29.167 5.00098 -37.5s16.334 -12.5 29.001 -12.5
c18.667 0 36 5.33301 52 16c12.667 8.66699 22 6.66699 28 -6l35 -68c5.33301 -11.333 3.66602 -20.333 -5.00098 -27z" />
    <glyph glyph-name="guillemotleft" unicode="&#xab;" horiz-adv-x="580" 
d="M267 71l-123.999 -0.000976562c-10.667 0 -18.334 5 -23.001 15l-89 190c-4.66699 10.667 -3.66699 20 3 28l158 195c6 8 14 12 24 12h126c8.66699 0 14.167 -2.5 16.5 -7.5s0.833008 -10.833 -4.5 -17.5l-163 -195l91 -196c3.33301 -7.33301 3.5 -13.166 0.5 -17.499
s-8.16699 -6.5 -15.5 -6.5zM504.001 70.999l-123.999 -0.000976562c-10.667 0 -18.334 5 -23.001 15l-89 190c-4.66699 10.667 -3.66699 20 3 28l158 195c6 8 14 12 24 12h126c8.66699 0 14.167 -2.5 16.5 -7.5s0.833008 -10.833 -4.5 -17.5l-163 -195l91 -196
c3.33301 -7.33301 3.5 -13.166 0.5 -17.499s-8.16699 -6.5 -15.5 -6.5z" />
    <glyph glyph-name="logicalnot" unicode="&#xac;" 
d="M511 100h-112c-16 0 -22.333 7.33301 -19 22l26 143h-308c-14 0 -20 7.33301 -18 22l19 116c2 12 9 18 21 18h443c14 0 20 -7.33301 18 -22l-49 -281c-2 -12 -9 -18 -21 -18z" />
    <glyph glyph-name="registered" unicode="&#xae;" horiz-adv-x="462" 
d="M475 517c-11.333 -64 -38.832 -114.001 -82.499 -150.001s-94.834 -54 -153.501 -54c-52.667 0 -95.667 19.333 -129 58s-44.666 89 -33.999 151c12 64.667 39.667 115.334 83 152.001s94.333 55 153 55c52.667 0 95.667 -19.5 129 -58.5s44.666 -90.167 33.999 -153.5z
M126.001 520.999c-8.66699 -50 -1.33301 -89.167 22 -117.5s56.666 -42.5 99.999 -42.5c42.667 0 80.667 14.167 114 42.5s54.333 67.5 63 117.5c8 51.333 0.5 91 -22.5 119s-55.833 42 -98.5 42c-43.333 0 -81.666 -14 -114.999 -42s-54.333 -67.667 -63 -119z
M221.002 421.999h-21.9971c-7.33301 0 -10.333 3.33301 -9 10l31 184c0.666992 8 5.33398 12 14.001 12h68c22.667 0 40 -5.66699 52 -17s16 -28.333 12 -51c-6.66699 -36 -26.334 -57.333 -59.001 -64l34 -62c5.33301 -8 2.66602 -12 -8.00098 -12h-27
c-6.66699 0 -11.334 2.66699 -14.001 8l-32 62h-16l-10 -60c-0.666992 -6.66699 -5.33398 -10 -14.001 -10zM261.005 583.999l-9.00098 -50h31c20.667 0 32.334 8.66699 35.001 26c1.33301 8 -0.166992 14 -4.5 18s-11.5 6 -21.5 6h-31z" />
    <glyph glyph-name="macron" unicode="&#xaf;" horiz-adv-x="310" 
d="M65 629l14 75c2 12 9 18 21 18h270c14 0 20 -7.33301 18 -22l-14 -75c-2 -12 -9 -18 -21 -18h-270c-14 0 -20 7.33301 -18 22z" />
    <glyph glyph-name="degree" unicode="&#xb0;" horiz-adv-x="382" 
d="M408 558c-8.66699 -52 -31.499 -93.832 -68.499 -125.499s-79.167 -47.5 -126.5 -47.5c-49.333 0 -86.666 15.333 -111.999 46s-33.333 72.667 -24 126s32.166 95.333 68.499 126s79.166 46 128.499 46c48 0 84.833 -15.333 110.5 -46s33.5 -72.334 23.5 -125.001z
M186.001 556.001c-3.33301 -18.667 -0.499023 -33 8.50098 -43s21.833 -15 38.5 -15c16 0 30.167 5 42.5 15s20.5 24.333 24.5 43c2.66699 18.667 -0.333008 33.334 -9 44.001s-21 16 -37 16c-16.667 0 -31.334 -5.33301 -44.001 -16s-20.667 -25.334 -24 -44.001z" />
    <glyph glyph-name="plusminus" unicode="&#xb1;" 
d="M376 212h-116c-14 0 -20 7.66699 -18 23l24 138h-143c-14 0 -20 7.33301 -18 22l19 109c2 12 9 18 21 18h146l26 140c2 12 9 18 21 18h116c14.667 0 21 -7.33301 19 -22l-25 -136h141c14.667 0 21 -7.33301 19 -22l-20 -109c-2 -12 -9 -18 -21 -18h-146l-24 -143
c-2 -12 -9 -18 -21 -18zM507 19h-444c-14 0 -20 7.66699 -18 23l18 105c2 12.667 9 19 21 19h444c14 0 20 -7.66699 18 -23l-18 -106c-2 -12 -9 -18 -21 -18z" />
    <glyph glyph-name="two.sups" unicode="&#xb2;" horiz-adv-x="326" 
d="M313 410l-247 -0.000976562c-14 0 -20 7.33301 -18 22l11 63c2 10.667 6.33301 18.334 13 23.001l121 92c37.333 29.333 57 51 59 65c3.33301 14.667 -3.33398 22 -20.001 22c-22.667 0 -45.667 -8 -69 -24c-12.667 -8.66699 -22 -6.66699 -28 6l-25 49
c-5.33301 11.333 -3 20.333 7 27c44 32 90 48 138 48c42.667 0 74.834 -11.667 96.501 -35s29.5 -52.333 23.5 -87c-5.33301 -34.667 -30 -72 -74 -112c-24 -20 -46 -35.667 -66 -47h94c14 0 20 -7.33301 18 -22l-13 -72c-2 -12 -9 -18 -21 -18z" />
    <glyph glyph-name="three.sups" unicode="&#xb3;" horiz-adv-x="338" 
d="M368 536c-6.66699 -40.667 -25.833 -72.668 -57.5 -96.001s-72.167 -35 -121.5 -35c-55.333 0 -100.333 18 -135 54c-8 8.66699 -7.66699 18 1 28l51 55c8.66699 9.33301 18 9.33301 28 0c16 -16 37.333 -24 64 -24c32.667 0 51 12 55 36c4 21.333 -11.667 32 -47 32
c-7.33301 0 -13.333 -0.333008 -18 -1c-13.333 -2 -21.333 3 -24 15l-4 20c-2 9.33301 1 18 9 26l13 11c15.333 14.667 32.666 28 51.999 40h-109c-14 0 -20 7.33301 -18 22l11 61c2 12 9 18 21 18h234c14 0 20 -7.33301 18 -22l-7 -43c-2 -10 -6.66699 -17.667 -14 -23
l-83 -62c6.66699 0 14 -1 22 -3c50.667 -11.333 70.334 -47.666 59.001 -108.999z" />
    <glyph glyph-name="acute" unicode="&#xb4;" horiz-adv-x="271" 
d="M182 594h-90.998c-8.66699 0 -14 2.33301 -16 7s-0.333008 10.667 5 18l108 130c5.33301 7.33301 13.666 11 24.999 11h119c9.33301 0 15.166 -2.66699 17.499 -8s-0.166992 -11 -7.5 -17l-136 -131c-6.66699 -6.66699 -14.667 -10 -24 -10z" />
    <glyph glyph-name="paragraph" unicode="&#xb6;" horiz-adv-x="771" 
d="M358 -139h-126.997c-14 0 -20 7.33301 -18 22l52 305c-72.667 0 -128.834 25 -168.501 75s-52.167 115.333 -37.5 196c13.333 76.667 49.666 138.5 108.999 185.5s130.666 70.5 213.999 70.5h379c14 0 20 -7.33301 18 -22l-142 -814c-2 -12 -9 -18 -21 -18h-128
c-14 0 -20 7.33301 -18 22l115 660h-89l-117 -664c-2 -12 -9 -18 -21 -18z" />
    <glyph glyph-name="periodcentered" unicode="&#xb7;" horiz-adv-x="266" 
d="M240 307c-4.66699 -25.333 -16.5 -46.1689 -35.5 -62.502s-43.167 -24.5 -72.5 -24.5c-30.667 0 -54.167 11 -70.5 33s-21.833 49 -16.5 81c5.33301 26.667 17.5 47.834 36.5 63.501s42.833 23.5 71.5 23.5c30.667 0 54.167 -10.667 70.5 -32
s21.833 -48.666 16.5 -81.999z" />
    <glyph glyph-name="cedilla" unicode="&#xb8;" horiz-adv-x="177" 
d="M138 -134c-4 -24 -18.167 -43.165 -42.5 -57.498s-57.5 -21.5 -99.5 -21.5c-20.667 0 -40.334 2.33301 -59.001 7c-12 2.66699 -17 10.667 -15 24l5 33c2 12 10 16.333 24 13c9.33301 -1.33301 17 -2 23 -2c30.667 0 47.334 8.33301 50.001 25
c1.33301 7.33301 0 12.833 -4 16.5s-11.5 7 -22.5 10s-17.167 4.83301 -18.5 5.5c-6 2 -6.66699 7.33301 -2 16l32 56c4.66699 9.33301 12.667 14 24 14h36c8 0 13.333 -2.33301 16 -7s2 -10.334 -2 -17.001l-15 -26c25.333 -3.33301 44.5 -12.833 57.5 -28.5
s17.167 -35.834 12.5 -60.501z" />
    <glyph glyph-name="one.sups" unicode="&#xb9;" horiz-adv-x="258" 
d="M231 410l-77.002 -0.000976562c-14 0 -20 7.33301 -18 22l40 227l-37 -22c-11.333 -7.33301 -20.666 -4.66602 -27.999 8.00098l-28 57c-5.33301 12.667 -2.66602 22 8.00098 28l101 61c7.33301 4.66699 15.333 7 24 7h79c14 0 20 -7.33301 18 -22l-61 -348
c-2 -12 -9 -18 -21 -18z" />
    <glyph glyph-name="guillemotright" unicode="&#xbb;" horiz-adv-x="579" 
d="M86 511l123.999 0.000976562c10.667 0 18.334 -5 23.001 -15l89 -190c4.66699 -10.667 3.66699 -20 -3 -28l-158 -195c-6 -8 -14 -12 -24 -12h-126c-8.66699 0 -14.167 2.5 -16.5 7.5s-0.833008 10.833 4.5 17.5l163 195l-91 196
c-3.33301 7.33301 -3.5 13.166 -0.5 17.499s8.16699 6.5 15.5 6.5zM322.999 511.001l123.999 0.000976562c10.667 0 18.334 -5 23.001 -15l89 -190c4.66699 -10.667 3.66699 -20 -3 -28l-158 -195c-6 -8 -14 -12 -24 -12h-126c-8.66699 0 -14.167 2.5 -16.5 7.5
s-0.833008 10.833 4.5 17.5l163 195l-91 196c-3.33301 7.33301 -3.5 13.166 -0.5 17.499s8.16699 6.5 15.5 6.5z" />
    <glyph glyph-name="onequarter" unicode="&#xbc;" horiz-adv-x="871" 
d="M236 327l-77.001 -0.000976562c-14 0 -20 7.33301 -18 22l40 227l-37 -22c-12.667 -7.33301 -22 -4.66602 -28 8.00098l-28 57c-5.33301 12.667 -2.66602 22 8.00098 28l100 61c8.66699 4.66699 17 7 25 7h79c14 0 20 -7.33301 18 -22l-61 -348c-2 -12 -9 -18 -21 -18z
M719.999 690.999l-474 -678c-6 -8.66699 -14 -13 -24 -13h-82c-8 0 -13.333 2.33301 -16 7s-1.66699 10.334 3 17.001l474 678c6.66699 8.66699 15 13 25 13h81c8 0 13.333 -2.33301 16 -7s1.66699 -10.334 -3 -17.001zM787.999 165.999l19.999 0.000976562
c12.667 0 17.667 -7.66699 15 -23l-12 -67c-2 -12 -9 -18 -21 -18h-21l-7 -40c-2 -12 -9 -18 -21 -18h-79c-14 -0 -20 7.33301 -18 22l6 36h-157c-14 0 -20 7.33301 -18 22l11 63c2 10 5 18.333 9 25l136 207c6 8.66699 14.667 13 26 13h78c8 0 13.333 -2.33301 16 -7
s1.66699 -10.334 -3 -17.001l-130 -198h53l17 51c2.66699 10.667 10.334 16 23.001 16h67c14 0 20 -7.33301 18 -22z" />
    <glyph glyph-name="onehalf" unicode="&#xbd;" horiz-adv-x="819" 
d="M237 327l-77.001 -0.000976562c-14 0 -20 7.33301 -18 22l40 227l-37 -22c-12.667 -7.33301 -22 -4.66602 -28 8.00098l-28 57c-5.33301 12.667 -2.66602 22 8.00098 28l100 61c8.66699 4.66699 17 7 25 7h79c14 0 20 -7.33301 18 -22l-61 -348c-2 -12 -9 -18 -21 -18z
M707.999 690.999l-474 -678c-6 -8.66699 -14 -13 -24 -13h-82c-8 0 -13.333 2.33301 -16 7s-1.66699 10.334 3 17.001l474 678c6.66699 8.66699 15 13 25 13h81c8 0 13.333 -2.33301 16 -7s1.66699 -10.334 -3 -17.001zM718.999 -0.000976562l-247.001 -0.00195312
c-14 0 -20 7.33301 -18 22l11 63c2 10.667 6.33301 18.334 13 23.001l121 92c37.333 28.667 57.333 50.334 60 65.001c2 14.667 -5 22 -21 22c-22.667 0 -45.667 -8 -69 -24c-12.667 -8.66699 -22 -6.66699 -28 6l-25 49c-5.33301 11.333 -3 20.333 7 27c44 32 90 48 138 48
c42.667 0 74.834 -11.667 96.501 -35s29.5 -52.333 23.5 -87c-5.33301 -34.667 -30 -72 -74 -112c-24 -20 -46 -35.667 -66 -47h94c14 0 20 -7.33301 18 -22l-13 -72c-2 -12 -9 -18 -21 -18z" />
    <glyph glyph-name="threequarters" unicode="&#xbe;" horiz-adv-x="934" 
d="M370 453c-6.66699 -40.667 -25.833 -72.668 -57.5 -96.001s-72.167 -35 -121.5 -35c-55.333 0 -100.333 18 -135 54c-8 8.66699 -7.66699 18 1 28l51 55c8.66699 9.33301 18 9.33301 28 0c16 -16 37.333 -24 64 -24c32.667 0 51 12 55 36c4 21.333 -11.667 32 -47 32
c-7.33301 0 -13.333 -0.333008 -18 -1c-13.333 -2 -21.333 3 -24 15l-4 20c-2 9.33301 1 18 9 26l13 11c15.333 14.667 32.666 28 51.999 40h-109c-14 0 -20 7.33301 -18 22l11 61c2 12 9 18 21 18h234c14 0 20 -7.33301 18 -22l-7 -43c-2 -10 -6.66699 -17.667 -14 -23
l-83 -62c6.66699 0 14 -1 22 -3c50.667 -11.333 70.334 -47.666 59.001 -108.999zM782.001 690.999l-474 -678c-6 -8.66699 -14 -13 -24 -13h-82c-8 0 -13.333 2.33301 -16 7s-1.66699 10.334 3 17.001l474 678c6.66699 8.66699 15 13 25 13h81c8 0 13.333 -2.33301 16 -7
s1.66699 -10.334 -3 -17.001zM855.001 165.999l19.999 0.000976562c12.667 0 17.667 -7.66699 15 -23l-12 -67c-2 -12 -9 -18 -21 -18h-21l-7 -40c-2 -12 -9 -18 -21 -18h-79c-14 -0 -20 7.33301 -18 22l6 36h-157c-14 0 -20 7.33301 -18 22l11 63c2 10 5 18.333 9 25
l136 207c6 8.66699 14.667 13 26 13h78c8 0 13.333 -2.33301 16 -7s1.66699 -10.334 -3 -17.001l-130 -198h53l17 51c2.66699 10.667 10.334 16 23.001 16h67c14 0 20 -7.33301 18 -22z" />
    <glyph glyph-name="questiondown" unicode="&#xbf;" horiz-adv-x="499" 
d="M207 292l125.999 0.000976562c14 0 20 -7.33301 18 -22l-4 -23c-5.33301 -31.333 -15.166 -58.166 -29.499 -80.499s-30 -39.333 -47 -51s-33.667 -22.334 -50 -32.001s-30.833 -20.834 -43.5 -33.501s-20.667 -27.667 -24 -45c-2.66699 -16 0.666016 -29 9.99902 -39
s26.333 -15 51 -15c46 0 88.333 17.333 127 52c11.333 11.333 20.333 9.33301 27 -6l43 -99c4.66699 -11.333 2.66699 -20.333 -6 -27c-60 -50.667 -132 -76 -216 -76c-30.667 0 -59.167 4 -85.5 12s-49.833 20.167 -70.5 36.5s-35.5 39 -44.5 68s-10.167 62.167 -3.5 99.5
c5.33301 31.333 15.166 58 29.499 80s29.833 39 46.5 51s33.334 23.167 50.001 33.5s32 23.333 46 39s23.333 34.5 28 56.5l2 13c0.666992 5.33301 7.33398 8 20.001 8zM194.999 451.001c4.66699 25.333 16.833 46.1689 36.5 62.502s43.167 24.5 70.5 24.5
c30.667 0 54.334 -11 71.001 -33s22 -49 16 -81c-5.33301 -26.667 -17.5 -47.834 -36.5 -63.501s-42.5 -23.5 -70.5 -23.5c-30.667 0 -54.334 10.667 -71.001 32s-22 48.666 -16 81.999z" />
    <glyph glyph-name="Agrave" unicode="&#xc0;" horiz-adv-x="649" 
d="M589 0l-153 -0.000976562c-13.333 0 -20.333 6.33301 -21 19l-8 88h-200l-38 -92c-3.33301 -10 -11 -15 -23 -15h-166c-7.33301 0 -12.5 2.33301 -15.5 7s-2.83301 10.334 0.5 17.001l323 676c4.66699 10 12.667 15 24 15h173c13.333 0 21 -6 23 -18l100 -676
c2 -14 -4.33301 -21 -19 -21zM374 503.999h-4c-15.333 -43.333 -45.333 -118.333 -90 -225h111c-10 106.667 -15.667 181.667 -17 225zM461 762.999h-94.998c-10.667 0 -18.667 4 -24 12l-96 130c-4.66699 7.33301 -5.83398 13.166 -3.50098 17.499s7.83301 6.5 16.5 6.5
h122c11.333 0 19.333 -4.66699 24 -14l70 -128c3.33301 -7.33301 3.66602 -13.166 0.999023 -17.499s-7.66699 -6.5 -15 -6.5z" />
    <glyph glyph-name="Aacute" unicode="&#xc1;" horiz-adv-x="649" 
d="M589 0l-153 -0.000976562c-13.333 0 -20.333 6.33301 -21 19l-8 88h-200l-38 -92c-3.33301 -10 -11 -15 -23 -15h-166c-7.33301 0 -12.5 2.33301 -15.5 7s-2.83301 10.334 0.5 17.001l323 676c4.66699 10 12.667 15 24 15h173c13.333 0 21 -6 23 -18l100 -676
c2 -14 -4.33301 -21 -19 -21zM374 503.999h-4c-15.333 -43.333 -45.333 -118.333 -90 -225h111c-10 106.667 -15.667 181.667 -17 225zM435 762.999h-95c-8.66699 0 -14 2.5 -16 7.5s-0.333008 10.833 5 17.5l108 130c6.66699 7.33301 15.334 11 26.001 11h124
c9.33301 0 15.166 -2.66699 17.499 -8s-0.166992 -11 -7.5 -17l-137 -131c-6.66699 -6.66699 -15 -10 -25 -10z" />
    <glyph glyph-name="Acircumflex" unicode="&#xc2;" horiz-adv-x="649" 
d="M589 0l-153 -0.000976562c-13.333 0 -20.333 6.33301 -21 19l-8 88h-200l-38 -92c-3.33301 -10 -11 -15 -23 -15h-166c-7.33301 0 -12.5 2.33301 -15.5 7s-2.83301 10.334 0.5 17.001l323 676c4.66699 10 12.667 15 24 15h173c13.333 0 21 -6 23 -18l100 -676
c2 -14 -4.33301 -21 -19 -21zM374 503.999h-4c-15.333 -43.333 -45.333 -118.333 -90 -225h111c-10 106.667 -15.667 181.667 -17 225zM346 762.999l-110 0.000976562c-9.33301 0 -15 2.66699 -17 8s0 11 6 17l131 131c6.66699 6.66699 15 10 25 10h109
c10.667 0 18.667 -4.33301 24 -13l80 -129c4.66699 -6.66699 5.83398 -12.334 3.50098 -17.001s-7.83301 -7 -16.5 -7h-116c-10.667 0 -18.334 5 -23.001 15l-25 55l-46 -58c-6 -8 -14.333 -12 -25 -12z" />
    <glyph glyph-name="Atilde" unicode="&#xc3;" horiz-adv-x="649" 
d="M589 0l-153 -0.000976562c-13.333 0 -20.333 6.33301 -21 19l-8 88h-200l-38 -92c-3.33301 -10 -11 -15 -23 -15h-166c-7.33301 0 -12.5 2.33301 -15.5 7s-2.83301 10.334 0.5 17.001l323 676c4.66699 10 12.667 15 24 15h173c13.333 0 21 -6 23 -18l100 -676
c2 -14 -4.33301 -21 -19 -21zM374 503.999h-4c-15.333 -43.333 -45.333 -118.333 -90 -225h111c-10 106.667 -15.667 181.667 -17 225zM609 860.999c-14.667 -26 -33.6699 -48.999 -57.0029 -68.999s-47 -30 -71 -30c-13.333 0 -39.333 8 -78 24
c-24 10.667 -39.667 16 -47 16c-14 0 -27.333 -7.33301 -40 -22c-9.33301 -9.33301 -18.666 -11 -27.999 -5l-60 37c-11.333 6.66699 -14 15.667 -8 27c14.667 25.333 33.334 48 56.001 68s47.334 30 74.001 30c18 0 43 -8 75 -24c24 -10.667 40.333 -16 49 -16
c13.333 0 26 7 38 21c8.66699 10 18 12 28 6l60 -37c12 -6.66699 15 -15.334 9 -26.001z" />
    <glyph glyph-name="Adieresis" unicode="&#xc4;" horiz-adv-x="649" 
d="M589 0l-153 -0.000976562c-13.333 0 -20.333 6.33301 -21 19l-8 88h-200l-38 -92c-3.33301 -10 -11 -15 -23 -15h-166c-7.33301 0 -12.5 2.33301 -15.5 7s-2.83301 10.334 0.5 17.001l323 676c4.66699 10 12.667 15 24 15h173c13.333 0 21 -6 23 -18l100 -676
c2 -14 -4.33301 -21 -19 -21zM374 503.999h-4c-15.333 -43.333 -45.333 -118.333 -90 -225h111c-10 106.667 -15.667 181.667 -17 225zM396 847.999c-4.66699 -25.333 -15.668 -45.6689 -33.001 -61.002s-38.333 -23 -63 -23c-24 0 -42 8 -54 24s-16.333 36 -13 60
c4 24.667 14.833 44.834 32.5 60.501s38.834 23.5 63.501 23.5c24 0 42.167 -8.16699 54.5 -24.5s16.5 -36.166 12.5 -59.499zM615.999 847.996c-4 -24.667 -15 -44.832 -33 -60.499s-39.333 -23.5 -64 -23.5s-43.167 8 -55.5 24s-16.5 36 -12.5 60
c5.33301 25.333 16.5 45.666 33.5 60.999s37.833 23 62.5 23s43.167 -8 55.5 -24s16.833 -36 13.5 -60z" />
    <glyph glyph-name="Aring" unicode="&#xc5;" horiz-adv-x="649" 
d="M589 0l-153 -0.000976562c-13.333 0 -20.333 6.33301 -21 19l-8 88h-200l-38 -92c-3.33301 -10 -11 -15 -23 -15h-166c-7.33301 0 -12.5 2.33301 -15.5 7s-2.83301 10.334 0.5 17.001l323 676c4.66699 10 12.667 15 24 15h173c13.333 0 21 -6 23 -18l100 -676
c2 -14 -4.33301 -21 -19 -21zM374 503.999h-4c-15.333 -43.333 -45.333 -118.333 -90 -225h111c-10 106.667 -15.667 181.667 -17 225zM577 880.999c-7.33301 -42 -25.998 -74.833 -55.998 -98.5s-69.333 -35.5 -118 -35.5c-40.667 0 -73.334 15 -98.001 45
s-33 66.333 -25 109c7.33301 40.667 26 72.667 56 96s69 35 117 35c40.667 0 73.167 -14.833 97.5 -44.5s33.166 -65.167 26.499 -106.5zM384.002 890.999c-2.66699 -14.667 -0.833984 -26 5.49902 -34s16.833 -12 31.5 -12c14 0 25.833 4 35.5 12s15.5 19.333 17.5 34
c2 13.333 -0.333008 23.833 -7 31.5s-17 11.5 -31 11.5c-29.333 0 -46.666 -14.333 -51.999 -43z" />
    <glyph glyph-name="AE" unicode="&#xc6;" horiz-adv-x="899" 
d="M922 693l-24 -133.001c-2 -12 -9 -18 -21 -18h-243l-17 -99h202c14 0 20 -7.33301 18 -22l-21 -127c-2 -12 -9 -18 -21 -18h-207l-17 -103h255c14 0 20 -7.33301 18 -22l-24 -133c-2 -12 -9 -18 -21 -18h-428c-14.667 0 -21 7.33301 -19 22l17 91h-149l-54 -99
c-4.66699 -9.33301 -12.667 -14 -24 -14h-173c-8.66699 0 -14.167 2.33301 -16.5 7s-1.5 10.334 2.5 17.001l411 678c4.66699 8.66699 13 13 25 13h513c14 0 20 -7.33301 18 -22zM314 284.999h87l40 226h-5z" />
    <glyph glyph-name="Ccedilla" unicode="&#xc7;" horiz-adv-x="574" 
d="M531 42c-67.333 -34 -138.336 -52.334 -213.003 -55.001l-17 -32c25.333 -3.33301 44.5 -12.833 57.5 -28.5s17.167 -35.834 12.5 -60.501c-4 -24 -18.167 -43.167 -42.5 -57.5s-57.5 -21.5 -99.5 -21.5c-20.667 0 -40.334 2.33301 -59.001 7
c-12 2.66699 -17 10.667 -15 24l5 33c2 12 10 16.333 24 13c9.33301 -1.33301 17 -2 23 -2c30.667 0 47.334 8.33301 50.001 25c1.33301 7.33301 0 12.833 -4 16.5s-11.5 7 -22.5 10s-17.167 4.83301 -18.5 5.5c-6 2 -6.66699 7.33301 -2 16l31 55
c-75.333 10.667 -130 42 -164 94s-43.667 119 -29 201l33 184c14.667 83.333 50.5 147.5 107.5 192.5s131.5 67.5 223.5 67.5c75.333 0 139.333 -22.333 192 -67c10.667 -8 11.334 -17.333 2.00098 -28l-85 -103c-9.33301 -9.33301 -19 -10.666 -29 -3.99902
c-29.333 17.333 -61.666 26 -96.999 26c-69.333 0 -109.333 -33 -120 -99l-32 -190c-5.33301 -35.333 -0.833008 -61.166 13.5 -77.499s39.5 -24.5 75.5 -24.5c40.667 0 80.334 10.667 119.001 32c12.667 6 21.667 3.33301 27 -8l56 -119
c5.33301 -12.667 4.33301 -21 -3 -25z" />
    <glyph glyph-name="Egrave" unicode="&#xc8;" horiz-adv-x="581" 
d="M605 693l-23 -133c-2 -12 -9.33301 -18 -22 -18h-253l-18 -96h213c14.667 0 21 -7.33301 19 -22l-24 -128c-2 -12 -9 -18 -21 -18h-217l-19 -104h267c14 0 20 -7.33301 18 -22l-22 -134c-2 -12 -9 -18 -21 -18h-442c-14 -0 -20 7.33301 -18 22l120 675c2 12 9 18 21 18
h424c14 0 20 -7.33301 18 -22zM447 760h-94.998c-10.667 0 -18.667 4 -24 12l-96 130c-4.66699 6.66699 -5.83398 12.334 -3.50098 17.001s7.83301 7 16.5 7h122c11.333 0 19.333 -4.66699 24 -14l70 -128c3.33301 -6.66699 3.66602 -12.334 0.999023 -17.001
s-7.66699 -7 -15 -7z" />
    <glyph glyph-name="Eacute" unicode="&#xc9;" horiz-adv-x="581" 
d="M605 693l-23 -133c-2 -12 -9.33301 -18 -22 -18h-253l-18 -96h213c14.667 0 21 -7.33301 19 -22l-24 -128c-2 -12 -9 -18 -21 -18h-217l-19 -104h267c14 0 20 -7.33301 18 -22l-22 -134c-2 -12 -9 -18 -21 -18h-442c-14 -0 -20 7.33301 -18 22l120 675c2 12 9 18 21 18
h424c14 0 20 -7.33301 18 -22zM413 763h-95c-8.66699 0 -14 2.5 -16 7.5s-0.333008 10.833 5 17.5l108 130c6.66699 7.33301 15.334 11 26.001 11h124c9.33301 0 15.166 -2.66699 17.499 -8s-0.166992 -11 -7.5 -17l-137 -131c-6.66699 -6.66699 -15 -10 -25 -10z" />
    <glyph glyph-name="Ecircumflex" unicode="&#xca;" horiz-adv-x="581" 
d="M605 693l-23 -133c-2 -12 -9.33301 -18 -22 -18h-253l-18 -96h213c14.667 0 21 -7.33301 19 -22l-24 -128c-2 -12 -9 -18 -21 -18h-217l-19 -104h267c14 0 20 -7.33301 18 -22l-22 -134c-2 -12 -9 -18 -21 -18h-442c-14 -0 -20 7.33301 -18 22l120 675c2 12 9 18 21 18
h424c14 0 20 -7.33301 18 -22zM319 763l-110 0.000976562c-9.33301 0 -15 2.66699 -17 8s0 11 6 17l131 131c6.66699 6.66699 15 10 25 10h109c10.667 0 18.667 -4.33301 24 -13l80 -129c4.66699 -6.66699 5.83398 -12.334 3.50098 -17.001s-7.83301 -7 -16.5 -7h-116
c-10.667 0 -18.334 5 -23.001 15l-25 55l-46 -58c-6 -8 -14.333 -12 -25 -12z" />
    <glyph glyph-name="Edieresis" unicode="&#xcb;" horiz-adv-x="581" 
d="M605 693l-23 -133c-2 -12 -9.33301 -18 -22 -18h-253l-18 -96h213c14.667 0 21 -7.33301 19 -22l-24 -128c-2 -12 -9 -18 -21 -18h-217l-19 -104h267c14 0 20 -7.33301 18 -22l-22 -134c-2 -12 -9 -18 -21 -18h-442c-14 -0 -20 7.33301 -18 22l120 675c2 12 9 18 21 18
h424c14 0 20 -7.33301 18 -22zM371 848c-4.66699 -25.333 -15.668 -45.6689 -33.001 -61.002s-38.333 -23 -63 -23c-24 0 -42 8 -54 24s-16.333 36 -13 60c4 24.667 14.833 44.834 32.5 60.501s38.834 23.5 63.501 23.5c24 0 42.167 -8.16699 54.5 -24.5
s16.5 -36.166 12.5 -59.499zM590.999 847.997c-4 -24.667 -15 -44.832 -33 -60.499s-39.333 -23.5 -64 -23.5s-43.167 8 -55.5 24s-16.5 36 -12.5 60c5.33301 25.333 16.5 45.666 33.5 60.999s37.833 23 62.5 23s43.167 -8 55.5 -24s16.833 -36 13.5 -60z" />
    <glyph glyph-name="Igrave" unicode="&#xcc;" horiz-adv-x="320" 
d="M332 693l-119 -675c-2 -12 -9 -18 -21 -18h-152c-14 -0 -20 7.33301 -18 22l119 675c2 12 9 18 21 18h152c14 0 20 -7.33301 18 -22zM314 763h-94.998c-10.667 0 -18.667 4 -24 12l-96 130c-4.66699 7.33301 -5.83398 13.166 -3.50098 17.499s7.83301 6.5 16.5 6.5h122
c11.333 0 19.333 -4.66699 24 -14l70 -128c3.33301 -7.33301 3.66602 -13.166 0.999023 -17.499s-7.66699 -6.5 -15 -6.5z" />
    <glyph glyph-name="Iacute" unicode="&#xcd;" horiz-adv-x="320" 
d="M332 693l-119 -675c-2 -12 -9 -18 -21 -18h-152c-14 -0 -20 7.33301 -18 22l119 675c2 12 9 18 21 18h152c14 0 20 -7.33301 18 -22zM277 763h-95c-8.66699 0 -14 2.5 -16 7.5s-0.333008 10.833 5 17.5l108 130c6.66699 7.33301 15.334 11 26.001 11h124
c9.33301 0 15.166 -2.66699 17.499 -8s-0.166992 -11 -7.5 -17l-137 -131c-6.66699 -6.66699 -15 -10 -25 -10z" />
    <glyph glyph-name="Icircumflex" unicode="&#xce;" horiz-adv-x="320" 
d="M196 758l-110.001 0.000976562c-8.66699 0 -14.167 2.66699 -16.5 8s-0.5 11 5.5 17l138 139c6.66699 6.66699 14.667 10 24 10h74c10.667 0 18.667 -4.33301 24 -13l86 -137c4 -6.66699 4.83301 -12.334 2.5 -17.001s-7.83301 -7 -16.5 -7h-106c-12.667 0 -21 5 -25 15
l-16 38l-39 -42c-7.33301 -7.33301 -15.666 -11 -24.999 -11zM331.999 693.001l-119 -675c-2 -12 -9 -18 -21 -18h-152c-14 0 -20 7.33301 -18 22l119 675c2 12 9 18 21 18h152c14 0 20 -7.33301 18 -22z" />
    <glyph glyph-name="Idieresis" unicode="&#xcf;" horiz-adv-x="320" 
d="M332 693l-119 -675c-2 -12 -9 -18 -21 -18h-152c-14 -0 -20 7.33301 -18 22l119 675c2 12 9 18 21 18h152c14 0 20 -7.33301 18 -22zM244 848c-4.66699 -24.667 -15.833 -44.835 -33.5 -60.502s-38.5 -23.5 -62.5 -23.5s-42 8 -54 24s-16.333 36 -13 60
c4 24.667 14.833 44.834 32.5 60.501s38.5 23.5 62.5 23.5c24.667 0 43.167 -8.16699 55.5 -24.5s16.5 -36.166 12.5 -59.499zM458.001 847.999c-4 -24.667 -15.001 -44.8311 -33.001 -60.498s-39.333 -23.5 -64 -23.5s-43.167 8.16699 -55.5 24.5
s-16.166 36.166 -11.499 59.499c4.66699 25.333 15.5 45.666 32.5 60.999s37.833 23 62.5 23s43.167 -8 55.5 -24s16.833 -36 13.5 -60z" />
    <glyph glyph-name="Eth" unicode="&#xd0;" horiz-adv-x="667" 
d="M180 715l234 -0.00292969c37.333 0 71.666 -5.33301 102.999 -16s59 -27.167 83 -49.5s40.667 -53.666 50 -93.999s9.33301 -87.166 0 -140.499l-23 -139c-17.333 -103.333 -54.166 -175.166 -110.499 -215.499s-130.5 -60.5 -222.5 -60.5h-236
c-14 -0 -20 7.33301 -18 22l50 284h-53c-14 0 -20 7.66699 -18 23l13 70c2 12 9 18 21 18h56l50 280c2 12 9 18 21 18zM429 280.997l29 162.001c6 33.333 3.66699 57.666 -7 72.999s-30 23 -58 23h-69l-22 -122h61c14 0 20 -7.33301 18 -22l-12 -70
c-2 -12.667 -9 -19 -21 -19h-65l-24 -130h73c26.667 0 48 8 64 24s27 43 33 81z" />
    <glyph glyph-name="Ntilde" unicode="&#xd1;" horiz-adv-x="689" 
d="M190 0h-149.999c-14 -0 -20 7.33301 -18 22l119 675c2 12 9 18 21 18h157c13.333 0 21.333 -5.66699 24 -17l42 -150c27.333 -84.667 48.666 -164.667 63.999 -240l4 2c8 74 21 164.667 39 272l21 115c2 12 9 18 21 18h149c14 0 20 -7.33301 18 -22l-119 -675
c-2 -12 -9 -18 -21 -18h-157c-11.333 -0 -19 5.33301 -23 16l-45 130c-32.667 88 -57 176.333 -73 265l-4 -2c-9.33301 -132 -20.333 -233 -33 -303l-15 -88c-2 -12 -9 -18 -21 -18zM631.001 861c-14.667 -26 -33.6699 -48.999 -57.0029 -68.999s-47 -30 -71 -30
c-13.333 0 -39.333 8 -78 24c-24 10.667 -39.667 16 -47 16c-14 0 -27.333 -7.33301 -40 -22c-9.33301 -9.33301 -18.666 -11 -27.999 -5l-60 37c-11.333 6.66699 -14 15.667 -8 27c14.667 25.333 33.334 48 56.001 68s47.334 30 74.001 30c18 0 43 -8 75 -24
c24 -10.667 40.333 -16 49 -16c13.333 0 26 7 38 21c8.66699 10 18 12 28 6l60 -37c12 -6.66699 15 -15.334 9 -26.001z" />
    <glyph glyph-name="Ograve" unicode="&#xd2;" horiz-adv-x="659" 
d="M616 258c-15.333 -87.333 -51.6699 -154.501 -109.003 -201.501s-132.333 -70.5 -225 -70.5c-85.333 0 -149.666 28.667 -192.999 86s-56.666 132 -39.999 224l30 168c14.667 83.333 50.834 148.333 108.501 195s131.5 70 221.5 70c85.333 0 150 -27.167 194 -81.5
s57.667 -129.166 41 -224.499zM241.996 272.999c-12.667 -72.667 10.667 -109.001 70 -109.001c29.333 0 53.333 9.33301 72 28s30.667 44.334 36 77.001l30 174c12.667 72 -10 108 -68 108c-59.333 0 -95.333 -34.333 -108 -103zM484.997 772.998h-94.998
c-10.667 0 -18.667 4 -24 12l-96 130c-4.66699 7.33301 -5.83398 13.166 -3.50098 17.499s7.83301 6.5 16.5 6.5h122c11.333 0 19.333 -4.66699 24 -14l70 -128c3.33301 -7.33301 3.66602 -13.166 0.999023 -17.499s-7.66699 -6.5 -15 -6.5z" />
    <glyph glyph-name="Oacute" unicode="&#xd3;" horiz-adv-x="659" 
d="M616 258c-15.333 -87.333 -51.6699 -154.501 -109.003 -201.501s-132.333 -70.5 -225 -70.5c-85.333 0 -149.666 28.667 -192.999 86s-56.666 132 -39.999 224l30 168c14.667 83.333 50.834 148.333 108.501 195s131.5 70 221.5 70c85.333 0 150 -27.167 194 -81.5
s57.667 -129.166 41 -224.499zM241.996 272.999c-12.667 -72.667 10.667 -109.001 70 -109.001c29.333 0 53.333 9.33301 72 28s30.667 44.334 36 77.001l30 174c12.667 72 -10 108 -68 108c-59.333 0 -95.333 -34.333 -108 -103zM447.997 772.998h-95
c-8.66699 0 -14 2.5 -16 7.5s-0.333008 10.833 5 17.5l108 130c6.66699 7.33301 15.334 11 26.001 11h124c9.33301 0 15.166 -2.66699 17.499 -8s-0.166992 -11 -7.5 -17l-137 -131c-6.66699 -6.66699 -15 -10 -25 -10z" />
    <glyph glyph-name="Ocircumflex" unicode="&#xd4;" horiz-adv-x="659" 
d="M616 258c-15.333 -87.333 -51.6699 -154.501 -109.003 -201.501s-132.333 -70.5 -225 -70.5c-85.333 0 -149.666 28.667 -192.999 86s-56.666 132 -39.999 224l30 168c14.667 83.333 50.834 148.333 108.501 195s131.5 70 221.5 70c85.333 0 150 -27.167 194 -81.5
s57.667 -129.166 41 -224.499zM241.996 272.999c-12.667 -72.667 10.667 -109.001 70 -109.001c29.333 0 53.333 9.33301 72 28s30.667 44.334 36 77.001l30 174c12.667 72 -10 108 -68 108c-59.333 0 -95.333 -34.333 -108 -103zM360.997 772.998l-110 0.000976562
c-9.33301 0 -15 2.66699 -17 8s0 11 6 17l131 131c6.66699 6.66699 15 10 25 10h109c10.667 0 18.667 -4.33301 24 -13l80 -129c4.66699 -6.66699 5.83398 -12.334 3.50098 -17.001s-7.83301 -7 -16.5 -7h-116c-10.667 0 -18.334 5 -23.001 15l-25 55l-46 -58
c-6 -8 -14.333 -12 -25 -12z" />
    <glyph glyph-name="Otilde" unicode="&#xd5;" horiz-adv-x="659" 
d="M616 258c-15.333 -87.333 -51.6699 -154.501 -109.003 -201.501s-132.333 -70.5 -225 -70.5c-85.333 0 -149.666 28.667 -192.999 86s-56.666 132 -39.999 224l30 168c14.667 83.333 50.834 148.333 108.501 195s131.5 70 221.5 70c85.333 0 150 -27.167 194 -81.5
s57.667 -129.166 41 -224.499zM241.996 272.999c-12.667 -72.667 10.667 -109.001 70 -109.001c29.333 0 53.333 9.33301 72 28s30.667 44.334 36 77.001l30 174c12.667 72 -10 108 -68 108c-59.333 0 -95.333 -34.333 -108 -103zM616.997 870.998
c-14.667 -26 -33.6699 -48.999 -57.0029 -68.999s-47 -30 -71 -30c-13.333 0 -39.333 8 -78 24c-24 10.667 -39.667 16 -47 16c-14 0 -27.333 -7.33301 -40 -22c-9.33301 -9.33301 -18.666 -11 -27.999 -5l-60 37c-11.333 6.66699 -14 15.667 -8 27
c14.667 25.333 33.334 48 56.001 68s47.334 30 74.001 30c18 0 43 -8 75 -24c24 -10.667 40.333 -16 49 -16c13.333 0 26 7 38 21c8.66699 10 18 12 28 6l60 -37c12 -6.66699 15 -15.334 9 -26.001z" />
    <glyph glyph-name="Odieresis" unicode="&#xd6;" horiz-adv-x="659" 
d="M616 258c-15.333 -87.333 -51.6699 -154.501 -109.003 -201.501s-132.333 -70.5 -225 -70.5c-85.333 0 -149.666 28.667 -192.999 86s-56.666 132 -39.999 224l30 168c14.667 83.333 50.834 148.333 108.501 195s131.5 70 221.5 70c85.333 0 150 -27.167 194 -81.5
s57.667 -129.166 41 -224.499zM241.996 272.999c-12.667 -72.667 10.667 -109.001 70 -109.001c29.333 0 53.333 9.33301 72 28s30.667 44.334 36 77.001l30 174c12.667 72 -10 108 -68 108c-59.333 0 -95.333 -34.333 -108 -103zM406.997 857.998
c-4.66699 -25.333 -15.668 -45.6689 -33.001 -61.002s-38.333 -23 -63 -23c-24 0 -42 8 -54 24s-16.333 36 -13 60c4 24.667 14.833 44.834 32.5 60.501s38.834 23.5 63.501 23.5c24 0 42.167 -8.16699 54.5 -24.5s16.5 -36.166 12.5 -59.499zM626.996 857.995
c-4 -24.667 -15 -44.832 -33 -60.499s-39.333 -23.5 -64 -23.5s-43.167 8 -55.5 24s-16.5 36 -12.5 60c5.33301 25.333 16.5 45.666 33.5 60.999s37.833 23 62.5 23s43.167 -8 55.5 -24s16.833 -36 13.5 -60z" />
    <glyph glyph-name="multiply" unicode="&#xd7;" 
d="M549 594l65.999 -87c8 -10 7.33301 -19.333 -2 -28l-162 -144l107 -140c8.66699 -10.667 8 -20.334 -2 -29.001l-103 -92c-10.667 -9.33301 -20.334 -8.66602 -29.001 2.00098l-108 141l-159 -141c-10.667 -9.33301 -20 -8.66602 -28 2.00098l-68 87
c-8 9.33301 -7 19 3 29l161 142l-108 141c-7.33301 10.667 -6.66602 20 2.00098 28l103 92c11.333 10 21.333 9.33301 30 -2l107 -141l161 142c10.667 9.33301 20.334 8.66602 29.001 -2.00098z" />
    <glyph glyph-name="Oslash" unicode="&#xd8;" horiz-adv-x="659" 
d="M616 258c-15.333 -87.333 -51.667 -154.501 -109 -201.501s-132.333 -70.5 -225 -70.5c-34.667 0 -67.334 5.33301 -98.001 16l-35 -53c-5.33301 -9.33301 -13.666 -13.333 -24.999 -12h-98c-16.667 2 -20.334 10.333 -11.001 25l73 110
c-42.667 58.667 -55.667 133.334 -39 224.001l30 168c14.667 83.333 50.834 148.333 108.501 195s131.5 70 221.5 70c34.667 0 68 -5.33301 100 -16l30 48c5.33301 9.33301 13.666 13.333 24.999 12h103c16.667 -2 20.334 -10.333 11.001 -25l-71 -106
c40 -55.333 52.333 -128.333 37 -219zM241.999 272.999c-12.667 -72.667 10.667 -109.001 70 -109.001c29.333 0 53.333 9.33301 72 28s30.667 44.334 36 77.001l30 174c12.667 72 -10 108 -68 108c-59.333 0 -95.333 -34.333 -108 -103z" />
    <glyph glyph-name="Ugrave" unicode="&#xd9;" horiz-adv-x="665" 
d="M606 256c-30.667 -179.333 -136.668 -269 -318.001 -269c-86.667 0 -150 26.667 -190 80s-51.667 128.333 -35 225l72 405c2 12 9 18 21 18h155c14 0 20 -7.33301 18 -22l-75 -423c-13.333 -69.333 7.33398 -104 62.001 -104c25.333 0 46.5 8.66699 63.5 26
s28.5 42.333 34.5 75l73 430c2 12 9.33301 18 22 18h154c14.667 0 21 -7.33301 19 -22zM477.999 763h-94.998c-10.667 0 -18.667 4 -24 12l-96 130c-4.66699 7.33301 -5.83398 13.166 -3.50098 17.499s7.83301 6.5 16.5 6.5h122c11.333 0 19.333 -4.66699 24 -14l70 -128
c3.33301 -7.33301 3.66602 -13.166 0.999023 -17.499s-7.66699 -6.5 -15 -6.5z" />
    <glyph glyph-name="Uacute" unicode="&#xda;" horiz-adv-x="665" 
d="M606 256c-30.667 -179.333 -136.668 -269 -318.001 -269c-86.667 0 -150 26.667 -190 80s-51.667 128.333 -35 225l72 405c2 12 9 18 21 18h155c14 0 20 -7.33301 18 -22l-75 -423c-13.333 -69.333 7.33398 -104 62.001 -104c25.333 0 46.5 8.66699 63.5 26
s28.5 42.333 34.5 75l73 430c2 12 9.33301 18 22 18h154c14.667 0 21 -7.33301 19 -22zM443.999 763h-95c-8.66699 0 -14 2.5 -16 7.5s-0.333008 10.833 5 17.5l108 130c6.66699 7.33301 15.334 11 26.001 11h124c9.33301 0 15.166 -2.66699 17.499 -8
s-0.166992 -11 -7.5 -17l-137 -131c-6.66699 -6.66699 -15 -10 -25 -10z" />
    <glyph glyph-name="Ucircumflex" unicode="&#xdb;" horiz-adv-x="665" 
d="M606 256c-30.667 -179.333 -136.668 -269 -318.001 -269c-86.667 0 -150 26.667 -190 80s-51.667 128.333 -35 225l72 405c2 12 9 18 21 18h155c14 0 20 -7.33301 18 -22l-75 -423c-13.333 -69.333 7.33398 -104 62.001 -104c25.333 0 46.5 8.66699 63.5 26
s28.5 42.333 34.5 75l73 430c2 12 9.33301 18 22 18h154c14.667 0 21 -7.33301 19 -22zM356.999 763l-110 0.000976562c-9.33301 0 -15 2.66699 -17 8s0 11 6 17l131 131c6.66699 6.66699 15 10 25 10h109c10.667 0 18.667 -4.33301 24 -13l80 -129
c4.66699 -6.66699 5.83398 -12.334 3.50098 -17.001s-7.83301 -7 -16.5 -7h-116c-10.667 0 -18.334 5 -23.001 15l-25 55l-46 -58c-6 -8 -14.333 -12 -25 -12z" />
    <glyph glyph-name="Udieresis" unicode="&#xdc;" horiz-adv-x="665" 
d="M606 256c-30.667 -179.333 -136.668 -269 -318.001 -269c-86.667 0 -150 26.667 -190 80s-51.667 128.333 -35 225l72 405c2 12 9 18 21 18h155c14 0 20 -7.33301 18 -22l-75 -423c-13.333 -69.333 7.33398 -104 62.001 -104c25.333 0 46.5 8.66699 63.5 26
s28.5 42.333 34.5 75l73 430c2 12 9.33301 18 22 18h154c14.667 0 21 -7.33301 19 -22zM405.999 848c-4.66699 -25.333 -15.668 -45.6689 -33.001 -61.002s-38.333 -23 -63 -23c-24 0 -42 8 -54 24s-16.333 36 -13 60c4 24.667 14.833 44.834 32.5 60.501
s38.834 23.5 63.501 23.5c24 0 42.167 -8.16699 54.5 -24.5s16.5 -36.166 12.5 -59.499zM625.998 847.997c-4 -24.667 -15 -44.832 -33 -60.499s-39.333 -23.5 -64 -23.5s-43.167 8 -55.5 24s-16.5 36 -12.5 60c5.33301 25.333 16.5 45.666 33.5 60.999s37.833 23 62.5 23
s43.167 -8 55.5 -24s16.833 -36 13.5 -60z" />
    <glyph glyph-name="Yacute" unicode="&#xdd;" horiz-adv-x="600" 
d="M330 0l-151.001 0.000976562c-14.667 0 -21 7.33301 -19 22l39 217l-121 454c-2 6.66699 -1.5 12 1.5 16s8.16699 6 15.5 6h158c12 0 19 -6 21 -18l50 -276h3l145 280c4.66699 9.33301 12.334 14 23.001 14h166c8 0 13.167 -2.33301 15.5 -7s1.5 -10.334 -2.5 -17.001
l-282 -457l-40 -216c-2 -12 -9.33301 -18 -22 -18zM411.999 763.001h-95c-8.66699 0 -14 2.5 -16 7.5s-0.333008 10.833 5 17.5l108 130c6.66699 7.33301 15.334 11 26.001 11h124c9.33301 0 15.166 -2.66699 17.499 -8s-0.166992 -11 -7.5 -17l-137 -131
c-6.66699 -6.66699 -15 -10 -25 -10z" />
    <glyph glyph-name="Thorn" unicode="&#xde;" horiz-adv-x="629" 
d="M320 624h59c85.333 0 149.5 -25 192.5 -75s57.167 -116.667 42.5 -200c-12.667 -72 -45.167 -130.667 -97.5 -176s-115.833 -68 -190.5 -68h-99l-16 -87c-2 -12 -9 -18 -21 -18h-150c-14 -0 -20 7.33301 -18 22l118 675c2 12 9 18 21 18h153c14 0 20 -7.33301 18 -22z
M322 281c56.667 0 89.667 28.333 99 85c8.66699 55.333 -15 83 -71 83h-61l-31 -168h64z" />
    <glyph glyph-name="germandbls" unicode="&#xdf;" horiz-adv-x="582" 
d="M364 729c73.333 0 128.168 -23.8311 164.501 -71.498s48.5 -101.5 36.5 -161.5c-5.33301 -26 -16.833 -49.833 -34.5 -71.5s-39.5 -37.167 -65.5 -46.5c31.333 -16.667 54.166 -40.5 68.499 -71.5s16.833 -68.5 7.5 -112.5c-10.667 -66.667 -37 -117.834 -79 -153.501
s-97.333 -53.5 -166 -53.5c-18 0 -37.667 1.33301 -59 4c-12 2.66699 -17 11 -15 25l21 116c2 12.667 10 18 24 16c10.667 -1.33301 19 -2 25 -2c18.667 0 34.167 5.66699 46.5 17s19.833 27.666 22.5 48.999c6.66699 44.667 -13.666 67 -60.999 67h-10
c-14 0 -20 7.33301 -18 22l21 116c2 12.667 9 19 21 19h17c30 0 49 21.667 57 65c4 22 1.66699 39 -7 51s-22.334 18 -41.001 18c-38 0 -61.667 -25.667 -71 -77l-85 -475c-2 -12 -9 -18 -21 -18h-141c-14 -0 -20 7.33301 -18 22l89 487
c12 71.333 41.833 125.833 89.5 163.5s108.167 56.5 181.5 56.5z" />
    <glyph glyph-name="agrave" unicode="&#xe0;" horiz-adv-x="508" 
d="M413 21c-68.667 -23.333 -138.668 -34.999 -210.001 -34.999c-77.333 0 -132.666 18.667 -165.999 56s-45.333 83 -36 137c8.66699 48 31.667 83.167 69 105.5s91 33.5 161 33.5c21.333 0 44.333 -2.33301 69 -7l-1 2c4 21.333 2.16699 36.833 -5.5 46.5
s-24.167 14.5 -49.5 14.5c-43.333 0 -80.333 -5.66699 -111 -17c-12.667 -5.33301 -21.334 -2 -26.001 10l-28 103c-4 12 -3 19.667 3 23c50.667 28.667 120.334 43 209.001 43c72 0 124.167 -23.333 156.5 -70s40.5 -112.334 24.5 -197.001l-40 -227
c-2 -10.667 -8.33301 -17.667 -19 -21zM180.999 174.001c-2.66699 -12.667 0.167969 -22.833 8.50098 -30.5s21.5 -11.5 39.5 -11.5c13.333 0 26.666 2 39.999 6l11 64c-18.667 4 -33 6 -43 6c-33.333 0 -52 -11.333 -56 -34zM299.001 736.002l69.001 -128
c3.33301 -6.66699 3.66602 -12.334 0.999023 -17.001s-8 -7 -16 -7h-76c-10 0 -18 4 -24 12l-94 130c-4.66699 6.66699 -5.66699 12.334 -3 17.001s8 7 16 7h103c10.667 0 18.667 -4.66699 24 -14z" />
    <glyph glyph-name="aacute" unicode="&#xe1;" horiz-adv-x="508" 
d="M413 21c-68.667 -23.333 -138.668 -34.999 -210.001 -34.999c-77.333 0 -132.666 18.667 -165.999 56s-45.333 83 -36 137c8.66699 48 31.667 83.167 69 105.5s91 33.5 161 33.5c21.333 0 44.333 -2.33301 69 -7l-1 2c4 21.333 2.16699 36.833 -5.5 46.5
s-24.167 14.5 -49.5 14.5c-43.333 0 -80.333 -5.66699 -111 -17c-12.667 -5.33301 -21.334 -2 -26.001 10l-28 103c-4 12 -3 19.667 3 23c50.667 28.667 120.334 43 209.001 43c72 0 124.167 -23.333 156.5 -70s40.5 -112.334 24.5 -197.001l-40 -227
c-2 -10.667 -8.33301 -17.667 -19 -21zM180.999 174.001c-2.66699 -12.667 0.167969 -22.833 8.50098 -30.5s21.5 -11.5 39.5 -11.5c13.333 0 26.666 2 39.999 6l11 64c-18.667 4 -33 6 -43 6c-33.333 0 -52 -11.333 -56 -34zM316.001 584.002h-90.998
c-8.66699 0 -14 2.33301 -16 7s-0.333008 10.667 5 18l108 130c5.33301 7.33301 13.666 11 24.999 11h119c9.33301 0 15.166 -2.66699 17.499 -8s-0.166992 -11 -7.5 -17l-136 -131c-6.66699 -6.66699 -14.667 -10 -24 -10z" />
    <glyph glyph-name="acircumflex" unicode="&#xe2;" horiz-adv-x="508" 
d="M413 21c-68.667 -23.333 -138.668 -34.999 -210.001 -34.999c-77.333 0 -132.666 18.667 -165.999 56s-45.333 83 -36 137c8.66699 48 31.667 83.167 69 105.5s91 33.5 161 33.5c21.333 0 44.333 -2.33301 69 -7l-1 2c4 21.333 2.16699 36.833 -5.5 46.5
s-24.167 14.5 -49.5 14.5c-43.333 0 -80.333 -5.66699 -111 -17c-12.667 -5.33301 -21.334 -2 -26.001 10l-28 103c-4 12 -3 19.667 3 23c50.667 28.667 120.334 43 209.001 43c72 0 124.167 -23.333 156.5 -70s40.5 -112.334 24.5 -197.001l-40 -227
c-2 -10.667 -8.33301 -17.667 -19 -21zM180.999 174.001c-2.66699 -12.667 0.167969 -22.833 8.50098 -30.5s21.5 -11.5 39.5 -11.5c13.333 0 26.666 2 39.999 6l11 64c-18.667 4 -33 6 -43 6c-33.333 0 -52 -11.333 -56 -34zM394.001 737.002l80.999 -128.999
c4.66699 -6.66699 5.5 -12.334 2.5 -17.001s-8.5 -7 -16.5 -7h-97c-12 0 -20.333 4.66699 -25 14l-29 54l-53 -57c-7.33301 -7.33301 -15.666 -11 -24.999 -11h-103c-8.66699 0 -14 2.66699 -16 8s0 11 6 17l131 131c6.66699 6.66699 14.667 10 24 10h95
c10.667 0 19 -4.33301 25 -13z" />
    <glyph glyph-name="atilde" unicode="&#xe3;" horiz-adv-x="508" 
d="M413 21c-68.667 -23.333 -138.668 -34.999 -210.001 -34.999c-77.333 0 -132.666 18.667 -165.999 56s-45.333 83 -36 137c8.66699 48 31.667 83.167 69 105.5s91 33.5 161 33.5c21.333 0 44.333 -2.33301 69 -7l-1 2c4 21.333 2.16699 36.833 -5.5 46.5
s-24.167 14.5 -49.5 14.5c-43.333 0 -80.333 -5.66699 -111 -17c-12.667 -5.33301 -21.334 -2 -26.001 10l-28 103c-4 12 -3 19.667 3 23c50.667 28.667 120.334 43 209.001 43c72 0 124.167 -23.333 156.5 -70s40.5 -112.334 24.5 -197.001l-40 -227
c-2 -10.667 -8.33301 -17.667 -19 -21zM180.999 174.001c-2.66699 -12.667 0.167969 -22.833 8.50098 -30.5s21.5 -11.5 39.5 -11.5c13.333 0 26.666 2 39.999 6l11 64c-18.667 4 -33 6 -43 6c-33.333 0 -52 -11.333 -56 -34zM495.001 669.002
c-34 -60.667 -73.667 -91 -119 -91c-21.333 0 -48 8 -80 24c-24 10.667 -41 16 -51 16c-16 0 -31 -7.33301 -45 -22c-10.667 -9.33301 -20.334 -11 -29.001 -5l-53 35c-10.667 7.33301 -13 16.666 -7 27.999c35.333 61.333 77.666 92 126.999 92
c20.667 0 46.334 -7.66699 77.001 -23c22.667 -11.333 38.667 -17 48 -17c13.333 0 27.333 7.33301 42 22c8.66699 10 18 11.333 28 4l54 -38c10.667 -7.33301 13.334 -15.666 8.00098 -24.999z" />
    <glyph glyph-name="adieresis" unicode="&#xe4;" horiz-adv-x="508" 
d="M413 21c-68.667 -23.333 -138.668 -34.999 -210.001 -34.999c-77.333 0 -132.666 18.667 -165.999 56s-45.333 83 -36 137c8.66699 48 31.667 83.167 69 105.5s91 33.5 161 33.5c21.333 0 44.333 -2.33301 69 -7l-1 2c4 21.333 2.16699 36.833 -5.5 46.5
s-24.167 14.5 -49.5 14.5c-43.333 0 -80.333 -5.66699 -111 -17c-12.667 -5.33301 -21.334 -2 -26.001 10l-28 103c-4 12 -3 19.667 3 23c50.667 28.667 120.334 43 209.001 43c72 0 124.167 -23.333 156.5 -70s40.5 -112.334 24.5 -197.001l-40 -227
c-2 -10.667 -8.33301 -17.667 -19 -21zM180.999 174.001c-2.66699 -12.667 0.167969 -22.833 8.50098 -30.5s21.5 -11.5 39.5 -11.5c13.333 0 26.666 2 39.999 6l11 64c-18.667 4 -33 6 -43 6c-33.333 0 -52 -11.333 -56 -34zM284.001 666.002
c-10.667 -54.667 -40.6689 -81.998 -90.002 -81.998c-22.667 0 -40.667 7.66699 -54 23s-17.666 35.666 -12.999 60.999s15.334 45.166 32.001 59.499s37.334 21.5 62.001 21.5c22 0 39.167 -7.83301 51.5 -23.5s16.166 -35.5 11.499 -59.5zM497.999 666.004
c-10.667 -54.667 -41 -81.999 -91 -81.999c-22.667 0 -40.5 7.66699 -53.5 23s-17.167 35.666 -12.5 60.999c4.66699 26 15.334 46 32.001 60s37 21 61 21c22.667 0 40.167 -7.83301 52.5 -23.5s16.166 -35.5 11.499 -59.5z" />
    <glyph glyph-name="aring" unicode="&#xe5;" horiz-adv-x="508" 
d="M413 21c-68.667 -23.333 -138.668 -34.999 -210.001 -34.999c-77.333 0 -132.666 18.667 -165.999 56s-45.333 83 -36 137c8.66699 48 31.667 83.167 69 105.5s91 33.5 161 33.5c21.333 0 44.333 -2.33301 69 -7l-1 2c4 21.333 2.16699 36.833 -5.5 46.5
s-24.167 14.5 -49.5 14.5c-43.333 0 -80.333 -5.66699 -111 -17c-12.667 -5.33301 -21.334 -2 -26.001 10l-28 103c-4 12 -3 19.667 3 23c50.667 28.667 120.334 43 209.001 43c72 0 124.167 -23.333 156.5 -70s40.5 -112.334 24.5 -197.001l-40 -227
c-2 -10.667 -8.33301 -17.667 -19 -21zM180.999 174.001c-2.66699 -12.667 0.167969 -22.833 8.50098 -30.5s21.5 -11.5 39.5 -11.5c13.333 0 26.666 2 39.999 6l11 64c-18.667 4 -33 6 -43 6c-33.333 0 -52 -11.333 -56 -34zM453.001 701.002
c-8 -38 -25.835 -68.333 -53.502 -91s-62.5 -34 -104.5 -34c-35.333 0 -64.166 12.667 -86.499 38s-30.5 54.333 -24.5 87c6.66699 36.667 23.834 66.167 51.501 88.5s63.167 33.5 106.5 33.5c36 0 65 -12.167 87 -36.5s30 -52.833 24 -85.5zM275.999 701.002
c-2.66699 -12.667 -0.668945 -23 5.99805 -31s16.334 -12 29.001 -12c28 0 44.667 14.333 50 43c5.33301 27.333 -6.66699 41 -36 41c-27.333 0 -43.666 -13.667 -48.999 -41z" />
    <glyph glyph-name="ae" unicode="&#xe6;" horiz-adv-x="776" 
d="M356 22c-46.667 -24 -94.6641 -35.999 -143.997 -35.999c-75.333 0 -131.5 17.167 -168.5 51.5s-50.833 79.166 -41.5 134.499c16 95.333 94 143 234 143c26 0 50 -2.33301 72 -7v-1c10 50.667 -11.333 76 -64 76c-38 0 -73.667 -8 -107 -24
c-12.667 -6 -21.667 -2.66699 -27 10l-39 97c-4.66699 12 -1.33398 21 9.99902 27c57.333 28.667 123.666 43 198.999 43c55.333 0 100.666 -17.667 135.999 -53c40 35.333 90 53 150 53c68.667 0 120 -21.667 154 -65s44.333 -102 31 -176l-14 -77c-2 -12 -9 -18 -21 -18
h-258v-9c-3.33301 -40.667 15 -61 55 -61c42 0 83.333 11.667 124 35c12.667 7.33301 22 5 28 -7l43 -83c6 -12 3.66699 -21 -7 -27c-66 -41.333 -140 -62 -222 -62c-48 0 -89 12 -123 36zM180.003 171.001c-2 -12.667 1 -23 9 -31s19.667 -12 35 -12
c20.667 0 42.334 3 65.001 9c-2.66699 16.667 -3 36.667 -1 60v-1c-16 4 -34.333 6 -55 6c-30.667 0 -48.334 -10.333 -53.001 -31zM477.003 324.001l-2.99902 -17h110l2 12c5.33301 45.333 -9.33398 68 -44.001 68c-36 0 -57.667 -21 -65 -63z" />
    <glyph glyph-name="ccedilla" unicode="&#xe7;" horiz-adv-x="451" 
d="M303 -134c-4 -24 -18.166 -43.167 -42.499 -57.5s-57.5 -21.5 -99.5 -21.5c-20.667 0 -40.334 2.33301 -59.001 7c-12 2.66699 -17 10.667 -15 24l5 33c2 12 10 16.333 24 13c9.33301 -1.33301 17 -2 23 -2c30.667 0 47.334 8.33301 50.001 25
c1.33301 7.33301 0 12.833 -4 16.5s-11.5 7 -22.5 10s-17.167 4.83301 -18.5 5.5c-6 2 -6.66699 7.33301 -2 16l32 56c-54.667 10.667 -95.667 36.834 -123 78.501s-35.333 93.5 -24 155.5l22 123c11.333 62.667 39.833 109.667 85.5 141s102.5 47 170.5 47
c59.333 0 109.333 -15.333 150 -46c10 -7.33301 11 -16.666 3 -27.999l-69 -91c-8 -8.66699 -17.667 -10 -29 -4c-16.667 9.33301 -36.334 14 -59.001 14c-40.667 0 -64.334 -18.667 -71.001 -56l-20 -113c-8.66699 -46 8.33301 -69 51 -69c22.667 0 47 6.66699 73 20
c13.333 7.33301 22.333 4.66602 27 -8.00098l44 -103c4.66699 -12 1.33398 -21.333 -9.99902 -28c-42.667 -22.667 -91 -35 -145 -37l-17 -32c25.333 -3.33301 44.5 -12.833 57.5 -28.5s17.167 -35.834 12.5 -60.501z" />
    <glyph glyph-name="egrave" unicode="&#xe8;" horiz-adv-x="524" 
d="M49 343c11.333 62.667 39.668 110.502 85.001 143.502s102.333 49.5 171 49.5c70.667 0 124.5 -18.833 161.5 -56.5s49.167 -92.834 36.5 -165.501l-16 -92c-2 -12 -9.33301 -18 -22 -18h-256l-1 -2c-8 -44 9.66699 -66 53 -66c38 0 76.333 11 115 33
c12.667 7.33301 21.667 5 27 -7l46 -93c5.33301 -11.333 2.66602 -20.333 -8.00098 -27c-57.333 -37.333 -126 -56 -206 -56c-72.667 0 -128.667 20.667 -168 62s-53.333 94.666 -42 159.999zM325.002 313.002l3 18c4.66699 37.333 -8.33301 56 -39 56
c-15.333 0 -27.833 -4.83301 -37.5 -14.5s-16.167 -22.5 -19.5 -38.5l-4 -21h97zM314.002 736.002l69.001 -128c3.33301 -6.66699 3.66602 -12.334 0.999023 -17.001s-8 -7 -16 -7h-76c-10 0 -18 4 -24 12l-94 130c-4.66699 6.66699 -5.66699 12.334 -3 17.001s8 7 16 7h103
c10.667 0 18.667 -4.66699 24 -14z" />
    <glyph glyph-name="eacute" unicode="&#xe9;" horiz-adv-x="524" 
d="M49 343c11.333 62.667 39.668 110.502 85.001 143.502s102.333 49.5 171 49.5c70.667 0 124.5 -18.833 161.5 -56.5s49.167 -92.834 36.5 -165.501l-16 -92c-2 -12 -9.33301 -18 -22 -18h-256l-1 -2c-8 -44 9.66699 -66 53 -66c38 0 76.333 11 115 33
c12.667 7.33301 21.667 5 27 -7l46 -93c5.33301 -11.333 2.66602 -20.333 -8.00098 -27c-57.333 -37.333 -126 -56 -206 -56c-72.667 0 -128.667 20.667 -168 62s-53.333 94.666 -42 159.999zM325.002 313.002l3 18c4.66699 37.333 -8.33301 56 -39 56
c-15.333 0 -27.833 -4.83301 -37.5 -14.5s-16.167 -22.5 -19.5 -38.5l-4 -21h97zM341.002 584.002h-90.998c-8.66699 0 -14 2.33301 -16 7s-0.333008 10.667 5 18l108 130c5.33301 7.33301 13.666 11 24.999 11h119c9.33301 0 15.166 -2.66699 17.499 -8
s-0.166992 -11 -7.5 -17l-136 -131c-6.66699 -6.66699 -14.667 -10 -24 -10z" />
    <glyph glyph-name="ecircumflex" unicode="&#xea;" horiz-adv-x="524" 
d="M49 343c11.333 62.667 39.668 110.502 85.001 143.502s102.333 49.5 171 49.5c70.667 0 124.5 -18.833 161.5 -56.5s49.167 -92.834 36.5 -165.501l-16 -92c-2 -12 -9.33301 -18 -22 -18h-256l-1 -2c-8 -44 9.66699 -66 53 -66c38 0 76.333 11 115 33
c12.667 7.33301 21.667 5 27 -7l46 -93c5.33301 -11.333 2.66602 -20.333 -8.00098 -27c-57.333 -37.333 -126 -56 -206 -56c-72.667 0 -128.667 20.667 -168 62s-53.333 94.666 -42 159.999zM325.002 313.002l3 18c4.66699 37.333 -8.33301 56 -39 56
c-15.333 0 -27.833 -4.83301 -37.5 -14.5s-16.167 -22.5 -19.5 -38.5l-4 -21h97zM416.002 732.002l80.999 -128.999c4.66699 -6.66699 5.5 -12.334 2.5 -17.001s-8.5 -7 -16.5 -7h-97c-12 0 -20.333 4.66699 -25 14l-29 54l-53 -57
c-7.33301 -7.33301 -15.666 -11 -24.999 -11h-103c-8.66699 0 -14 2.66699 -16 8s0 11 6 17l131 131c6.66699 6.66699 14.667 10 24 10h95c10.667 0 19 -4.33301 25 -13z" />
    <glyph glyph-name="edieresis" unicode="&#xeb;" horiz-adv-x="524" 
d="M49 343c11.333 62.667 39.668 110.502 85.001 143.502s102.333 49.5 171 49.5c70.667 0 124.5 -18.833 161.5 -56.5s49.167 -92.834 36.5 -165.501l-16 -92c-2 -12 -9.33301 -18 -22 -18h-256l-1 -2c-8 -44 9.66699 -66 53 -66c38 0 76.333 11 115 33
c12.667 7.33301 21.667 5 27 -7l46 -93c5.33301 -11.333 2.66602 -20.333 -8.00098 -27c-57.333 -37.333 -126 -56 -206 -56c-72.667 0 -128.667 20.667 -168 62s-53.333 94.666 -42 159.999zM325.002 313.002l3 18c4.66699 37.333 -8.33301 56 -39 56
c-15.333 0 -27.833 -4.83301 -37.5 -14.5s-16.167 -22.5 -19.5 -38.5l-4 -21h97zM299.002 656.002c-10.667 -54.667 -40.6689 -81.998 -90.002 -81.998c-22.667 0 -40.667 7.66699 -54 23s-17.666 35.666 -12.999 60.999s15.334 45.166 32.001 59.499
s37.334 21.5 62.001 21.5c22 0 39.167 -7.83301 51.5 -23.5s16.166 -35.5 11.499 -59.5zM513 656.004c-10.667 -54.667 -41 -81.999 -91 -81.999c-22.667 0 -40.5 7.66699 -53.5 23s-17.167 35.666 -12.5 60.999c4.66699 26 15.334 46 32.001 60s37 21 61 21
c22.667 0 40.167 -7.83301 52.5 -23.5s16.166 -35.5 11.499 -59.5z" />
    <glyph glyph-name="igrave" unicode="&#xec;" horiz-adv-x="277" 
d="M164 0h-141c-14 -0 -20 7.33301 -18 22l85 482c2 12 9 18 21 18h142c14.667 0 21 -7.33301 19 -22l-86 -482c-2 -12 -9.33301 -18 -22 -18zM188 726l69.001 -128c3.33301 -6.66699 3.66602 -12.334 0.999023 -17.001s-8 -7 -16 -7h-76c-10 0 -18 4 -24 12l-94 130
c-4.66699 6.66699 -5.66699 12.334 -3 17.001s8 7 16 7h103c10.667 0 18.667 -4.66699 24 -14z" />
    <glyph glyph-name="iacute" unicode="&#xed;" horiz-adv-x="277" 
d="M164 0h-141c-14 -0 -20 7.33301 -18 22l85 482c2 12 9 18 21 18h142c14.667 0 21 -7.33301 19 -22l-86 -482c-2 -12 -9.33301 -18 -22 -18zM215 574h-90.998c-8.66699 0 -14 2.33301 -16 7s-0.333008 10.667 5 18l108 130c5.33301 7.33301 13.666 11 24.999 11h119
c9.33301 0 15.166 -2.66699 17.499 -8s-0.166992 -11 -7.5 -17l-136 -131c-6.66699 -6.66699 -14.667 -10 -24 -10z" />
    <glyph glyph-name="icircumflex" unicode="&#xee;" horiz-adv-x="271" 
d="M160 0h-137c-14 -0 -20 7.33301 -18 22l85 482c2 12 9 18 21 18h138c14 0 20 -7.33301 18 -22l-86 -482c-2 -12 -9 -18 -21 -18zM128 572l-100.999 0.000976562c-8.66699 0 -14 2.5 -16 7.5s0 10.833 6 17.5l132 137c6 6.66699 14.333 10 25 10h92
c10.667 0 18.667 -4.66699 24 -14l82 -134c4 -6.66699 4.66699 -12.334 2 -17.001s-8.33398 -7 -17.001 -7h-103c-11.333 0 -19.333 4.66699 -24 14l-27 54l-50 -57c-6.66699 -7.33301 -15 -11 -25 -11z" />
    <glyph glyph-name="idieresis" unicode="&#xef;" horiz-adv-x="277" 
d="M164 0h-141c-14 -0 -20 7.33301 -18 22l85 482c2 12 9 18 21 18h142c14.667 0 21 -7.33301 19 -22l-86 -482c-2 -12 -9.33301 -18 -22 -18zM183 656c-10.667 -54.667 -41 -81.999 -91 -81.999c-22.667 0 -40.5 7.66699 -53.5 23s-17.167 35.666 -12.5 60.999
c4.66699 26 15.334 46 32.001 60s37 21 61 21c22.667 0 40.167 -7.83301 52.5 -23.5s16.166 -35.5 11.499 -59.5zM391 656.001c-11.333 -54.667 -41.6699 -81.998 -91.0029 -81.998c-22.667 0 -40.667 7.66699 -54 23s-17.666 35.666 -12.999 60.999
s15.334 45.166 32.001 59.499s37.334 21.5 62.001 21.5c22 0 39.333 -7.83301 52 -23.5s16.667 -35.5 12 -59.5z" />
    <glyph glyph-name="eth" unicode="&#xf0;" horiz-adv-x="548" 
d="M508 671l-44.001 -35c62 -73.333 80.667 -179 56 -317l-20 -113c-12 -69.333 -42.333 -123.333 -91 -162s-111.667 -58 -189 -58c-27.333 0 -54.166 5.33301 -80.499 16s-49.5 25.834 -69.5 45.501s-34.5 45 -43.5 76s-9.83301 65.167 -2.5 102.5l12 66
c7.33301 46.667 31.5 87.167 72.5 121.5s89.5 51.5 145.5 51.5c52 0 91.667 -17.333 119 -52c0 49.333 -12.667 88.666 -38 117.999l-47 -38c-11.333 -9.33301 -21 -9 -29 1l-20 26c-8 10 -5.66699 19.667 7 29l31 25c-27.333 12.667 -59.333 19 -96 19
c-12.667 0 -18 6.66699 -16 20l20 106c2 13.333 9.66699 20 23 20c81.333 0 149.666 -19 204.999 -57l56 45c12 9.33301 21.333 8.66602 28 -2.00098l18 -26c6.66699 -9.33301 4.33398 -18.666 -6.99902 -27.999zM203.999 206c-7.33301 -41.333 7.33496 -62 44.002 -62
c35.333 0 56.666 17.667 63.999 53l8 55c7.33301 37.333 -7 56 -43 56c-36.667 0 -58.334 -18.667 -65.001 -56z" />
    <glyph glyph-name="ntilde" unicode="&#xf1;" horiz-adv-x="547" 
d="M165 0h-143c-14 -0 -20 7.33301 -18 22l80 452c2 10 7.66699 17 17 21c71.333 27.333 141 41 209 41c78.667 0 135 -22.167 169 -66.5s44.667 -104.5 32 -180.5l-48 -271c-2 -12 -9 -18 -21 -18h-141c-14 -0 -20 7.33301 -18 22l48 287c8 46.667 -7 70 -45 70
c-18 0 -31 -2.33301 -39 -7l-61 -354c-2 -12 -9 -18 -21 -18zM519 669c-34 -60.667 -73.667 -91 -119 -91c-21.333 0 -48 8 -80 24c-24 10.667 -41 16 -51 16c-16 0 -31 -7.33301 -45 -22c-10.667 -9.33301 -20.334 -11 -29.001 -5l-53 35
c-10.667 7.33301 -13 16.666 -7 27.999c35.333 61.333 77.666 92 126.999 92c20.667 0 46.334 -7.66699 77.001 -23c22.667 -11.333 38.667 -17 48 -17c13.333 0 27.333 7.33301 42 22c8.66699 10 18 11.333 28 4l54 -38c10.667 -7.33301 13.334 -15.666 8.00098 -24.999z
" />
    <glyph glyph-name="ograve" unicode="&#xf2;" horiz-adv-x="544" 
d="M497 189c-23.333 -135.333 -114.001 -203.002 -272.001 -203.002c-68.667 0 -122 22.5 -160 67.5s-51.333 100.833 -40 167.5l20 114c11.333 64.667 40.333 114.334 87 149.001s106.667 52 180 52c69.333 0 123.833 -21.667 163.5 -65s53.834 -97.666 42.501 -162.999z
M206.999 201.998c-3.33301 -18 -1.16406 -32.166 6.50293 -42.499s19.5 -15.5 35.5 -15.5c35.333 0 56.666 18 63.999 54l22 120c3.33301 18 1.16602 32.667 -6.50098 44s-19.834 17 -36.501 17s-30.5 -4.83301 -41.5 -14.5s-18.167 -22.834 -21.5 -39.501zM318.001 735.999
l69.001 -128c3.33301 -6.66699 3.66602 -12.334 0.999023 -17.001s-8 -7 -16 -7h-76c-10 0 -18 4 -24 12l-94 130c-4.66699 6.66699 -5.66699 12.334 -3 17.001s8 7 16 7h103c10.667 0 18.667 -4.66699 24 -14z" />
    <glyph glyph-name="oacute" unicode="&#xf3;" horiz-adv-x="544" 
d="M497 189c-23.333 -135.333 -114.001 -203.002 -272.001 -203.002c-68.667 0 -122 22.5 -160 67.5s-51.333 100.833 -40 167.5l20 114c11.333 64.667 40.333 114.334 87 149.001s106.667 52 180 52c69.333 0 123.833 -21.667 163.5 -65s53.834 -97.666 42.501 -162.999z
M206.999 201.998c-3.33301 -18 -1.16406 -32.166 6.50293 -42.499s19.5 -15.5 35.5 -15.5c35.333 0 56.666 18 63.999 54l22 120c3.33301 18 1.16602 32.667 -6.50098 44s-19.834 17 -36.501 17s-30.5 -4.83301 -41.5 -14.5s-18.167 -22.834 -21.5 -39.501zM343.001 583.999
h-90.998c-8.66699 0 -14 2.33301 -16 7s-0.333008 10.667 5 18l108 130c5.33301 7.33301 13.666 11 24.999 11h119c9.33301 0 15.166 -2.66699 17.499 -8s-0.166992 -11 -7.5 -17l-136 -131c-6.66699 -6.66699 -14.667 -10 -24 -10z" />
    <glyph glyph-name="ocircumflex" unicode="&#xf4;" horiz-adv-x="544" 
d="M497 189c-23.333 -135.333 -114.001 -203.002 -272.001 -203.002c-68.667 0 -122 22.5 -160 67.5s-51.333 100.833 -40 167.5l20 114c11.333 64.667 40.333 114.334 87 149.001s106.667 52 180 52c69.333 0 123.833 -21.667 163.5 -65s53.834 -97.666 42.501 -162.999z
M206.999 201.998c-3.33301 -18 -1.16406 -32.166 6.50293 -42.499s19.5 -15.5 35.5 -15.5c35.333 0 56.666 18 63.999 54l22 120c3.33301 18 1.16602 32.667 -6.50098 44s-19.834 17 -36.501 17s-30.5 -4.83301 -41.5 -14.5s-18.167 -22.834 -21.5 -39.501zM420.001 732.999
l80.999 -128.999c4.66699 -6.66699 5.5 -12.334 2.5 -17.001s-8.5 -7 -16.5 -7h-97c-12 0 -20.333 4.66699 -25 14l-29 54l-53 -57c-7.33301 -7.33301 -15.666 -11 -24.999 -11h-103c-8.66699 0 -14 2.66699 -16 8s0 11 6 17l131 131c6.66699 6.66699 14.667 10 24 10h95
c10.667 0 19 -4.33301 25 -13z" />
    <glyph glyph-name="otilde" unicode="&#xf5;" horiz-adv-x="544" 
d="M497 189c-23.333 -135.333 -114.001 -203.002 -272.001 -203.002c-68.667 0 -122 22.5 -160 67.5s-51.333 100.833 -40 167.5l20 114c11.333 64.667 40.333 114.334 87 149.001s106.667 52 180 52c69.333 0 123.833 -21.667 163.5 -65s53.834 -97.666 42.501 -162.999z
M206.999 201.998c-3.33301 -18 -1.16406 -32.166 6.50293 -42.499s19.5 -15.5 35.5 -15.5c35.333 0 56.666 18 63.999 54l22 120c3.33301 18 1.16602 32.667 -6.50098 44s-19.834 17 -36.501 17s-30.5 -4.83301 -41.5 -14.5s-18.167 -22.834 -21.5 -39.501zM524.001 666.999
c-34 -60.667 -73.667 -91 -119 -91c-21.333 0 -48 8 -80 24c-24 10.667 -41 16 -51 16c-16 0 -31 -7.33301 -45 -22c-10.667 -9.33301 -20.334 -11 -29.001 -5l-53 35c-10.667 7.33301 -13 16.666 -7 27.999c35.333 61.333 77.666 92 126.999 92
c20.667 0 46.334 -7.66699 77.001 -23c22.667 -11.333 38.667 -17 48 -17c13.333 0 27.333 7.33301 42 22c8.66699 10 18 11.333 28 4l54 -38c10.667 -7.33301 13.334 -15.666 8.00098 -24.999z" />
    <glyph glyph-name="odieresis" unicode="&#xf6;" horiz-adv-x="544" 
d="M497 189c-23.333 -135.333 -114.001 -203.002 -272.001 -203.002c-68.667 0 -122 22.5 -160 67.5s-51.333 100.833 -40 167.5l20 114c11.333 64.667 40.333 114.334 87 149.001s106.667 52 180 52c69.333 0 123.833 -21.667 163.5 -65s53.834 -97.666 42.501 -162.999z
M206.999 201.998c-3.33301 -18 -1.16406 -32.166 6.50293 -42.499s19.5 -15.5 35.5 -15.5c35.333 0 56.666 18 63.999 54l22 120c3.33301 18 1.16602 32.667 -6.50098 44s-19.834 17 -36.501 17s-30.5 -4.83301 -41.5 -14.5s-18.167 -22.834 -21.5 -39.501zM310.001 664.999
c-10.667 -54.667 -40.6689 -81.998 -90.002 -81.998c-22.667 0 -40.667 7.66699 -54 23s-17.666 35.666 -12.999 60.999s15.334 45.166 32.001 59.499s37.334 21.5 62.001 21.5c22 0 39.167 -7.83301 51.5 -23.5s16.166 -35.5 11.499 -59.5zM523.999 665.001
c-10.667 -54.667 -41 -81.999 -91 -81.999c-22.667 0 -40.5 7.66699 -53.5 23s-17.167 35.666 -12.5 60.999c4.66699 26 15.334 46 32.001 60s37 21 61 21c22.667 0 40.167 -7.83301 52.5 -23.5s16.166 -35.5 11.499 -59.5z" />
    <glyph glyph-name="divide" unicode="&#xf7;" 
d="M547 248h-444c-14 0 -20 7.33301 -18 22l23 132c2 12 9.33301 18 22 18h443c14.667 0 21 -7.33301 19 -22l-24 -132c-2 -12 -9 -18 -21 -18zM404 90c-4.66699 -28 -17.166 -50.333 -37.499 -67s-44.833 -25 -73.5 -25c-34 0 -59.5 10.833 -76.5 32.5
s-22.167 50.167 -15.5 85.5c5.33301 28 17.666 50.167 36.999 66.5s43.333 24.5 72 24.5c34 0 59.833 -11 77.5 -33s23.167 -50 16.5 -84zM481.001 551c-5.33301 -27.333 -18.002 -49.333 -38.002 -66s-44.333 -25 -73 -25c-33.333 0 -58.666 11 -75.999 33
s-22.666 50.333 -15.999 85c5.33301 28 17.833 50.333 37.5 67s43.5 25 71.5 25c34 0 59.833 -11 77.5 -33s23.167 -50.667 16.5 -86z" />
    <glyph glyph-name="oslash" unicode="&#xf8;" horiz-adv-x="545" 
d="M499 189c-23.333 -135.333 -114 -203 -272 -203c-28.667 0 -56 4.66699 -82 14l-46 -66c-3.33301 -6 -9.33301 -9 -18 -9h-83c-13.333 0 -16 6 -8 18l76 109c-40 45.333 -53.333 101.666 -40 168.999l21 114c12 64.667 41.333 114.334 88 149.001s107.334 52 182.001 52
c27.333 0 55.333 -5 84 -15l46 65c3.33301 6 9.33301 9 18 9h83c13.333 0 16 -6 8 -18l-76 -109c37.333 -42.667 50.666 -96 39.999 -160zM209 202c-3.33301 -18 -1.16406 -32.166 6.50293 -42.499s19.5 -15.5 35.5 -15.5c35.333 0 56.666 18 63.999 54l22 120
c3.33301 18 1.16602 32.667 -6.50098 44s-19.834 17 -36.501 17s-30.5 -4.83301 -41.5 -14.5s-18.167 -22.834 -21.5 -39.501z" />
    <glyph glyph-name="ugrave" unicode="&#xf9;" horiz-adv-x="543" 
d="M379 522h143c14 0 20 -7.33301 18 -22l-80 -452c-2 -10 -7.66699 -17 -17 -21c-70 -27.333 -139.333 -41 -208 -41c-77.333 0 -132.833 22.333 -166.5 67s-44.167 105 -31.5 181l48 270c2 12 9 18 21 18h141c14 0 20 -7.33301 18 -22l-48 -287
c-8 -46.667 6.33301 -70 43 -70c14 0 26.333 2.33301 37 7l61 354c2 12 9 18 21 18zM314 726l69.001 -128c3.33301 -6.66699 3.66602 -12.334 0.999023 -17.001s-8 -7 -16 -7h-76c-10 0 -18 4 -24 12l-94 130c-4.66699 6.66699 -5.66699 12.334 -3 17.001s8 7 16 7h103
c10.667 0 18.667 -4.66699 24 -14z" />
    <glyph glyph-name="uacute" unicode="&#xfa;" horiz-adv-x="543" 
d="M379 522h143c14 0 20 -7.33301 18 -22l-80 -452c-2 -10 -7.66699 -17 -17 -21c-70 -27.333 -139.333 -41 -208 -41c-77.333 0 -132.833 22.333 -166.5 67s-44.167 105 -31.5 181l48 270c2 12 9 18 21 18h141c14 0 20 -7.33301 18 -22l-48 -287
c-8 -46.667 6.33301 -70 43 -70c14 0 26.333 2.33301 37 7l61 354c2 12 9 18 21 18zM351 574h-90.998c-8.66699 0 -14 2.33301 -16 7s-0.333008 10.667 5 18l108 130c5.33301 7.33301 13.666 11 24.999 11h119c9.33301 0 15.166 -2.66699 17.499 -8s-0.166992 -11 -7.5 -17
l-136 -131c-6.66699 -6.66699 -14.667 -10 -24 -10z" />
    <glyph glyph-name="ucircumflex" unicode="&#xfb;" horiz-adv-x="543" 
d="M379 522h143c14 0 20 -7.33301 18 -22l-80 -452c-2 -10 -7.66699 -17 -17 -21c-70 -27.333 -139.333 -41 -208 -41c-77.333 0 -132.833 22.333 -166.5 67s-44.167 105 -31.5 181l48 270c2 12 9 18 21 18h141c14 0 20 -7.33301 18 -22l-48 -287
c-8 -46.667 6.33301 -70 43 -70c14 0 26.333 2.33301 37 7l61 354c2 12 9 18 21 18zM420 727l80.999 -128.999c4.66699 -6.66699 5.5 -12.334 2.5 -17.001s-8.5 -7 -16.5 -7h-97c-12 0 -20.333 4.66699 -25 14l-29 54l-53 -57c-7.33301 -7.33301 -15.666 -11 -24.999 -11
h-103c-8.66699 0 -14 2.66699 -16 8s0 11 6 17l131 131c6.66699 6.66699 14.667 10 24 10h95c10.667 0 19 -4.33301 25 -13z" />
    <glyph glyph-name="udieresis" unicode="&#xfc;" horiz-adv-x="543" 
d="M379 522h143c14 0 20 -7.33301 18 -22l-80 -452c-2 -10 -7.66699 -17 -17 -21c-70 -27.333 -139.333 -41 -208 -41c-77.333 0 -132.833 22.333 -166.5 67s-44.167 105 -31.5 181l48 270c2 12 9 18 21 18h141c14 0 20 -7.33301 18 -22l-48 -287
c-8 -46.667 6.33301 -70 43 -70c14 0 26.333 2.33301 37 7l61 354c2 12 9 18 21 18zM307 656c-10.667 -54.667 -40.6689 -81.998 -90.002 -81.998c-22.667 0 -40.667 7.66699 -54 23s-17.666 35.666 -12.999 60.999s15.334 45.166 32.001 59.499s37.334 21.5 62.001 21.5
c22 0 39.167 -7.83301 51.5 -23.5s16.166 -35.5 11.499 -59.5zM520.998 656.002c-10.667 -54.667 -41 -81.999 -91 -81.999c-22.667 0 -40.5 7.66699 -53.5 23s-17.167 35.666 -12.5 60.999c4.66699 26 15.334 46 32.001 60s37 21 61 21
c22.667 0 40.167 -7.83301 52.5 -23.5s16.166 -35.5 11.499 -59.5z" />
    <glyph glyph-name="yacute" unicode="&#xfd;" horiz-adv-x="540" 
d="M297 176l58.001 328.001c2 12 9 18 21 18h140c14 0 20 -7.33301 18 -22l-77 -435c-17.333 -99.333 -47.333 -168.833 -90 -208.5s-109 -59.5 -199 -59.5c-73.333 0 -132.333 17.333 -177 52c-10 7.33301 -11 16.666 -3 27.999l74 98c7.33301 10 16.666 11.667 27.999 5
c24.667 -15.333 56.667 -23 96 -23c26.667 0 46.667 5 60 15s22.333 28 27 54c-23.333 -8 -47.666 -12 -72.999 -12c-62.667 0 -108.167 21.667 -136.5 65s-36.5 100.333 -24.5 171l45 254c2 12 9 18 21 18h141c14 0 20 -7.33301 18 -22l-48 -268
c-8.66699 -43.333 3.66602 -65 36.999 -65c19.333 0 34 3 44 9zM348.001 574.001h-90.998c-8.66699 0 -14 2.33301 -16 7s-0.333008 10.667 5 18l108 130c5.33301 7.33301 13.666 11 24.999 11h119c9.33301 0 15.166 -2.66699 17.499 -8s-0.166992 -11 -7.5 -17l-136 -131
c-6.66699 -6.66699 -14.667 -10 -24 -10z" />
    <glyph glyph-name="thorn" unicode="&#xfe;" horiz-adv-x="544" 
d="M277 529c24 4 44.001 5.99902 60.001 5.99902c56.667 0 104.167 -22.167 142.5 -66.5s51.166 -100.166 38.499 -167.499l-21 -121c-10.667 -57.333 -37 -104 -79 -140s-92 -54 -150 -54c-31.333 0 -59 6 -83 18l-32 -179c-2 -12 -9 -18 -21 -18h-142
c-14 0 -20 7.33301 -18 22l153 868c2 12 9 18 21 18h142c14 0 20 -7.33301 18 -22zM317.001 206.999l19 115c7.33301 42.667 -7.33398 64 -44.001 64c-12 0 -25.667 -3 -41 -9l-41 -227c12.667 -9.33301 26.334 -14 41.001 -14c35.333 0 57.333 23.667 66 71z" />
    <glyph glyph-name="ydieresis" unicode="&#xff;" horiz-adv-x="540" 
d="M297 176l58.001 328.001c2 12 9 18 21 18h140c14 0 20 -7.33301 18 -22l-77 -435c-17.333 -99.333 -47.333 -168.833 -90 -208.5s-109 -59.5 -199 -59.5c-73.333 0 -132.333 17.333 -177 52c-10 7.33301 -11 16.666 -3 27.999l74 98c7.33301 10 16.666 11.667 27.999 5
c24.667 -15.333 56.667 -23 96 -23c26.667 0 46.667 5 60 15s22.333 28 27 54c-23.333 -8 -47.666 -12 -72.999 -12c-62.667 0 -108.167 21.667 -136.5 65s-36.5 100.333 -24.5 171l45 254c2 12 9 18 21 18h141c14 0 20 -7.33301 18 -22l-48 -268
c-8.66699 -43.333 3.66602 -65 36.999 -65c19.333 0 34 3 44 9zM306.001 656.001c-10.667 -54.667 -40.6689 -81.998 -90.002 -81.998c-22.667 0 -40.667 7.66699 -54 23s-17.666 35.666 -12.999 60.999s15.334 45.166 32.001 59.499s37.334 21.5 62.001 21.5
c22 0 39.167 -7.83301 51.5 -23.5s16.166 -35.5 11.499 -59.5zM519.999 656.003c-10.667 -54.667 -41 -81.999 -91 -81.999c-22.667 0 -40.5 7.66699 -53.5 23s-17.167 35.666 -12.5 60.999c4.66699 26 15.334 46 32.001 60s37 21 61 21
c22.667 0 40.167 -7.83301 52.5 -23.5s16.166 -35.5 11.499 -59.5z" />
    <glyph glyph-name="Amacron" unicode="&#x100;" horiz-adv-x="649" 
d="M589 0l-153 -0.000976562c-13.333 0 -20.333 6.33301 -21 19l-8 88h-200l-38 -92c-3.33301 -10 -11 -15 -23 -15h-166c-7.33301 0 -12.5 2.33301 -15.5 7s-2.83301 10.334 0.5 17.001l323 676c4.66699 10 12.667 15 24 15h173c13.333 0 21 -6 23 -18l100 -676
c2 -14 -4.33301 -21 -19 -21zM374 503.999h-4c-15.333 -43.333 -45.333 -118.333 -90 -225h111c-10 106.667 -15.667 181.667 -17 225zM560 784.999h-291c-15.333 0 -21.333 7.33301 -18 22l16 84c2 12 9 18 21 18h291c14 0 20 -7.33301 18 -22l-15 -84
c-2 -12 -9.33301 -18 -22 -18z" />
    <glyph glyph-name="amacron" unicode="&#x101;" horiz-adv-x="508" 
d="M413 21c-68.667 -23.333 -138.668 -34.999 -210.001 -34.999c-77.333 0 -132.666 18.667 -165.999 56s-45.333 83 -36 137c8.66699 48 31.667 83.167 69 105.5s91 33.5 161 33.5c21.333 0 44.333 -2.33301 69 -7l-1 2c4 21.333 2.16699 36.833 -5.5 46.5
s-24.167 14.5 -49.5 14.5c-43.333 0 -80.333 -5.66699 -111 -17c-12.667 -5.33301 -21.334 -2 -26.001 10l-28 103c-4 12 -3 19.667 3 23c50.667 28.667 120.334 43 209.001 43c72 0 124.167 -23.333 156.5 -70s40.5 -112.334 24.5 -197.001l-40 -227
c-2 -10.667 -8.33301 -17.667 -19 -21zM180.999 174.001c-2.66699 -12.667 0.167969 -22.833 8.50098 -30.5s21.5 -11.5 39.5 -11.5c13.333 0 26.666 2 39.999 6l11 64c-18.667 4 -33 6 -43 6c-33.333 0 -52 -11.333 -56 -34zM150.001 619.002l14 75c2 12 9 18 21 18h270
c14 0 20 -7.33301 18 -22l-14 -75c-2 -12 -9 -18 -21 -18h-270c-14 0 -20 7.33301 -18 22z" />
    <glyph glyph-name="Abreve" unicode="&#x102;" horiz-adv-x="649" 
d="M589 0l-153 -0.000976562c-13.333 0 -20.333 6.33301 -21 19l-8 88h-200l-38 -92c-3.33301 -10 -11 -15 -23 -15h-166c-7.33301 0 -12.5 2.33301 -15.5 7s-2.83301 10.334 0.5 17.001l323 676c4.66699 10 12.667 15 24 15h173c13.333 0 21 -6 23 -18l100 -676
c2 -14 -4.33301 -21 -19 -21zM374 503.999h-4c-15.333 -43.333 -45.333 -118.333 -90 -225h111c-10 106.667 -15.667 181.667 -17 225zM601 890.999c-14.667 -44 -38.333 -77 -71 -99s-77 -33 -133 -33c-42.667 0 -78.5 12.667 -107.5 38s-45.167 56.333 -48.5 93
c-2 11.333 3.66699 18.666 17 21.999l98 22c10 2.66699 17.333 -2.66602 22 -15.999c6 -16 20 -24 42 -24c25.333 0 43 9 53 27c6 11.333 14.667 15.666 26 12.999l86 -21c14.667 -3.33301 20 -10.666 16 -21.999z" />
    <glyph glyph-name="abreve" unicode="&#x103;" horiz-adv-x="508" 
d="M413 21c-68.667 -23.333 -138.668 -34.999 -210.001 -34.999c-77.333 0 -132.666 18.667 -165.999 56s-45.333 83 -36 137c8.66699 48 31.667 83.167 69 105.5s91 33.5 161 33.5c21.333 0 44.333 -2.33301 69 -7l-1 2c4 21.333 2.16699 36.833 -5.5 46.5
s-24.167 14.5 -49.5 14.5c-43.333 0 -80.333 -5.66699 -111 -17c-12.667 -5.33301 -21.334 -2 -26.001 10l-28 103c-4 12 -3 19.667 3 23c50.667 28.667 120.334 43 209.001 43c72 0 124.167 -23.333 156.5 -70s40.5 -112.334 24.5 -197.001l-40 -227
c-2 -10.667 -8.33301 -17.667 -19 -21zM180.999 174.001c-2.66699 -12.667 0.167969 -22.833 8.50098 -30.5s21.5 -11.5 39.5 -11.5c13.333 0 26.666 2 39.999 6l11 64c-18.667 4 -33 6 -43 6c-33.333 0 -52 -11.333 -56 -34zM482.001 715.002
c-12.667 -46 -34 -80.168 -64 -102.501s-72.333 -33.5 -127 -33.5c-41.333 0 -75.5 13 -102.5 39s-40.167 58.333 -39.5 97c0 12 6 19 18 21l84 15c12 2.66699 19 -3.33301 21 -18c4 -23.333 18 -35 42 -35c24.667 0 42 13 52 39c4.66699 11.333 13 16 25 14l75 -14
c14.667 -3.33301 20 -10.666 16 -21.999z" />
    <glyph glyph-name="Aogonek" unicode="&#x104;" horiz-adv-x="649" 
d="M586 -174c-36 -21.333 -74.3359 -32.002 -115.003 -32.002c-36 0 -63.167 8.83301 -81.5 26.5s-24.833 42.5 -19.5 74.5c6.66699 38 33.334 73 80.001 105h-14c-13.333 0 -20.333 6.33301 -21 19l-8 88h-200l-38 -92c-3.33301 -10 -11 -15 -23 -15h-166
c-7.33301 0 -12.5 2.33301 -15.5 7s-2.83301 10.334 0.5 17.001l323 676c4.66699 10 12.667 15 24 15h173c13.333 0 21 -6 23 -18l100 -676c0.666992 -5.33301 0.5 -9.33301 -0.5 -12s-3.66699 -4.66699 -8 -6s-8.5 -2.16602 -12.5 -2.49902s-10.667 -0.5 -20 -0.5
c-17.333 -6.66699 -32.166 -15.5 -44.499 -26.5s-19.5 -21.5 -21.5 -31.5c-1.33301 -8 1 -14.333 7 -19s15 -7 27 -7c11.333 0 23 2 35 6c14.667 5.33301 22.667 0.333008 24 -15l5 -57c0.666992 -11.333 -3.66602 -19.333 -12.999 -24zM369.997 503.998
c-15.333 -43.333 -45.333 -118.333 -90 -225h111c-10 106.667 -15.667 181.667 -17 225h-4z" />
    <glyph glyph-name="aogonek" unicode="&#x105;" horiz-adv-x="509" 
d="M401 -173c-37.333 -19.333 -75.3379 -28.998 -114.005 -28.998c-38 0 -66.167 9.16699 -84.5 27.5s-24.166 41.833 -17.499 70.5c8 37.333 33.667 68 77 92c-24 -1.33301 -42.667 -2 -56 -2c-77.333 0 -133.333 18.667 -168 56s-46.667 83.666 -36 138.999
c18 91.333 92.333 137 223 137c26.667 0 51.334 -2.33301 74.001 -7v2c4 22 1.83301 37.667 -6.5 47s-25.833 14 -52.5 14c-34.667 0 -67.334 -5.66699 -98.001 -17c-12 -5.33301 -20.667 -1.66602 -26 11.001l-39 97c-4.66699 12 -3 20 5 24c54 31.333 120.333 47 199 47
c76.667 0 131.334 -22.5 164.001 -67.5s41.334 -109.833 26.001 -194.5l-43 -239c-2 -10 -8 -17 -18 -21c-59.333 -22.667 -90.666 -46.334 -93.999 -71.001c-0.666992 -9.33301 2 -16 8 -20s14.333 -6 25 -6c12 0 24 2 36 6c14.667 5.33301 22.667 0.666016 24 -14.001
l5 -58c0.666992 -11.333 -3.66602 -19.333 -12.999 -24zM179.995 170.002c-2.66699 -12 0.333984 -21.167 9.00098 -27.5s21.667 -9.5 39 -9.5c13.333 0 26.666 1.33301 39.999 4l11 62c-11.333 2.66699 -25 4 -41 4c-34.667 0 -54 -11 -58 -33z" />
    <glyph glyph-name="Cacute" unicode="&#x106;" horiz-adv-x="574" 
d="M531 42c-72 -37.333 -149.336 -56.002 -232.003 -56.002c-94 0 -163.333 26.833 -208 80.5s-59 126.5 -43 218.5l33 184c14.667 83.333 50.5 147.5 107.5 192.5s131.5 67.5 223.5 67.5c75.333 0 139.333 -22.333 192 -67c10.667 -8 11.334 -17.333 2.00098 -28l-85 -103
c-9.33301 -9.33301 -19 -10.666 -29 -3.99902c-29.333 17.333 -61.666 26 -96.999 26c-69.333 0 -109.333 -33 -120 -99l-32 -190c-5.33301 -35.333 -0.833008 -61.166 13.5 -77.499s39.5 -24.5 75.5 -24.5c40.667 0 80.334 10.667 119.001 32
c12.667 6 21.667 3.33301 27 -8l56 -119c5.33301 -12.667 4.33301 -21 -3 -25zM430.997 772.998h-95c-8.66699 0 -14 2.5 -16 7.5s-0.333008 10.833 5 17.5l108 130c6.66699 7.33301 15.334 11 26.001 11h124c9.33301 0 15.166 -2.66699 17.499 -8s-0.166992 -11 -7.5 -17
l-137 -131c-6.66699 -6.66699 -15 -10 -25 -10z" />
    <glyph glyph-name="cacute" unicode="&#x107;" horiz-adv-x="451" 
d="M395 24c-48 -25.333 -103.999 -38 -167.999 -38c-70 0 -124 21.833 -162 65.5s-50.667 101.5 -38 173.5l22 123c11.333 62.667 39.833 109.667 85.5 141s102.5 47 170.5 47c59.333 0 109.333 -15.333 150 -46c10 -7.33301 11 -16.666 3 -27.999l-69 -91
c-8 -8.66699 -17.667 -10 -29 -4c-16.667 9.33301 -36.334 14 -59.001 14c-40.667 0 -64.334 -18.667 -71.001 -56l-20 -113c-8.66699 -46 8.33301 -69 51 -69c22.667 0 47 6.66699 73 20c13.333 7.33301 22.333 4.66602 27 -8.00098l44 -103
c4.66699 -12 1.33398 -21.333 -9.99902 -28zM319.001 584h-90.998c-8.66699 0 -14 2.33301 -16 7s-0.333008 10.667 5 18l108 130c5.33301 7.33301 13.666 11 24.999 11h119c9.33301 0 15.166 -2.66699 17.499 -8s-0.166992 -11 -7.5 -17l-136 -131
c-6.66699 -6.66699 -14.667 -10 -24 -10z" />
    <glyph glyph-name="Cdotaccent" unicode="&#x10a;" horiz-adv-x="574" 
d="M531 42c-72 -37.333 -149.336 -56.002 -232.003 -56.002c-94 0 -163.333 26.833 -208 80.5s-59 126.5 -43 218.5l33 184c14.667 83.333 50.5 147.5 107.5 192.5s131.5 67.5 223.5 67.5c75.333 0 139.333 -22.333 192 -67c10.667 -8 11.334 -17.333 2.00098 -28l-85 -103
c-9.33301 -9.33301 -19 -10.666 -29 -3.99902c-29.333 17.333 -61.666 26 -96.999 26c-69.333 0 -109.333 -33 -120 -99l-32 -190c-5.33301 -35.333 -0.833008 -61.166 13.5 -77.499s39.5 -24.5 75.5 -24.5c40.667 0 80.334 10.667 119.001 32
c12.667 6 21.667 3.33301 27 -8l56 -119c5.33301 -12.667 4.33301 -21 -3 -25zM516.997 858.998c-4.66699 -24.667 -17.001 -44.834 -37.001 -60.501s-44.667 -23.5 -74 -23.5c-28.667 0 -51 9.16699 -67 27.5s-22 41.166 -18 68.499c4 26.667 16.167 48.334 36.5 65.001
s44.166 25 71.499 25c30.667 0 54.334 -9.66699 71.001 -29s22.334 -43.666 17.001 -72.999z" />
    <glyph glyph-name="cdotaccent" unicode="&#x10b;" horiz-adv-x="451" 
d="M395 24c-48 -25.333 -103.999 -38 -167.999 -38c-70 0 -124 21.833 -162 65.5s-50.667 101.5 -38 173.5l22 123c11.333 62.667 39.833 109.667 85.5 141s102.5 47 170.5 47c59.333 0 109.333 -15.333 150 -46c10 -7.33301 11 -16.666 3 -27.999l-69 -91
c-8 -8.66699 -17.667 -10 -29 -4c-16.667 9.33301 -36.334 14 -59.001 14c-40.667 0 -64.334 -18.667 -71.001 -56l-20 -113c-8.66699 -46 8.33301 -69 51 -69c22.667 0 47 6.66699 73 20c13.333 7.33301 22.333 4.66602 27 -8.00098l44 -103
c4.66699 -12 1.33398 -21.333 -9.99902 -28zM396.001 674c-4.66699 -26.667 -16.167 -48.332 -34.5 -64.999s-41.5 -25 -69.5 -25c-26.667 0 -47.167 8.66699 -61.5 26s-18.833 39.666 -13.5 66.999c4.66699 25.333 16.5 46 35.5 62s41.833 24 68.5 24
c27.333 0 47.833 -8.16699 61.5 -24.5s18.167 -37.833 13.5 -64.5z" />
    <glyph glyph-name="Ccaron" unicode="&#x10c;" horiz-adv-x="574" 
d="M531 42c-72 -37.333 -149.336 -56.002 -232.003 -56.002c-94 0 -163.333 26.833 -208 80.5s-59 126.5 -43 218.5l33 184c14.667 83.333 50.5 147.5 107.5 192.5s131.5 67.5 223.5 67.5c75.333 0 139.333 -22.333 192 -67c10.667 -8 11.334 -17.333 2.00098 -28l-85 -103
c-9.33301 -9.33301 -19 -10.666 -29 -3.99902c-29.333 17.333 -61.666 26 -96.999 26c-69.333 0 -109.333 -33 -120 -99l-32 -190c-5.33301 -35.333 -0.833008 -61.166 13.5 -77.499s39.5 -24.5 75.5 -24.5c40.667 0 80.334 10.667 119.001 32
c12.667 6 21.667 3.33301 27 -8l56 -119c5.33301 -12.667 4.33301 -21 -3 -25zM484.997 938.998l110 -0.000976562c9.33301 0 15 -2.66699 17 -8s0 -11 -6 -17l-131 -131c-6.66699 -6.66699 -15 -10 -25 -10h-109c-10.667 0 -18.667 4.33301 -24 13l-80 129
c-4.66699 6.66699 -5.83398 12.334 -3.50098 17.001s7.83301 7 16.5 7h116c10.667 0 18.334 -5 23.001 -15l25 -55l46 58c6 8 14.333 12 25 12z" />
    <glyph glyph-name="ccaron" unicode="&#x10d;" horiz-adv-x="451" 
d="M395 24c-48 -25.333 -103.999 -38 -167.999 -38c-70 0 -124 21.833 -162 65.5s-50.667 101.5 -38 173.5l22 123c11.333 62.667 39.833 109.667 85.5 141s102.5 47 170.5 47c59.333 0 109.333 -15.333 150 -46c10 -7.33301 11 -16.666 3 -27.999l-69 -91
c-8 -8.66699 -17.667 -10 -29 -4c-16.667 9.33301 -36.334 14 -59.001 14c-40.667 0 -64.334 -18.667 -71.001 -56l-20 -113c-8.66699 -46 8.33301 -69 51 -69c22.667 0 47 6.66699 73 20c13.333 7.33301 22.333 4.66602 27 -8.00098l44 -103
c4.66699 -12 1.33398 -21.333 -9.99902 -28zM223.001 597l-80.999 128.999c-4.66699 6.66699 -5.5 12.334 -2.5 17.001s8.5 7 16.5 7h97c12 0 20.333 -4.66699 25 -14l29 -54l53 57c7.33301 7.33301 15.666 11 24.999 11h103c8.66699 0 14 -2.66699 16 -8s0 -11 -6 -17
l-131 -131c-6.66699 -6.66699 -14.667 -10 -24 -10h-95c-10.667 0 -19 4.33301 -25 13z" />
    <glyph glyph-name="Dcaron" unicode="&#x10e;" horiz-adv-x="648" 
d="M275 0l-234.999 -0.00292969c-14 0 -20 7.33301 -18 22l119 675c2 12 9 18 21 18h233c37.333 0 71.5 -5.33301 102.5 -16s58.667 -27.167 83 -49.5s41.166 -53.666 50.499 -93.999s9.33301 -87.166 0 -140.499l-23 -139c-18 -103.333 -55 -175.166 -111 -215.499
s-130 -60.5 -222 -60.5zM304.001 538.997l-64 -363h72c27.333 0 49 8 65 24s27 43 33 81l29 162c11.333 64 -10.667 96 -66 96h-69zM480.001 928.997l110 -0.000976562c9.33301 0 15 -2.66699 17 -8s0 -11 -6 -17l-131 -131c-6.66699 -6.66699 -15 -10 -25 -10h-109
c-10.667 0 -18.667 4.33301 -24 13l-80 129c-4.66699 6.66699 -5.83398 12.334 -3.50098 17.001s7.83301 7 16.5 7h116c10.667 0 18.334 -5 23.001 -15l25 -55l46 58c6 8 14.333 12 25 12z" />
    <glyph glyph-name="dcaron" unicode="&#x10f;" horiz-adv-x="629" 
d="M442 24c-67.333 -24.667 -135.999 -37.001 -205.999 -37.001s-125.833 21.833 -167.5 65.5s-55.834 99.834 -42.501 168.501l22 122c10.667 57.333 37 103.833 79 139.5s92 53.5 150 53.5c31.333 0 59 -6 83 -18l32 179c2 12 9 18 21 18h142c14 0 20 -7.33301 18 -22
l-113 -648c-2 -10.667 -8 -17.667 -18 -21zM209.001 207.999c-8 -40.667 6.33301 -61 43 -61c16 0 30.667 2 44 6l39 219c-12.667 9.33301 -27.667 14 -45 14c-32 0 -52.333 -23.667 -61 -71zM661.001 497.999l-75 -0.000976562c-16 0 -21.333 7.66699 -16 23l67 178
c4 10.667 11.667 16 23 16h95c7.33301 0 12.5 -2.16699 15.5 -6.5s2.83301 -10.166 -0.5 -17.499l-86 -178c-5.33301 -10 -13 -15 -23 -15z" />
    <glyph glyph-name="Dcroat" unicode="&#x110;" horiz-adv-x="667" 
d="M180 715l234 -0.00292969c37.333 0 71.666 -5.33301 102.999 -16s59 -27.167 83 -49.5s40.667 -53.666 50 -93.999s9.33301 -87.166 0 -140.499l-23 -139c-17.333 -103.333 -54.166 -175.166 -110.499 -215.499s-130.5 -60.5 -222.5 -60.5h-236
c-14 -0 -20 7.33301 -18 22l50 284h-53c-14 0 -20 7.66699 -18 23l13 70c2 12 9 18 21 18h56l50 280c2 12 9 18 21 18zM429 280.997l29 162.001c6 33.333 3.66699 57.666 -7 72.999s-30 23 -58 23h-69l-22 -122h61c14 0 20 -7.33301 18 -22l-12 -70
c-2 -12.667 -9 -19 -21 -19h-65l-24 -130h73c26.667 0 48 8 64 24s27 43 33 81z" />
    <glyph glyph-name="dcroat" unicode="&#x111;" horiz-adv-x="543" 
d="M440 24c-66.667 -24.667 -135 -36.998 -205 -36.998c-68.667 0 -124 22.667 -166 68s-56.667 100.666 -44 165.999l18 96c10.667 55.333 36.667 100.666 78 135.999s90.333 53 147 53c34 0 62.667 -6.33301 86 -19l14 80h-107c-14 0 -20 7.33301 -18 22l8 45
c2 12 9 18 21 18h111l8 45c2 12 9 18 21 18h141c14.667 0 21 -7.33301 19 -22l-7 -41h41c14 0 20 -7.33301 18 -22l-8 -45c-2 -12 -9 -18 -21 -18h-45l-91 -522c-2 -10.667 -8.33301 -17.667 -19 -21zM208 208.002c-7.33301 -40.667 7 -61 43 -61
c16.667 0 31.334 2 44.001 6l32 188c-12.667 9.33301 -27.334 14 -44.001 14c-34 0 -54.333 -21.667 -61 -65z" />
    <glyph glyph-name="Emacron" unicode="&#x112;" horiz-adv-x="581" 
d="M605 693l-23 -133c-2 -12 -9.33301 -18 -22 -18h-253l-18 -96h213c14.667 0 21 -7.33301 19 -22l-24 -128c-2 -12 -9 -18 -21 -18h-217l-19 -104h267c14 0 20 -7.33301 18 -22l-22 -134c-2 -12 -9 -18 -21 -18h-442c-14 -0 -20 7.33301 -18 22l120 675c2 12 9 18 21 18
h424c14 0 20 -7.33301 18 -22zM529 776h-291c-15.333 0 -21.333 7.33301 -18 22l16 84c2 12 9 18 21 18h291c14 0 20 -7.33301 18 -22l-15 -84c-2 -12 -9.33301 -18 -22 -18z" />
    <glyph glyph-name="emacron" unicode="&#x113;" horiz-adv-x="524" 
d="M49 343c11.333 62.667 39.668 110.502 85.001 143.502s102.333 49.5 171 49.5c70.667 0 124.5 -18.833 161.5 -56.5s49.167 -92.834 36.5 -165.501l-16 -92c-2 -12 -9.33301 -18 -22 -18h-256l-1 -2c-8 -44 9.66699 -66 53 -66c38 0 76.333 11 115 33
c12.667 7.33301 21.667 5 27 -7l46 -93c5.33301 -11.333 2.66602 -20.333 -8.00098 -27c-57.333 -37.333 -126 -56 -206 -56c-72.667 0 -128.667 20.667 -168 62s-53.333 94.666 -42 159.999zM325.002 313.002l3 18c4.66699 37.333 -8.33301 56 -39 56
c-15.333 0 -27.833 -4.83301 -37.5 -14.5s-16.167 -22.5 -19.5 -38.5l-4 -21h97zM165.002 619.002l14 75c2 12 9 18 21 18h270c14 0 20 -7.33301 18 -22l-14 -75c-2 -12 -9 -18 -21 -18h-270c-14 0 -20 7.33301 -18 22z" />
    <glyph glyph-name="Edotaccent" unicode="&#x116;" horiz-adv-x="581" 
d="M605 693l-23 -133c-2 -12 -9.33301 -18 -22 -18h-253l-18 -96h213c14.667 0 21 -7.33301 19 -22l-24 -128c-2 -12 -9 -18 -21 -18h-217l-19 -104h267c14 0 20 -7.33301 18 -22l-22 -134c-2 -12 -9 -18 -21 -18h-442c-14 -0 -20 7.33301 -18 22l120 675c2 12 9 18 21 18
h424c14 0 20 -7.33301 18 -22zM499 849c-4.66699 -24.667 -17.001 -44.834 -37.001 -60.501s-44.667 -23.5 -74 -23.5c-28.667 0 -51 9.16699 -67 27.5s-22 41.166 -18 68.499c4 26.667 16.167 48.334 36.5 65.001s44.166 25 71.499 25c30.667 0 54.334 -9.66699 71.001 -29
s22.334 -43.666 17.001 -72.999z" />
    <glyph glyph-name="edotaccent" unicode="&#x117;" horiz-adv-x="524" 
d="M49 343c11.333 62.667 39.668 110.502 85.001 143.502s102.333 49.5 171 49.5c70.667 0 124.5 -18.833 161.5 -56.5s49.167 -92.834 36.5 -165.501l-16 -92c-2 -12 -9.33301 -18 -22 -18h-256l-1 -2c-8 -44 9.66699 -66 53 -66c38 0 76.333 11 115 33
c12.667 7.33301 21.667 5 27 -7l46 -93c5.33301 -11.333 2.66602 -20.333 -8.00098 -27c-57.333 -37.333 -126 -56 -206 -56c-72.667 0 -128.667 20.667 -168 62s-53.333 94.666 -42 159.999zM325.002 313.002l3 18c4.66699 37.333 -8.33301 56 -39 56
c-15.333 0 -27.833 -4.83301 -37.5 -14.5s-16.167 -22.5 -19.5 -38.5l-4 -21h97zM427.002 674.002c-4.66699 -26.667 -16.167 -48.332 -34.5 -64.999s-41.5 -25 -69.5 -25c-26.667 0 -47.167 8.66699 -61.5 26s-18.833 39.666 -13.5 66.999c4.66699 25.333 16.5 46 35.5 62
s41.833 24 68.5 24c27.333 0 47.833 -8.16699 61.5 -24.5s18.167 -37.833 13.5 -64.5z" />
    <glyph glyph-name="Eogonek" unicode="&#x118;" horiz-adv-x="582" 
d="M606 693l-24.002 -133.001c-2 -12 -9 -18 -21 -18h-254l-17 -96h213c14 0 20 -7.33301 18 -22l-23 -128c-2 -12 -9 -18 -21 -18h-218l-18 -104h267c14 0 20 -7.33301 18 -22l-22 -136c-2 -9.33301 -8 -16.666 -18 -21.999c-17.333 -6.66699 -31.666 -15 -42.999 -25
s-18 -19.667 -20 -29c0 -17.333 11.333 -26 34 -26c10.667 0 21 2 31 6c14.667 5.33301 22.667 0.333008 24 -15l5 -58c1.33301 -10.667 -2.33398 -18.667 -11.001 -24c-29.333 -18.667 -68.666 -28 -117.999 -28c-35.333 0 -62.166 8.66699 -80.499 26
s-24.833 41.333 -19.5 72c8.66699 47.333 45.667 83 111 107h-358c-14.667 -0 -21 7.33301 -19 22l119 675c2 12 9.33301 18 22 18h424c14.667 0 21 -7.33301 19 -22z" />
    <glyph glyph-name="eogonek" unicode="&#x119;" horiz-adv-x="522" 
d="M363 -173c-37.333 -19.333 -76.0029 -28.999 -116.003 -28.999c-35.333 0 -62.166 8.66699 -80.499 26s-24.833 41.333 -19.5 72c6.66699 35.333 30.334 65.333 71.001 90h-7c-66 4.66699 -116.333 27.334 -151 68.001s-46.667 92 -36 154l24 135
c11.333 62.667 39.333 110.5 84 143.5s100.667 49.5 168 49.5c71.333 0 125.833 -18.833 163.5 -56.5s50.167 -92.834 37.5 -165.501l-16 -93c-2 -12 -9 -18 -21 -18h-260v1c-8 -45.333 9.33301 -68 52 -68c40 0 79.667 11 119 33c12.667 7.33301 22 5 28 -7l44 -86
c5.33301 -12 3 -21.333 -7 -28c-24 -16 -56.333 -31.333 -97 -46c-18.667 -6 -33.667 -14.5 -45 -25.5s-18 -22.167 -20 -33.5c-1.33301 -8 1 -14.333 7 -19s15 -7 27 -7c11.333 0 23 2 35 6c14.667 5.33301 22.667 0.666016 24 -14.001l5 -58
c0.666992 -11.333 -3.66602 -19.333 -12.999 -24zM226.997 334.001l-4.00098 -24h96l4 21c4.66699 38.667 -8 58 -38 58c-15.333 0 -28.166 -5 -38.499 -15s-16.833 -23.333 -19.5 -40z" />
    <glyph glyph-name="Ecaron" unicode="&#x11a;" horiz-adv-x="581" 
d="M605 693l-23 -133c-2 -12 -9.33301 -18 -22 -18h-253l-18 -96h213c14.667 0 21 -7.33301 19 -22l-24 -128c-2 -12 -9 -18 -21 -18h-217l-19 -104h267c14 0 20 -7.33301 18 -22l-22 -134c-2 -12 -9 -18 -21 -18h-442c-14 -0 -20 7.33301 -18 22l120 675c2 12 9 18 21 18
h424c14 0 20 -7.33301 18 -22zM467 929l110 -0.000976562c9.33301 0 15 -2.66699 17 -8s0 -11 -6 -17l-131 -131c-6.66699 -6.66699 -15 -10 -25 -10h-109c-10.667 0 -18.667 4.33301 -24 13l-80 129c-4.66699 6.66699 -5.83398 12.334 -3.50098 17.001s7.83301 7 16.5 7
h116c10.667 0 18.334 -5 23.001 -15l25 -55l46 58c6 8 14.333 12 25 12z" />
    <glyph glyph-name="ecaron" unicode="&#x11b;" horiz-adv-x="524" 
d="M49 343c11.333 62.667 39.668 110.502 85.001 143.502s102.333 49.5 171 49.5c70.667 0 124.5 -18.833 161.5 -56.5s49.167 -92.834 36.5 -165.501l-16 -92c-2 -12 -9.33301 -18 -22 -18h-256l-1 -2c-8 -44 9.66699 -66 53 -66c38 0 76.333 11 115 33
c12.667 7.33301 21.667 5 27 -7l46 -93c5.33301 -11.333 2.66602 -20.333 -8.00098 -27c-57.333 -37.333 -126 -56 -206 -56c-72.667 0 -128.667 20.667 -168 62s-53.333 94.666 -42 159.999zM325.002 313.002l3 18c4.66699 37.333 -8.33301 56 -39 56
c-15.333 0 -27.833 -4.83301 -37.5 -14.5s-16.167 -22.5 -19.5 -38.5l-4 -21h97zM238.002 597.002l-80.999 128.999c-4.66699 6.66699 -5.5 12.334 -2.5 17.001s8.5 7 16.5 7h97c12 0 20.333 -4.66699 25 -14l29 -54l53 57c7.33301 7.33301 15.666 11 24.999 11h103
c8.66699 0 14 -2.66699 16 -8s0 -11 -6 -17l-131 -131c-6.66699 -6.66699 -14.667 -10 -24 -10h-95c-10.667 0 -19 4.33301 -25 13z" />
    <glyph glyph-name="Gbreve" unicode="&#x11e;" horiz-adv-x="633" 
d="M550 81c-34 -28.667 -75.334 -51.5 -124.001 -68.5s-97.667 -25.5 -147 -25.5c-82.667 0 -145.334 27 -188.001 81s-57 122.667 -43 206l34 201c13.333 80.667 48.333 143.167 105 187.5s129 66.5 217 66.5c88.667 0 164.334 -23.333 227.001 -70
c10.667 -8 11.667 -17.333 3 -28l-93 -107c-8 -9.33301 -17.333 -10.666 -28 -3.99902c-36.667 21.333 -78.334 32 -125.001 32c-32 0 -57.5 -8.33301 -76.5 -25s-30.833 -39.334 -35.5 -68.001l-33 -198c-4.66699 -29.333 -1.16699 -52.833 10.5 -70.5
s30.834 -26.5 57.501 -26.5c30.667 0 58.334 5.66699 83.001 17l18 94h-81c-14 0 -20 7.66699 -18 23l19 111c2 12 9 18 21 18h244c14.667 0 21 -7.66699 19 -23l-54 -301c-3.33301 -10.667 -7.33301 -18 -12 -22zM596.999 905c-14.667 -44 -38.333 -77 -71 -99
s-77 -33 -133 -33c-42.667 0 -78.5 12.667 -107.5 38s-45.167 56.333 -48.5 93c-2 11.333 3.66699 18.666 17 21.999l98 22c10 2.66699 17.333 -2.66602 22 -15.999c6 -16 20 -24 42 -24c25.333 0 43 9 53 27c6 11.333 14.667 15.666 26 12.999l86 -21
c14.667 -3.33301 20 -10.666 16 -21.999z" />
    <glyph glyph-name="gbreve" unicode="&#x11f;" horiz-adv-x="545" 
d="M464 65c-17.333 -102.667 -46.6709 -173 -88.0039 -211s-110 -57 -206 -57c-75.333 0 -135.666 18.333 -180.999 55c-11.333 8 -12.666 17.333 -3.99902 28l75 95c8 10 17.667 11.333 29 4c26 -14.667 59 -22 99 -22c49.333 0 79 22.333 89 67
c-25.333 -6.66699 -50.666 -10 -75.999 -10c-64.667 0 -112.5 21.167 -143.5 63.5s-40.5 96.5 -28.5 162.5l17 89c12 68 41.333 119.5 88 154.5s105.334 52.5 176.001 52.5c75.333 0 146.333 -13 213 -39c10.667 -4.66699 15 -13 13 -25zM211.995 224
c-7.33301 -39.333 7.00098 -59 43.001 -59c19.333 0 34.666 3.66699 45.999 11l34 194c-8 5.33301 -21.333 8 -40 8c-38 0 -59.667 -18 -65 -54zM514.996 715c-12.667 -46 -34 -80.168 -64 -102.501s-72.333 -33.5 -127 -33.5c-41.333 0 -75.5 13 -102.5 39
s-40.167 58.333 -39.5 97c0 12 6 19 18 21l84 15c12 2.66699 19 -3.33301 21 -18c4 -23.333 18 -35 42 -35c24.667 0 42 13 52 39c4.66699 11.333 13 16 25 14l75 -14c14.667 -3.33301 20 -10.666 16 -21.999z" />
    <glyph glyph-name="Gdotaccent" unicode="&#x120;" horiz-adv-x="633" 
d="M550 81c-34 -28.667 -75.334 -51.5 -124.001 -68.5s-97.667 -25.5 -147 -25.5c-82.667 0 -145.334 27 -188.001 81s-57 122.667 -43 206l34 201c13.333 80.667 48.333 143.167 105 187.5s129 66.5 217 66.5c88.667 0 164.334 -23.333 227.001 -70
c10.667 -8 11.667 -17.333 3 -28l-93 -107c-8 -9.33301 -17.333 -10.666 -28 -3.99902c-36.667 21.333 -78.334 32 -125.001 32c-32 0 -57.5 -8.33301 -76.5 -25s-30.833 -39.334 -35.5 -68.001l-33 -198c-4.66699 -29.333 -1.16699 -52.833 10.5 -70.5
s30.834 -26.5 57.501 -26.5c30.667 0 58.334 5.66699 83.001 17l18 94h-81c-14 0 -20 7.66699 -18 23l19 111c2 12 9 18 21 18h244c14.667 0 21 -7.66699 19 -23l-54 -301c-3.33301 -10.667 -7.33301 -18 -12 -22zM517.999 865
c-4.66699 -24.667 -17.001 -44.834 -37.001 -60.501s-44.667 -23.5 -74 -23.5c-28.667 0 -51 9.16699 -67 27.5s-22 41.166 -18 68.499c4 26.667 16.167 48.334 36.5 65.001s44.166 25 71.499 25c30.667 0 54.334 -9.66699 71.001 -29s22.334 -43.666 17.001 -72.999z" />
    <glyph glyph-name="gdotaccent" unicode="&#x121;" horiz-adv-x="545" 
d="M464 65c-17.333 -102.667 -46.6709 -173 -88.0039 -211s-110 -57 -206 -57c-75.333 0 -135.666 18.333 -180.999 55c-11.333 8 -12.666 17.333 -3.99902 28l75 95c8 10 17.667 11.333 29 4c26 -14.667 59 -22 99 -22c49.333 0 79 22.333 89 67
c-25.333 -6.66699 -50.666 -10 -75.999 -10c-64.667 0 -112.5 21.167 -143.5 63.5s-40.5 96.5 -28.5 162.5l17 89c12 68 41.333 119.5 88 154.5s105.334 52.5 176.001 52.5c75.333 0 146.333 -13 213 -39c10.667 -4.66699 15 -13 13 -25zM211.995 224
c-7.33301 -39.333 7.00098 -59 43.001 -59c19.333 0 34.666 3.66699 45.999 11l34 194c-8 5.33301 -21.333 8 -40 8c-38 0 -59.667 -18 -65 -54zM435.996 674c-4.66699 -26.667 -16.167 -48.332 -34.5 -64.999s-41.5 -25 -69.5 -25c-26.667 0 -47.167 8.66699 -61.5 26
s-18.833 39.666 -13.5 66.999c4.66699 25.333 16.5 46 35.5 62s41.833 24 68.5 24c27.333 0 47.833 -8.16699 61.5 -24.5s18.167 -37.833 13.5 -64.5z" />
    <glyph glyph-name="uni0122" unicode="&#x122;" horiz-adv-x="633" 
d="M550 81c-34 -28.667 -75.334 -51.5 -124.001 -68.5s-97.667 -25.5 -147 -25.5c-82.667 0 -145.334 27 -188.001 81s-57 122.667 -43 206l34 201c13.333 80.667 48.333 143.167 105 187.5s129 66.5 217 66.5c88.667 0 164.334 -23.333 227.001 -70
c10.667 -8 11.667 -17.333 3 -28l-93 -107c-8 -9.33301 -17.333 -10.666 -28 -3.99902c-36.667 21.333 -78.334 32 -125.001 32c-32 0 -57.5 -8.33301 -76.5 -25s-30.833 -39.334 -35.5 -68.001l-33 -198c-4.66699 -29.333 -1.16699 -52.833 10.5 -70.5
s30.834 -26.5 57.501 -26.5c30.667 0 58.334 5.66699 83.001 17l18 94h-81c-14 0 -20 7.66699 -18 23l19 111c2 12 9 18 21 18h244c14.667 0 21 -7.66699 19 -23l-54 -301c-3.33301 -10.667 -7.33301 -18 -12 -22zM245.999 -261h-98.001c-8 0 -13.667 1.83301 -17 5.5
s-3.66602 8.5 -0.999023 14.5l79 169c5.33301 9.33301 14 14 26 14h126c8.66699 0 14.667 -2 18 -6s3 -9 -1 -15l-106 -169c-6 -8.66699 -14.667 -13 -26 -13z" />
    <glyph glyph-name="uni0123" unicode="&#x123;" horiz-adv-x="545" 
d="M464 65c-17.333 -102.667 -46.6709 -173 -88.0039 -211s-110 -57 -206 -57c-75.333 0 -135.666 18.333 -180.999 55c-11.333 8 -12.666 17.333 -3.99902 28l75 95c8 10 17.667 11.333 29 4c26 -14.667 59 -22 99 -22c49.333 0 79 22.333 89 67
c-25.333 -6.66699 -50.666 -10 -75.999 -10c-64.667 0 -112.5 21.167 -143.5 63.5s-40.5 96.5 -28.5 162.5l17 89c12 68 41.333 119.5 88 154.5s105.334 52.5 176.001 52.5c75.333 0 146.333 -13 213 -39c10.667 -4.66699 15 -13 13 -25zM211.995 224
c-7.33301 -39.333 7.00098 -59 43.001 -59c19.333 0 34.666 3.66699 45.999 11l34 194c-8 5.33301 -21.333 8 -40 8c-38 0 -59.667 -18 -65 -54zM374.996 584h-106.001c-8 0 -13.667 1.83301 -17 5.5s-3 8.5 1 14.5l95 155c6.66699 8.66699 15.334 13 26.001 13h83
c8.66699 0 14.667 -1.83301 18 -5.5s3.33301 -8.5 0 -14.5l-74 -155c-5.33301 -8.66699 -14 -13 -26 -13z" />
    <glyph glyph-name="Hbar" unicode="&#x126;" horiz-adv-x="710" 
d="M695 634h54c14 0 20 -7.33301 18 -22l-13 -71c-2 -12 -9 -18 -21 -18h-58l-89 -505c-2 -12 -9 -18 -21 -18h-152c-14 -0 -20 7.33301 -18 22l44 250h-158l-45 -254c-2 -12 -9 -18 -21 -18h-152c-14 -0 -20 7.33301 -18 22l88 501h-68c-14.667 0 -21 7.66699 -19 23l14 70
c2 12 9 18 21 18h72l11 63c2 12 9 18 21 18h152c14 0 20 -7.33301 18 -22l-10 -59h158l11 63c2 12 9 18 21 18h152c14 0 20 -7.33301 18 -22zM312 448h158l13 75h-158z" />
    <glyph glyph-name="hbar" unicode="&#x127;" horiz-adv-x="550" 
d="M268 488c26.667 12.667 57.667 19 93 19c59.333 0 102.333 -22.5 129 -67.5s33.334 -103.5 20.001 -175.5l-47 -246c-2 -12 -9 -18 -21 -18h-141c-14 -0 -20 7.33301 -18 22l49 262c8.66699 43.333 -6.33301 65 -45 65c-14.667 0 -29.334 -3.33301 -44.001 -10l-57 -321
c-2 -12 -9 -18 -21 -18h-141c-14 -0 -20 7.33301 -18 22l96 545h-40c-14 0 -20 7.33301 -18 22l9 45c2 12 9 18 21 18h43l8 45c2 12 9 18 21 18h140c14 0 20 -7.33301 18 -22l-7 -41h92c14 0 20 -7.33301 18 -22l-9 -45c-2 -12 -9 -18 -21 -18h-95z" />
    <glyph glyph-name="Imacron" unicode="&#x12a;" horiz-adv-x="322" 
d="M373 796h-240c-14 0 -20 7.33301 -18 22l15 84c2 12 9 18 21 18h240c14.667 0 21 -7.33301 19 -22l-16 -84c-2 -12 -9 -18 -21 -18zM194 0h-154c-14 -0 -20 7.33301 -18 22l119 675c2 12 9 18 21 18h154c14 0 20 -7.33301 18 -22l-119 -675c-2 -12 -9 -18 -21 -18z" />
    <glyph glyph-name="imacron" unicode="&#x12b;" horiz-adv-x="271" 
d="M320 597h-271c-14.667 0 -21 7.33301 -19 22l15 75c2 12 9 18 21 18h271c14 0 20 -7.33301 18 -22l-14 -75c-2 -12 -9 -18 -21 -18zM160 0h-137c-14 -0 -20 7.33301 -18 22l84 482c2 12 9 18 21 18h138c14 0 20 -7.33301 18 -22l-85 -482c-2 -12 -9 -18 -21 -18z" />
    <glyph glyph-name="Iogonek" unicode="&#x12e;" horiz-adv-x="326" 
d="M192 -174c-38.667 -19.333 -77.335 -29 -116.002 -29c-36 0 -63.5 8.66699 -82.5 26s-26.167 41.333 -21.5 72c7.33301 42.667 36.333 77.667 87 105h-19c-6.66699 0 -11.667 2 -15 6s-4.33301 9.33301 -3 16l118 675c2.66699 12 10 18 22 18h158
c14 0 20 -7.33301 18 -22l-119 -675c-1.33301 -8.66699 -4.5 -13.834 -9.5 -15.501s-14.833 -2.5 -29.5 -2.5h-8c-37.333 -15.333 -58.333 -34.666 -63 -57.999c-1.33301 -8.66699 0.833984 -15.167 6.50098 -19.5s14.167 -6.5 25.5 -6.5s23 2 35 6
c14.667 5.33301 22.667 0.333008 24 -15l5 -57c0.666992 -11.333 -3.66602 -19.333 -12.999 -24z" />
    <glyph glyph-name="iogonek" unicode="&#x12f;" horiz-adv-x="271" 
d="M157 -182c-34.667 -14.667 -71.334 -22.001 -110.001 -22.001s-67.167 9.33301 -85.5 28s-24.5 45.334 -18.5 80.001c8.66699 39.333 39 71.333 91 96h-17c-10 -0 -14 7.33301 -12 22l84 482c2 12 9 18 21 18h138c14 0 20 -7.33301 18 -22l-85 -482
c-1.33301 -8 -4.33301 -13 -9 -15s-13 -3 -25 -3c-22 -9.33301 -39.167 -20.5 -51.5 -33.5s-19.166 -25.5 -20.499 -37.5c-2 -14 10 -21 36 -21c10 0 20.667 1.66699 32 5c15.333 4 23.333 -0.666992 24 -14l5 -57c1.33301 -10.667 -3.66699 -18.667 -15 -24zM303 672.999
c-5.33301 -28.667 -18.4971 -52.667 -39.4971 -72s-45.5 -29 -73.5 -29c-30.667 0 -53.834 9.66699 -69.501 29s-20.834 43.333 -15.501 72c4.66699 30 18.167 54.333 40.5 73s48.833 28 79.5 28c28 0 49.167 -9.33301 63.5 -28s19.166 -43 14.499 -73z" />
    <glyph glyph-name="Idotaccent" unicode="&#x130;" horiz-adv-x="320" 
d="M332 693l-119 -675c-2 -12 -9 -18 -21 -18h-152c-14 -0 -20 7.33301 -18 22l119 675c2 12 9 18 21 18h152c14 0 20 -7.33301 18 -22zM366 869c-4.66699 -24.667 -17.001 -44.834 -37.001 -60.501s-44.667 -23.5 -74 -23.5c-28.667 0 -51 9.16699 -67 27.5
s-22 41.166 -18 68.499c4 26.667 16.167 48.334 36.5 65.001s44.166 25 71.499 25c30.667 0 54.334 -9.66699 71.001 -29s22.334 -43.666 17.001 -72.999z" />
    <glyph glyph-name="dotlessi" unicode="&#x131;" horiz-adv-x="277" 
d="M164 0h-141c-14 -0 -20 7.33301 -18 22l85 482c2 12 9 18 21 18h142c14.667 0 21 -7.33301 19 -22l-86 -482c-2 -12 -9.33301 -18 -22 -18z" />
    <glyph glyph-name="IJ" unicode="&#x132;" horiz-adv-x="859" 
d="M332 693l-119 -675c-2 -12 -9 -18 -21 -18h-152c-14 -0 -20 7.33301 -18 22l119 675c2 12 9 18 21 18h152c14 0 20 -7.33301 18 -22zM798 247c-14.667 -85.333 -48.332 -150.167 -100.999 -194.5s-120.334 -66.5 -203.001 -66.5c-74 0 -138.333 22 -193 66
c-10 8 -11 17.333 -3 28l84 109c7.33301 10 16.666 11.333 27.999 4c28.667 -18.667 61 -28 97 -28c54.667 0 87.334 29 98.001 87l77 445c2 12 9.33301 18 22 18h152c14.667 0 21 -7.33301 19 -22z" />
    <glyph glyph-name="ij" unicode="&#x133;" horiz-adv-x="585" 
d="M165 0h-141c-14.667 -0 -21 7.33301 -19 22l85 482c2 12 9.33301 18 22 18h141c14 0 20 -7.33301 18 -22l-85 -482c-2 -12 -9 -18 -21 -18zM307 668c-5.33301 -24.667 -17.501 -45.167 -36.501 -61.5s-42.167 -24.5 -69.5 -24.5c-29.333 0 -52.166 11 -68.499 33
s-21.5 48.667 -15.5 80c5.33301 26 17.333 46.667 36 62s41.667 23 69 23c30 0 53.167 -10.5 69.5 -31.5s21.5 -47.833 15.5 -80.5zM492.999 0c-13.333 -78 -39.499 -131.334 -78.499 -160.001s-88.833 -43 -149.5 -43c-16 0 -32.667 1.33301 -50 4c-12 2 -17 10 -15 24
l22 126c2 12.667 8.33301 18.334 19 17.001c3.33301 -0.666992 8.66602 -1 15.999 -1c32 0 51.333 18.667 58 56l83 481c2 12 9 18 21 18h142c14 0 20 -7.33301 18 -22zM610 667.999c-4.66699 -24.667 -16.5 -45.167 -35.5 -61.5s-42.167 -24.5 -69.5 -24.5
c-30 0 -53.167 11 -69.5 33s-21.5 48.667 -15.5 80c5.33301 26 17.333 46.667 36 62s41.667 23 69 23c30 0 53.167 -10.5 69.5 -31.5s21.5 -47.833 15.5 -80.5z" />
    <glyph glyph-name="uni0136" unicode="&#x136;" horiz-adv-x="653" 
d="M496 715l195.999 0.000976562c8.66699 0 14.167 -2.5 16.5 -7.5s0.5 -10.833 -5.5 -17.5l-263 -295l178 -371c3.33301 -6.66699 3.5 -12.334 0.5 -17.001s-8.16699 -7 -15.5 -7h-172c-11.333 0 -19.666 5 -24.999 15l-103 245l-58 -60l-32 -182c-2 -12 -9 -18 -21 -18
h-152c-6.66699 0 -11.667 2 -15 6s-4.33301 9.33301 -3 16l120 675c2 12 9 18 21 18h152c14 0 20 -7.33301 18 -22l-39 -217l178 227c6 8 14 12 24 12zM264.999 -239.999h-100.999c-8 0 -13.833 1.83301 -17.5 5.5s-4.16699 8.5 -1.5 14.5l82 166
c5.33301 9.33301 14.333 14 27 14h130c9.33301 0 15.666 -2 18.999 -6s3 -9 -1 -15l-110 -166c-6 -8.66699 -15 -13 -27 -13z" />
    <glyph glyph-name="uni0137" unicode="&#x137;" horiz-adv-x="525" 
d="M374 522h162.999c8.66699 0 14 -2.5 16 -7.5s0.333008 -10.833 -5 -17.5l-173 -195l108 -279c5.33301 -15.333 0 -23 -16 -23h-152c-11.333 0 -18.666 5.66699 -21.999 17l-45 153l-42 -42l-19 -110c-2 -12 -9.33301 -18 -22 -18h-141c-14 -0 -20 7.33301 -18 22l120 675
c2 12 9 18 21 18h141c14.667 0 21 -7.33301 19 -22l-56 -315l99 132c6 8 14 12 24 12zM192.999 -236h-87c-19.333 0 -25.666 6.66699 -18.999 20l78 153c5.33301 9.33301 14.666 14 27.999 14h110c9.33301 0 15.833 -2 19.5 -6s3.16699 -9 -1.5 -15l-101 -153
c-6 -8.66699 -15 -13 -27 -13z" />
    <glyph glyph-name="Lacute" unicode="&#x139;" horiz-adv-x="523" 
d="M332 693l-91 -517h236c14 0 20 -7.33301 18 -22l-23 -136c-2 -12 -9 -18 -21 -18h-411c-14 -0 -20 7.33301 -18 22l119 675c2 12 9 18 21 18h152c14 0 20 -7.33301 18 -22zM275 763h-95c-8.66699 0 -14 2.5 -16 7.5s-0.333008 10.833 5 17.5l108 130
c6.66699 7.33301 15.334 11 26.001 11h124c9.33301 0 15.166 -2.66699 17.499 -8s-0.166992 -11 -7.5 -17l-137 -131c-6.66699 -6.66699 -15 -10 -25 -10z" />
    <glyph glyph-name="lacute" unicode="&#x13a;" horiz-adv-x="309" 
d="M247 -8c-18.667 -4 -38.6641 -6.00195 -59.9971 -6.00195c-56.667 0 -99.334 20.833 -128.001 62.5s-37.334 94.5 -26.001 158.5l86 490c2 12 9 18 21 18h141c14 0 20 -7.33301 18 -22l-87 -493c-6.66699 -37.333 6.66602 -56 39.999 -56h8
c7.33301 0.666992 12.5 -0.666016 15.5 -3.99902s4.16699 -8.66602 3.5 -15.999l-20 -113c-2 -10.667 -6 -17 -12 -19zM258.003 769.998h-95c-8.66699 0 -14 2.5 -16 7.5s-0.333008 10.833 5 17.5l108 130c6.66699 7.33301 15.334 11 26.001 11h124
c9.33301 0 15.166 -2.66699 17.499 -8s-0.166992 -11 -7.5 -17l-137 -131c-6.66699 -6.66699 -15 -10 -25 -10z" />
    <glyph glyph-name="uni013B" unicode="&#x13b;" horiz-adv-x="523" 
d="M332 693l-91 -517h236c14 0 20 -7.33301 18 -22l-23 -136c-2 -12 -9 -18 -21 -18h-411c-14 -0 -20 7.33301 -18 22l119 675c2 12 9 18 21 18h152c14 0 20 -7.33301 18 -22zM188 -268h-91.999c-16.667 0 -22.334 7 -17.001 21l75 173c4 9.33301 12.333 14 25 14h119
c8 0 13.667 -2 17 -6s3 -9.33301 -1 -16l-101 -173c-4.66699 -8.66699 -13 -13 -25 -13z" />
    <glyph glyph-name="uni013C" unicode="&#x13c;" horiz-adv-x="309" 
d="M247 -8c-18.667 -4 -38.6641 -6.00195 -59.9971 -6.00195c-56.667 0 -99.334 20.833 -128.001 62.5s-37.334 94.5 -26.001 158.5l86 490c2 12 9 18 21 18h141c14 0 20 -7.33301 18 -22l-87 -493c-6.66699 -37.333 6.66602 -56 39.999 -56h8
c7.33301 0.666992 12.5 -0.666016 15.5 -3.99902s4.16699 -8.66602 3.5 -15.999l-20 -113c-2 -10.667 -6 -17 -12 -19zM89.0029 -257.002h-83.001c-18 0 -23.667 7 -17 21l74 162c4.66699 10 13.334 15 26.001 15h105c8 0 13.667 -2 17 -6s3 -9.33301 -1 -16l-95 -162
c-5.33301 -9.33301 -14 -14 -26 -14z" />
    <glyph glyph-name="Lcaron" unicode="&#x13d;" horiz-adv-x="528" 
d="M451 0h-411c-14 -0 -20 7.33301 -18 22l119 675c2 12 9 18 21 18h152c14 0 20 -7.33301 18 -22l-91 -517h236c14 0 20 -7.33301 18 -22l-23 -136c-2 -12 -9 -18 -21 -18zM462 521l-89.002 -0.000976562c-7.33301 0 -12.5 2.16699 -15.5 6.5s-3.16699 9.83301 -0.5 16.5
l64 155c4 10.667 11.667 16 23 16h110c8 0 13.333 -2.16699 16 -6.5s2.33398 -10.166 -0.999023 -17.499l-82 -156c-5.33301 -9.33301 -13.666 -14 -24.999 -14z" />
    <glyph glyph-name="lcaron" unicode="&#x13e;" horiz-adv-x="390" 
d="M247 -8c-18.667 -4 -38.998 -6.00098 -60.998 -6.00098c-56 0 -98.333 20.833 -127 62.5s-37.334 94.5 -26.001 158.5l86 490c2 12 9 18 21 18h140c14.667 0 21 -7.33301 19 -22l-87 -493c-6.66699 -38 6.66602 -57 39.999 -57h8
c7.33301 0.666992 12.5 -0.666016 15.5 -3.99902s4.16699 -8.33301 3.5 -15l-20 -113c-2 -10.667 -6 -17 -12 -19zM405.002 497.999l-74 -0.000976562c-16 0 -21.333 7.66699 -16 23l67 178c4 10.667 11.667 16 23 16h95c7.33301 0 12.5 -2.16699 15.5 -6.5
s2.83301 -10.166 -0.5 -17.499l-86 -178c-4.66699 -10 -12.667 -15 -24 -15z" />
    <glyph glyph-name="Ldot" unicode="&#x13f;" horiz-adv-x="528" 
d="M332 693l-91 -517h236c14 0 20 -7.33301 18 -22l-23 -136c-2 -12 -9 -18 -21 -18h-411c-14 -0 -20 7.33301 -18 22l119 675c2 12 9 18 21 18h152c14 0 20 -7.33301 18 -22zM518 352c-4.66699 -25.333 -16.5 -46.1689 -35.5 -62.502s-43.167 -24.5 -72.5 -24.5
c-30.667 0 -54.167 11 -70.5 33s-21.833 49 -16.5 81c5.33301 26.667 17.5 47.834 36.5 63.501s42.833 23.5 71.5 23.5c30.667 0 54.167 -10.667 70.5 -32s21.833 -48.666 16.5 -81.999z" />
    <glyph glyph-name="ldot" unicode="&#x140;" horiz-adv-x="447" 
d="M247 -8c-18.667 -4 -38.998 -6.00098 -60.998 -6.00098c-56 0 -98.333 20.833 -127 62.5s-37.334 94.5 -26.001 158.5l86 490c2 12 9 18 21 18h140c14.667 0 21 -7.33301 19 -22l-87 -493c-6.66699 -38 6.66602 -57 39.999 -57h8
c7.33301 0.666992 12.5 -0.666016 15.5 -3.99902s4.16699 -8.33301 3.5 -15l-20 -113c-2 -10.667 -6 -17 -12 -19zM468.002 376.999c-4 -23.333 -15 -42.5 -33 -57.5s-40 -22.5 -66 -22.5c-27.333 0 -48.666 10 -63.999 30s-20.333 44.667 -15 74
c5.33301 24.667 16.666 44.334 33.999 59.001s39 22 65 22c28 0 49.5 -9.83301 64.5 -29.5s19.833 -44.834 14.5 -75.501z" />
    <glyph glyph-name="Lslash" unicode="&#x141;" horiz-adv-x="562" 
d="M311 354l-31 -177.998h236c14 0 20 -7.33301 18 -22l-23 -136c-2 -12 -9 -18 -21 -18h-411c-14 0 -20 7.33301 -18 22l36 205l-58 -35c-7.33301 -4.66699 -13.166 -5.33398 -17.499 -2.00098s-5.83301 9.66602 -4.5 18.999l19 113c2 9.33301 7.66699 17 17 23l72 43
l55 309c2 12 9 18 21 18h152c14 0 20 -7.33301 18 -22l-32 -178l89 52c7.33301 4.66699 13.166 5.5 17.499 2.5s5.83301 -8.83301 4.5 -17.5l-19 -113c-2 -9.33301 -7.33301 -17 -16 -23z" />
    <glyph glyph-name="lslash" unicode="&#x142;" horiz-adv-x="396" 
d="M387 427l-92.9961 -59.001l-30 -168c-6.66699 -37.333 6.66602 -56 39.999 -56h8c7.33301 0.666992 12.666 -0.666016 15.999 -3.99902s4.66602 -8.66602 3.99902 -15.999l-21 -113c-2 -11.333 -8.33301 -18 -19 -20c-14.667 -3.33301 -32.334 -5 -53.001 -5
c-56 0 -98.5 20.833 -127.5 62.5s-37.833 94.5 -26.5 158.5l5 29l-59 -39c-7.33301 -4.66699 -13.166 -5.5 -17.499 -2.5s-5.83301 8.83301 -4.5 17.5l19 113c2 9.33301 7 16.666 15 21.999l75 49l53 301c2 12 9 18 21 18h141c14 0 20 -7.33301 18 -22l-28 -164l76 47
c7.33301 4.66699 13.166 5.66699 17.499 3s5.83301 -8.33398 4.5 -17.001l-19 -113c-2 -9.33301 -7 -16.666 -15 -21.999z" />
    <glyph glyph-name="Nacute" unicode="&#x143;" horiz-adv-x="689" 
d="M190 0h-149.999c-14 -0 -20 7.33301 -18 22l119 675c2 12 9 18 21 18h157c13.333 0 21.333 -5.66699 24 -17l42 -150c27.333 -84.667 48.666 -164.667 63.999 -240l4 2c8 74 21 164.667 39 272l21 115c2 12 9 18 21 18h149c14 0 20 -7.33301 18 -22l-119 -675
c-2 -12 -9 -18 -21 -18h-157c-11.333 -0 -19 5.33301 -23 16l-45 130c-32.667 88 -57 176.333 -73 265l-4 -2c-9.33301 -132 -20.333 -233 -33 -303l-15 -88c-2 -12 -9 -18 -21 -18zM462.001 763h-95c-8.66699 0 -14 2.5 -16 7.5s-0.333008 10.833 5 17.5l108 130
c6.66699 7.33301 15.334 11 26.001 11h124c9.33301 0 15.166 -2.66699 17.499 -8s-0.166992 -11 -7.5 -17l-137 -131c-6.66699 -6.66699 -15 -10 -25 -10z" />
    <glyph glyph-name="nacute" unicode="&#x144;" horiz-adv-x="547" 
d="M165 0h-143c-14 -0 -20 7.33301 -18 22l80 452c2 10 7.66699 17 17 21c71.333 27.333 141 41 209 41c78.667 0 135 -22.167 169 -66.5s44.667 -104.5 32 -180.5l-48 -271c-2 -12 -9 -18 -21 -18h-141c-14 -0 -20 7.33301 -18 22l48 287c8 46.667 -7 70 -45 70
c-18 0 -31 -2.33301 -39 -7l-61 -354c-2 -12 -9 -18 -21 -18zM343 584h-90.998c-8.66699 0 -14 2.33301 -16 7s-0.333008 10.667 5 18l108 130c5.33301 7.33301 13.666 11 24.999 11h119c9.33301 0 15.166 -2.66699 17.499 -8s-0.166992 -11 -7.5 -17l-136 -131
c-6.66699 -6.66699 -14.667 -10 -24 -10z" />
    <glyph glyph-name="uni0145" unicode="&#x145;" horiz-adv-x="689" 
d="M190 0h-149.999c-14 -0 -20 7.33301 -18 22l119 675c2 12 9 18 21 18h157c13.333 0 21.333 -5.66699 24 -17l42 -150c27.333 -84.667 48.666 -164.667 63.999 -240l4 2c8 74 21 164.667 39 272l21 115c2 12 9 18 21 18h149c14 0 20 -7.33301 18 -22l-119 -675
c-2 -12 -9 -18 -21 -18h-157c-11.333 -0 -19 5.33301 -23 16l-45 130c-32.667 88 -57 176.333 -73 265l-4 -2c-9.33301 -132 -20.333 -233 -33 -303l-15 -88c-2 -12 -9 -18 -21 -18zM250.001 -266h-95.002c-7.33301 0 -12.666 1.83301 -15.999 5.5
s-3.66602 8.5 -0.999023 14.5l76 171c4 10 12.667 15 26 15h122c8 0 13.667 -2 17 -6s3 -9.33301 -1 -16l-103 -171c-4.66699 -8.66699 -13 -13 -25 -13z" />
    <glyph glyph-name="uni0146" unicode="&#x146;" horiz-adv-x="547" 
d="M165 0h-143c-14 -0 -20 7.33301 -18 22l80 452c2 10 7.66699 17 17 21c71.333 27.333 141 41 209 41c78.667 0 135 -22.167 169 -66.5s44.667 -104.5 32 -180.5l-48 -271c-2 -12 -9 -18 -21 -18h-141c-14 -0 -20 7.33301 -18 22l48 287c8 46.667 -7 70 -45 70
c-18 0 -31 -2.33301 -39 -7l-61 -354c-2 -12 -9 -18 -21 -18zM182 -226h-85.001c-18.667 0 -24.667 6 -18 18l76 146c4.66699 8.66699 13.667 13 27 13h106c8.66699 0 14.834 -2 18.501 -6s3.16699 -8.66699 -1.5 -14l-97 -145c-6 -8 -14.667 -12 -26 -12z" />
    <glyph glyph-name="Ncaron" unicode="&#x147;" horiz-adv-x="689" 
d="M190 0h-149.999c-14 -0 -20 7.33301 -18 22l119 675c2 12 9 18 21 18h157c13.333 0 21.333 -5.66699 24 -17l42 -150c27.333 -84.667 48.666 -164.667 63.999 -240l4 2c8 74 21 164.667 39 272l21 115c2 12 9 18 21 18h149c14 0 20 -7.33301 18 -22l-119 -675
c-2 -12 -9 -18 -21 -18h-157c-11.333 -0 -19 5.33301 -23 16l-45 130c-32.667 88 -57 176.333 -73 265l-4 -2c-9.33301 -132 -20.333 -233 -33 -303l-15 -88c-2 -12 -9 -18 -21 -18zM516.001 929l110 -0.000976562c9.33301 0 15 -2.66699 17 -8s0 -11 -6 -17l-131 -131
c-6.66699 -6.66699 -15 -10 -25 -10h-109c-10.667 0 -18.667 4.33301 -24 13l-80 129c-4.66699 6.66699 -5.83398 12.334 -3.50098 17.001s7.83301 7 16.5 7h116c10.667 0 18.334 -5 23.001 -15l25 -55l46 58c6 8 14.333 12 25 12z" />
    <glyph glyph-name="ncaron" unicode="&#x148;" horiz-adv-x="547" 
d="M165 0h-143c-14 -0 -20 7.33301 -18 22l80 452c2 10 7.66699 17 17 21c71.333 27.333 141 41 209 41c78.667 0 135 -22.167 169 -66.5s44.667 -104.5 32 -180.5l-48 -271c-2 -12 -9 -18 -21 -18h-141c-14 -0 -20 7.33301 -18 22l48 287c8 46.667 -7 70 -45 70
c-18 0 -31 -2.33301 -39 -7l-61 -354c-2 -12 -9 -18 -21 -18zM244 587l-80.999 128.999c-4.66699 6.66699 -5.5 12.334 -2.5 17.001s8.5 7 16.5 7h97c12 0 20.333 -4.66699 25 -14l29 -54l53 57c7.33301 7.33301 15.666 11 24.999 11h103c8.66699 0 14 -2.66699 16 -8
s0 -11 -6 -17l-131 -131c-6.66699 -6.66699 -14.667 -10 -24 -10h-95c-10.667 0 -19 4.33301 -25 13z" />
    <glyph glyph-name="Eng" unicode="&#x14a;" horiz-adv-x="693" 
d="M580 -13c-12 -69.333 -35.833 -119.501 -71.5 -150.501s-86.5 -46.5 -152.5 -46.5c-27.333 0 -49 2 -65 6c-12 2.66699 -17 10.667 -15 24l20 113c0.666992 6.66699 2.33398 11.334 5.00098 14.001s5.66699 3.66699 9 3h11c22.667 0 39.667 4.16699 51 12.5
s19 21.5 23 39.5l-67 188c-29.333 73.333 -50.666 147.333 -63.999 222h-5c-4.66699 -112.667 -15.334 -216 -32.001 -310l-15 -84c-2 -12 -9.33301 -18 -22 -18h-149c-14.667 -0 -21 7.33301 -19 22l119 675c2 12 9.33301 18 22 18h158c11.333 0 19 -5.66699 23 -17
l62 -210c27.333 -88 43.666 -151.667 48.999 -191h5c9.33301 122 21.333 218 36 288l20 112c2.66699 12 10 18 22 18h148c14.667 0 21 -7.33301 19 -22z" />
    <glyph glyph-name="eng" unicode="&#x14b;" horiz-adv-x="542" 
d="M459 10c-12.667 -72 -37.165 -125.5 -73.498 -160.5s-87.5 -52.5 -153.5 -52.5c-14.667 0 -30 1.33301 -46 4c-13.333 2 -18.333 10 -15 24l20 115c0.666992 6 2.66699 10.667 6 14s7.33301 4.66602 12 3.99902c3.33301 -0.666992 8 -1 14 -1
c14.667 0 26.667 4.33301 36 13s16 25.334 20 50.001l48 289c8 46.667 -6.33301 70 -43 70c-16 0 -28.667 -2.33301 -38 -7l-60 -354c-2 -12 -9.33301 -18 -22 -18h-141c-14 -0 -20 7.33301 -18 22l79 452c2 10.667 8 17.667 18 21c70 27.333 138.667 41 206 41
c77.333 0 132.666 -22.333 165.999 -67s43.666 -104.667 30.999 -180z" />
    <glyph glyph-name="Omacron" unicode="&#x14c;" horiz-adv-x="659" 
d="M616 258c-15.333 -87.333 -51.6699 -154.501 -109.003 -201.501s-132.333 -70.5 -225 -70.5c-85.333 0 -149.666 28.667 -192.999 86s-56.666 132 -39.999 224l30 168c14.667 83.333 50.834 148.333 108.501 195s131.5 70 221.5 70c85.333 0 150 -27.167 194 -81.5
s57.667 -129.166 41 -224.499zM241.996 272.999c-12.667 -72.667 10.667 -109.001 70 -109.001c29.333 0 53.333 9.33301 72 28s30.667 44.334 36 77.001l30 174c12.667 72 -10 108 -68 108c-59.333 0 -95.333 -34.333 -108 -103zM573.997 795.998h-291
c-15.333 0 -21.333 7.33301 -18 22l16 84c2 12 9 18 21 18h291c14 0 20 -7.33301 18 -22l-15 -84c-2 -12 -9.33301 -18 -22 -18z" />
    <glyph glyph-name="omacron" unicode="&#x14d;" horiz-adv-x="544" 
d="M497 189c-23.333 -135.333 -114.001 -203.002 -272.001 -203.002c-68.667 0 -122 22.5 -160 67.5s-51.333 100.833 -40 167.5l20 114c11.333 64.667 40.333 114.334 87 149.001s106.667 52 180 52c69.333 0 123.833 -21.667 163.5 -65s53.834 -97.666 42.501 -162.999z
M206.999 201.998c-3.33301 -18 -1.16406 -32.166 6.50293 -42.499s19.5 -15.5 35.5 -15.5c35.333 0 56.666 18 63.999 54l22 120c3.33301 18 1.16602 32.667 -6.50098 44s-19.834 17 -36.501 17s-30.5 -4.83301 -41.5 -14.5s-18.167 -22.834 -21.5 -39.501zM172.001 608.999
l14 75c2 12 9 18 21 18h270c14 0 20 -7.33301 18 -22l-14 -75c-2 -12 -9 -18 -21 -18h-270c-14 0 -20 7.33301 -18 22z" />
    <glyph glyph-name="Ohungarumlaut" unicode="&#x150;" horiz-adv-x="659" 
d="M616 258c-15.333 -87.333 -51.6699 -154.501 -109.003 -201.501s-132.333 -70.5 -225 -70.5c-85.333 0 -149.666 28.667 -192.999 86s-56.666 132 -39.999 224l30 168c14.667 83.333 50.834 148.333 108.501 195s131.5 70 221.5 70c85.333 0 150 -27.167 194 -81.5
s57.667 -129.166 41 -224.499zM241.996 272.999c-12.667 -72.667 10.667 -109.001 70 -109.001c29.333 0 53.333 9.33301 72 28s30.667 44.334 36 77.001l30 174c12.667 72 -10 108 -68 108c-59.333 0 -95.333 -34.333 -108 -103zM324.997 772.998l-90.998 0.000976562
c-8.66699 0 -14.167 2.16699 -16.5 6.5s-0.833008 10.166 4.5 17.499l106 130c7.33301 8 15.666 12 24.999 12h122c8.66699 0 14.167 -2.66699 16.5 -8s0.166016 -11 -6.50098 -17l-136 -131c-6.66699 -6.66699 -14.667 -10 -24 -10zM564.999 772.999h-97.999
c-8.66699 0 -14.167 2.5 -16.5 7.5s-0.5 10.833 5.5 17.5l119 130c7.33301 7.33301 15.666 11 24.999 11h126c9.33301 0 15 -2.5 17 -7.5s-0.333008 -10.833 -7 -17.5l-146 -132c-6 -6 -14.333 -9 -25 -9z" />
    <glyph glyph-name="ohungarumlaut" unicode="&#x151;" horiz-adv-x="544" 
d="M497 189c-23.333 -135.333 -114.001 -203.002 -272.001 -203.002c-68.667 0 -122 22.5 -160 67.5s-51.333 100.833 -40 167.5l20 114c11.333 64.667 40.333 114.334 87 149.001s106.667 52 180 52c69.333 0 123.833 -21.667 163.5 -65s53.834 -97.666 42.501 -162.999z
M206.999 201.998c-3.33301 -18 -1.16406 -32.166 6.50293 -42.499s19.5 -15.5 35.5 -15.5c35.333 0 56.666 18 63.999 54l22 120c3.33301 18 1.16602 32.667 -6.50098 44s-19.834 17 -36.501 17s-30.5 -4.83301 -41.5 -14.5s-18.167 -22.834 -21.5 -39.501zM240.001 573.999
h-63c-8 0 -13.333 2.16699 -16 6.5s-1.66699 9.5 3 15.5l87 118c6 8 14.333 12 25 12h88c9.33301 0 15 -2.16699 17 -6.5s0 -9.83301 -6 -16.5l-110 -119c-6 -6.66699 -14.333 -10 -25 -10zM434.001 573.999h-61.998c-8 0 -13.333 2.16699 -16 6.5s-1.66699 9.5 3 15.5
l86 118c7.33301 8 15.666 12 24.999 12h89c8.66699 0 14.167 -2.33301 16.5 -7s0.5 -10 -5.5 -16l-110 -119c-6.66699 -6.66699 -15.334 -10 -26.001 -10z" />
    <glyph glyph-name="OE" unicode="&#x152;" horiz-adv-x="927" 
d="M951 693l-23.998 -133c-2 -12 -9 -18 -21 -18h-249l-18 -97h209c14 0 20 -7.33301 18 -22l-23 -127c-2 -12 -9 -18 -21 -18h-213l-19 -104h265c14 0 20 -7.33301 18 -22l-24 -134c-2 -12 -9.33301 -18 -22 -18h-415c-15.333 -0 -21.333 7.33301 -18 22v3
c-38.667 -25.333 -83.334 -38 -134.001 -38c-78 0 -136.667 28.333 -176 85s-51 131.667 -35 225l30 163c14 83.333 48.167 148.833 102.5 196.5s122.166 71.5 203.499 71.5c48 0 89 -11.667 123 -35v4c2 12 9.33301 18 22 18h403c14 0 20 -7.33301 18 -22zM410.002 253
l32.998 194c5.33301 30 2 54.333 -10 73s-31.667 28 -59 28s-50.166 -9.5 -68.499 -28.5s-30.166 -44.833 -35.499 -77.5l-29 -165c-5.33301 -33.333 -2.33301 -59.333 9 -78s30 -28 56 -28s48.667 7.5 68 22.5s31.333 34.833 36 59.5z" />
    <glyph glyph-name="oe" unicode="&#x153;" horiz-adv-x="811" 
d="M378 32c-38.667 -30.667 -89.335 -46 -152.002 -46c-68.667 0 -122.334 22.5 -161.001 67.5s-51.667 100.833 -39 167.5l21 114c12 64.667 40.833 114.334 86.5 149.001s103.834 52 174.501 52c52 0 96.333 -15.667 133 -47c42.667 31.333 93.334 47 152.001 47
c70 0 123.5 -18.833 160.5 -56.5s49.167 -92.834 36.5 -165.501l-16 -93c-2 -12 -9 -18 -21 -18h-257l-1 -14c-3.33301 -19.333 -0.666016 -33 8.00098 -41s24 -12 46 -12c38 0 76.333 11 115 33c12.667 7.33301 21.667 5 27 -7l45 -93c5.33301 -12 3 -21 -7 -27
c-58 -37.333 -127 -56 -207 -56c-56 0 -104 15.333 -144 46zM206.999 202c-2.66699 -18 -0.334961 -32.166 6.99805 -42.499s19 -15.5 35 -15.5c36.667 0 58.334 18 65.001 54l23 130c1.33301 15.333 -2 27.666 -10 36.999s-19.333 14 -34 14c-16.667 0 -30.667 -5 -42 -15
s-18.666 -23 -21.999 -39zM519.998 334.001l-4.00293 -24.001h95l4 21c0 6 0.333008 13.333 1 22s-2.16602 16.834 -8.49902 24.501s-16.166 11.5 -29.499 11.5c-15.333 0 -28.166 -5 -38.499 -15s-16.833 -23.333 -19.5 -40z" />
    <glyph glyph-name="Racute" unicode="&#x154;" horiz-adv-x="632" 
d="M193 0l-153 0.000976562c-14 0 -20 7.33301 -18 22l118 675c2 12 9 18 21 18h238c82 0 143.5 -24.833 184.5 -74.5s55.167 -112.834 42.5 -189.501c-15.333 -98 -68 -166.667 -158 -206l96 -222c6.66699 -15.333 1.66699 -23 -15 -23h-164c-11.333 -0 -19 5.33301 -23 16
l-68 203h-45l-35 -201c-2 -12 -9 -18 -21 -18zM305 540.001l-27 -150h66c26 0 45.833 5.66699 59.5 17s22.5 29.333 26.5 54c8 52.667 -12.333 79 -61 79h-64zM405 763.001h-95c-8.66699 0 -14 2.5 -16 7.5s-0.333008 10.833 5 17.5l108 130
c6.66699 7.33301 15.334 11 26.001 11h124c9.33301 0 15.166 -2.66699 17.499 -8s-0.166992 -11 -7.5 -17l-137 -131c-6.66699 -6.66699 -15 -10 -25 -10z" />
    <glyph glyph-name="racute" unicode="&#x155;" horiz-adv-x="358" 
d="M165 0h-142.002c-14 -0 -20 7.33301 -18 22l78 448c2 10 7.66699 17.333 17 22c62 29.333 127.333 44 196 44c22.667 0 47.334 -3 74.001 -9c12.667 -2.66699 18 -10.667 16 -24l-21 -121c-2 -12.667 -10 -18 -24 -16c-13.333 2 -26.666 3 -39.999 3
c-19.333 0 -37.333 -3 -54 -9l-61 -342c-2 -12 -9 -18 -21 -18zM263.998 584h-90.998c-8.66699 0 -14 2.33301 -16 7s-0.333008 10.667 5 18l108 130c5.33301 7.33301 13.666 11 24.999 11h119c9.33301 0 15.166 -2.66699 17.499 -8s-0.166992 -11 -7.5 -17l-136 -131
c-6.66699 -6.66699 -14.667 -10 -24 -10z" />
    <glyph glyph-name="uni0156" unicode="&#x156;" horiz-adv-x="632" 
d="M193 0l-153 0.000976562c-14 0 -20 7.33301 -18 22l118 675c2 12 9 18 21 18h238c82 0 143.5 -24.833 184.5 -74.5s55.167 -112.834 42.5 -189.501c-15.333 -98 -68 -166.667 -158 -206l96 -222c6.66699 -15.333 1.66699 -23 -15 -23h-164c-11.333 -0 -19 5.33301 -23 16
l-68 203h-45l-35 -201c-2 -12 -9 -18 -21 -18zM305 540.001l-27 -150h66c26 0 45.833 5.66699 59.5 17s22.5 29.333 26.5 54c8 52.667 -12.333 79 -61 79h-64zM242 -259.999l-93 -0.000976562c-8 0 -13.5 1.83301 -16.5 5.5s-3.16699 8.83398 -0.5 15.501l75 173
c5.33301 9.33301 14 14 26 14h120c8.66699 0 14.5 -2 17.5 -6s2.83301 -9.33301 -0.5 -16l-102 -173c-6 -8.66699 -14.667 -13 -26 -13z" />
    <glyph glyph-name="uni0157" unicode="&#x157;" horiz-adv-x="358" 
d="M165 0h-142.002c-14 -0 -20 7.33301 -18 22l78 448c2 10 7.66699 17.333 17 22c62 29.333 127.333 44 196 44c22.667 0 47.334 -3 74.001 -9c12.667 -2.66699 18 -10.667 16 -24l-21 -121c-2 -12.667 -10 -18 -24 -16c-13.333 2 -26.666 3 -39.999 3
c-19.333 0 -37.333 -3 -54 -9l-61 -342c-2 -12 -9 -18 -21 -18zM41.998 -220h-87c-18 0 -24 6.33301 -18 19l77 147c5.33301 8.66699 14.666 13 27.999 13h109c8.66699 0 14.834 -1.83301 18.501 -5.5s3.16699 -8.5 -1.5 -14.5l-99 -147c-6 -8 -15 -12 -27 -12z" />
    <glyph glyph-name="Rcaron" unicode="&#x158;" horiz-adv-x="632" 
d="M193 0l-153 0.000976562c-14 0 -20 7.33301 -18 22l118 675c2 12 9 18 21 18h238c82 0 143.5 -24.833 184.5 -74.5s55.167 -112.834 42.5 -189.501c-15.333 -98 -68 -166.667 -158 -206l96 -222c6.66699 -15.333 1.66699 -23 -15 -23h-164c-11.333 -0 -19 5.33301 -23 16
l-68 203h-45l-35 -201c-2 -12 -9 -18 -21 -18zM305 540.001l-27 -150h66c26 0 45.833 5.66699 59.5 17s22.5 29.333 26.5 54c8 52.667 -12.333 79 -61 79h-64zM469 929.001l110 -0.000976562c9.33301 0 15 -2.66699 17 -8s0 -11 -6 -17l-131 -131
c-6.66699 -6.66699 -15 -10 -25 -10h-109c-10.667 0 -18.667 4.33301 -24 13l-80 129c-4.66699 6.66699 -5.83398 12.334 -3.50098 17.001s7.83301 7 16.5 7h116c10.667 0 18.334 -5 23.001 -15l25 -55l46 58c6 8 14.333 12 25 12z" />
    <glyph glyph-name="rcaron" unicode="&#x159;" horiz-adv-x="358" 
d="M165 0h-142.002c-14 -0 -20 7.33301 -18 22l78 448c2 10 7.66699 17.333 17 22c62 29.333 127.333 44 196 44c22.667 0 47.334 -3 74.001 -9c12.667 -2.66699 18 -10.667 16 -24l-21 -121c-2 -12.667 -10 -18 -24 -16c-13.333 2 -26.666 3 -39.999 3
c-19.333 0 -37.333 -3 -54 -9l-61 -342c-2 -12 -9 -18 -21 -18zM177.998 597l-80.999 128.999c-4.66699 6.66699 -5.5 12.334 -2.5 17.001s8.5 7 16.5 7h97c12 0 20.333 -4.66699 25 -14l29 -54l53 57c7.33301 7.33301 15.666 11 24.999 11h103c8.66699 0 14 -2.66699 16 -8
s0 -11 -6 -17l-131 -131c-6.66699 -6.66699 -14.667 -10 -24 -10h-95c-10.667 0 -19 4.33301 -25 13z" />
    <glyph glyph-name="Sacute" unicode="&#x15a;" horiz-adv-x="612" 
d="M575 194c-30 -138.667 -133.33 -207.998 -309.997 -207.998c-96.667 0 -180.667 33 -252 99c-9.33301 8.66699 -10 18 -2 28l88 112c7.33301 10.667 17 11.667 29 3c52 -42 105.667 -63 161 -63c56 0 86.333 16 91 48c2 14.667 -4.16699 26.5 -18.5 35.5
s-41.833 19.167 -82.5 30.5c-67.333 19.333 -119 49.166 -155 89.499s-48.667 92.5 -38 156.5c11.333 70 43.166 121.5 95.499 154.5s116.833 49.5 193.5 49.5c93.333 0 174.666 -24.667 243.999 -74c11.333 -7.33301 12.666 -16.666 3.99902 -27.999l-97 -116
c-8 -8.66699 -17.667 -10 -29 -4c-46 30 -94 45 -144 45c-44 0 -68 -13.333 -72 -40c-2 -13.333 4.16699 -24.333 18.5 -33s38.5 -18.334 72.5 -29.001l29 -9.5c7.33301 -2.33301 17.333 -6 30 -11s23.334 -9.83301 32.001 -14.5l30 -16.5
c11.333 -6.33301 20.833 -13.333 28.5 -21s15.667 -16.167 24 -25.5s14.666 -19.5 18.999 -30.5s8.16602 -22.833 11.499 -35.5s4.83301 -26.834 4.5 -42.501s-2.16602 -32.167 -5.49902 -49.5zM404.003 773.002h-95c-8.66699 0 -14 2.5 -16 7.5s-0.333008 10.833 5 17.5
l108 130c6.66699 7.33301 15.334 11 26.001 11h124c9.33301 0 15.166 -2.66699 17.499 -8s-0.166992 -11 -7.5 -17l-137 -131c-6.66699 -6.66699 -15 -10 -25 -10z" />
    <glyph glyph-name="sacute" unicode="&#x15b;" horiz-adv-x="495" 
d="M454 153c-20 -111.333 -101.333 -167.002 -244 -167.002c-82 0 -152.667 22.333 -212 67c-9.33301 8 -10.333 17.333 -3 28l70 95c7.33301 9.33301 17 10.666 29 3.99902c38.667 -25.333 79 -38 121 -38c33.333 0 51.666 8 54.999 24
c1.33301 9.33301 -2.5 15.833 -11.5 19.5s-23.5 7.16699 -43.5 10.5c-62.667 10.667 -108 32.334 -136 65.001s-36.667 74 -26 124c22.667 100.667 105.334 151 248.001 151c66 0 126 -15 180 -45c12.667 -7.33301 14.334 -16.666 5.00098 -27.999l-71 -94
c-6.66699 -9.33301 -15.667 -11 -27 -5c-29.333 15.333 -64 23 -104 23c-30.667 0 -47.334 -6.33301 -50.001 -19c-1.33301 -8 2.5 -13.667 11.5 -17s27.5 -7.66602 55.5 -12.999c20 -4 38.5 -9.5 55.5 -16.5s34.833 -17.167 53.5 -30.5s32 -31.833 40 -55.5
s9.33301 -51.167 4 -82.5zM310 573.998h-90.998c-8.66699 0 -14 2.33301 -16 7s-0.333008 10.667 5 18l108 130c5.33301 7.33301 13.666 11 24.999 11h119c9.33301 0 15.166 -2.66699 17.499 -8s-0.166992 -11 -7.5 -17l-136 -131c-6.66699 -6.66699 -14.667 -10 -24 -10z
" />
    <glyph glyph-name="Scedilla" unicode="&#x15e;" horiz-adv-x="612" 
d="M575 194c-27.333 -122 -111.997 -190.331 -253.997 -204.998l-18 -34c25.333 -3.33301 44.5 -12.833 57.5 -28.5s17.167 -35.834 12.5 -60.501c-4 -24 -18.167 -43.167 -42.5 -57.5s-57.5 -21.5 -99.5 -21.5c-20.667 0 -40.334 2.33301 -59.001 7
c-12 2.66699 -17 10.667 -15 24l5 33c2 12 10 16.333 24 13c9.33301 -1.33301 17 -2 23 -2c30.667 0 47.334 8.33301 50.001 25c1.33301 7.33301 0 12.833 -4 16.5s-11.5 7 -22.5 10s-17.167 4.83301 -18.5 5.5c-6 2 -6.66699 7.33301 -2 16l29 52
c-86.667 4.66699 -162.667 37.334 -228 98.001c-9.33301 8.66699 -10 18 -2 28l88 112c7.33301 10.667 17 11.667 29 3c52 -42 105.667 -63 161 -63c56 0 86.333 16 91 48c2 14.667 -4.16699 26.5 -18.5 35.5s-41.833 19.167 -82.5 30.5
c-67.333 19.333 -119 49.166 -155 89.499s-48.667 92.5 -38 156.5c11.333 70 43.166 121.5 95.499 154.5s116.833 49.5 193.5 49.5c93.333 0 174.666 -24.667 243.999 -74c11.333 -7.33301 12.666 -16.666 3.99902 -27.999l-97 -116c-8 -8.66699 -17.667 -10 -29 -4
c-46 30 -94 45 -144 45c-44 0 -68 -13.333 -72 -40c-2 -13.333 4.16699 -24.333 18.5 -33s38.5 -18.334 72.5 -29.001l29 -9.5c7.33301 -2.33301 17.333 -6 30 -11s23.334 -9.83301 32.001 -14.5l30 -16.5c11.333 -6.33301 20.833 -13.333 28.5 -21s15.667 -16.167 24 -25.5
s14.666 -19.5 18.999 -30.5s8.16602 -22.833 11.499 -35.5s4.83301 -26.834 4.5 -42.501s-2.16602 -32.167 -5.49902 -49.5z" />
    <glyph glyph-name="scedilla" unicode="&#x15f;" horiz-adv-x="495" 
d="M306 -134c-4 -24 -18.167 -43.1689 -42.5 -57.502s-57.5 -21.5 -99.5 -21.5c-20.667 0 -40.334 2.33301 -59.001 7c-12 2.66699 -17 10.667 -15 24l5 33c2 12 10 16.333 24 13c9.33301 -1.33301 17 -2 23 -2c30.667 0 47.334 8.33301 50.001 25
c1.33301 7.33301 0 12.833 -4 16.5s-11.5 7 -22.5 10s-17.167 4.83301 -18.5 5.5c-6 2 -6.66699 7.33301 -2 16l30 53c-67.333 4.66699 -126.333 26.334 -177 65.001c-9.33301 8 -10.333 17.333 -3 28l70 95c7.33301 9.33301 17 10.666 29 3.99902
c38.667 -25.333 79 -38 121 -38c33.333 0 51.666 8 54.999 24c1.33301 9.33301 -2.5 15.833 -11.5 19.5s-23.5 7.16699 -43.5 10.5c-62.667 10.667 -108 32.334 -136 65.001s-36.667 74 -26 124c22.667 100.667 105.334 151 248.001 151c66 0 126 -15 180 -45
c12.667 -7.33301 14.334 -16.666 5.00098 -27.999l-71 -94c-6.66699 -9.33301 -15.667 -11 -27 -5c-29.333 15.333 -64 23 -104 23c-30.667 0 -47.334 -6.33301 -50.001 -19c-1.33301 -8 2.5 -13.667 11.5 -17s27.5 -7.66602 55.5 -12.999c20 -4 38.5 -9.5 55.5 -16.5
s34.833 -17.167 53.5 -30.5s32 -31.833 40 -55.5s9.33301 -51.167 4 -82.5c-18 -98.667 -84.667 -153.667 -200 -165l-18 -33c25.333 -3.33301 44.5 -12.833 57.5 -28.5s17.167 -35.834 12.5 -60.501z" />
    <glyph glyph-name="Scaron" unicode="&#x160;" horiz-adv-x="612" 
d="M575 194c-30 -138.667 -133.33 -207.998 -309.997 -207.998c-96.667 0 -180.667 33 -252 99c-9.33301 8.66699 -10 18 -2 28l88 112c7.33301 10.667 17 11.667 29 3c52 -42 105.667 -63 161 -63c56 0 86.333 16 91 48c2 14.667 -4.16699 26.5 -18.5 35.5
s-41.833 19.167 -82.5 30.5c-67.333 19.333 -119 49.166 -155 89.499s-48.667 92.5 -38 156.5c11.333 70 43.166 121.5 95.499 154.5s116.833 49.5 193.5 49.5c93.333 0 174.666 -24.667 243.999 -74c11.333 -7.33301 12.666 -16.666 3.99902 -27.999l-97 -116
c-8 -8.66699 -17.667 -10 -29 -4c-46 30 -94 45 -144 45c-44 0 -68 -13.333 -72 -40c-2 -13.333 4.16699 -24.333 18.5 -33s38.5 -18.334 72.5 -29.001l29 -9.5c7.33301 -2.33301 17.333 -6 30 -11s23.334 -9.83301 32.001 -14.5l30 -16.5
c11.333 -6.33301 20.833 -13.333 28.5 -21s15.667 -16.167 24 -25.5s14.666 -19.5 18.999 -30.5s8.16602 -22.833 11.499 -35.5s4.83301 -26.834 4.5 -42.501s-2.16602 -32.167 -5.49902 -49.5zM468.003 949.002l110 -0.000976562c9.33301 0 15 -2.66699 17 -8s0 -11 -6 -17
l-131 -131c-6.66699 -6.66699 -15 -10 -25 -10h-109c-10.667 0 -18.667 4.33301 -24 13l-80 129c-4.66699 6.66699 -5.83398 12.334 -3.50098 17.001s7.83301 7 16.5 7h116c10.667 0 18.334 -5 23.001 -15l25 -55l46 58c6 8 14.333 12 25 12z" />
    <glyph glyph-name="scaron" unicode="&#x161;" horiz-adv-x="495" 
d="M454 153c-20 -111.333 -101.333 -167.002 -244 -167.002c-82 0 -152.667 22.333 -212 67c-9.33301 8 -10.333 17.333 -3 28l70 95c7.33301 9.33301 17 10.666 29 3.99902c38.667 -25.333 79 -38 121 -38c33.333 0 51.666 8 54.999 24
c1.33301 9.33301 -2.5 15.833 -11.5 19.5s-23.5 7.16699 -43.5 10.5c-62.667 10.667 -108 32.334 -136 65.001s-36.667 74 -26 124c22.667 100.667 105.334 151 248.001 151c66 0 126 -15 180 -45c12.667 -7.33301 14.334 -16.666 5.00098 -27.999l-71 -94
c-6.66699 -9.33301 -15.667 -11 -27 -5c-29.333 15.333 -64 23 -104 23c-30.667 0 -47.334 -6.33301 -50.001 -19c-1.33301 -8 2.5 -13.667 11.5 -17s27.5 -7.66602 55.5 -12.999c20 -4 38.5 -9.5 55.5 -16.5s34.833 -17.167 53.5 -30.5s32 -31.833 40 -55.5
s9.33301 -51.167 4 -82.5zM214 606.998l-80.999 128.999c-4.66699 6.66699 -5.5 12.334 -2.5 17.001s8.5 7 16.5 7h97c12 0 20.333 -4.66699 25 -14l29 -54l53 57c7.33301 7.33301 15.666 11 24.999 11h103c8.66699 0 14 -2.66699 16 -8s0 -11 -6 -17l-131 -131
c-6.66699 -6.66699 -14.667 -10 -24 -10h-95c-10.667 0 -19 4.33301 -25 13z" />
    <glyph glyph-name="uni0162" unicode="&#x162;" horiz-adv-x="571" 
d="M111 715h506c14 0 20 -7.33301 18 -22l-24 -136c-2 -12 -9 -18 -21 -18h-158l-92 -521c-2 -12 -9 -18 -21 -18h-152c-14 -0 -20 7.33301 -18 22l91 517h-156c-14.667 0 -21 7.33301 -19 22l25 136c2 12 9 18 21 18zM191 -236l-97.999 0.000976562
c-8 0 -13.833 1.66699 -17.5 5s-4.16699 7.66602 -1.5 12.999l80 155c4 8.66699 12.667 13 26 13h127c8.66699 0 14.667 -1.83301 18 -5.5s3 -8.5 -1 -14.5l-107 -154c-4.66699 -8 -13.334 -12 -26.001 -12z" />
    <glyph glyph-name="uni0163" unicode="&#x163;" horiz-adv-x="349" 
d="M98 -239h-86c-18 0 -24.333 6.66699 -19 20l77 150c5.33301 8.66699 14.666 13 27.999 13h108c8.66699 0 14.834 -1.83301 18.501 -5.5s3.16699 -8.5 -1.5 -14.5l-99 -150c-5.33301 -8.66699 -14 -13 -26 -13zM314 354l-73 0.000976562l-27 -152
c-6.66699 -38 8 -57 44 -57c2.66699 0 6.33398 0.166992 11.001 0.5s8 0.5 10 0.5c7.33301 1.33301 12.833 0.166016 16.5 -3.50098s4.83398 -9.16699 3.50098 -16.5l-20 -113c-2 -11.333 -8.33301 -18 -19 -20c-20 -4.66699 -40.667 -7 -62 -7
c-64.667 0 -111.334 19.5 -140.001 58.5s-36.334 96.5 -23.001 172.5l71 410c2 12 9.33301 18 22 18h123c14 0 20.667 -7 20 -21l-6 -118h71c14 0 20 -7.33301 18 -22l-19 -112c-2 -12 -9 -18 -21 -18z" />
    <glyph glyph-name="Tcaron" unicode="&#x164;" horiz-adv-x="571" 
d="M111 715h506c14 0 20 -7.33301 18 -22l-24 -136c-2 -12 -9 -18 -21 -18h-158l-92 -521c-2 -12 -9 -18 -21 -18h-152c-14 -0 -20 7.33301 -18 22l91 517h-156c-14.667 0 -21 7.33301 -19 22l25 136c2 12 9 18 21 18zM461 929l110 -0.000976562
c9.33301 0 15 -2.66699 17 -8s0 -11 -6 -17l-131 -131c-6.66699 -6.66699 -15 -10 -25 -10h-109c-10.667 0 -18.667 4.33301 -24 13l-80 129c-4.66699 6.66699 -5.83398 12.334 -3.50098 17.001s7.83301 7 16.5 7h116c10.667 0 18.334 -5 23.001 -15l25 -55l46 58
c6 8 14.333 12 25 12z" />
    <glyph glyph-name="tcaron" unicode="&#x165;" horiz-adv-x="349" 
d="M260 -7c-20 -4.66699 -40.665 -6.99902 -61.998 -6.99902c-64.667 0 -111.334 19.5 -140.001 58.5s-36.334 96.5 -23.001 172.5l71 410c2 12 9 18 21 18h125c13.333 0 19.666 -6.66699 18.999 -20l-5 -119h70c14 0 20 -7.33301 18 -22l-19 -110c-2 -12 -9 -18 -21 -18
h-72l-28 -154c-6.66699 -38 8.33301 -57 45 -57c2 0 5.33301 0.166992 10 0.5s8 0.5 10 0.5c8 1.33301 13.833 0.166016 17.5 -3.50098s4.83398 -9.16699 3.50098 -16.5l-21 -113c-2 -11.333 -8.33301 -18 -19 -20zM414.002 576.001l-78.002 0.000976562
c-16.667 0 -21.667 7.66699 -15 23l55 156c4.66699 10 12.334 15 23.001 15h111c7.33301 0 12.333 -2.33301 15 -7s2.33398 -10.334 -0.999023 -17.001l-85 -156c-4.66699 -9.33301 -13 -14 -25 -14z" />
    <glyph glyph-name="Tbar" unicode="&#x166;" horiz-adv-x="580" 
d="M639 693l-25 -137c-2 -12 -9 -18 -21 -18h-158l-29 -161h70c14 0 20 -7.33301 18 -22l-12 -71c-2 -12 -9 -18 -21 -18h-74l-44 -248c-2 -12 -9 -18 -21 -18h-151c-14.667 -0 -21 7.33301 -19 22l43 244h-70c-14 0 -20 7.33301 -18 22l13 71c2 12 9 18 21 18h73l29 161
h-156c-14 0 -20 7.33301 -18 22l24 137c2 12 9 18 21 18h506c14.667 0 21 -7.33301 19 -22z" />
    <glyph glyph-name="tbar" unicode="&#x167;" horiz-adv-x="365" 
d="M276 -6c-20 -4.66699 -40.667 -6.99902 -62 -6.99902c-64.667 0 -111.334 19.5 -140.001 58.5s-36.334 96.5 -23.001 172.5l1 5h-30c-14 0 -20 7.33301 -18 22l9 45c2 12 9 18 21 18h33l56 319c2 12 9 18 21 18h123c15.333 0 22.333 -7 21 -21l-6 -118h70
c14 0 20 -7.33301 18 -22l-19 -109c-2 -12.667 -9 -19 -21 -19h-73l-8 -48h52c14 0 20 -7.33301 18 -22l-9 -45c-2 -12 -9 -18 -21 -18h-55l-4 -20c-6.66699 -38 8 -57 44 -57c2.66699 0 6.33398 0.166992 11.001 0.5s8 0.5 10 0.5
c7.33301 1.33301 12.833 0.166016 16.5 -3.50098s4.83398 -9.16699 3.50098 -16.5l-20 -113c-2 -11.333 -8.33301 -18 -19 -20z" />
    <glyph glyph-name="Umacron" unicode="&#x16a;" horiz-adv-x="665" 
d="M606 256c-30.667 -179.333 -136.668 -269 -318.001 -269c-86.667 0 -150 26.667 -190 80s-51.667 128.333 -35 225l72 405c2 12 9 18 21 18h155c14 0 20 -7.33301 18 -22l-75 -423c-13.333 -69.333 7.33398 -104 62.001 -104c25.333 0 46.5 8.66699 63.5 26
s28.5 42.333 34.5 75l73 430c2 12 9.33301 18 22 18h154c14.667 0 21 -7.33301 19 -22zM574.999 786h-291c-15.333 0 -21.333 7.33301 -18 22l16 84c2 12 9 18 21 18h291c14 0 20 -7.33301 18 -22l-15 -84c-2 -12 -9.33301 -18 -22 -18z" />
    <glyph glyph-name="umacron" unicode="&#x16b;" horiz-adv-x="543" 
d="M379 522h143c14 0 20 -7.33301 18 -22l-80 -452c-2 -10 -7.66699 -17 -17 -21c-70 -27.333 -139.333 -41 -208 -41c-77.333 0 -132.833 22.333 -166.5 67s-44.167 105 -31.5 181l48 270c2 12 9 18 21 18h141c14 0 20 -7.33301 18 -22l-48 -287
c-8 -46.667 6.33301 -70 43 -70c14 0 26.333 2.33301 37 7l61 354c2 12 9 18 21 18zM178 609l14 75c2 12 9 18 21 18h270c14 0 20 -7.33301 18 -22l-14 -75c-2 -12 -9 -18 -21 -18h-270c-14 0 -20 7.33301 -18 22z" />
    <glyph glyph-name="Uring" unicode="&#x16e;" horiz-adv-x="665" 
d="M606 256c-30.667 -179.333 -136.668 -269 -318.001 -269c-86.667 0 -150 26.667 -190 80s-51.667 128.333 -35 225l72 405c2 12 9 18 21 18h155c14 0 20 -7.33301 18 -22l-75 -423c-13.333 -69.333 7.33398 -104 62.001 -104c25.333 0 46.5 8.66699 63.5 26
s28.5 42.333 34.5 75l73 430c2 12 9.33301 18 22 18h154c14.667 0 21 -7.33301 19 -22zM585.999 880c-7.33301 -38.667 -26.3311 -69.166 -56.998 -91.499s-70.667 -33.5 -120 -33.5c-42 0 -75.5 14.167 -100.5 42.5s-33.167 62.166 -24.5 101.499
c7.33301 38 26.166 67.667 56.499 89s70.166 32 119.499 32c41.333 0 74.333 -13.667 99 -41s33.667 -60.333 27 -99zM390.001 889.001c-3.33301 -13.333 -1.66797 -23.667 4.99902 -31s17.334 -11 32.001 -11c32 0 50 14 54 42c4 26.667 -8.66699 40 -38 40
c-30 0 -47.667 -13.333 -53 -40z" />
    <glyph glyph-name="uring" unicode="&#x16f;" horiz-adv-x="543" 
d="M379 522h143c14 0 20 -7.33301 18 -22l-80 -452c-2 -10 -7.66699 -17 -17 -21c-70 -27.333 -139.333 -41 -208 -41c-77.333 0 -132.833 22.333 -166.5 67s-44.167 105 -31.5 181l48 270c2 12 9 18 21 18h141c14 0 20 -7.33301 18 -22l-48 -287
c-8 -46.667 6.33301 -70 43 -70c14 0 26.333 2.33301 37 7l61 354c2 12 9 18 21 18zM474 683c-7.33301 -35.333 -24.999 -63.667 -52.999 -85s-63.333 -32 -106 -32c-36 0 -65.167 12 -87.5 36s-30.5 51 -24.5 81c6.66699 34.667 24.167 62.5 52.5 83.5
s64.166 31.5 107.499 31.5c36 0 65 -11.5 87 -34.5s30 -49.833 24 -80.5zM296.001 682.999c-2.66699 -12 -0.666992 -21.667 6 -29s16.334 -11 29.001 -11c28 0 44.667 13.333 50 40c5.33301 26 -6.33398 39 -35.001 39c-28 0 -44.667 -13 -50 -39z" />
    <glyph glyph-name="Uhungarumlaut" unicode="&#x170;" horiz-adv-x="665" 
d="M606 256c-30.667 -179.333 -136.668 -269 -318.001 -269c-86.667 0 -150 26.667 -190 80s-51.667 128.333 -35 225l72 405c2 12 9 18 21 18h155c14 0 20 -7.33301 18 -22l-75 -423c-13.333 -69.333 7.33398 -104 62.001 -104c25.333 0 46.5 8.66699 63.5 26
s28.5 42.333 34.5 75l73 430c2 12 9.33301 18 22 18h154c14.667 0 21 -7.33301 19 -22zM327.999 763l-90.999 0.000976562c-8.66699 0 -14.167 2.16699 -16.5 6.5s-0.833008 10.166 4.5 17.499l106 130c6.66699 8 15 12 25 12h122c8.66699 0 14.167 -2.66699 16.5 -8
s0.166016 -11 -6.50098 -17l-136 -131c-6.66699 -6.66699 -14.667 -10 -24 -10zM568 763.001h-97.999c-8.66699 0 -14.167 2.5 -16.5 7.5s-0.5 10.833 5.5 17.5l119 130c7.33301 7.33301 15.666 11 24.999 11h126c9.33301 0 15 -2.5 17 -7.5s-0.333008 -10.833 -7 -17.5
l-146 -132c-6 -6 -14.333 -9 -25 -9z" />
    <glyph glyph-name="uhungarumlaut" unicode="&#x171;" horiz-adv-x="543" 
d="M379 522h143c14 0 20 -7.33301 18 -22l-80 -452c-2 -10 -7.66699 -17 -17 -21c-70 -27.333 -139.333 -41 -208 -41c-77.333 0 -132.833 22.333 -166.5 67s-44.167 105 -31.5 181l48 270c2 12 9 18 21 18h141c14 0 20 -7.33301 18 -22l-48 -287
c-8 -46.667 6.33301 -70 43 -70c14 0 26.333 2.33301 37 7l61 354c2 12 9 18 21 18zM252 566h-66.998c-8.66699 0 -14.334 2.16699 -17.001 6.5s-1.66699 9.5 3 15.5l93 120c6 8 14.333 12 25 12h94c10 0 16.167 -2.16699 18.5 -6.5s0.166016 -9.83301 -6.50098 -16.5
l-116 -121c-6.66699 -6.66699 -15.667 -10 -27 -10zM458.002 566h-65.998c-8.66699 0 -14.334 2.16699 -17.001 6.5s-1.66699 9.5 3 15.5l92 120c6 8 14.333 12 25 12h95c9.33301 0 15.166 -2.33301 17.499 -7s0.5 -10 -5.5 -16l-117 -121
c-7.33301 -6.66699 -16.333 -10 -27 -10z" />
    <glyph glyph-name="Uogonek" unicode="&#x172;" horiz-adv-x="662" 
d="M448 -174c-36 -21.333 -74.3301 -32 -114.997 -32c-36 0 -63.333 8.83301 -82 26.5s-25.334 42.5 -20.001 74.5c2.66699 15.333 10.334 31.5 23.001 48.5s28.667 31.5 48 43.5h-16c-86.667 0 -149.834 25.667 -189.501 77s-50.834 125.666 -33.501 222.999l72 410
c2 12 9 18 21 18h153c14 0 20 -7.33301 18 -22l-75 -422c-13.333 -69.333 7 -104 61 -104c26 0 47.833 8.66699 65.5 26s29.167 42 34.5 74l73 430c2 12 9.33301 18 22 18h152c6.66699 0 11.667 -2 15 -6s4.33301 -9.33301 3 -16l-75 -442
c-10.667 -58 -28.167 -105.333 -52.5 -142s-58.5 -66.667 -102.5 -90c-23.333 -12 -42.833 -25 -58.5 -39s-24.5 -26.333 -26.5 -37c-1.33301 -9.33301 1 -16.166 7 -20.499s15.333 -6.5 28 -6.5c10.667 0 22 2 34 6c15.333 5.33301 23.666 0.333008 24.999 -15l5 -57
c0.666992 -11.333 -4 -19.333 -14 -24z" />
    <glyph glyph-name="uogonek" unicode="&#x173;" horiz-adv-x="540" 
d="M408 -174c-37.333 -19.333 -76.334 -29.001 -117.001 -29.001c-35.333 0 -62.166 8.66699 -80.499 26s-24.833 41.333 -19.5 72c6.66699 40.667 31 72.334 73 95.001v1c-12 -2.66699 -22.667 -4 -32 -4c-76.667 0 -131.667 22.5 -165 67.5s-43.333 105.167 -30 180.5
l47 269c2 12 9 18 21 18h141c14 0 20 -7.33301 18 -22l-49 -286c-8 -46.667 6 -70 42 -70c16.667 0 29 2.33301 37 7l62 353c2 12 9 18 21 18h142c14 0 20 -7.33301 18 -22l-81 -450c-2 -10 -8.33301 -17 -19 -21c-31.333 -10 -57.5 -23 -78.5 -39
s-33.167 -31.333 -36.5 -46c-2 -9.33301 0.166992 -16.333 6.5 -21s15.5 -7 27.5 -7c11.333 0 23 2 35 6c14.667 5.33301 22.667 0.333008 24 -15l5 -57c0.666992 -11.333 -3.33301 -19.333 -12 -24z" />
    <glyph glyph-name="Wcircumflex" unicode="&#x174;" horiz-adv-x="975" 
d="M337 0l-175.999 -0.000976562c-12.667 0 -19.667 6.33301 -21 19l-61 675c-0.666992 14 5.66602 21 18.999 21h157c13.333 0 20 -6.66699 20 -20l4 -137c3.33301 -103.333 2.33301 -218.333 -3 -345h5c30 104 68.667 219 116 345l49 131c4 10.667 11.667 16 23 16h170
c12 0 18.667 -6.33301 20 -19l8 -140c6 -101.333 8.33301 -212.333 7 -333h5c38 128 76.333 245.333 115 352l50 134c4 10.667 11.667 16 23 16h164c7.33301 0 12.5 -2.16699 15.5 -6.5s3.16699 -9.83301 0.5 -16.5l-299 -677c-4 -10 -12 -15 -24 -15h-176
c-12 0 -18.667 6.33301 -20 19l-5 134c-2 50.667 -1.66699 155.334 1 314.001h-6c-18 -78.667 -43 -159.667 -75 -243l-82 -208c-5.33301 -10.667 -13.333 -16 -24 -16zM505.001 762.999l-110 0.000976562c-9.33301 0 -15 2.66699 -17 8s0 11 6 17l131 131
c6.66699 6.66699 15 10 25 10h109c10.667 0 18.667 -4.33301 24 -13l80 -129c4.66699 -6.66699 5.83398 -12.334 3.50098 -17.001s-7.83301 -7 -16.5 -7h-116c-10.667 0 -18.334 5 -23.001 15l-25 55l-46 -58c-6 -8 -14.333 -12 -25 -12z" />
    <glyph glyph-name="wcircumflex" unicode="&#x175;" horiz-adv-x="755" 
d="M259 0l-150.001 -0.00195312c-12.667 0 -19.667 6.33301 -21 19l-40 482c-1.33301 14 5 21 19 21h140c13.333 0 20 -6.66699 20 -20l1 -164c0 -12 -0.666992 -33 -2 -63l-3 -68h5c14 48.667 28.667 95.334 44 140.001l54 152c4 10.667 11.667 16 23 16h141
c13.333 0 20 -6.66699 20 -20l2 -146c0 -64.667 -0.333008 -112 -1 -142h4c10 36 23.667 79.667 41 131l56 168c4 10.667 11.667 16 23 16h139c16.667 0 21.667 -7.66699 15 -23l-207 -484c-4 -10 -12.333 -15 -25 -15h-149c-13.333 0 -20 6.66699 -20 20l-3 140
c-1.33301 50.667 -1.33301 93 0 127h-4l-12.5 -37.5l-18 -54.5c-6.33301 -19.333 -10.166 -30.666 -11.499 -33.999l-56 -145c-4 -10.667 -12 -16 -24 -16zM533.999 726.998l80.999 -128.999c4.66699 -6.66699 5.5 -12.334 2.5 -17.001s-8.5 -7 -16.5 -7h-97
c-12 0 -20.333 4.66699 -25 14l-29 54l-53 -57c-7.33301 -7.33301 -15.666 -11 -24.999 -11h-103c-8.66699 0 -14 2.66699 -16 8s0 11 6 17l131 131c6.66699 6.66699 14.667 10 24 10h95c10.667 0 19 -4.33301 25 -13z" />
    <glyph glyph-name="Ycircumflex" unicode="&#x176;" horiz-adv-x="600" 
d="M330 0l-151.001 0.000976562c-14.667 0 -21 7.33301 -19 22l39 217l-121 454c-2 6.66699 -1.5 12 1.5 16s8.16699 6 15.5 6h158c12 0 19 -6 21 -18l50 -276h3l145 280c4.66699 9.33301 12.334 14 23.001 14h166c8 0 13.167 -2.33301 15.5 -7s1.5 -10.334 -2.5 -17.001
l-282 -457l-40 -216c-2 -12 -9.33301 -18 -22 -18zM322.999 763.001l-110 0.000976562c-9.33301 0 -15 2.66699 -17 8s0 11 6 17l131 131c6.66699 6.66699 15 10 25 10h109c10.667 0 18.667 -4.33301 24 -13l80 -129c4.66699 -6.66699 5.83398 -12.334 3.50098 -17.001
s-7.83301 -7 -16.5 -7h-116c-10.667 0 -18.334 5 -23.001 15l-25 55l-46 -58c-6 -8 -14.333 -12 -25 -12z" />
    <glyph glyph-name="ycircumflex" unicode="&#x177;" horiz-adv-x="540" 
d="M297 176l58.001 328.001c2 12 9 18 21 18h140c14 0 20 -7.33301 18 -22l-77 -435c-17.333 -99.333 -47.333 -168.833 -90 -208.5s-109 -59.5 -199 -59.5c-73.333 0 -132.333 17.333 -177 52c-10 7.33301 -11 16.666 -3 27.999l74 98c7.33301 10 16.666 11.667 27.999 5
c24.667 -15.333 56.667 -23 96 -23c26.667 0 46.667 5 60 15s22.333 28 27 54c-23.333 -8 -47.666 -12 -72.999 -12c-62.667 0 -108.167 21.667 -136.5 65s-36.5 100.333 -24.5 171l45 254c2 12 9 18 21 18h141c14 0 20 -7.33301 18 -22l-48 -268
c-8.66699 -43.333 3.66602 -65 36.999 -65c19.333 0 34 3 44 9zM421.001 727.001l80.999 -128.999c4.66699 -6.66699 5.5 -12.334 2.5 -17.001s-8.5 -7 -16.5 -7h-97c-12 0 -20.333 4.66699 -25 14l-29 54l-53 -57c-7.33301 -7.33301 -15.666 -11 -24.999 -11h-103
c-8.66699 0 -14 2.66699 -16 8s0 11 6 17l131 131c6.66699 6.66699 14.667 10 24 10h95c10.667 0 19 -4.33301 25 -13z" />
    <glyph glyph-name="Ydieresis" unicode="&#x178;" horiz-adv-x="600" 
d="M330 0l-151.001 0.000976562c-14.667 0 -21 7.33301 -19 22l39 217l-121 454c-2 6.66699 -1.5 12 1.5 16s8.16699 6 15.5 6h158c12 0 19 -6 21 -18l50 -276h3l145 280c4.66699 9.33301 12.334 14 23.001 14h166c8 0 13.167 -2.33301 15.5 -7s1.5 -10.334 -2.5 -17.001
l-282 -457l-40 -216c-2 -12 -9.33301 -18 -22 -18zM383.999 868.001c-4.66699 -25.333 -15.668 -45.6689 -33.001 -61.002s-38.333 -23 -63 -23c-24 0 -42 8 -54 24s-16.333 36 -13 60c4 24.667 14.833 44.834 32.5 60.501s38.834 23.5 63.501 23.5
c24 0 42.167 -8.16699 54.5 -24.5s16.5 -36.166 12.5 -59.499zM603.998 867.998c-4 -24.667 -15 -44.832 -33 -60.499s-39.333 -23.5 -64 -23.5s-43.167 8 -55.5 24s-16.5 36 -12.5 60c5.33301 25.333 16.5 45.666 33.5 60.999s37.833 23 62.5 23s43.167 -8 55.5 -24
s16.833 -36 13.5 -60z" />
    <glyph glyph-name="Zacute" unicode="&#x179;" horiz-adv-x="605" 
d="M508 0l-501 -0.000976562c-15.333 0 -21.333 7.33301 -18 22l20 106c1.33301 6.66699 5.33301 14.334 12 23.001l334 391h-231c-14 0 -20 7.33301 -18 22l23 133c2 12 9 18 21 18h471c15.333 0 21.333 -7.33301 18 -22l-20 -104c-1.33301 -7.33301 -5 -15 -11 -23
l-326 -393h253c14 0 20 -7.33301 18 -22l-24 -133c-2 -12 -9 -18 -21 -18zM417 762.999h-95c-8.66699 0 -14 2.5 -16 7.5s-0.333008 10.833 5 17.5l108 130c6.66699 7.33301 15.334 11 26.001 11h124c9.33301 0 15.166 -2.66699 17.499 -8s-0.166992 -11 -7.5 -17l-137 -131
c-6.66699 -6.66699 -15 -10 -25 -10z" />
    <glyph glyph-name="zacute" unicode="&#x17a;" horiz-adv-x="494" 
d="M401 0h-397c-14 -0 -20 7.33301 -18 22l15 81c2 9.33301 6 17 12 23l217 241h-147c-14 0 -20 7.66699 -18 23l21 114c2 12 9 18 21 18h375c14 0 20 -7.33301 18 -22l-13 -76c-2 -9.33301 -5.66699 -17 -11 -23l-217 -245h166c14.667 0 21 -7.66699 19 -23l-22 -115
c-2 -12 -9 -18 -21 -18zM325 574h-90.998c-8.66699 0 -14 2.33301 -16 7s-0.333008 10.667 5 18l108 130c5.33301 7.33301 13.666 11 24.999 11h119c9.33301 0 15.166 -2.66699 17.499 -8s-0.166992 -11 -7.5 -17l-136 -131c-6.66699 -6.66699 -14.667 -10 -24 -10z" />
    <glyph glyph-name="Zdotaccent" unicode="&#x17b;" horiz-adv-x="605" 
d="M508 0l-501 -0.000976562c-15.333 0 -21.333 7.33301 -18 22l20 106c1.33301 6.66699 5.33301 14.334 12 23.001l334 391h-231c-14 0 -20 7.33301 -18 22l23 133c2 12 9 18 21 18h471c15.333 0 21.333 -7.33301 18 -22l-20 -104c-1.33301 -7.33301 -5 -15 -11 -23
l-326 -393h253c14 0 20 -7.33301 18 -22l-24 -133c-2 -12 -9 -18 -21 -18zM503 848.999c-4.66699 -24.667 -17.001 -44.834 -37.001 -60.501s-44.667 -23.5 -74 -23.5c-28.667 0 -51 9.16699 -67 27.5s-22 41.166 -18 68.499c4 26.667 16.167 48.334 36.5 65.001
s44.166 25 71.499 25c30.667 0 54.334 -9.66699 71.001 -29s22.334 -43.666 17.001 -72.999z" />
    <glyph glyph-name="zdotaccent" unicode="&#x17c;" horiz-adv-x="494" 
d="M401 0h-397c-14 -0 -20 7.33301 -18 22l15 81c2 9.33301 6 17 12 23l217 241h-147c-14 0 -20 7.66699 -18 23l21 114c2 12 9 18 21 18h375c14 0 20 -7.33301 18 -22l-13 -76c-2 -9.33301 -5.66699 -17 -11 -23l-217 -245h166c14.667 0 21 -7.66699 19 -23l-22 -115
c-2 -12 -9 -18 -21 -18zM409 664c-4.66699 -26.667 -16.167 -48.332 -34.5 -64.999s-41.5 -25 -69.5 -25c-26.667 0 -47.167 8.66699 -61.5 26s-18.833 39.666 -13.5 66.999c4.66699 25.333 16.5 46 35.5 62s41.833 24 68.5 24c27.333 0 47.833 -8.16699 61.5 -24.5
s18.167 -37.833 13.5 -64.5z" />
    <glyph glyph-name="Zcaron" unicode="&#x17d;" horiz-adv-x="605" 
d="M508 0l-501 -0.000976562c-15.333 0 -21.333 7.33301 -18 22l20 106c1.33301 6.66699 5.33301 14.334 12 23.001l334 391h-231c-14 0 -20 7.33301 -18 22l23 133c2 12 9 18 21 18h471c15.333 0 21.333 -7.33301 18 -22l-20 -104c-1.33301 -7.33301 -5 -15 -11 -23
l-326 -393h253c14 0 20 -7.33301 18 -22l-24 -133c-2 -12 -9 -18 -21 -18zM481 948.999l110 -0.000976562c9.33301 0 15 -2.66699 17 -8s0 -11 -6 -17l-131 -131c-6.66699 -6.66699 -15 -10 -25 -10h-109c-10.667 0 -18.667 4.33301 -24 13l-80 129
c-4.66699 6.66699 -5.83398 12.334 -3.50098 17.001s7.83301 7 16.5 7h116c10.667 0 18.334 -5 23.001 -15l25 -55l46 58c6 8 14.333 12 25 12z" />
    <glyph glyph-name="zcaron" unicode="&#x17e;" horiz-adv-x="494" 
d="M401 0h-397c-14 -0 -20 7.33301 -18 22l15 81c2 9.33301 6 17 12 23l217 241h-147c-14 0 -20 7.66699 -18 23l21 114c2 12 9 18 21 18h375c14 0 20 -7.33301 18 -22l-13 -76c-2 -9.33301 -5.66699 -17 -11 -23l-217 -245h166c14.667 0 21 -7.66699 19 -23l-22 -115
c-2 -12 -9 -18 -21 -18zM234 607l-80.999 128.999c-4.66699 6.66699 -5.5 12.334 -2.5 17.001s8.5 7 16.5 7h97c12 0 20.333 -4.66699 25 -14l29 -54l53 57c7.33301 7.33301 15.666 11 24.999 11h103c8.66699 0 14 -2.66699 16 -8s0 -11 -6 -17l-131 -131
c-6.66699 -6.66699 -14.667 -10 -24 -10h-95c-10.667 0 -19 4.33301 -25 13z" />
    <glyph glyph-name="florin" unicode="&#x192;" horiz-adv-x="466" 
d="M228 50c-40 -118.667 -112.668 -178.002 -218.001 -178.002c-25.333 0 -46.333 3.33301 -63 10c-12.667 4.66699 -16.334 13.334 -11.001 26.001l49 112c5.33301 11.333 12.666 16 21.999 14c4 -0.666992 9 -1 15 -1c12.667 0 22.834 2.66699 30.501 8
s14.5 16.333 20.5 33l66 194h-53c-15.333 0 -21.333 7.33301 -18 22l23 128c2 12 9 18 21 18h85l44 133c14.667 44 38.334 81.667 71.001 113s76 47 130 47c27.333 0 52 -2.66699 74 -8c14.667 -3.33301 19.334 -11.666 14.001 -24.999l-39 -103c-4 -12.667 -12 -17 -24 -13
c-3.33301 1.33301 -9 2 -17 2c-30.667 0 -51 -15 -61 -45l-31 -101h65c14 0 20 -7.33301 18 -22l-22 -128c-2 -12 -9 -18 -21 -18h-98z" />
    <glyph glyph-name="uni0218" unicode="&#x218;" horiz-adv-x="612" 
d="M575 194c-30 -138.667 -133.33 -207.998 -309.997 -207.998c-96.667 0 -180.667 33 -252 99c-9.33301 8.66699 -10 18 -2 28l88 112c7.33301 10.667 17 11.667 29 3c52 -42 105.667 -63 161 -63c56 0 86.333 16 91 48c2 14.667 -4.16699 26.5 -18.5 35.5
s-41.833 19.167 -82.5 30.5c-67.333 19.333 -119 49.166 -155 89.499s-48.667 92.5 -38 156.5c11.333 70 43.166 121.5 95.499 154.5s116.833 49.5 193.5 49.5c93.333 0 174.666 -24.667 243.999 -74c11.333 -7.33301 12.666 -16.666 3.99902 -27.999l-97 -116
c-8 -8.66699 -17.667 -10 -29 -4c-46 30 -94 45 -144 45c-44 0 -68 -13.333 -72 -40c-2 -13.333 4.16699 -24.333 18.5 -33s38.5 -18.334 72.5 -29.001l29 -9.5c7.33301 -2.33301 17.333 -6 30 -11s23.334 -9.83301 32.001 -14.5l30 -16.5
c11.333 -6.33301 20.833 -13.333 28.5 -21s15.667 -16.167 24 -25.5s14.666 -19.5 18.999 -30.5s8.16602 -22.833 11.499 -35.5s4.83301 -26.834 4.5 -42.501s-2.16602 -32.167 -5.49902 -49.5zM232.003 -269.998h-90c-7.33301 0 -12.5 2 -15.5 6s-3.16699 9 -0.5 15l72 175
c4.66699 9.33301 13 14 25 14h116c8 0 13.5 -2 16.5 -6s2.83301 -9.33301 -0.5 -16l-98 -174c-6 -9.33301 -14.333 -14 -25 -14z" />
    <glyph glyph-name="uni0219" unicode="&#x219;" horiz-adv-x="495" 
d="M454 153c-20 -111.333 -101.333 -167.002 -244 -167.002c-82 0 -152.667 22.333 -212 67c-9.33301 8 -10.333 17.333 -3 28l70 95c7.33301 9.33301 17 10.666 29 3.99902c38.667 -25.333 79 -38 121 -38c33.333 0 51.666 8 54.999 24
c1.33301 9.33301 -2.5 15.833 -11.5 19.5s-23.5 7.16699 -43.5 10.5c-62.667 10.667 -108 32.334 -136 65.001s-36.667 74 -26 124c22.667 100.667 105.334 151 248.001 151c66 0 126 -15 180 -45c12.667 -7.33301 14.334 -16.666 5.00098 -27.999l-71 -94
c-6.66699 -9.33301 -15.667 -11 -27 -5c-29.333 15.333 -64 23 -104 23c-30.667 0 -47.334 -6.33301 -50.001 -19c-1.33301 -8 2.5 -13.667 11.5 -17s27.5 -7.66602 55.5 -12.999c20 -4 38.5 -9.5 55.5 -16.5s34.833 -17.167 53.5 -30.5s32 -31.833 40 -55.5
s9.33301 -51.167 4 -82.5zM171 -224.002h-84.001c-8.66699 0 -14.667 1.83301 -18 5.5s-3.33301 8.16699 0 13.5l75 143c4 8.66699 13 13 27 13h105c8 0 13.667 -1.83301 17 -5.5s3 -8.16699 -1 -13.5l-96 -144c-5.33301 -8 -13.666 -12 -24.999 -12z" />
    <glyph glyph-name="uni021A" unicode="&#x21a;" horiz-adv-x="571" 
d="M111 715h506c14 0 20 -7.33301 18 -22l-24 -136c-2 -12 -9 -18 -21 -18h-158l-92 -521c-2 -12 -9 -18 -21 -18h-152c-14 -0 -20 7.33301 -18 22l91 517h-156c-14.667 0 -21 7.33301 -19 22l25 136c2 12 9 18 21 18zM191 -236l-97.999 0.000976562
c-8 0 -13.833 1.66699 -17.5 5s-4.16699 7.66602 -1.5 12.999l80 155c4 8.66699 12.667 13 26 13h127c8.66699 0 14.667 -1.83301 18 -5.5s3 -8.5 -1 -14.5l-107 -154c-4.66699 -8 -13.334 -12 -26.001 -12z" />
    <glyph glyph-name="uni021B" unicode="&#x21b;" horiz-adv-x="349" 
d="M314 354l-73 0.000976562l-27 -152c-6.66699 -38 8 -57 44 -57c2.66699 0 6.33398 0.166992 11.001 0.5s8 0.5 10 0.5c7.33301 1.33301 12.833 0.166016 16.5 -3.50098s4.83398 -9.16699 3.50098 -16.5l-20 -113c-2 -11.333 -8.33301 -18 -19 -20
c-20 -4.66699 -40.667 -7 -62 -7c-64.667 0 -111.334 19.5 -140.001 58.5s-36.334 96.5 -23.001 172.5l71 410c2 12 9.33301 18 22 18h123c14 0 20.667 -7 20 -21l-6 -118h71c14 0 20 -7.33301 18 -22l-19 -112c-2 -12 -9 -18 -21 -18zM97 -232.999h-82
c-16.667 0 -22.334 6 -17.001 18l73 146c4.66699 8.66699 13.334 13 26.001 13h103c8 0 13.667 -2 17 -6s3 -8.66699 -1 -14l-94 -145c-4.66699 -8 -13 -12 -25 -12z" />
    <glyph glyph-name="uni0237" unicode="&#x237;" horiz-adv-x="284" 
d="M192 0c-13.333 -78 -39.499 -131.334 -78.499 -160.001s-88.833 -43 -149.5 -43c-16 0 -32.667 1.33301 -50 4c-12 2 -17 10 -15 24l22 126c2 12.667 8.33301 18.334 19 17.001c3.33301 -0.666992 8.66602 -1 15.999 -1c32 0 51.333 18.667 58 56l83 481c2 12 9 18 21 18
h142c14 0 20 -7.33301 18 -22z" />
    <glyph glyph-name="circumflex" unicode="&#x2c6;" horiz-adv-x="367" 
d="M342 747l80.999 -128.999c4.66699 -6.66699 5.5 -12.334 2.5 -17.001s-8.5 -7 -16.5 -7h-97c-12 0 -20.333 4.66699 -25 14l-29 54l-53 -57c-7.33301 -7.33301 -15.666 -11 -24.999 -11h-103c-8.66699 0 -14 2.66699 -16 8s0 11 6 17l131 131
c6.66699 6.66699 14.667 10 24 10h95c10.667 0 19 -4.33301 25 -13z" />
    <glyph glyph-name="caron" unicode="&#x2c7;" horiz-adv-x="366" 
d="M170 607l-80.999 128.999c-4.66699 6.66699 -5.5 12.334 -2.5 17.001s8.5 7 16.5 7h97c12 0 20.333 -4.66699 25 -14l29 -54l53 57c7.33301 7.33301 15.666 11 24.999 11h103c8.66699 0 14 -2.66699 16 -8s0 -11 -6 -17l-131 -131c-6.66699 -6.66699 -14.667 -10 -24 -10
h-95c-10.667 0 -19 4.33301 -25 13z" />
    <glyph glyph-name="breve" unicode="&#x2d8;" horiz-adv-x="335" 
d="M417 725c-12.667 -46 -34 -80.168 -64 -102.501s-72.333 -33.5 -127 -33.5c-41.333 0 -75.5 13 -102.5 39s-40.167 58.333 -39.5 97c0 12 6 19 18 21l84 15c12 2.66699 19 -3.33301 21 -18c4 -23.333 18 -35 42 -35c24.667 0 42 13 52 39c4.66699 11.333 13 16 25 14
l75 -14c14.667 -3.33301 20 -10.666 16 -21.999z" />
    <glyph glyph-name="dotaccent" unicode="&#x2d9;" horiz-adv-x="180" 
d="M254 684c-4.66699 -26.667 -16.167 -48.332 -34.5 -64.999s-41.5 -25 -69.5 -25c-26.667 0 -47.167 8.66699 -61.5 26s-18.833 39.666 -13.5 66.999c4.66699 25.333 16.5 46 35.5 62s41.833 24 68.5 24c27.333 0 47.833 -8.16699 61.5 -24.5s18.167 -37.833 13.5 -64.5z
" />
    <glyph glyph-name="ring" unicode="&#x2da;" horiz-adv-x="228" 
d="M340 718c-7.33301 -40 -24.6689 -72 -52.002 -96s-62 -36 -104 -36c-35.333 0 -64 13.5 -86 40.5s-30 57.5 -24 91.5c6.66699 39.333 23.834 70.833 51.501 94.5s62.834 35.5 105.501 35.5c35.333 0 63.833 -13 85.5 -39s29.5 -56.333 23.5 -91zM164.997 718
c-2.66699 -13.333 -0.666992 -24.167 6 -32.5s16.334 -12.5 29.001 -12.5c27.333 0 43.666 15 48.999 45c5.33301 29.333 -6.33398 44 -35.001 44c-27.333 0 -43.666 -14.667 -48.999 -44z" />
    <glyph glyph-name="ogonek" unicode="&#x2db;" horiz-adv-x="301" 
d="M183 -174c-37.333 -21.333 -76.3311 -31.999 -116.998 -31.999c-35.333 0 -62.166 8.83301 -80.499 26.5s-24.833 42.5 -19.5 74.5c3.33301 17.333 12.166 35.166 26.499 53.499s32.833 33.5 55.5 45.5c7.33301 4 15.666 6 24.999 6h52c19.333 0 20.666 -6 3.99902 -18
c-19.333 -13.333 -30 -26.666 -32 -39.999c-1.33301 -8 1 -14.333 7 -19s15 -7 27 -7c11.333 0 23 2 35 6c14.667 5.33301 22.667 0.666016 24 -14.001l5 -58c0.666992 -11.333 -3.33301 -19.333 -12 -24z" />
    <glyph glyph-name="tilde" unicode="&#x2dc;" horiz-adv-x="383" 
d="M456 679c-34 -60.667 -73.667 -91 -119 -91c-21.333 0 -48 8 -80 24c-24 10.667 -41 16 -51 16c-16 0 -31 -7.33301 -45 -22c-10.667 -9.33301 -20.334 -11 -29.001 -5l-53 35c-10.667 7.33301 -13 16.666 -7 27.999c35.333 61.333 77.666 92 126.999 92
c20.667 0 46.334 -7.66699 77.001 -23c22.667 -11.333 38.667 -17 48 -17c13.333 0 27.333 7.33301 42 22c8.66699 10 18 11.333 28 4l54 -38c10.667 -7.33301 13.334 -15.666 8.00098 -24.999z" />
    <glyph glyph-name="hungarumlaut" unicode="&#x2dd;" horiz-adv-x="386" 
d="M140 594l-62.001 -0.000976562c-8 0 -13.333 2.33301 -16 7s-1.66699 10.334 3 17.001l86 129c6 8.66699 14 13 24 13h87c9.33301 0 15 -2.33301 17 -7s0 -10.667 -6 -18l-108 -130c-5.33301 -7.33301 -13.666 -11 -24.999 -11zM330.999 593.999l-61 -0.000976562
c-8 0 -13.333 2.33301 -16 7s-1.66699 10.334 3 17.001l85 129c6 8.66699 14 13 24 13h88c8.66699 0 14 -2.5 16 -7.5s0.333008 -10.833 -5 -17.5l-109 -130c-6.66699 -7.33301 -15 -11 -25 -11z" />
    <glyph glyph-name="gravecomb" unicode="&#x300;" horiz-adv-x="272" 
d="M245 746l69.001 -128c3.33301 -6.66699 3.66602 -12.334 0.999023 -17.001s-8 -7 -16 -7h-76c-10 0 -18 4 -24 12l-94 130c-4.66699 6.66699 -5.66699 12.334 -3 17.001s8 7 16 7h103c10.667 0 18.667 -4.66699 24 -14z" />
    </font>
</defs>
</svg>
