<?xml version="1.0" standalone="no"?>
<!DOCTYPE svg PUBLIC "-//W3C//DTD SVG 1.1//EN" "http://www.w3.org/Graphics/SVG/1.1/DTD/svg11.dtd" >
<svg>
<metadata>
Created by FontForge 20090914 at Sun Jan 30 22:47:29 2022
 By www-data
Copyright &#194;&#169; 2016 by FontfabricLLC. All rights reserved.
</metadata>
<defs>
<font id="UniNeueThin" horiz-adv-x="540" >
  <font-face 
    font-family="Uni Neue Thin"
    font-weight="250"
    font-stretch="normal"
    units-per-em="1000"
    panose-1="0 0 0 0 0 0 0 0 0 0"
    ascent="750"
    descent="-250"
    x-height="513"
    cap-height="715"
    bbox="-223.455 -227.001 1037 954"
    underline-thickness="50"
    underline-position="-175"
    unicode-range="U+0020-U+25CA"
  />
<missing-glyph horiz-adv-x="242" 
 />
    <glyph glyph-name=".notdef" horiz-adv-x="242" 
 />
    <glyph glyph-name="space" unicode=" " horiz-adv-x="242" 
 />
    <glyph glyph-name="exclam" unicode="!" horiz-adv-x="204" 
d="M107 141h-10c-3.33301 0 -5 1.66699 -5 5v564c0 3.33301 1.66699 5 5 5h10c3.33301 0 5 -1.66699 5 -5v-564c0 -3.33301 -1.66699 -5 -5 -5zM122 18c0 -13.333 -6.66699 -20 -20 -20s-20 6.66699 -20 20s6.66699 20 20 20s20 -6.66699 20 -20z" />
    <glyph glyph-name="quotedbl" unicode="&#x22;" horiz-adv-x="248" 
d="M100 710l-19 -169c0 -3.33301 -2 -5 -6 -5h-6c-3.33301 0 -5 1.66699 -5 5l13 169c0 3.33301 1.66699 5 5 5h14c2.66699 0 4 -1.66699 4 -5zM190 710l-19 -169c0 -3.33301 -2 -5 -6 -5h-6c-3.33301 0 -5 1.66699 -5 5l13 169c0 3.33301 1.66699 5 5 5h14
c2.66699 0 4 -1.66699 4 -5z" />
    <glyph glyph-name="numbersign" unicode="#" horiz-adv-x="687" 
d="M141 0h-10c-3.33301 0 -4.66602 2 -3.99902 6l63 223h-145c-4.66699 0 -6.33398 2 -5.00098 6l3 9c1.33301 2.66699 3 4 5 4h147l63 225h-145c-4.66699 0 -6.33398 2 -5.00098 6l3 9c1.33301 2.66699 3 4 5 4h147l62 219c1.33301 2.66699 3 4 5 4h10c4 0 5.33301 -2 4 -6
l-61 -217h200l62 219c1.33301 2.66699 3 4 5 4h10c4 0 5.33301 -2 4 -6l-61 -217h141c4 0 5.66699 -2 5 -6l-3 -9c-1.33301 -2.66699 -3 -4 -5 -4h-143l-63 -225h141c4 0 5.66699 -2 5 -6l-3 -9c-1.33301 -2.66699 -3 -4 -5 -4h-143l-64 -225c-1.33301 -2.66699 -3 -4 -5 -4
h-10c-3.33301 0 -4.66602 2 -3.99902 6l63 223h-200l-64 -225c-1.33301 -2.66699 -3 -4 -5 -4zM278 473l-63 -225h200l63 225h-200z" />
    <glyph glyph-name="dollar" unicode="$" horiz-adv-x="583" 
d="M292 371c30 -7.33301 53.4971 -13.498 70.4971 -18.498s37.667 -12.833 62 -23.5s43 -22.167 56 -34.5s24.333 -28.666 34 -48.999s14.5 -43.5 14.5 -69.5c0 -57.333 -19.833 -102.333 -59.5 -135s-94.167 -49.667 -163.5 -51v-81c0 -3.33301 -1.66699 -5 -5 -5h-10
c-3.33301 0 -5 1.66699 -5 5v81c-76 2 -148.667 34.667 -218 98c-3.33301 2 -3.66602 4.33301 -0.999023 7l5 7c2 2 4.33301 2.33301 7 1c71.333 -63.333 145 -95 221 -95c62.667 0 113.167 14.667 151.5 44s57.5 70.333 57.5 123c0 23.333 -4.83301 44.5 -14.5 63.5
s-19.5 33.667 -29.5 44s-27.667 20.833 -53 31.5s-43.333 17.5 -54 20.5s-31.667 8.16699 -63 15.5c-2 0.666992 -3.83301 1.16699 -5.5 1.5s-3.5 0.833008 -5.5 1.5c-72.667 17.333 -127.5 39.666 -164.5 66.999s-55.5 69.666 -55.5 126.999
c0 55.333 20.833 98.5 62.5 129.5s94.834 47.167 159.501 48.5v75c0 3.33301 1.66699 5 5 5h10c3.33301 0 5 -1.66699 5 -5v-75c38.667 -1.33301 73.334 -8.5 104.001 -21.5s63.334 -33.5 98.001 -61.5c3.33301 -2 3.66602 -4.33301 0.999023 -7l-5 -7
c-2 -2 -4.33301 -2.33301 -7 -1c-64.667 52.667 -134 79 -208 79c-60 0 -109.167 -14 -147.5 -42s-57.5 -67 -57.5 -117c0 -51.333 17.167 -89.333 51.5 -114s86.5 -45.334 156.5 -62.001z" />
    <glyph glyph-name="percent" unicode="%" horiz-adv-x="753" 
d="M296 460c0 -30.667 -11 -56.5 -33 -77.5s-50.333 -31.5 -85 -31.5s-63 10.5 -85 31.5s-33 46.833 -33 77.5v145c0 33.333 10.833 60.666 32.5 81.999s50.167 32 85.5 32s63.833 -10.667 85.5 -32s32.5 -48.666 32.5 -81.999v-145zM111 0h-9.00098
c-5.33301 0 -6.66602 2 -3.99902 6l516 699c1.33301 2 3.33301 3 6 3h10c4.66699 0 5.66699 -2 3 -6l-516 -699c-0.666992 -2 -2.66699 -3 -6 -3zM77.999 460c0 -25.333 9.33301 -46.833 28 -64.5s42.667 -26.5 72 -26.5s53.333 8.83301 72 26.5s28 39.167 28 64.5v145
c0 28 -9.16699 51 -27.5 69s-42.5 27 -72.5 27s-54.167 -9 -72.5 -27s-27.5 -41 -27.5 -69v-145zM695.999 101c0 -30.667 -11 -56.5 -33 -77.5s-50.333 -31.5 -85 -31.5s-63 10.5 -85 31.5s-33 46.833 -33 77.5v145c0 33.333 10.833 60.666 32.5 81.999s50.167 32 85.5 32
s63.833 -10.667 85.5 -32s32.5 -48.666 32.5 -81.999v-145zM477.999 101c0 -25.333 9.33301 -46.833 28 -64.5s42.667 -26.5 72 -26.5s53.333 8.83301 72 26.5s28 39.167 28 64.5v145c0 28 -9.16699 51 -27.5 69s-42.5 27 -72.5 27s-54.167 -9 -72.5 -27
s-27.5 -41 -27.5 -69v-145z" />
    <glyph glyph-name="ampersand" unicode="&#x26;" horiz-adv-x="581" 
d="M446 101c-28 -37.333 -57.165 -65.165 -87.498 -83.498s-67.833 -27.5 -112.5 -27.5c-59.333 0 -106.833 15.833 -142.5 47.5s-53.5 75.167 -53.5 130.5c0 85.333 51 156.666 153 213.999c-66.667 82.667 -100 150 -100 202c0 42 14.167 76 42.5 102
s67.166 39 116.499 39c48.667 0 86.667 -12.333 114 -37s41 -57.334 41 -98.001c0 -38 -14.5 -73.833 -43.5 -107.5s-76.167 -68.834 -141.5 -105.501l211 -244c15.333 28.667 31.333 68.334 48 119.001c0.666992 4 2.66699 5.33301 6 4l9 -3c4 -0.666992 5.33301 -3 4 -7
c-16.667 -54 -34.667 -96.667 -54 -128l101 -112c3.33301 -4 2.66602 -6 -2.00098 -6h-14c-2.66699 0 -4.66699 1 -6 3zM71.002 168.001c0 -50 15.833 -88.834 47.5 -116.501s74.5 -41.5 128.5 -41.5c39.333 0 73.5 8.33301 102.5 25s56.5 43.667 82.5 81l-217 251
c-96 -53.333 -144 -119.666 -144 -198.999zM124.002 584c0 -27.333 7.5 -55.667 22.5 -85s39.833 -65 74.5 -107c62 34.667 106.667 67.667 134 99s41 64.333 41 99s-11.667 62.5 -35 83.5s-56.333 31.5 -99 31.5c-44 0 -78 -11 -102 -33s-36 -51.333 -36 -88z" />
    <glyph glyph-name="quotesingle" unicode="'" horiz-adv-x="158" 
d="M100 710l-19 -169c0 -3.33301 -2 -5 -6 -5h-6c-3.33301 0 -5 1.66699 -5 5l13 169c0 3.33301 1.66699 5 5 5h14c2.66699 0 4 -1.66699 4 -5z" />
    <glyph glyph-name="parenleft" unicode="(" horiz-adv-x="244" 
d="M215 -117h-12c-3.33301 0 -5.33301 1 -6 3c-92.667 150 -139 306.667 -139 470c0 162.667 46.333 319 139 469c0.666992 2 2.66699 3 6 3h12c4.66699 0 5.66699 -2 3 -6c-93.333 -146 -140 -301.333 -140 -466c0 -165.333 46.667 -321 140 -467
c2.66699 -4 1.66699 -6 -3 -6z" />
    <glyph glyph-name="parenright" unicode=")" horiz-adv-x="244" 
d="M40 -117h-12c-4.66699 0 -5.66699 2 -3 6c93.333 146 140 301.667 140 467c0 164.667 -46.667 320 -140 466c-2.66699 4 -1.66699 6 3 6h12c2.66699 0 4.66699 -1 6 -3c92.667 -150 139 -306.333 139 -469c0 -163.333 -46.333 -320 -139 -470
c-1.33301 -2 -3.33301 -3 -6 -3z" />
    <glyph glyph-name="asterisk" unicode="*" horiz-adv-x="461" 
d="M128 384l-7.99902 5c-3.33301 2 -3.66602 4.33301 -0.999023 7l95 132l-154 50c-4 1.33301 -5.33301 3.66602 -4 6.99902l3 9c1.33301 4 3.66602 5.33301 6.99902 4l155 -50v162c0 3.33301 1.66699 5 5 5h9c3.33301 0 5 -1.66699 5 -5v-163l155 50
c3.33301 1.33301 5.66602 0.333008 6.99902 -3l3 -8c1.33301 -3.33301 0 -5.66602 -4 -6.99902l-155 -50l96 -132c2 -2 1.66699 -4.33301 -1 -7l-7 -6c-2 -2 -4.33301 -1.66699 -7 1l-96 132l-96 -132c-2 -2 -4.33301 -2.33301 -7 -1z" />
    <glyph glyph-name="plus" unicode="+" 
d="M280 343h195c3.33301 0 5 -1.66699 5 -5v-10c0 -3.33301 -1.66699 -5 -5 -5h-195v-197c0 -3.33301 -1.66699 -5 -5 -5h-10c-3.33301 0 -5 1.66699 -5 5v197h-195c-3.33301 0 -5 1.66699 -5 5v10c0 3.33301 1.66699 5 5 5h195v196c0 3.33301 1.66699 5 5 5h10
c3.33301 0 5 -1.66699 5 -5v-196z" />
    <glyph glyph-name="comma" unicode="," horiz-adv-x="158" 
d="M102 58l-50 -159c-1.33301 -2.66699 -3 -4 -5 -4h-7c-4 0 -5.66699 2 -5 6l43 159c1.33301 2.66699 3 4 5 4h15c4 0 5.33301 -2 4 -6z" />
    <glyph glyph-name="hyphen" unicode="-" horiz-adv-x="392" 
d="M320 299h-248c-3.33301 0 -5 1.66699 -5 5v9c0 3.33301 1.66699 5 5 5h248c3.33301 0 5 -1.66699 5 -5v-9c0 -3.33301 -1.66699 -5 -5 -5z" />
    <glyph glyph-name="period" unicode="." horiz-adv-x="142" 
d="M91 18c0 -13.333 -6.66699 -20 -20 -20s-20 6.66699 -20 20s6.66699 20 20 20s20 -6.66699 20 -20z" />
    <glyph glyph-name="slash" unicode="/" horiz-adv-x="392" 
d="M361 709l-310 -705c-1.33301 -2.66699 -3.33301 -4 -6 -4h-11c-3.33301 0 -4.33301 2 -3 6l311 705c1.33301 2.66699 3.33301 4 6 4h10c3.33301 0 4.33301 -2 3 -6z" />
    <glyph glyph-name="zero" unicode="0" horiz-adv-x="606" 
d="M530 213c0 -68 -20.333 -122.167 -61 -162.5s-96 -60.5 -166 -60.5s-125.333 20.167 -166 60.5s-61 94.5 -61 162.5v285c0 70 20.167 125.333 60.5 166s95.833 61 166.5 61s126.167 -20.333 166.5 -61s60.5 -96 60.5 -166v-285zM96 213
c0 -62.667 18.3291 -112.334 54.9961 -149.001s87.334 -55 152.001 -55s115.334 18.333 152.001 55s55 86.334 55 149.001v285c0 65.333 -18.167 116.333 -54.5 153s-87.166 55 -152.499 55s-116.166 -18.333 -152.499 -55s-54.5 -87.667 -54.5 -153v-285z" />
    <glyph glyph-name="one" unicode="1" horiz-adv-x="317" 
d="M212 0l-9.99902 0.00195312c-3.33301 0 -5 1.66699 -5 5v684l-156 -98c-0.666992 -0.666992 -1.83398 -0.833984 -3.50098 -0.500977s-2.83398 0.833008 -3.50098 1.5l-5 8c-1.33301 3.33301 -0.666016 5.66602 2.00098 6.99902l166 105c2.66699 2 5.66699 3 9 3h6
c3.33301 0 5 -1.66699 5 -5v-705c0 -3.33301 -1.66699 -5 -5 -5z" />
    <glyph glyph-name="two" unicode="2" horiz-adv-x="541" 
d="M489 0l-440 0.000976562c-3.33301 0 -5 1.66699 -5 5v6c0 3.33301 0.666992 5.66602 2 6.99902l153 162l107 115c22 24.667 46.333 54.5 73 89.5s45 65.167 55 90.5s15 51 15 77c0 41.333 -14.5 77.333 -43.5 108s-71.5 46 -127.5 46
c-77.333 0 -145.666 -34.333 -204.999 -103c-2 -2.66699 -4.33301 -2.66699 -7 0l-6 7c-1.33301 2.66699 -1.33301 5 0 7c62 72 134.667 108 218 108c61.333 0 108.5 -17.167 141.5 -51.5s49.5 -74.833 49.5 -121.5c0 -22.667 -4.5 -46.167 -13.5 -70.5
s-18.333 -45.333 -28 -63s-28.834 -43.5 -57.501 -77.5s-50.667 -59.333 -66 -76l-89 -96l-141 -150h415c3.33301 0 5 -1.66699 5 -5v-9c0 -3.33301 -1.66699 -5 -5 -5z" />
    <glyph glyph-name="three" unicode="3" horiz-adv-x="558" 
d="M499 207c0 -65.333 -20.667 -117.835 -62 -157.502s-97 -59.5 -167 -59.5c-48.667 0 -90 9.16699 -124 27.5s-66.667 45.833 -98 82.5c-2 2.66699 -2 5 0 7l7 6c3.33301 2 6 1.33301 8 -2c28.667 -33.333 58.667 -58.666 90 -75.999s70.333 -26 117 -26
c64.667 0 115.667 18 153 54s56 84 56 144c0 60.667 -18.5 108.334 -55.5 143.001s-90.167 52 -159.5 52c-15.333 0 -34.333 -0.666992 -57 -2c-2 0 -3.66699 1 -5 3l-1 2c-1.33301 2.66699 -1 5 1 7l262 284h-385c-3.33301 0 -5 1.66699 -5 5v9c0 3.33301 1.66699 5 5 5
h410c3.33301 0 5 -1.66699 5 -5v-5c0 -2 -0.666992 -4.33301 -2 -7l-257 -278l21 1c80 0.666992 140.5 -18.5 181.5 -57.5s61.5 -91.167 61.5 -156.5z" />
    <glyph glyph-name="four" unicode="4" horiz-adv-x="525" 
d="M403 0h-10c-3.33301 0 -5 1.66699 -5 5v198h-353c-3.33301 0 -5 1.66699 -5 5v4c0 2 0.666992 4.33301 2 7l289 493c0.666992 2 2.66699 3 6 3h12c4 0 5 -2 3 -6l-286 -487h332v180c0 3.33301 1.66699 5 5 5h10c3.33301 0 5 -1.66699 5 -5v-180h80
c3.33301 0 5 -1.66699 5 -5v-9c0 -3.33301 -1.66699 -5 -5 -5h-80v-198c0 -3.33301 -1.66699 -5 -5 -5z" />
    <glyph glyph-name="five" unicode="5" horiz-adv-x="565" 
d="M510 233c0 -72.667 -20.6689 -131.001 -62.002 -175.001s-96.666 -66 -165.999 -66c-86.667 0 -158 36 -214 108c-1.33301 2.66699 -1 5 1 7l7 6c2.66699 2.66699 5 2.33398 7 -0.999023c26.667 -34 55.5 -59.333 86.5 -76s68.5 -25 112.5 -25
c64 0 114.667 19.833 152 59.5s56 93.834 56 162.501c0 70 -18.167 122 -54.5 156s-84.5 51 -144.5 51c-74 0 -137 -26.667 -189 -80c-2.66699 -2.66699 -5 -3.33398 -7 -2.00098l-13 5c-2.66699 1.33301 -4 3 -4 5l13 342c0 3.33301 1.66699 5 5 5h376
c3.33301 0 5 -1.66699 5 -5v-9c0 -3.33301 -1.66699 -5 -5 -5h-362l-12 -313c54.667 50.667 119.334 76 194.001 76c65.333 0 118 -18.833 158 -56.5s60 -94.167 60 -169.5z" />
    <glyph glyph-name="six" unicode="6" horiz-adv-x="572" 
d="M96 318c15.333 40 42.166 70.833 80.499 92.5s78.166 32.5 119.499 32.5c68 0 121.333 -19.5 160 -58.5s58 -94.833 58 -167.5c0 -70 -19.667 -125.333 -59 -166s-92.333 -61 -159 -61s-120 20 -160 60s-60 94.667 -60 164v293c0 66 21.333 118.833 64 158.5
s94.334 59.5 155.001 59.5c74.667 0 138.334 -25.667 191.001 -77c2 -2 2 -4.33301 0 -7l-5 -6c-2.66699 -2.66699 -5.33398 -3 -8.00098 -1c-49.333 48 -108.666 72 -177.999 72c-57.333 0 -104.833 -18.333 -142.5 -55s-56.5 -84.667 -56.5 -144v-189zM96 214
c0 -64 18.002 -114.167 54.002 -150.5s84.667 -54.5 146 -54.5s109.666 18.5 144.999 55.5s53 87.833 53 152.5c0 67.333 -17.333 118.666 -52 153.999s-83.334 53 -146.001 53c-51.333 0 -97.5 -16.667 -138.5 -50s-61.5 -80.666 -61.5 -141.999v-18z" />
    <glyph glyph-name="seven" unicode="7" horiz-adv-x="495" 
d="M131 0h-11c-4.66699 0 -6 2 -4 6l334 690h-419c-3.33301 0 -5 1.66699 -5 5v9c0 3.33301 1.66699 5 5 5h438c3.33301 0 5 -1.66699 5 -5v-5c0 -2.66699 -0.333008 -4.66699 -1 -6l-336 -695c-1.33301 -2.66699 -3.33301 -4 -6 -4z" />
    <glyph glyph-name="eight" unicode="8" horiz-adv-x="592" 
d="M529 196c0 -60 -20.833 -109.333 -62.5 -148s-98.5 -58 -170.5 -58s-128.833 19.333 -170.5 58s-62.5 88 -62.5 148c0 44 14.333 82.667 43 116s68 55 118 65c-46.667 10.667 -81.667 31.334 -105 62.001s-35 66.667 -35 108c0 52.667 18.833 95.5 56.5 128.5
s89.5 49.5 155.5 49.5s117.833 -16.5 155.5 -49.5s56.5 -75.833 56.5 -128.5c0 -41.333 -11.5 -77.333 -34.5 -108s-57.833 -51.334 -104.5 -62.001c50 -10 89.167 -31.667 117.5 -65s42.5 -72 42.5 -116zM83 198c0 -54.667 18.502 -99.834 55.502 -135.501
s89.5 -53.5 157.5 -53.5s120.5 17.833 157.5 53.5s55.5 80.834 55.5 135.501c0 49.333 -19.333 89.833 -58 121.5s-90.334 47.5 -155.001 47.5s-116.334 -15.833 -155.001 -47.5s-58 -72.167 -58 -121.5zM104.002 548c0 -47.333 16.3311 -86.166 48.998 -116.499
s80.334 -45.5 143.001 -45.5s110.334 15.167 143.001 45.5s49 69.166 49 116.499c0 49.333 -17.5 88 -52.5 116s-81.5 42 -139.5 42s-104.5 -14 -139.5 -42s-52.5 -66.667 -52.5 -116z" />
    <glyph glyph-name="nine" unicode="9" horiz-adv-x="572" 
d="M58 498c0 70 19.6689 125.333 59.002 166s92.333 61 159 61s120 -20 160 -60s60 -94.333 60 -163v-294c0 -66 -21.333 -118.833 -64 -158.5s-94.334 -59.5 -155.001 -59.5c-78.667 0 -143.667 36.333 -195 109c-2 2.66699 -2 5 0 7l7 6c2 2.66699 4.33301 2.66699 7 0
c48.667 -68.667 109 -103 181 -103c57.333 0 104.833 18.333 142.5 55s56.5 84.667 56.5 144v186c-15.333 -39.333 -42.333 -69.5 -81 -90.5s-78.334 -31.5 -119.001 -31.5c-68.667 0 -122.167 19.333 -160.5 58s-57.5 94.667 -57.5 168zM78.002 498
c0 -67.333 17.3311 -118.667 51.998 -154s83.334 -53 146.001 -53c51.333 0 97.5 16.5 138.5 49.5s61.5 79.833 61.5 140.5v21c0 64 -18 114 -54 150s-84.667 54 -146 54s-109.666 -18.5 -144.999 -55.5s-53 -87.833 -53 -152.5z" />
    <glyph glyph-name="colon" unicode=":" horiz-adv-x="188" 
d="M114 480c0 -13.333 -6.66699 -20 -20 -20s-20 6.66699 -20 20s6.66699 20 20 20s20 -6.66699 20 -20zM114 18c0 -13.333 -6.66699 -20 -20 -20s-20 6.66699 -20 20s6.66699 20 20 20s20 -6.66699 20 -20z" />
    <glyph glyph-name="semicolon" unicode=";" horiz-adv-x="223" 
d="M77 -105h-7c-4 0 -5.66699 2 -5 6l43 159c1.33301 2.66699 3 4 5 4h15c4 0 5.33301 -2 4 -6l-50 -159c-1.33301 -2.66699 -3 -4 -5 -4zM142 480c0 -13.333 -6.66699 -20 -20 -20s-20 6.66699 -20 20s6.66699 20 20 20s20 -6.66699 20 -20z" />
    <glyph glyph-name="less" unicode="&#x3c;" 
d="M466 133l-0.000976562 -11.001c0 -1.33301 -0.666992 -2.5 -2 -3.5s-2.66602 -1.16699 -3.99902 -0.5l-410 196c-2.66699 1.33301 -4 3.33301 -4 6v18c0 2.66699 1.33301 4.66699 4 6l410 196c4 2.66699 6 1.33398 6 -3.99902v-11c0 -2.66699 -1.33301 -4.66699 -4 -6
l-396 -190l396 -190c2.66699 -1.33301 4 -3.33301 4 -6z" />
    <glyph glyph-name="equal" unicode="=" 
d="M475 411h-410c-3.33301 0 -5 1.66699 -5 5v10c0 3.33301 1.66699 5 5 5h410c3.33301 0 5 -1.66699 5 -5v-10c0 -3.33301 -1.66699 -5 -5 -5zM475 234h-410c-3.33301 0 -5 1.66699 -5 5v10c0 3.33301 1.66699 5 5 5h410c3.33301 0 5 -1.66699 5 -5v-10
c0 -3.33301 -1.66699 -5 -5 -5z" />
    <glyph glyph-name="greater" unicode="&#x3e;" 
d="M490 314l-409.999 -195.999c-4 -2.66699 -6 -1.33398 -6 3.99902v11c0 2.66699 1.33301 4.66699 4 6l396 190l-396 190c-2.66699 1.33301 -4 3.33301 -4 6v11c0 1.33301 0.666992 2.5 2 3.5s2.66602 1.16699 3.99902 0.5l410 -196c2.66699 -1.33301 4 -3.33301 4 -6v-18
c0 -2.66699 -1.33301 -4.66699 -4 -6z" />
    <glyph glyph-name="question" unicode="?" horiz-adv-x="443" 
d="M210 141l-9.99902 0.000976562c-3.33301 0 -5 1.66699 -5 5v69c0 30 6.33301 56.667 19 80s27.834 43 45.501 59l53.5 48c18 16 33.333 35.667 46 59s19 50 19 80c0 46 -13.333 85 -40 117s-67.334 48 -122.001 48c-65.333 0 -122.333 -26.667 -171 -80
c-2.66699 -2.66699 -5 -2.33398 -7 0.999023l-6 7c-1.33301 2.66699 -1 5 1 7c50 56 111 84 183 84c58.667 0 103.667 -17.167 135 -51.5s47 -78.5 47 -132.5c0 -32 -6.33301 -60.333 -19 -85s-28 -45.167 -46 -61.5l-53.5 -48c-17.667 -15.667 -32.834 -34.5 -45.501 -56.5
s-19 -47 -19 -75v-69c0 -3.33301 -1.66699 -5 -5 -5zM225.001 18.001c0 -13.333 -6.66699 -20 -20 -20s-20 6.66699 -20 20s6.66699 20 20 20s20 -6.66699 20 -20z" />
    <glyph glyph-name="at" unicode="@" horiz-adv-x="946" 
d="M679 -53c-67.333 -38.667 -151.334 -58 -252.001 -58c-115.333 0 -204.166 33 -266.499 99s-93.5 158.333 -93.5 277v89c0 129.333 32.5 223.5 97.5 282.5s165.833 88.5 302.5 88.5c156.667 0 290 -55.667 400 -167c1.33301 -2.66699 2 -5 2 -7v-315
c0 -104 -38.667 -156 -116 -156c-28 0 -53.5 8.83301 -76.5 26.5s-38.5 42.5 -46.5 74.5c-11.333 -32.667 -31.5 -58 -60.5 -76s-61.833 -27 -98.5 -27c-50 0 -92.667 17 -128 51s-53 77 -53 129v90c0 52.667 15.833 94.667 47.5 126s73.834 47 126.501 47
c64 0 121.667 -9 173 -27c2.66699 -0.666992 4 -2.33398 4 -5.00098v-257c0 -40 11.167 -72 33.5 -96s48.5 -36 78.5 -36c33.333 0 57.5 11 72.5 33s22.5 56.333 22.5 103v314c-51.333 48.667 -106.833 86.667 -166.5 114s-131.167 41 -214.5 41
c-130.667 0 -226.5 -27.667 -287.5 -83s-91.5 -144.666 -91.5 -267.999v-89c0 -113.333 29.167 -201 87.5 -263s142.833 -93 253.5 -93c44 0 88.167 5.16699 132.5 15.5s80.833 23.833 109.5 40.5c4 2.66699 6.33301 2 7 -2l3 -10
c1.33301 -2.66699 0.666016 -4.66699 -2.00098 -6zM310.999 258c0 -47.333 15.6689 -85.832 47.002 -115.499s68.666 -44.5 111.999 -44.5c41.333 0 76.666 12.5 105.999 37.5s44 55.833 44 92.5v251c-44 14.667 -95.667 22 -155 22c-47.333 0 -84.833 -13.833 -112.5 -41.5
s-41.5 -64.834 -41.5 -111.501v-90z" />
    <glyph glyph-name="A" unicode="A" horiz-adv-x="582" 
d="M28 0h-12c-4 0 -5.33301 2 -4 6l266 705c1.33301 2.66699 3 4 5 4h16c2 0 3.66699 -1.33301 5 -4l266 -705c1.33301 -4 0 -6 -4 -6h-12c-2 -0 -3.66699 1.33301 -5 4l-86 229h-344l-86 -229c-1.33301 -2.66699 -3 -4 -5 -4zM290 687l-163 -434h328l-163 434h-2z" />
    <glyph glyph-name="B" unicode="B" horiz-adv-x="618" 
d="M530 546c0 -42 -11.666 -76.832 -34.999 -104.499s-55.333 -46.5 -96 -56.5c51.333 -8 90.833 -28.333 118.5 -61s41.5 -75.334 41.5 -128.001c0 -62.667 -21.333 -111 -64 -145s-104 -51 -184 -51h-206c-3.33301 0 -5 1.66699 -5 5v705c0 3.33301 1.66699 5 5 5h206
c77.333 0 133.166 -15.833 167.499 -47.5s51.5 -72.167 51.5 -121.5zM121.001 20.001h190c75.333 0 132 15.333 170 46s57 74 57 130s-17 99.833 -51 131.5s-85.667 47.5 -155 47.5h-211v-355zM509.001 546.001c0 43.333 -15 79 -45 107s-81 42 -153 42h-190v-300h211
c56 0 99.5 13.333 130.5 40s46.5 63.667 46.5 111z" />
    <glyph glyph-name="C" unicode="C" horiz-adv-x="573" 
d="M536 74c-62 -56 -136.331 -84 -222.998 -84c-76 0 -134.667 21.833 -176 65.5s-62 100.167 -62 169.5v265c0 69.333 20.5 125.833 61.5 169.5s98.833 65.5 173.5 65.5c80 0 150.333 -25 211 -75c3.33301 -2 3.66602 -4.33301 0.999023 -7l-6 -8
c-2 -2 -4.33301 -2.33301 -7 -1c-58.667 47.333 -125.334 71 -200.001 71c-68.667 0 -121.334 -19.833 -158.001 -59.5s-55 -91.5 -55 -155.5v-265c0 -64 18.667 -115.833 56 -155.5s90.666 -59.5 159.999 -59.5c80.667 0 151.334 26.667 212.001 80
c2.66699 2.66699 5 2.66699 7 0l6 -9c2.66699 -2.66699 2.33398 -5 -0.999023 -7z" />
    <glyph glyph-name="D" unicode="D" horiz-adv-x="657" 
d="M340 0h-235c-3.33301 0 -5 1.66699 -5 5v705c0 3.33301 1.66699 5 5 5h235c74 0 132.833 -22.167 176.5 -66.5s65.5 -104.5 65.5 -180.5v-224c0 -76 -21.833 -135.667 -65.5 -179s-102.5 -65 -176.5 -65zM121 695v-675h219c68.667 0 122.667 19.667 162 59
s59 94.333 59 165v224c0 71.333 -19.667 127 -59 167s-93.333 60 -162 60h-219z" />
    <glyph glyph-name="E" unicode="E" horiz-adv-x="559" 
d="M121 355v-335h386c3.33301 0 5 -1.66699 5 -5v-10c0 -3.33301 -1.66699 -5 -5 -5h-402c-3.33301 0 -5 1.66699 -5 5v705c0 3.33301 1.66699 5 5 5h387c3.33301 0 5 -1.66699 5 -5v-10c0 -3.33301 -1.66699 -5 -5 -5h-371v-320h351c3.33301 0 5 -1.66699 5 -5v-10
c0 -3.33301 -1.66699 -5 -5 -5h-351z" />
    <glyph glyph-name="F" unicode="F" horiz-adv-x="542" 
d="M507 710v-10c0 -3.33301 -1.66699 -5 -5 -5h-381v-330h355c3.33301 0 5 -1.66699 5 -5v-10c0 -3.33301 -1.66699 -5 -5 -5h-355v-340c0 -3.33301 -1.66699 -5 -5 -5h-11c-3.33301 0 -5 1.66699 -5 5v705c0 3.33301 1.66699 5 5 5h397c3.33301 0 5 -1.66699 5 -5z" />
    <glyph glyph-name="G" unicode="G" horiz-adv-x="633" 
d="M561 85c-66 -63.333 -146.33 -94.999 -240.997 -94.999c-78 0 -138.333 21.833 -181 65.5s-64 100.5 -64 170.5v264c0 70 21.167 126.667 63.5 170s102.166 65 179.499 65c88 0 164 -26.667 228 -80c3.33301 -2 3.66602 -4.33301 0.999023 -7l-6 -8
c-2 -2 -4.33301 -2.33301 -7 -1c-61.333 50.667 -133.333 76 -216 76c-72 0 -127 -19.667 -165 -59s-57 -91.333 -57 -156v-264c0 -64.667 19.167 -116.834 57.5 -156.501s93.833 -59.5 166.5 -59.5c85.333 0 159.666 28.667 222.999 86v248h-221
c-3.33301 0 -5 1.66699 -5 5v10c0 3.33301 1.66699 5 5 5h237c3.33301 0 5 -1.66699 5 -5v-267c0 -2.66699 -1 -5 -3 -7z" />
    <glyph glyph-name="H" unicode="H" horiz-adv-x="672" 
d="M551 375v335c0 3.33301 1.66699 5 5 5h11c3.33301 0 5 -1.66699 5 -5v-705c0 -3.33301 -1.66699 -5 -5 -5h-11c-3.33301 0 -5 1.66699 -5 5v350h-430v-350c0 -3.33301 -1.66699 -5 -5 -5h-11c-3.33301 0 -5 1.66699 -5 5v705c0 3.33301 1.66699 5 5 5h11
c3.33301 0 5 -1.66699 5 -5v-335h430z" />
    <glyph glyph-name="I" unicode="I" horiz-adv-x="221" 
d="M121 710v-705c0 -3.33301 -1.66699 -5 -5 -5h-11c-3.33301 0 -5 1.66699 -5 5v705c0 3.33301 1.66699 5 5 5h11c3.33301 0 5 -1.66699 5 -5z" />
    <glyph glyph-name="J" unicode="J" horiz-adv-x="487" 
d="M392 198c0 -70.667 -15.168 -123 -45.501 -157s-76.5 -51 -138.5 -51c-66 0 -128 27.333 -186 82c-2 2 -2.33301 4.33301 -1 7l7 8c2 2.66699 4.33301 2.66699 7 0c54.667 -51.333 112.334 -77 173.001 -77c56 0 97.167 15 123.5 45s39.5 77.667 39.5 143v512
c0 3.33301 1.66699 5 5 5h11c3.33301 0 5 -1.66699 5 -5v-512z" />
    <glyph glyph-name="K" unicode="K" horiz-adv-x="602" 
d="M116 0h-11c-3.33301 0 -5 1.66699 -5 5v705c0 3.33301 1.66699 5 5 5h11c3.33301 0 5 -1.66699 5 -5v-408l421 410c2 2 4.33301 3 7 3h16c6 0 7 -2 3 -6l-325 -317l344 -386c3.33301 -4 2.33301 -6 -3 -6h-16c-2.66699 0 -4.66699 1 -6 3l-334 375l-107 -104v-269
c0 -3.33301 -1.66699 -5 -5 -5z" />
    <glyph glyph-name="L" unicode="L" horiz-adv-x="489" 
d="M472 0h-367c-3.33301 0 -5 1.66699 -5 5v705c0 3.33301 1.66699 5 5 5h11c3.33301 0 5 -1.66699 5 -5v-690h351c3.33301 0 5 -1.66699 5 -5v-10c0 -3.33301 -1.66699 -5 -5 -5z" />
    <glyph glyph-name="M" unicode="M" horiz-adv-x="838" 
d="M116 0h-11c-3.33301 0 -5 1.66699 -5 5v705c0 3.33301 1.66699 5 5 5h17c2.66699 0 4.66699 -1 6 -3l221 -385l70 -123l69 120l222 388c1.33301 2 3.33301 3 6 3h17c3.33301 0 5 -1.66699 5 -5v-705c0 -3.33301 -1.66699 -5 -5 -5h-11c-3.33301 0 -5 1.66699 -5 5v678
l-93 -162l-195 -341c-0.666992 -2 -2.66699 -3 -6 -3h-8c-3.33301 0 -5.33301 1 -6 3l-195 341l-93 162v-678c0 -3.33301 -1.66699 -5 -5 -5z" />
    <glyph glyph-name="N" unicode="N" horiz-adv-x="699" 
d="M116 0h-11c-3.33301 0 -5 1.66699 -5 5v705c0 3.33301 1.66699 5 5 5h14c3.33301 0 5.33301 -1 6 -3l453 -678v676c0 3.33301 1.66699 5 5 5h11c3.33301 0 5 -1.66699 5 -5v-705c0 -3.33301 -1.66699 -5 -5 -5h-14c-2.66699 0 -4.66699 1 -6 3l-453 678v-676
c0 -3.33301 -1.66699 -5 -5 -5z" />
    <glyph glyph-name="O" unicode="O" horiz-adv-x="666" 
d="M591 218c0 -65.333 -23.998 -119.666 -71.998 -162.999s-110 -65 -186 -65s-138 21.667 -186 65s-72 97.666 -72 162.999v270c0 70 23.667 127 71 171s109.666 66 186.999 66s139.666 -22 186.999 -66s71 -101 71 -171v-270zM96.002 218
c0 -60 21.8291 -109.667 65.4961 -149s100.834 -59 171.501 -59s127.834 19.667 171.501 59s65.5 89 65.5 149v270c0 64.667 -21.667 117 -65 157s-100.666 60 -171.999 60s-128.666 -20 -171.999 -60s-65 -92.333 -65 -157v-270z" />
    <glyph glyph-name="P" unicode="P" horiz-adv-x="609" 
d="M105 715h217.999c78 0 138 -19 180 -57s63 -90.667 63 -158c0 -68 -21.167 -120.667 -63.5 -158s-102.166 -56 -179.499 -56h-202v-281c0 -3.33301 -1.66699 -5 -5 -5h-11c-3.33301 0 -5 1.66699 -5 5v705c0 3.33301 1.66699 5 5 5zM120.999 306l200 -0.000976562
c73.333 0 129 16.667 167 50s57 81.333 57 144s-19.167 110.834 -57.5 144.501s-93.833 50.5 -166.5 50.5h-200v-389z" />
    <glyph glyph-name="Q" unicode="Q" horiz-adv-x="667" 
d="M591 -25l-7.00195 -7.00098c-2 -2 -4.33301 -1.66699 -7 1l-73 76c-47.333 -35.333 -104.333 -53 -171 -53c-76 0 -138 21.833 -186 65.5s-72 97.834 -72 162.501v268c0 69.333 23.833 126.166 71.5 170.499s109.834 66.5 186.501 66.5s138.834 -22.167 186.501 -66.5
s71.5 -101.166 71.5 -170.499v-268c0 -65.333 -24 -119.333 -72 -162l72 -76c2 -2.66699 2 -5 0 -7zM95.998 219.999c0 -59.333 21.998 -108.833 65.998 -148.5s101 -59.5 171 -59.5c62 0 114.333 16 157 48l-123 129c-2 2.66699 -2 5 0 7l7 7c2.66699 2 5 2 7 0l124 -131
c43.333 40 65 89.333 65 148v268c0 64 -21.667 116.167 -65 156.5s-100.666 60.5 -171.999 60.5s-128.666 -20.167 -171.999 -60.5s-65 -92.5 -65 -156.5v-268z" />
    <glyph glyph-name="R" unicode="R" horiz-adv-x="616" 
d="M564 0h-15.001c-3.33301 0 -5.33301 1 -6 3l-239 307h-183v-305c0 -3.33301 -1.66699 -5 -5 -5h-11c-3.33301 0 -5 1.66699 -5 5v705c0 3.33301 1.66699 5 5 5h218c72.667 0 130 -18 172 -54s63 -85.667 63 -149c0 -62 -20.167 -110.833 -60.5 -146.5
s-96.166 -54.167 -167.499 -55.5l237 -304c2.66699 -4 1.66699 -6 -3 -6zM322.999 695h-202v-365h202c67.333 0 119.833 15.833 157.5 47.5s56.5 76.5 56.5 134.5s-19 103 -57 135s-90.333 48 -157 48z" />
    <glyph glyph-name="S" unicode="S" horiz-adv-x="589" 
d="M541 176c0 -58.667 -21.502 -104.335 -64.502 -137.002s-101.833 -49 -176.5 -49c-49.333 0 -92.666 7.33301 -129.999 22s-75.333 38.667 -114 72c-3.33301 2 -3.66602 4.33301 -0.999023 7l7 8c2 2 4.33301 2.33301 7 1c37.333 -31.333 74 -54.166 110 -68.499
s76.333 -21.5 121 -21.5c68 0 121.667 14.167 161 42.5s59 69.5 59 123.5c0 47.333 -16.333 84 -49 110s-91.667 49 -177 69c-80.667 18.667 -140.167 44 -178.5 76s-57.5 73.333 -57.5 124c0 55.333 21.833 97.5 65.5 126.5s98.5 43.5 164.5 43.5
c88.667 0 166.334 -26.667 233.001 -80c2 -1.33301 2.33301 -3.66602 1 -6.99902l-5 -8c-2.66699 -3.33301 -5 -4 -7 -2c-62 51.333 -137 77 -225 77c-58.667 0 -107.667 -12.833 -147 -38.5s-59 -63.167 -59 -112.5c0 -46 17.5 -82.833 52.5 -110.5s90.5 -50.5 166.5 -68.5
c91.333 -22 154.666 -48 189.999 -78s53 -70.333 53 -121z" />
    <glyph glyph-name="T" unicode="T" horiz-adv-x="527" 
d="M17 715h493c3.33301 0 5 -1.66699 5 -5v-10c0 -3.33301 -1.66699 -5 -5 -5h-238v-690c0 -3.33301 -1.66699 -5 -5 -5h-11c-3.33301 0 -5 1.66699 -5 5v690h-234c-3.33301 0 -5 1.66699 -5 5v10c0 3.33301 1.66699 5 5 5z" />
    <glyph glyph-name="U" unicode="U" horiz-adv-x="670" 
d="M576 240c0 -74.667 -21.167 -134.667 -63.5 -180s-101.5 -68 -177.5 -68s-135.167 22.667 -177.5 68s-63.5 105.333 -63.5 180v470c0 3.33301 1.66699 5 5 5h11c3.33301 0 5 -1.66699 5 -5v-470c0 -69.333 19.167 -124.666 57.5 -165.999s92.5 -62 162.5 -62
s124.167 20.667 162.5 62s57.5 96.666 57.5 165.999v470c0 3.33301 1.66699 5 5 5h11c3.33301 0 5 -1.66699 5 -5v-470z" />
    <glyph glyph-name="V" unicode="V" horiz-adv-x="596" 
d="M307 0h-17.998c-2.66699 -0 -4.66699 1.33301 -6 4l-272 705c-0.666992 4 0.666016 6 3.99902 6h11c2.66699 0 4.66699 -1.33301 6 -4l166 -428l99 -258h2l49 127.5l49 127.5l167 431c1.33301 2.66699 3.33301 4 6 4h11c3.33301 0 4.66602 -2 3.99902 -6l-272 -705
c-1.33301 -2.66699 -3.33301 -4 -6 -4z" />
    <glyph glyph-name="W" unicode="W" horiz-adv-x="928" 
d="M244 0h-16c-2 -0 -3.66699 1.33301 -5 4l-207 705c-1.33301 4 0 6 4 6h12c2 0 3.66699 -1.33301 5 -4l199 -683l217 669c1.33301 2.66699 3 4 5 4h12c2 0 3.66699 -1.33301 5 -4l217 -669l199 683c1.33301 2.66699 3 4 5 4h12c4 0 5.33301 -2 4 -6l-207 -705
c-1.33301 -2.66699 -3 -4 -5 -4h-16c-2 -0 -3.66699 1.33301 -5 4l-215 662l-215 -662c-1.33301 -2.66699 -3 -4 -5 -4z" />
    <glyph glyph-name="X" unicode="X" horiz-adv-x="569" 
d="M299 361l245 -355c2.66699 -4 1.66699 -6 -3 -6h-14c-3.33301 0 -5.33301 1 -6 3l-236 342l-237 -342c-1.33301 -2 -3.33301 -3 -6 -3h-14c-4.66699 0 -5.66699 2 -3 6l246 355l-235 348c-2.66699 4 -1.66699 6 3 6h14c3.33301 0 5.33301 -1 6 -3l226 -335l225 335
c1.33301 2 3.33301 3 6 3h14c4.66699 0 5.66699 -2 3 -6z" />
    <glyph glyph-name="Y" unicode="Y" horiz-adv-x="529" 
d="M270 0h-11c-3.33301 0 -5 1.66699 -5 5v281l-242 423c-2 4 -0.666992 6 4 6h12c2.66699 0 4.66699 -1 6 -3l231 -404l231 404c1.33301 2 3.33301 3 6 3h12c4.66699 0 6 -2 4 -6l-243 -423v-281c0 -3.33301 -1.66699 -5 -5 -5z" />
    <glyph glyph-name="Z" unicode="Z" horiz-adv-x="546" 
d="M507 0h-470c-3.33301 0 -5 1.66699 -5 5v5c0 1.33301 0.666992 3.33301 2 6l444 679h-427c-3.33301 0 -5 1.66699 -5 5v10c0 3.33301 1.66699 5 5 5h450c3.33301 0 5 -1.66699 5 -5v-7c0 -1.33301 -0.666992 -3.33301 -2 -6l-443 -677h446c3.33301 0 5 -1.66699 5 -5v-10
c0 -3.33301 -1.66699 -5 -5 -5z" />
    <glyph glyph-name="bracketleft" unicode="[" horiz-adv-x="238" 
d="M113 809v-907h91c3.33301 0 5 -1.66699 5 -5v-9c0 -3.33301 -1.66699 -5 -5 -5h-106c-3.33301 0 -5 1.66699 -5 5v935c0 3.33301 1.66699 5 5 5h106c3.33301 0 5 -1.66699 5 -5v-9c0 -3.33301 -1.66699 -5 -5 -5h-91z" />
    <glyph glyph-name="backslash" unicode="\" horiz-adv-x="392" 
d="M341 4l-310 705c-1.33301 4 -0.333008 6 3 6h10c2.66699 0 4.66699 -1.33301 6 -4l311 -705c1.33301 -4 0.333008 -6 -3 -6h-11c-2.66699 -0 -4.66699 1.33301 -6 4z" />
    <glyph glyph-name="bracketright" unicode="]" horiz-adv-x="238" 
d="M125 -98v907h-91c-3.33301 0 -5 1.66699 -5 5v9c0 3.33301 1.66699 5 5 5h106c3.33301 0 5 -1.66699 5 -5v-935c0 -3.33301 -1.66699 -5 -5 -5h-106c-3.33301 0 -5 1.66699 -5 5v9c0 3.33301 1.66699 5 5 5h91z" />
    <glyph glyph-name="asciicircum" unicode="^" 
d="M77 581h-16c-5.33301 0 -6.33301 2 -3 6l200 232c1.33301 2 3.33301 3 6 3h12c2.66699 0 4.66699 -1 6 -3l200 -232c2.66699 -4 1.66699 -6 -3 -6h-16c-3.33301 0 -5.33301 1 -6 3l-187 219l-187 -219c-0.666992 -2 -2.66699 -3 -6 -3z" />
    <glyph glyph-name="underscore" unicode="_" horiz-adv-x="542" 
d="M522 -15v-9c0 -3.33301 -1.66699 -5 -5 -5h-492c-3.33301 0 -5 1.66699 -5 5v9c0 3.33301 1.66699 5 5 5h492c3.33301 0 5 -1.66699 5 -5z" />
    <glyph glyph-name="grave" unicode="`" horiz-adv-x="107" 
d="M81 600h-8c-3.33301 0 -5.33301 1 -6 3l-89 134c-2 4 -1 6 3 6h15c2.66699 0 4.66699 -1 6 -3l83 -134c3.33301 -4 2 -6 -4 -6z" />
    <glyph glyph-name="a" unicode="a" horiz-adv-x="497" 
d="M67 472c47.333 34 106 51.001 176 51.001c61.333 0 107 -16.167 137 -48.5s45 -76.833 45 -133.5v-309c0 -3.33301 -1.33301 -5.33301 -4 -6c-54.667 -24 -114 -36 -178 -36c-60 0 -108.833 14.5 -146.5 43.5s-56.5 67.5 -56.5 115.5c0 49.333 17.667 87.666 53 114.999
s85.333 41 150 41c49.333 0 103.333 -7 162 -21v57c0 108.667 -54 163 -162 163c-62 0 -117 -15.333 -165 -46c-2.66699 -1.33301 -5 -1 -7 1l-4 7c-1.33301 3.33301 -1.33301 5.33301 0 6zM60 149.001c0 -42 17.001 -75.833 51.001 -101.5s78 -38.5 132 -38.5
c56 0 110 10 162 30v227c-54.667 13.333 -108.667 20 -162 20c-58.667 0 -103.834 -11.833 -135.501 -35.5s-47.5 -57.5 -47.5 -101.5z" />
    <glyph glyph-name="b" unicode="b" horiz-adv-x="529" 
d="M98 474c48 32.667 102.333 49 163 49c139.333 0 209 -71.667 209 -215v-105c0 -142 -69.667 -213 -209 -213c-63.333 0 -123 11.667 -179 35c-2.66699 0.666992 -4 2.66699 -4 6v679c0 3.33301 1.66699 5 5 5h10c3.33301 0 5 -1.66699 5 -5v-236zM261 9
c126 0 188.999 64.667 188.999 194v105c0 130.667 -63 196 -189 196c-57.333 0 -111.666 -17 -162.999 -51v-415c54.667 -19.333 109 -29 163 -29z" />
    <glyph glyph-name="c" unicode="c" horiz-adv-x="462" 
d="M429 53c-52 -42 -109.998 -63 -173.998 -63c-59.333 0 -106.666 17.5 -141.999 52.5s-53 78.5 -53 130.5v167c0 52 17.667 95.5 53 130.5s82.666 52.5 141.999 52.5c58 0 111.333 -18 160 -54c3.33301 -2 3.66602 -4.33301 0.999023 -7l-5 -7
c-2 -2 -4.33301 -2.33301 -7 -1c-46 33.333 -96 50 -150 50c-54.667 0 -97.334 -15.667 -128.001 -47s-46 -70.333 -46 -117v-167c0 -46.667 15.667 -85.667 47 -117s73.666 -47 126.999 -47c58 0 112.667 19.667 164 59c2.66699 1.33301 5 1 7 -1l5 -7
c2.66699 -2.66699 2.33398 -5 -0.999023 -7z" />
    <glyph glyph-name="d" unicode="d" horiz-adv-x="529" 
d="M431 474v236c0 3.33301 1.66699 5 5 5h10c3.33301 0 5 -1.66699 5 -5v-679c0 -3.33301 -1.33301 -5.33301 -4 -6c-56 -23.333 -115.667 -35 -179 -35c-139.333 0 -209 71 -209 213v105c0 143.333 69.667 215 209 215c60.667 0 115 -16.333 163 -49zM79 203
c0 -129.333 62.999 -194 188.999 -194c54 0 108.333 9.66699 163 29v415c-51.333 34 -105.666 51 -162.999 51c-126 0 -189 -65.333 -189 -196v-105z" />
    <glyph glyph-name="e" unicode="e" horiz-adv-x="505" 
d="M452 335v-88.001c0 -3.33301 -1.66699 -5 -5 -5h-367v-71c0 -49.333 17 -88.666 51 -117.999s75.667 -44 125 -44c63.333 0 121.333 24.333 174 73c2.66699 2 5 1.66699 7 -1l6 -6c2.66699 -2.66699 2.66699 -5 0 -7c-56 -52 -118.333 -78 -187 -78
c-54.667 0 -101 16.667 -139 50s-57 77 -57 131v164c0 58 17.667 103.833 53 137.5s83 50.5 143 50.5c59.333 0 106.833 -16.833 142.5 -50.5s53.5 -79.5 53.5 -137.5zM432 334.999c0 52.667 -16 94 -48 124s-74.667 45 -128 45c-54.667 0 -97.667 -14.833 -129 -44.5
s-47 -71.167 -47 -124.5v-74h352v74z" />
    <glyph glyph-name="f" unicode="f" horiz-adv-x="302" 
d="M287 703c-20 2 -39.667 3.00098 -59 3.00098c-42 0 -74 -12.167 -96 -36.5s-33 -58.833 -33 -103.5v-53h183c3.33301 0 5 -1.66699 5 -5v-9c0 -3.33301 -1.66699 -5 -5 -5h-183v-489c0 -3.33301 -1.66699 -5 -5 -5h-10c-3.33301 0 -5 1.66699 -5 5v561
c0 49.333 13 88.166 39 116.499s62.667 42.5 110 42.5c20.667 0 41 -1 61 -3c3.33301 -1.33301 5 -3.33301 5 -6v-9c0 -4 -2.33301 -5.33301 -7 -4z" />
    <glyph glyph-name="g" unicode="g" horiz-adv-x="527" 
d="M449 -22c0 -53.333 -16.167 -96.333 -48.5 -129s-80.166 -49 -143.499 -49c-68.667 0 -131 27.333 -187 82c-2 2 -2 4.33301 0 7l5 7c2 2.66699 4.33301 2.66699 7 0c53.333 -51.333 111.666 -77 174.999 -77c58 0 101.167 14.333 129.5 43s42.5 67.334 42.5 116.001v81
c-50.667 -26 -104 -39 -160 -39c-67.333 0 -119.166 16.667 -155.499 50s-54.5 82.333 -54.5 147v111c0 65.333 18.333 114.166 55 146.499s87.667 48.5 153 48.5s124.666 -11.667 177.999 -35c2.66699 -0.666992 4 -2.66699 4 -6v-504zM79 217
c0 -118.667 63.333 -178 190 -178c54.667 0 108 13.333 160 40v396c-52 19.333 -106.667 29 -164 29c-60 0 -106 -14.833 -138 -44.5s-48 -73.5 -48 -131.5v-111z" />
    <glyph glyph-name="h" unicode="h" horiz-adv-x="546" 
d="M99 482c54.667 27.333 109.333 41 164 41c66.667 0 118.167 -16.833 154.5 -50.5s54.5 -83.167 54.5 -148.5v-319c0 -3.33301 -1.66699 -5 -5 -5h-10c-3.33301 0 -5 1.66699 -5 5v319c0 120 -63 180 -189 180c-55.333 0 -110 -14 -164 -42v-457
c0 -3.33301 -1.66699 -5 -5 -5h-10c-3.33301 0 -5 1.66699 -5 5v705c0 3.33301 1.66699 5 5 5h10c3.33301 0 5 -1.66699 5 -5v-228z" />
    <glyph glyph-name="i" unicode="i" horiz-adv-x="178" 
d="M94 0h-10c-3.33301 0 -5 1.66699 -5 5v503c0 3.33301 1.66699 5 5 5h10c3.33301 0 5 -1.66699 5 -5v-503c0 -3.33301 -1.66699 -5 -5 -5zM109 650c0 -13.333 -6.66699 -20 -20 -20s-20 6.66699 -20 20s6.66699 20 20 20s20 -6.66699 20 -20z" />
    <glyph glyph-name="j" unicode="j" horiz-adv-x="186" 
d="M107 -39c0 -107.333 -40 -161 -120 -161c-20.667 0 -38 1.66699 -52 5c-3.33301 1.33301 -5 3.33301 -5 6v8c0 2 0.333008 3.5 1 4.5s2 1.16699 4 0.5c14.667 -3.33301 32 -5 52 -5c66.667 0 100 47.333 100 142v547c0 3.33301 1.66699 5 5 5h10
c3.33301 0 5 -1.66699 5 -5v-547zM117 650c0 -13.333 -6.66699 -20 -20 -20s-20 6.66699 -20 20s6.66699 20 20 20s20 -6.66699 20 -20z" />
    <glyph glyph-name="k" unicode="k" horiz-adv-x="471" 
d="M453 0h-13.999c-3.33301 0 -5.33301 1 -6 3l-248 276l-86 -74v-200c0 -3.33301 -1.66699 -5 -5 -5h-10c-3.33301 0 -5 1.66699 -5 5v705c0 3.33301 1.66699 5 5 5h10c3.33301 0 5 -1.66699 5 -5v-480l322 281c1.33301 1.33301 3.66602 2 6.99902 2h16
c5.33301 0 6 -2 2 -6l-246 -215l256 -286c2.66699 -4 1.66699 -6 -3 -6z" />
    <glyph glyph-name="l" unicode="l" horiz-adv-x="266" 
d="M255 -5c-18.667 -3.33301 -38.333 -5 -59 -5c-80.667 0 -121 53.667 -121 161v559c0 3.33301 1.66699 5 5 5h10c3.33301 0 5 -1.66699 5 -5v-563c0 -92 33.667 -138 101 -138c16 0 35.667 1.66699 59 5c3.33301 0 5 -1.33301 5 -4v-9c0 -2.66699 -1.66699 -4.66699 -5 -6
z" />
    <glyph glyph-name="m" unicode="m" horiz-adv-x="799" 
d="M373 473c49.333 33.333 103 50 161 50c59.333 0 106 -16.167 140 -48.5s51 -77.833 51 -136.5v-333c0 -3.33301 -1.66699 -5 -5 -5h-10c-3.33301 0 -5 1.66699 -5 5v333c0 53.333 -15 94.333 -45 123s-72 43 -126 43c-55.333 0 -105.333 -15.333 -150 -46
c20 -30.667 30 -70.667 30 -120v-333c0 -3.33301 -1.66699 -5 -5 -5h-10c-3.33301 0 -5 1.66699 -5 5v333c0 110.667 -51.667 166 -155 166c-45.333 0 -92.333 -10.333 -141 -31v-468c0 -3.33301 -1.66699 -5 -5 -5h-10c-3.33301 0 -5 1.66699 -5 5v475
c0 3.33301 1.33301 5.33301 4 6c52.667 24.667 105 37 157 37c58 0 102.667 -16.667 134 -50z" />
    <glyph glyph-name="n" unicode="n" horiz-adv-x="545" 
d="M93 0l-9.99805 0.000976562c-3.33301 0 -5 1.66699 -5 5v474c0 3.33301 1.33301 5.33301 4 6c56 25.333 116 38 180 38c66.667 0 118.167 -17 154.5 -51s54.5 -83.333 54.5 -148v-319c0 -3.33301 -1.66699 -5 -5 -5h-10c-3.33301 0 -5 1.66699 -5 5v319
c0 59.333 -16.333 104.166 -49 134.499s-79.334 45.5 -140.001 45.5c-56.667 0 -111.334 -10.667 -164.001 -32v-467c0 -3.33301 -1.66699 -5 -5 -5z" />
    <glyph glyph-name="o" unicode="o" horiz-adv-x="530" 
d="M470 176c0 -54 -17.833 -98.5 -53.5 -133.5s-86.167 -52.5 -151.5 -52.5s-115.833 17.5 -151.5 52.5s-53.5 79.5 -53.5 133.5v162c0 53.333 18 97.5 54 132.5s86.333 52.5 151 52.5c65.333 0 115.833 -17.5 151.5 -52.5s53.5 -79.167 53.5 -132.5v-162zM80 176
c0 -48.667 16 -88.667 48 -120s77.667 -47 137 -47c60 0 105.833 15.667 137.5 47s47.5 71.333 47.5 120v162c0 48 -15.833 87.667 -47.5 119s-77.5 47 -137.5 47c-59.333 0 -105 -15.667 -137 -47s-48 -71 -48 -119v-162z" />
    <glyph glyph-name="p" unicode="p" horiz-adv-x="529" 
d="M81 487c56.667 24 116.667 35.999 180 35.999c139.333 0 209 -71 209 -213v-105c0 -143.333 -69.667 -215 -209 -215c-60.667 0 -115 16.333 -163 49v-224c0 -3.33301 -1.66699 -5 -5 -5h-10c-3.33301 0 -5 1.66699 -5 5v667c0 2.66699 1 4.33398 3 5.00098zM261 8.99902
c126 0 188.999 65.333 188.999 196v105c0 129.333 -63 194 -189 194c-55.333 0 -109.666 -10 -162.999 -30v-413c50.667 -34.667 105 -52 163 -52z" />
    <glyph glyph-name="q" unicode="q" horiz-adv-x="529" 
d="M59 310c0 142 69.666 213 208.999 213c63.333 0 123 -11.667 179 -35c2.66699 -0.666992 4 -2.66699 4 -6v-667c0 -3.33301 -1.66699 -5 -5 -5h-10c-3.33301 0 -5 1.66699 -5 5v224c-49.333 -32.667 -103.666 -49 -162.999 -49c-139.333 0 -209 71.667 -209 215v105z
M78.999 205c0 -130.667 63.001 -196 189.001 -196c57.333 0 111.666 17 162.999 51v415c-54.667 19.333 -109 29 -163 29c-126 0 -189 -64.667 -189 -194v-105z" />
    <glyph glyph-name="r" unicode="r" horiz-adv-x="372" 
d="M93 0h-9.99902c-3.33301 0 -5 1.66699 -5 5v478c0 3.33301 1.33301 5.33301 4 6c49.333 22.667 105 34 167 34c30 0 63.667 -3 101 -9c3.33301 -0.666992 5 -2.66699 5 -6v-9c0 -4 -1.66699 -5.33301 -5 -4c-38.667 6 -72.334 9 -101.001 9
c-52.667 0 -103 -9.33301 -151 -28v-471c0 -3.33301 -1.66699 -5 -5 -5z" />
    <glyph glyph-name="s" unicode="s" horiz-adv-x="459" 
d="M418 131c0 -42 -16.1719 -76 -48.5049 -102s-78.166 -39 -137.499 -39c-70 0 -132.667 21.333 -188 64c-3.33301 2 -3.66602 4.33301 -0.999023 7l5 8c2 2 4.33301 2.33301 7 1c54 -40.667 113 -61 177 -61c50.667 0 91 10.667 121 32s45 51.333 45 90
c0 16.667 -3.66699 31.667 -11 45s-15.333 23.833 -24 31.5s-21.834 14.667 -39.501 21s-32 11 -43 14s-27.167 6.5 -48.5 10.5c-24.667 4.66699 -46.334 10.167 -65.001 16.5s-37.667 14.833 -57 25.5s-34.166 24.667 -44.499 42s-15.5 37.333 -15.5 60
c0 38 15.833 68.5 47.5 91.5s72.834 34.5 123.501 34.5c60.667 0 119.667 -16.333 177 -49c2.66699 -2.66699 3 -5 1 -7l-4 -8c-1.33301 -2.66699 -3.66602 -3 -6.99902 -1c-53.333 30.667 -109 46 -167 46c-44 0 -80.167 -9.5 -108.5 -28.5s-42.5 -45.167 -42.5 -78.5
c0 -16 3.33301 -30.5 10 -43.5s15 -23.5 25 -31.5s22.833 -15.5 38.5 -22.5s30.334 -12.333 44.001 -16s29.834 -7.5 48.501 -11.5c22.667 -4.66699 41 -9 55 -13s30 -9.66699 48 -17s32 -15.5 42 -24.5s18.667 -21 26 -36s11 -31.833 11 -50.5z" />
    <glyph glyph-name="t" unicode="t" horiz-adv-x="298" 
d="M95 151c0 -44.667 11 -79.166 33 -103.499s54 -36.5 96 -36.5c21.333 0 42 1 62 3c3.33301 1.33301 5 0 5 -4v-9c0 -2.66699 -1.66699 -4.66699 -5 -6c-20 -2 -40.667 -3 -62 -3c-47.333 0 -84 14.167 -110 42.5s-39 67.166 -39 116.499v487c0 3.33301 1.66699 5 5 5h10
c3.33301 0 5 -1.66699 5 -5v-125h178c3.33301 0 5 -1.66699 5 -5v-9c0 -3.33301 -1.66699 -5 -5 -5h-178v-343z" />
    <glyph glyph-name="u" unicode="u" horiz-adv-x="537" 
d="M444 513l10.001 0.000976562c3.33301 0 5 -1.66699 5 -5v-474c0 -3.33301 -1.33301 -5.33301 -4 -6c-54.667 -25.333 -113.334 -38 -176.001 -38c-65.333 0 -115.833 17 -151.5 51s-53.5 83.333 -53.5 148v319c0 3.33301 1.66699 5 5 5h10c3.33301 0 5 -1.66699 5 -5
v-319c0 -58.667 16 -103.334 48 -134.001s77.667 -46 137 -46c50.667 0 104 10.667 160 32v467c0 3.33301 1.66699 5 5 5z" />
    <glyph glyph-name="v" unicode="v" horiz-adv-x="470" 
d="M242 0h-14c-2.66699 -0 -4.66699 1.33301 -6 4l-199 503c-1.33301 4 0 6 4 6h11c2.66699 0 4.66699 -1.33301 6 -4l191 -483l191 483c1.33301 2.66699 3.33301 4 6 4h11c4 0 5.33301 -2 4 -6l-199 -503c-1.33301 -2.66699 -3.33301 -4 -6 -4z" />
    <glyph glyph-name="w" unicode="w" horiz-adv-x="738" 
d="M191 0c-2 0 -3.66699 1.33301 -5 4l-162 503c-1.33301 4 0 6 4 6h11c2 0 3.66699 -1.33301 5 -4l155 -481l158 469c1.33301 2.66699 3 4 5 4h14c2 0 3.66699 -1.33301 5 -4l158 -469l155 481c1.33301 2.66699 3 4 5 4h11c4 0 5.33301 -2 4 -6l-162 -503
c-1.33301 -2.66699 -3 -4 -5 -4h-15c-2 -0 -3.66699 1.33301 -5 4l-158 469l-158 -469c-1.33301 -2.66699 -3 -4 -5 -4h-15z" />
    <glyph glyph-name="x" unicode="x" horiz-adv-x="464" 
d="M244 263l197 -257c2.66699 -4 1.66699 -6 -3 -6h-13c-3.33301 0 -5.33301 1 -6 3l-188 245l-188 -245c-0.666992 -2 -2.66699 -3 -6 -3h-13c-4.66699 0 -5.66699 2 -3 6l197 257l-185 244c-2.66699 4 -1.66699 6 3 6h13c3.33301 0 5.33301 -1 6 -3l176 -232l176 232
c0.666992 2 2.66699 3 6 3h13c4.66699 0 5.66699 -2 3 -6z" />
    <glyph glyph-name="y" unicode="y" horiz-adv-x="538" 
d="M439 78v429.999c0 3.33301 1.66699 5 5 5h10c3.33301 0 5 -1.66699 5 -5v-530c0 -53.333 -15.833 -96.333 -47.5 -129s-78.834 -49 -141.501 -49c-65.333 0 -127 26.667 -185 80c-2 2.66699 -2 5 0 7l6 7c2 2.66699 4.33301 2.66699 7 0c54.667 -50 112 -75 172 -75
c57.333 0 99.833 14.333 127.5 43s41.5 67.334 41.5 116.001v80c-46.667 -25.333 -99.667 -38 -159 -38c-64.667 0 -115.167 16.167 -151.5 48.5s-54.5 79.833 -54.5 142.5v297c0 3.33301 1.66699 5 5 5h10c3.33301 0 5 -1.66699 5 -5v-297
c0 -57.333 16.333 -100.333 49 -129s78.667 -43 138 -43c56.667 0 109.334 13 158.001 39z" />
    <glyph glyph-name="z" unicode="z" horiz-adv-x="442" 
d="M408 0h-374c-3.33301 0 -5 1.66699 -5 5v7c0 1.33301 0.666992 3.33301 2 6l345 476h-327c-3.33301 0 -5 1.66699 -5 5v9c0 3.33301 1.66699 5 5 5h350c3.33301 0 5 -1.66699 5 -5v-6c0 -1.33301 -0.666992 -3.33301 -2 -6l-346 -477h352c3.33301 0 5 -1.66699 5 -5v-9
c0 -3.33301 -1.66699 -5 -5 -5z" />
    <glyph glyph-name="braceleft" unicode="{" horiz-adv-x="234" 
d="M197 -117l-1 -0.00195312c-32.667 0.666992 -56.167 9.5 -70.5 26.5s-21.5 43.833 -21.5 80.5v249c0 36.667 -4.16699 62.167 -12.5 76.5s-23.5 23.833 -45.5 28.5c-2.66699 0.666992 -4 2.66699 -4 6v12c0 3.33301 1.33301 5.33301 4 6
c22 4.66699 37.167 14.167 45.5 28.5s12.5 39.833 12.5 76.5v249c0 70.667 30 106.334 90 107.001h3c2.66699 0 4 -1.66699 4 -5v-9c0 -3.33301 -1.33301 -5 -4 -5h-3c-25.333 -0.666992 -43.333 -8 -54 -22s-16 -36 -16 -66v-249c0 -71.333 -21.667 -110.333 -65 -117
c43.333 -6.66699 65 -45.667 65 -117v-249c0 -31.333 5.5 -53.666 16.5 -66.999s29.5 -20.333 55.5 -21h1c2.66699 0 4 -1.66699 4 -5v-9c0 -3.33301 -1.33301 -5 -4 -5z" />
    <glyph glyph-name="bar" unicode="|" horiz-adv-x="206" 
d="M108 -139h-10c-3.33301 0 -5 1.66699 -5 5v990c0 3.33301 1.66699 5 5 5h10c3.33301 0 5 -1.66699 5 -5v-990c0 -3.33301 -1.66699 -5 -5 -5z" />
    <glyph glyph-name="braceright" unicode="}" horiz-adv-x="234" 
d="M38 -117l-1 0.00195312c-2.66699 0 -4 1.66699 -4 5v9c0 3.33301 1.33301 5 4 5h1c26 0.666992 44.5 7.66699 55.5 21s16.5 35.666 16.5 66.999v249c0 71.333 21.667 110.333 65 117c-43.333 6.66699 -65 45.667 -65 117v249c0 30 -5.33301 52 -16 66
s-28.667 21.333 -54 22h-3c-2.66699 0 -4 1.66699 -4 5v9c0 3.33301 1.33301 5 4 5h3c60 -0.666992 90 -36.334 90 -107.001v-249c0 -36.667 4.16699 -62.167 12.5 -76.5s23.5 -23.833 45.5 -28.5c2.66699 -0.666992 4 -2.66699 4 -6v-12
c0 -3.33301 -1.33301 -5.33301 -4 -6c-22 -4.66699 -37.167 -14.167 -45.5 -28.5s-12.5 -39.833 -12.5 -76.5v-249c0 -36.667 -7.16699 -63.5 -21.5 -80.5s-37.833 -25.833 -70.5 -26.5z" />
    <glyph glyph-name="asciitilde" unicode="~" 
d="M462 352c-30.667 -23.333 -62.001 -35 -94.001 -35c-17.333 0 -50.666 7.66699 -99.999 23c-44 14 -76.667 21 -98 21c-28 0 -53 -10 -75 -30c-3.33301 -2 -6 -2 -8 0l-7 7c-2.66699 2.66699 -2.66699 5 0 7c28.667 23.333 58.667 35 90 35c24.667 0 60 -7.66699 106 -23
c43.333 -14 74.333 -21 93 -21c28.667 0 54.667 10 78 30c2.66699 2 5 2 7 0l8 -7c2.66699 -2.66699 2.66699 -5 0 -7z" />
    <glyph glyph-name="exclamdown" unicode="&#xa1;" horiz-adv-x="194" 
d="M92 381h10c3.33301 0 5 -1.66699 5 -5v-564c0 -3.33301 -1.66699 -5 -5 -5h-10c-3.33301 0 -5 1.66699 -5 5v564c0 3.33301 1.66699 5 5 5zM77 504c0 13.333 6.66699 20 20 20s20 -6.66699 20 -20s-6.66699 -20 -20 -20s-20 6.66699 -20 20z" />
    <glyph glyph-name="cent" unicode="&#xa2;" horiz-adv-x="501" 
d="M435 68l5 -8.00195c2.66699 -2.66699 2.33398 -5 -0.999023 -7c-49.333 -40 -103.666 -61 -162.999 -63v-61c0 -3.33301 -1.66699 -5 -5 -5h-9c-3.33301 0 -5 1.66699 -5 5v61c-57.333 2 -102.833 20.333 -136.5 55s-50.5 77.334 -50.5 128.001v167
c0 50.667 16.833 93.334 50.5 128.001s79.167 53 136.5 55v70c0 3.33301 1.66699 5 5 5h9c3.33301 0 5 -1.66699 5 -5v-70c53.333 -2 103 -20 149 -54c3.33301 -2 3.66602 -4.33301 0.999023 -7l-5 -8c-2 -2 -4.33301 -2.33301 -7 -1c-45.333 34 -95.333 51 -150 51
s-97.334 -15.667 -128.001 -47s-46 -70.333 -46 -117v-167c0 -46.667 15.667 -85.667 47 -117s73.666 -47 126.999 -47c58.667 0 113.334 20 164.001 60c2.66699 1.33301 5 1 7 -1z" />
    <glyph glyph-name="sterling" unicode="&#xa3;" horiz-adv-x="541" 
d="M481 0l-425 -0.000976562c-3.33301 0 -5 1.66699 -5 5v9c0 3.33301 1.66699 5 5 5c46 2 69 38 69 108v249h-69c-3.33301 0 -5 1.66699 -5 5v9c0 3.33301 1.66699 5 5 5h69v157c0 49.333 15.667 90.5 47 123.5s75.333 49.5 132 49.5c64 0 120.667 -20.333 170 -61
c2 -1.33301 2.33301 -3.66602 1 -6.99902l-5 -7c-2 -2 -4.33301 -2.33301 -7 -1c-54 38 -107.333 57 -160 57c-50.667 0 -89.667 -14.667 -117 -44s-41 -66 -41 -110v-157h239c3.33301 0 5 -1.66699 5 -5v-9c0 -3.33301 -1.66699 -5 -5 -5h-239v-250
c0 -56 -13.667 -91.667 -41 -107h377c3.33301 0 5 -1.66699 5 -5v-9c0 -3.33301 -1.66699 -5 -5 -5z" />
    <glyph glyph-name="currency" unicode="&#xa4;" horiz-adv-x="638" 
d="M485 164c-44 -40 -99.333 -60 -166 -60s-122 20 -166 60l-49 -49c-2.66699 -2.66699 -5.33398 -2.66699 -8.00098 0l-6 6c-2.66699 2.66699 -2.66699 5.33398 0 8.00098l49 49c-40 43.333 -60 99 -60 167c0 66 20 121 60 165l-49 49
c-2.66699 2.66699 -2.66699 5.33398 0 8.00098l6 6c2.66699 2.66699 5.33398 2.66699 8.00098 0l49 -49c44.667 40.667 100 61 166 61c66.667 0 122 -20.333 166 -61l49 49c2.66699 2.66699 5.33398 2.66699 8.00098 0l6 -6c2.66699 -2.66699 2.66699 -5.33398 0 -8.00098
l-49 -49c40 -44 60 -99 60 -165c0 -67.333 -20 -123 -60 -167l49 -49c2.66699 -2.66699 2.66699 -5.33398 0 -8.00098l-6 -6c-2.66699 -2.66699 -5.33398 -2.66699 -8.00098 0zM99 345c0 -66.667 20.5 -120.332 61.5 -160.999s93.833 -61 158.5 -61s117.667 20.667 159 62
s61.666 94.666 60.999 159.999c-0.666992 64 -21.667 116.833 -63 158.5s-93.666 62.5 -156.999 62.5c-64.667 0 -117.5 -20.667 -158.5 -62s-61.5 -94.333 -61.5 -159z" />
    <glyph glyph-name="yen" unicode="&#xa5;" horiz-adv-x="539" 
d="M496 715h12c4.66699 0 6 -2 4 -6l-225 -411h128c3.33301 0 5 -1.66699 5 -5v-9c0 -3.33301 -1.66699 -5 -5 -5h-136v-89h136c3.33301 0 5 -1.66699 5 -5v-9c0 -3.33301 -1.66699 -5 -5 -5h-136v-166c0 -3.33301 -1.66699 -5 -5 -5h-10c-3.33301 0 -5 1.66699 -5 5v166
h-134c-3.33301 0 -5 1.66699 -5 5v9c0 3.33301 1.66699 5 5 5h134v89h-134c-3.33301 0 -5 1.66699 -5 5v9c0 3.33301 1.66699 5 5 5h127l-225 411c-2 4 -0.666992 6 4 6h12c2.66699 0 4.66699 -1.33301 6 -4l220 -404l221 404c1.33301 2.66699 3.33301 4 6 4z" />
    <glyph glyph-name="brokenbar" unicode="&#xa6;" horiz-adv-x="210" 
d="M110 446h-10c-3.33301 0 -5 1.66699 -5 5v405c0 3.33301 1.66699 5 5 5h10c3.33301 0 5 -1.66699 5 -5v-405c0 -3.33301 -1.66699 -5 -5 -5zM110 -139h-10c-3.33301 0 -5 1.66699 -5 5v405c0 3.33301 1.66699 5 5 5h10c3.33301 0 5 -1.66699 5 -5v-405
c0 -3.33301 -1.66699 -5 -5 -5z" />
    <glyph glyph-name="section" unicode="&#xa7;" horiz-adv-x="502" 
d="M423 -30c0 -44 -16.165 -80.332 -48.498 -108.999s-75.5 -43 -129.5 -43c-68 0 -127 27.333 -177 82c-2 2 -1.66699 4.33301 1 7l6 6c2 2 4.33301 1.66699 7 -1c16.667 -16 30.667 -28.333 42 -37s28 -17.167 50 -25.5s45.667 -12.5 71 -12.5c47.333 0 85.5 12 114.5 36
s43.5 57 43.5 99c0 36 -11.833 65.5 -35.5 88.5s-52.5 40.667 -86.5 53l-102 37c-34 12.333 -62.833 30.5 -86.5 54.5s-35.5 54.667 -35.5 92c0 42 14 75.667 42 101s66.333 39.666 115 42.999c-81.333 36 -122 85.667 -122 149c0 40 15 72.5 45 97.5s69.333 37.5 118 37.5
c50 0 102 -16.333 156 -49c3.33301 -2 4 -4.33301 2 -7l-5 -8c-2 -2.66699 -4.33301 -3 -7 -1c-19.333 10.667 -34.833 18.667 -46.5 24s-26.5 10.333 -44.5 15s-36.333 7 -55 7c-44 0 -78.833 -10.667 -104.5 -32s-38.5 -49.333 -38.5 -84c0 -31.333 11.667 -58.5 35 -81.5
s51.666 -42.167 84.999 -57.5l100 -46.5c33.333 -15.667 61.666 -36.167 84.999 -61.5s35 -55.333 35 -90c0 -36 -11.5 -67.667 -34.5 -95s-52.833 -43 -89.5 -47c28 -12 50.833 -30.5 68.5 -55.5s26.5 -53.5 26.5 -85.5zM77.002 297.001
c0 -15.333 1.83691 -29.002 5.50391 -41.002s11.167 -23.333 22.5 -34s21.5 -19.5 30.5 -26.5s24.5 -15.167 46.5 -24.5s39.667 -16.333 53 -21l68 -24c39.333 2.66699 70.666 15.334 93.999 38.001s35 52.667 35 90c0 16.667 -3.33301 32 -10 46s-13.834 25.667 -21.501 35
s-21.5 19.833 -41.5 31.5s-36.333 20.667 -49 27s-34.334 16.5 -65.001 30.5c-46.667 2.66699 -86.334 -7.16602 -119.001 -29.499s-49 -54.833 -49 -97.5z" />
    <glyph glyph-name="dieresis" unicode="&#xa8;" horiz-adv-x="226" 
d="M49 650c0 -13.333 -6.66699 -20 -20 -20s-20 6.66699 -20 20s6.66699 20 20 20s20 -6.66699 20 -20zM217 650c0 -13.333 -6.66699 -20 -20 -20s-20 6.66699 -20 20s6.66699 20 20 20s20 -6.66699 20 -20z" />
    <glyph glyph-name="copyright" unicode="&#xa9;" horiz-adv-x="852" 
d="M790 352c0 -111.333 -34.499 -199.5 -103.499 -264.5s-155.5 -97.5 -259.5 -97.5s-190.833 32.5 -260.5 97.5s-104.5 153.167 -104.5 264.5c0 114.667 34.833 205.5 104.5 272.5s156.5 100.5 260.5 100.5c103.333 0 189.666 -33.5 258.999 -100.5
s104 -157.833 104 -272.5zM82.001 352c0 -108 32.832 -192.168 98.499 -252.501s147.834 -90.5 246.501 -90.5c98 0 179.667 30.167 245 90.5s98 144.5 98 252.5c0 112 -32.5 199 -97.5 261s-146.833 93 -245.5 93c-98 0 -180 -31.167 -246 -93.5s-99 -149.166 -99 -260.499
zM549 202.999c-34.667 -36 -77.001 -53.667 -127.001 -53c-40.667 0.666992 -73.5 13.5 -98.5 38.5s-37.5 54.5 -37.5 88.5v147c0 34 12.333 63.5 37 88.5s57 37.833 97 38.5c48 0.666992 87.667 -16 119 -50c2 -2 2.33301 -4.33301 1 -7l-7 -6
c-2 -2.66699 -4.33301 -3 -7 -1c-27.333 30 -62.666 44.667 -105.999 44c-34 -0.666992 -61.5 -11.5 -82.5 -32.5s-31.5 -45.833 -31.5 -74.5v-147c0 -28 10.667 -52.833 32 -74.5s49.333 -32.5 84 -32.5c45.333 0 83.333 16 114 48c2.66699 2 5 1.66699 7 -1l6 -8
c0.666992 -3.33301 0.666992 -5.33301 0 -6z" />
    <glyph glyph-name="guillemotleft" unicode="&#xab;" horiz-adv-x="467" 
d="M205 71h-12c-3.33301 0 -5.33301 1 -6 3l-145 214c-1.33301 2 -1.33301 4 0 6l145 214c0.666992 2 2.66699 3 6 3h12c4.66699 0 5.66699 -2 3 -6l-145 -214l145 -214c2.66699 -4 1.66699 -6 -3 -6zM411 71h-12c-3.33301 0 -5.33301 1 -6 3l-145 214
c-1.33301 2 -1.33301 4 0 6l145 214c0.666992 2 2.66699 3 6 3h12c4.66699 0 5.66699 -2 3 -6l-145 -214l145 -214c2.66699 -4 1.66699 -6 -3 -6z" />
    <glyph glyph-name="logicalnot" unicode="&#xac;" 
d="M480 222h-10c-3.33301 0 -5 1.66699 -5 5v158h-395c-3.33301 0 -5 1.66699 -5 5v10c0 3.33301 1.66699 5 5 5h410c3.33301 0 5 -1.66699 5 -5v-173c0 -3.33301 -1.66699 -5 -5 -5z" />
    <glyph glyph-name="registered" unicode="&#xae;" horiz-adv-x="536" 
d="M476 517c0 -64 -19.833 -114.667 -59.5 -152s-89.167 -56 -148.5 -56s-108.833 18.667 -148.5 56s-59.5 88 -59.5 152c0 63.333 19.833 113.833 59.5 151.5s89.167 56.5 148.5 56.5s108.833 -18.833 148.5 -56.5s59.5 -88.167 59.5 -151.5zM77 517
c0 -60.667 18 -107.833 54 -141.5s82 -50.5 138 -50.5c54.667 0 100 17 136 51s54 81 54 141c0 60.667 -18 107.834 -54 141.501s-81.333 50.5 -136 50.5c-56 0 -102 -16.833 -138 -50.5s-54 -80.834 -54 -141.501zM214 421.001h-7c-3.33301 0 -5 1.66699 -5 5v192
c0 3.33301 1.66699 5 5 5h70c22 0 39.167 -5.5 51.5 -16.5s18.5 -26.167 18.5 -45.5c0 -36 -21.667 -55 -65 -57l64 -77c2.66699 -4 1.66699 -6 -3 -6h-10c-3.33301 0 -5.33301 1 -6 3l-67 80h-41v-78c0 -3.33301 -1.66699 -5 -5 -5zM219 606.001v-86h58
c35.333 0 53 13.667 53 41c0 30 -17.667 45 -53 45h-58z" />
    <glyph glyph-name="macron" unicode="&#xaf;" horiz-adv-x="240" 
d="M0 659v8c0 3.33301 1.66699 5 5 5h230c3.33301 0 5 -1.66699 5 -5v-8c0 -3.33301 -1.66699 -5 -5 -5h-230c-3.33301 0 -5 1.66699 -5 5z" />
    <glyph glyph-name="degree" unicode="&#xb0;" horiz-adv-x="319" 
d="M266 619c0 -32 -10 -57.667 -30 -77s-45.333 -29 -76 -29c-31.333 0 -57 9.5 -77 28.5s-30 44.833 -30 77.5s9.83301 58.5 29.5 77.5s45.5 28.5 77.5 28.5c30.667 0 56 -9.5 76 -28.5s30 -44.833 30 -77.5zM72 619c0 -28.667 8.16699 -50.5 24.5 -65.5
s37.5 -22.5 63.5 -22.5s47 7.5 63 22.5s24 36.833 24 65.5c0 28 -8 49.667 -24 65s-37 23 -63 23c-25.333 0 -46.333 -7.66699 -63 -23s-25 -37 -25 -65z" />
    <glyph glyph-name="plusminus" unicode="&#xb1;" 
d="M275 165h-10c-3.33301 0 -5 1.66699 -5 5v198h-195c-3.33301 0 -5 1.66699 -5 5v10c0 3.33301 1.66699 5 5 5h195v196c0 3.33301 1.66699 5 5 5h10c3.33301 0 5 -1.66699 5 -5v-196h195c3.33301 0 5 -1.66699 5 -5v-10c0 -3.33301 -1.66699 -5 -5 -5h-195v-198
c0 -3.33301 -1.66699 -5 -5 -5zM475 71h-410c-3.33301 0 -5 1.66699 -5 5v10c0 3.33301 1.66699 5 5 5h410c3.33301 0 5 -1.66699 5 -5v-10c0 -3.33301 -1.66699 -5 -5 -5z" />
    <glyph glyph-name="two.sups" unicode="&#xb2;" horiz-adv-x="305" 
d="M266 410l-229 -0.00195312c-3.33301 0 -5 1.66699 -5 5v3c0 3.33301 0.666992 5.66602 2 6.99902l79 85c34.667 36.667 59.5 63.834 74.5 81.501s28.5 37.5 40.5 59.5s18 42.667 18 62c0 22.667 -8.5 40.834 -25.5 54.501s-40.167 20.5 -69.5 20.5
c-36.667 0 -70.667 -17.667 -102 -53c-2 -2 -4.33301 -2 -7 0l-3 3c-2 2.66699 -2 5.33398 0 8.00098c31.333 38 69 57 113 57c35.333 0 62.333 -8.83301 81 -26.5s28 -38.5 28 -62.5c0 -30 -10.5 -60.167 -31.5 -90.5s-55.5 -70.833 -103.5 -121.5l-72 -77h212
c3.33301 0 5 -1.66699 5 -5v-5c0 -3.33301 -1.66699 -5 -5 -5z" />
    <glyph glyph-name="three.sups" unicode="&#xb3;" horiz-adv-x="311" 
d="M273 528c0 -33.333 -11.168 -62.165 -33.501 -86.498s-50.166 -36.5 -83.499 -36.5c-48.667 0 -89.667 21 -123 63c-2 2.66699 -2 5 0 7l4 3c2.66699 2 5 1.66699 7 -1c32 -38 69 -57 111 -57c30 0 54.667 10.667 74 32s29 47 29 77
c0 27.333 -8.83301 50.166 -26.5 68.499s-43.167 27.5 -76.5 27.5c-12.667 0 -25.667 -0.666992 -39 -2c-2.66699 0 -4.33398 0.666992 -5.00098 2l-2 4c-1.33301 2 -0.666016 4.33301 2.00098 7l132 147h-191c-3.33301 0 -5 1.66699 -5 5v5c0 3.33301 1.66699 5 5 5h212
c2.66699 0 4 -1.33301 4 -4v-3c0 -1.33301 -1 -3 -3 -5l-133 -148c6.66699 0.666992 15.667 1 27 1c34 0 61.5 -10.333 82.5 -31s31.5 -47.334 31.5 -80.001z" />
    <glyph glyph-name="acute" unicode="&#xb4;" horiz-adv-x="126" 
d="M13 600h-8.00098c-5.33301 0 -6.66602 2 -3.99902 6l83 134c1.33301 2 3.33301 3 6 3h15c4 0 5 -2 3 -6l-89 -134c-0.666992 -2 -2.66699 -3 -6 -3z" />
    <glyph glyph-name="paragraph" unicode="&#xb6;" horiz-adv-x="593" 
d="M228 -139h-10c-3.33301 0 -5 1.66699 -5 5v498c-54.667 0 -98.167 16.5 -130.5 49.5s-48.5 74.833 -48.5 125.5c0 52 17.333 94.333 52 127s81.667 49 141 49h261c3.33301 0 5 -1.66699 5 -5v-844c0 -3.33301 -1.66699 -5 -5 -5h-10c-3.33301 0 -5 1.66699 -5 5v829h-240
v-829c0 -3.33301 -1.66699 -5 -5 -5z" />
    <glyph glyph-name="periodcentered" unicode="&#xb7;" horiz-adv-x="186" 
d="M113 307c0 -13.333 -6.66699 -20 -20 -20s-20 6.66699 -20 20s6.66699 20 20 20s20 -6.66699 20 -20z" />
    <glyph glyph-name="cedilla" unicode="&#xb8;" horiz-adv-x="163" 
d="M157 -128c0 -22 -8.33301 -39.832 -25 -53.499s-39.667 -20.5 -69 -20.5c-20.667 0 -40.334 3 -59.001 9c-2.66699 0.666992 -4 2.66699 -4 6v8c0 3.33301 2 4.66602 6 3.99902c20 -6 39 -9 57 -9c24 0 42.333 5 55 15s19 23.667 19 41c0 18 -6.66699 31 -20 39
s-35.666 12.333 -66.999 13c-2.66699 0 -4.66699 1 -6 3c-2 2 -2.33301 4 -1 6l24 66c1.33301 2.66699 3 4 5 4h10c4 0 5.33301 -2 4 -6l-21 -58c61.333 0 92 -22.333 92 -67z" />
    <glyph glyph-name="one.sups" unicode="&#xb9;" horiz-adv-x="193" 
d="M127 410h-5.00195c-3.33301 0 -5 1.66699 -5 5v369l-83 -58c-2 -2 -4.33301 -1.66699 -7 1l-3 4c-1.33301 2 -0.666016 4.33301 2.00098 7l85 59c0.666992 0.666992 2.33398 1 5.00098 1h11c3.33301 0 5 -1.66699 5 -5v-378c0 -3.33301 -1.66699 -5 -5 -5z" />
    <glyph glyph-name="guillemotright" unicode="&#xbb;" horiz-adv-x="466" 
d="M66 71h-12c-4.66699 0 -5.66699 2 -3 6l145 214l-145 214c-2.66699 4 -1.66699 6 3 6h12c2.66699 0 4.66699 -1 6 -3l145 -214c0.666992 -2 0.666992 -4 0 -6l-145 -214c-1.33301 -2 -3.33301 -3 -6 -3zM272 71h-12c-4.66699 0 -5.66699 2 -3 6l145 214l-145 214
c-2.66699 4 -1.66699 6 3 6h12c2.66699 0 4.66699 -1 6 -3l145 -214c0.666992 -2 0.666992 -4 0 -6l-145 -214c-1.33301 -2 -3.33301 -3 -6 -3z" />
    <glyph glyph-name="onequarter" unicode="&#xbc;" horiz-adv-x="786" 
d="M147 326h-5.00195c-3.33301 0 -5 1.66699 -5 5v369l-83 -58c-2 -2 -4.33301 -1.66699 -7 1l-3 4c-1.33301 2 -0.666016 4.33301 2.00098 7l85 59c0.666992 0.666992 2.33398 1 5.00098 1h11c3.33301 0 5 -1.66699 5 -5v-378c0 -3.33301 -1.66699 -5 -5 -5zM658.998 709
l-587 -706c-1.33301 -2 -3.33301 -3 -6 -3h-7c-4.66699 0 -5.66699 2 -3 6l587 706c0.666992 2 2.66699 3 6 3h7c4.66699 0 5.66699 -2 3 -6zM703.998 0h-5c-3.33301 0 -5 1.66699 -5 5v98h-190c-3.33301 0 -5 1.66699 -5 5v2c0 1.33301 0.666992 3.33301 2 6l153 269
c1.33301 2 3.33301 3 6 3h5c4.66699 0 6 -2 4 -6l-150 -264h175v98c0 3.33301 1.66699 5 5 5h5c3.33301 0 5 -1.66699 5 -5v-98h36c3.33301 0 5 -1.66699 5 -5v-5c0 -3.33301 -1.66699 -5 -5 -5h-36v-98c0 -3.33301 -1.66699 -5 -5 -5z" />
    <glyph glyph-name="onehalf" unicode="&#xbd;" horiz-adv-x="838" 
d="M141 326h-5.00195c-3.33301 0 -5 1.66699 -5 5v369l-83 -58c-2 -2 -4.33301 -1.66699 -7 1l-3 4c-1.33301 2 -0.666016 4.33301 2.00098 7l85 59c0.666992 0.666992 2.33398 1 5.00098 1h11c3.33301 0 5 -1.66699 5 -5v-378c0 -3.33301 -1.66699 -5 -5 -5zM672.998 709
l-587 -706c-1.33301 -2 -3.33301 -3 -6 -3h-7c-4.66699 0 -5.66699 2 -3 6l587 706c0.666992 2 2.66699 3 6 3h7c4.66699 0 5.66699 -2 3 -6zM787.998 0l-229 -0.00195312c-3.33301 0 -5 1.66699 -5 5v3c0 3.33301 0.666992 5.66602 2 6.99902l79 85
c34.667 36.667 59.5 63.834 74.5 81.501s28.5 37.5 40.5 59.5s18 42.667 18 62c0 22.667 -8.5 40.834 -25.5 54.501s-40.167 20.5 -69.5 20.5c-36.667 0 -70.667 -17.667 -102 -53c-2 -2 -4.33301 -2 -7 0l-3 3c-2 2.66699 -2 5.33398 0 8.00098c31.333 38 69 57 113 57
c35.333 0 62.333 -8.83301 81 -26.5s28 -38.5 28 -62.5c0 -30 -10.5 -60.167 -31.5 -90.5s-55.5 -70.833 -103.5 -121.5l-72 -77h212c3.33301 0 5 -1.66699 5 -5v-5c0 -3.33301 -1.66699 -5 -5 -5z" />
    <glyph glyph-name="threequarters" unicode="&#xbe;" horiz-adv-x="865" 
d="M288 445c0 -33.333 -11.168 -62.165 -33.501 -86.498s-50.166 -36.5 -83.499 -36.5c-48.667 0 -89.667 21 -123 63c-2 2.66699 -2 5 0 7l4 3c2.66699 2 5 1.66699 7 -1c32 -38 69 -57 111 -57c30 0 54.667 10.667 74 32s29 47 29 77
c0 27.333 -8.83301 50.166 -26.5 68.499s-43.167 27.5 -76.5 27.5c-12.667 0 -25.667 -0.666992 -39 -2c-2.66699 0 -4.33398 0.666992 -5.00098 2l-2 4c-1.33301 2 -0.666016 4.33301 2.00098 7l132 147h-191c-3.33301 0 -5 1.66699 -5 5v5c0 3.33301 1.66699 5 5 5h212
c2.66699 0 4 -1.33301 4 -4v-3c0 -1.33301 -1 -3 -3 -5l-133 -148c6.66699 0.666992 15.667 1 27 1c34 0 61.5 -10.333 82.5 -31s31.5 -47.334 31.5 -80.001zM737.999 709.001l-587 -706c-0.666992 -2 -2.66699 -3 -6 -3h-7c-4.66699 0 -5.66699 2 -3 6l587 706
c1.33301 2 3.33301 3 6 3h7c4.66699 0 5.66699 -2 3 -6zM782.999 0.000976562h-5c-3.33301 0 -5 1.66699 -5 5v98h-190c-3.33301 0 -5 1.66699 -5 5v2c0 1.33301 0.666992 3.33301 2 6l153 269c0.666992 2 2.66699 3 6 3h5c4.66699 0 6 -2 4 -6l-150 -264h175v98
c0 3.33301 1.66699 5 5 5h5c3.33301 0 5 -1.66699 5 -5v-98h36c3.33301 0 5 -1.66699 5 -5v-5c0 -3.33301 -1.66699 -5 -5 -5h-36v-98c0 -3.33301 -1.66699 -5 -5 -5z" />
    <glyph glyph-name="questiondown" unicode="&#xbf;" horiz-adv-x="437" 
d="M230 381l9.99902 -0.000976562c3.33301 0 5 -1.66699 5 -5v-69c0 -30 -6.33301 -56.667 -19 -80s-27.834 -43 -45.501 -59l-53.5 -48c-18 -16 -33.333 -35.667 -46 -59s-19 -50 -19 -80c0 -46 13.333 -85 40 -117s67.334 -48 122.001 -48c65.333 0 122.333 26.667 171 80
c2.66699 2.66699 5 2.33398 7 -0.999023l6 -7c1.33301 -2.66699 1 -5 -1 -7c-50 -56 -111 -84 -183 -84c-58.667 0 -103.667 17.167 -135 51.5s-47 78.5 -47 132.5c0 32 6.33301 60.333 19 85s28 45.167 46 61.5l53.5 48c17.667 15.667 32.834 34.5 45.501 56.5s19 47 19 75
v69c0 3.33301 1.66699 5 5 5zM214.999 503.999c0 13.333 6.66699 20 20 20s20 -6.66699 20 -20s-6.66699 -20 -20 -20s-20 6.66699 -20 20z" />
    <glyph glyph-name="Agrave" unicode="&#xc0;" horiz-adv-x="582" 
d="M28 0h-12c-4 0 -5.33301 2 -4 6l266 705c1.33301 2.66699 3 4 5 4h16c2 0 3.66699 -1.33301 5 -4l266 -705c1.33301 -4 0 -6 -4 -6h-12c-2 -0 -3.66699 1.33301 -5 4l-86 229h-344l-86 -229c-1.33301 -2.66699 -3 -4 -5 -4zM290 687l-163 -434h328l-163 434h-2zM309 793
l-115 134c-3.33301 4 -2.33301 6 3 6h17c2.66699 0 4.66699 -1 6 -3l108 -134c2.66699 -4 1.66699 -6 -3 -6h-10c-3.33301 0 -5.33301 1 -6 3z" />
    <glyph glyph-name="Aacute" unicode="&#xc1;" horiz-adv-x="582" 
d="M28 0h-12c-4 0 -5.33301 2 -4 6l266 705c1.33301 2.66699 3 4 5 4h16c2 0 3.66699 -1.33301 5 -4l266 -705c1.33301 -4 0 -6 -4 -6h-12c-2 -0 -3.66699 1.33301 -5 4l-86 229h-344l-86 -229c-1.33301 -2.66699 -3 -4 -5 -4zM290 687l-163 -434h328l-163 434h-2zM397 927
l-115 -134c-1.33301 -2 -3.33301 -3 -6 -3h-10c-4.66699 0 -5.66699 2 -3 6l108 134c0.666992 2 2.66699 3 6 3h17c4.66699 0 5.66699 -2 3 -6z" />
    <glyph glyph-name="Acircumflex" unicode="&#xc2;" horiz-adv-x="582" 
d="M28 0h-12c-4 0 -5.33301 2 -4 6l266 705c1.33301 2.66699 3 4 5 4h16c2 0 3.66699 -1.33301 5 -4l266 -705c1.33301 -4 0 -6 -4 -6h-12c-2 -0 -3.66699 1.33301 -5 4l-86 229h-344l-86 -229c-1.33301 -2.66699 -3 -4 -5 -4zM290 687l-163 -434h328l-163 434h-2zM161 790
h-12c-6 0 -7 2 -3 6l131 134c2 2 4.33301 3 7 3h14c2.66699 0 5 -1 7 -3l131 -134c4 -4 3 -6 -3 -6h-12c-2.66699 0 -5 1 -7 3l-123 121l-123 -121c-2 -2 -4.33301 -3 -7 -3z" />
    <glyph glyph-name="Atilde" unicode="&#xc3;" horiz-adv-x="582" 
d="M28 0h-12c-4 0 -5.33301 2 -4 6l266 705c1.33301 2.66699 3 4 5 4h16c2 0 3.66699 -1.33301 5 -4l266 -705c1.33301 -4 0 -6 -4 -6h-12c-2 -0 -3.66699 1.33301 -5 4l-86 229h-344l-86 -229c-1.33301 -2.66699 -3 -4 -5 -4zM290 687l-163 -434h328l-163 434h-2zM422 874
c-4 -13.333 -12.001 -24.832 -24.001 -34.499s-25.333 -14.5 -40 -14.5c-16.667 0 -39 7.66699 -67 23s-50 23 -66 23c-20 0 -36.333 -12.333 -49 -37c-1.33301 -2 -3.33301 -2.66699 -6 -2l-7 3c-3.33301 1.33301 -4.33301 3.66602 -3 6.99902
c4.66699 13.333 12.834 24.5 24.501 33.5s25.5 13.5 41.5 13.5c14.667 0 38 -8 70 -24c30.667 -14.667 51 -22 61 -22c20.667 0 37 12.667 49 38c1.33301 2 3.33301 2.66699 6 2l7 -3c2.66699 -1.33301 3.66699 -3.33301 3 -6z" />
    <glyph glyph-name="Adieresis" unicode="&#xc4;" horiz-adv-x="582" 
d="M28 0h-12c-4 0 -5.33301 2 -4 6l266 705c1.33301 2.66699 3 4 5 4h16c2 0 3.66699 -1.33301 5 -4l266 -705c1.33301 -4 0 -6 -4 -6h-12c-2 -0 -3.66699 1.33301 -5 4l-86 229h-344l-86 -229c-1.33301 -2.66699 -3 -4 -5 -4zM290 687l-163 -434h328l-163 434h-2zM212 859
c0 -13.333 -6.66699 -20 -20 -20s-20 6.66699 -20 20s6.66699 20 20 20s20 -6.66699 20 -20zM410 859c0 -13.333 -6.66699 -20 -20 -20s-20 6.66699 -20 20s6.66699 20 20 20s20 -6.66699 20 -20z" />
    <glyph glyph-name="Aring" unicode="&#xc5;" horiz-adv-x="582" 
d="M28 0h-12c-4 0 -5.33301 2 -4 6l266 705c1.33301 2.66699 3 4 5 4h16c2 0 3.66699 -1.33301 5 -4l266 -705c1.33301 -4 0 -6 -4 -6h-12c-2 -0 -3.66699 1.33301 -5 4l-86 229h-344l-86 -229c-1.33301 -2.66699 -3 -4 -5 -4zM290 687l-163 -434h328l-163 434h-2zM385 866
c0 -26.667 -8.66699 -48.167 -26 -64.5s-39.666 -24.5 -66.999 -24.5c-28.667 0 -51.667 8.16699 -69 24.5s-26 37.833 -26 64.5c0 26 8.66699 47.167 26 63.5s40.333 24.5 69 24.5c27.333 0 49.666 -8.16699 66.999 -24.5s26 -37.5 26 -63.5zM216 866
c0 -21.333 6.83301 -38.5 20.5 -51.5s32.167 -19.5 55.5 -19.5s41.5 6.5 54.5 19.5s19.5 30.167 19.5 51.5c0 20.667 -6.5 37.5 -19.5 50.5s-31.167 19.5 -54.5 19.5s-41.833 -6.5 -55.5 -19.5s-20.5 -29.833 -20.5 -50.5z" />
    <glyph glyph-name="AE" unicode="&#xc6;" horiz-adv-x="824" 
d="M436 354v-334h328c3.33301 0 5 -1.66699 5 -5v-10c0 -3.33301 -1.66699 -5 -5 -5h-344c-3.33301 0 -5 1.66699 -5 5v224h-262l-123 -225c-1.33301 -2.66699 -3.33301 -4 -6 -4h-12c-4.66699 0 -6 2 -4 6l393 706c0.666992 2 2.66699 3 6 3h352c3.33301 0 5 -1.66699 5 -5
v-10c0 -3.33301 -1.66699 -5 -5 -5h-323v-321h308c3.33301 0 5 -1.66699 5 -5v-10c0 -3.33301 -1.66699 -5 -5 -5h-308zM416 698l-251 -449h250v408z" />
    <glyph glyph-name="Ccedilla" unicode="&#xc7;" horiz-adv-x="574" 
d="M385 -129c0 -22 -8.49902 -39.833 -25.499 -53.5s-40.167 -20.5 -69.5 -20.5c-21.333 0 -41.666 3.33301 -60.999 10c-2.66699 0.666992 -4 2.66699 -4 6v8c0 3.33301 2 4.66602 6 3.99902c20 -6.66699 39.667 -10 59 -10c24.667 0 43.5 5 56.5 15s19.5 24 19.5 42
c0 17.333 -6.83301 30 -20.5 38s-36.834 12.333 -69.501 13c-2.66699 0 -4.66699 1 -6 3c-2 2 -2.33301 4 -1 6l23 59c-69.333 4.66699 -122.666 28.334 -159.999 71.001s-56 97 -56 163v265c0 69.333 20.5 125.833 61.5 169.5s98.833 65.5 173.5 65.5
c80 0 150.333 -25 211 -75c3.33301 -2 3.66602 -4.33301 0.999023 -7l-6 -8c-2 -2 -4.33301 -2.33301 -7 -1c-58.667 47.333 -125.334 71 -200.001 71c-68.667 0 -121.334 -19.833 -158.001 -59.5s-55 -91.5 -55 -155.5v-265c0 -64 18.667 -115.833 56 -155.5
s90.666 -59.5 159.999 -59.5c80.667 0 151.334 26.667 212.001 80c2 2.66699 4.33301 2.66699 7 0l6 -9c2.66699 -2.66699 2.33398 -5 -0.999023 -7c-62 -56 -136.333 -84 -223 -84h-3l-20 -52c62.667 0 94 -22.333 94 -67z" />
    <glyph glyph-name="Egrave" unicode="&#xc8;" horiz-adv-x="559" 
d="M121 355v-335h386c3.33301 0 5 -1.66699 5 -5v-10c0 -3.33301 -1.66699 -5 -5 -5h-402c-3.33301 0 -5 1.66699 -5 5v705c0 3.33301 1.66699 5 5 5h387c3.33301 0 5 -1.66699 5 -5v-10c0 -3.33301 -1.66699 -5 -5 -5h-371v-320h351c3.33301 0 5 -1.66699 5 -5v-10
c0 -3.33301 -1.66699 -5 -5 -5h-351zM317 793l-115 134c-3.33301 4 -2.33301 6 3 6h17c2.66699 0 4.66699 -1 6 -3l108 -134c2.66699 -4 1.66699 -6 -3 -6h-10c-3.33301 0 -5.33301 1 -6 3z" />
    <glyph glyph-name="Eacute" unicode="&#xc9;" horiz-adv-x="559" 
d="M121 355v-335h386c3.33301 0 5 -1.66699 5 -5v-10c0 -3.33301 -1.66699 -5 -5 -5h-402c-3.33301 0 -5 1.66699 -5 5v705c0 3.33301 1.66699 5 5 5h387c3.33301 0 5 -1.66699 5 -5v-10c0 -3.33301 -1.66699 -5 -5 -5h-371v-320h351c3.33301 0 5 -1.66699 5 -5v-10
c0 -3.33301 -1.66699 -5 -5 -5h-351zM395 927l-115 -134c-1.33301 -2 -3.33301 -3 -6 -3h-10c-4.66699 0 -5.66699 2 -3 6l108 134c0.666992 2 2.66699 3 6 3h17c5.33301 0 6.33301 -2 3 -6z" />
    <glyph glyph-name="Ecircumflex" unicode="&#xca;" horiz-adv-x="559" 
d="M121 355v-335h386c3.33301 0 5 -1.66699 5 -5v-10c0 -3.33301 -1.66699 -5 -5 -5h-402c-3.33301 0 -5 1.66699 -5 5v705c0 3.33301 1.66699 5 5 5h387c3.33301 0 5 -1.66699 5 -5v-10c0 -3.33301 -1.66699 -5 -5 -5h-371v-320h351c3.33301 0 5 -1.66699 5 -5v-10
c0 -3.33301 -1.66699 -5 -5 -5h-351zM169 790h-12c-6 0 -7 2 -3 6l131 134c2 2 4.33301 3 7 3h14c2.66699 0 5 -1 7 -3l131 -134c4 -4 3 -6 -3 -6h-12c-2.66699 0 -5 1 -7 3l-123 121l-123 -121c-2 -2 -4.33301 -3 -7 -3z" />
    <glyph glyph-name="Edieresis" unicode="&#xcb;" horiz-adv-x="559" 
d="M121 355v-335h386c3.33301 0 5 -1.66699 5 -5v-10c0 -3.33301 -1.66699 -5 -5 -5h-402c-3.33301 0 -5 1.66699 -5 5v705c0 3.33301 1.66699 5 5 5h387c3.33301 0 5 -1.66699 5 -5v-10c0 -3.33301 -1.66699 -5 -5 -5h-371v-320h351c3.33301 0 5 -1.66699 5 -5v-10
c0 -3.33301 -1.66699 -5 -5 -5h-351zM220 859c0 -13.333 -6.66699 -20 -20 -20s-20 6.66699 -20 20s6.66699 20 20 20s20 -6.66699 20 -20zM418 859c0 -13.333 -6.66699 -20 -20 -20s-20 6.66699 -20 20s6.66699 20 20 20s20 -6.66699 20 -20z" />
    <glyph glyph-name="Igrave" unicode="&#xcc;" horiz-adv-x="221" 
d="M121 710v-705c0 -3.33301 -1.66699 -5 -5 -5h-11c-3.33301 0 -5 1.66699 -5 5v705c0 3.33301 1.66699 5 5 5h11c3.33301 0 5 -1.66699 5 -5zM129 793l-115 134c-3.33301 4 -2.33301 6 3 6h17c2.66699 0 4.66699 -1 6 -3l108 -134c2.66699 -4 1.66699 -6 -3 -6h-10
c-3.33301 0 -5.33301 1 -6 3z" />
    <glyph glyph-name="Iacute" unicode="&#xcd;" horiz-adv-x="221" 
d="M120 710v-705c0 -3.33301 -1.66699 -5 -5 -5h-11c-3.33301 0 -5 1.66699 -5 5v705c0 3.33301 1.66699 5 5 5h11c3.33301 0 5 -1.66699 5 -5zM216 927l-115 -134c-0.666992 -2 -2.66699 -3 -6 -3h-10c-4.66699 0 -5.66699 2 -3 6l108 134c1.33301 2 3.33301 3 6 3h17
c4.66699 0 5.66699 -2 3 -6z" />
    <glyph glyph-name="Icircumflex" unicode="&#xce;" horiz-adv-x="221" 
d="M5 790h-12c-4.66699 0 -5.66699 2 -3 6l104 134c1.33301 2 3.33301 3 6 3h16c2.66699 0 4.66699 -1 6 -3l114 -134c2.66699 -4 1.66699 -6 -3 -6h-12c-3.33301 0 -5.33301 1 -6 3l-107 123l-97 -123c-0.666992 -2 -2.66699 -3 -6 -3zM120 710v-705
c0 -3.33301 -1.66699 -5 -5 -5h-11c-3.33301 0 -5 1.66699 -5 5v705c0 3.33301 1.66699 5 5 5h11c3.33301 0 5 -1.66699 5 -5z" />
    <glyph glyph-name="Idieresis" unicode="&#xcf;" horiz-adv-x="221" 
d="M116 0h-11c-3.33301 0 -5 1.66699 -5 5v705c0 3.33301 1.66699 5 5 5h11c3.33301 0 5 -1.66699 5 -5v-705c0 -3.33301 -1.66699 -5 -5 -5zM51 859c0 -13.333 -6.66699 -20 -20 -20s-20 6.66699 -20 20s6.66699 20 20 20s20 -6.66699 20 -20zM211 859
c0 -13.333 -6.66699 -20 -20 -20s-20 6.66699 -20 20s6.66699 20 20 20s20 -6.66699 20 -20z" />
    <glyph glyph-name="Eth" unicode="&#xd0;" horiz-adv-x="683" 
d="M131 715h235c74 0 132.833 -22.167 176.5 -66.5s65.5 -104.5 65.5 -180.5v-224c0 -76 -21.833 -135.667 -65.5 -179s-102.5 -65 -176.5 -65h-235c-3.33301 0 -5 1.66699 -5 5v361h-106c-3.33301 0 -5 1.66699 -5 5v10c0 3.33301 1.66699 5 5 5h106v324
c0 3.33301 1.66699 5 5 5zM366 20c68.667 0 122.667 19.667 162 59s59 94.333 59 165v224c0 71.333 -19.667 127 -59 167s-93.333 60 -162 60h-219v-309h207c3.33301 0 5 -1.66699 5 -5v-10c0 -3.33301 -1.66699 -5 -5 -5h-207v-346h219z" />
    <glyph glyph-name="Ntilde" unicode="&#xd1;" horiz-adv-x="699" 
d="M116 0h-11c-3.33301 0 -5 1.66699 -5 5v705c0 3.33301 1.66699 5 5 5h14c3.33301 0 5.33301 -1 6 -3l453 -678v676c0 3.33301 1.66699 5 5 5h11c3.33301 0 5 -1.66699 5 -5v-705c0 -3.33301 -1.66699 -5 -5 -5h-14c-2.66699 0 -4.66699 1 -6 3l-453 678v-676
c0 -3.33301 -1.66699 -5 -5 -5zM481 874c-4 -13.333 -12.001 -24.832 -24.001 -34.499s-25.333 -14.5 -40 -14.5c-16.667 0 -39 7.66699 -67 23s-50 23 -66 23c-20 0 -36.333 -12.333 -49 -37c-1.33301 -2 -3.33301 -2.66699 -6 -2l-7 3
c-3.33301 1.33301 -4.33301 3.66602 -3 6.99902c4.66699 13.333 12.834 24.5 24.501 33.5s25.5 13.5 41.5 13.5c14.667 0 38 -8 70 -24c30.667 -14.667 51 -22 61 -22c20.667 0 37 12.667 49 38c1.33301 2 3.33301 2.66699 6 2l7 -3c2.66699 -1.33301 3.66699 -3.33301 3 -6
z" />
    <glyph glyph-name="Ograve" unicode="&#xd2;" horiz-adv-x="666" 
d="M591 218c0 -65.333 -23.998 -119.666 -71.998 -162.999s-110 -65 -186 -65s-138 21.667 -186 65s-72 97.666 -72 162.999v270c0 70 23.667 127 71 171s109.666 66 186.999 66s139.666 -22 186.999 -66s71 -101 71 -171v-270zM96.002 218
c0 -60 21.8291 -109.667 65.4961 -149s100.834 -59 171.501 -59s127.834 19.667 171.501 59s65.5 89 65.5 149v270c0 64.667 -21.667 117 -65 157s-100.666 60 -171.999 60s-128.666 -20 -171.999 -60s-65 -92.333 -65 -157v-270zM350.998 793l-115 134
c-3.33301 4 -2.33301 6 3 6h17c2.66699 0 4.66699 -1 6 -3l108 -134c2.66699 -4 1.66699 -6 -3 -6h-10c-3.33301 0 -5.33301 1 -6 3z" />
    <glyph glyph-name="Oacute" unicode="&#xd3;" horiz-adv-x="666" 
d="M591 218c0 -65.333 -23.998 -119.666 -71.998 -162.999s-110 -65 -186 -65s-138 21.667 -186 65s-72 97.666 -72 162.999v270c0 70 23.667 127 71 171s109.666 66 186.999 66s139.666 -22 186.999 -66s71 -101 71 -171v-270zM96.002 218
c0 -60 21.8291 -109.667 65.4961 -149s100.834 -59 171.501 -59s127.834 19.667 171.501 59s65.5 89 65.5 149v270c0 64.667 -21.667 117 -65 157s-100.666 60 -171.999 60s-128.666 -20 -171.999 -60s-65 -92.333 -65 -157v-270zM438.998 927l-115 -134
c-1.33301 -2 -3.33301 -3 -6 -3h-10c-4.66699 0 -5.66699 2 -3 6l108 134c0.666992 2 2.66699 3 6 3h17c4.66699 0 5.66699 -2 3 -6z" />
    <glyph glyph-name="Ocircumflex" unicode="&#xd4;" horiz-adv-x="666" 
d="M591 218c0 -65.333 -23.998 -119.666 -71.998 -162.999s-110 -65 -186 -65s-138 21.667 -186 65s-72 97.666 -72 162.999v270c0 70 23.667 127 71 171s109.666 66 186.999 66s139.666 -22 186.999 -66s71 -101 71 -171v-270zM96.002 218
c0 -60 21.8291 -109.667 65.4961 -149s100.834 -59 171.501 -59s127.834 19.667 171.501 59s65.5 89 65.5 149v270c0 64.667 -21.667 117 -65 157s-100.666 60 -171.999 60s-128.666 -20 -171.999 -60s-65 -92.333 -65 -157v-270zM202.998 790h-12c-6 0 -7 2 -3 6l131 134
c2 2 4.33301 3 7 3h14c2.66699 0 5 -1 7 -3l131 -134c4 -4 3 -6 -3 -6h-12c-2.66699 0 -5 1 -7 3l-123 121l-123 -121c-2 -2 -4.33301 -3 -7 -3z" />
    <glyph glyph-name="Otilde" unicode="&#xd5;" horiz-adv-x="666" 
d="M591 218c0 -65.333 -23.998 -119.666 -71.998 -162.999s-110 -65 -186 -65s-138 21.667 -186 65s-72 97.666 -72 162.999v270c0 70 23.667 127 71 171s109.666 66 186.999 66s139.666 -22 186.999 -66s71 -101 71 -171v-270zM96.002 218
c0 -60 21.8291 -109.667 65.4961 -149s100.834 -59 171.501 -59s127.834 19.667 171.501 59s65.5 89 65.5 149v270c0 64.667 -21.667 117 -65 157s-100.666 60 -171.999 60s-128.666 -20 -171.999 -60s-65 -92.333 -65 -157v-270zM463.998 874
c-4 -13.333 -12.001 -24.832 -24.001 -34.499s-25.333 -14.5 -40 -14.5c-16.667 0 -39 7.66699 -67 23s-50 23 -66 23c-20 0 -36.333 -12.333 -49 -37c-1.33301 -2 -3.33301 -2.66699 -6 -2l-7 3c-3.33301 1.33301 -4.33301 3.66602 -3 6.99902
c4.66699 13.333 12.834 24.5 24.501 33.5s25.5 13.5 41.5 13.5c14.667 0 38 -8 70 -24c30.667 -14.667 51 -22 61 -22c20.667 0 37 12.667 49 38c1.33301 2 3.33301 2.66699 6 2l7 -3c2.66699 -1.33301 3.66699 -3.33301 3 -6z" />
    <glyph glyph-name="Odieresis" unicode="&#xd6;" horiz-adv-x="666" 
d="M591 218c0 -65.333 -23.998 -119.666 -71.998 -162.999s-110 -65 -186 -65s-138 21.667 -186 65s-72 97.666 -72 162.999v270c0 70 23.667 127 71 171s109.666 66 186.999 66s139.666 -22 186.999 -66s71 -101 71 -171v-270zM96.002 218
c0 -60 21.8291 -109.667 65.4961 -149s100.834 -59 171.501 -59s127.834 19.667 171.501 59s65.5 89 65.5 149v270c0 64.667 -21.667 117 -65 157s-100.666 60 -171.999 60s-128.666 -20 -171.999 -60s-65 -92.333 -65 -157v-270zM253.998 859
c0 -13.333 -6.66699 -20 -20 -20s-20 6.66699 -20 20s6.66699 20 20 20s20 -6.66699 20 -20zM451.998 859c0 -13.333 -6.66699 -20 -20 -20s-20 6.66699 -20 20s6.66699 20 20 20s20 -6.66699 20 -20z" />
    <glyph glyph-name="multiply" unicode="&#xd7;" 
d="M271 319l-177 -177c-2.66699 -2.66699 -5.33398 -2.66699 -8.00098 0l-6 6c-2.66699 2.66699 -2.66699 5.33398 0 8.00098l177 177l-177 176c-2.66699 2.66699 -2.66699 5.33398 0 8.00098l6 6c2.66699 2.66699 5.33398 2.66699 8.00098 0l177 -176l176 176
c2.66699 2.66699 5.33398 2.66699 8.00098 0l6 -6c2.66699 -2.66699 2.66699 -5.33398 0 -8.00098l-176 -176l176 -177c2.66699 -2.66699 2.66699 -5.33398 0 -8.00098l-6 -6c-2.66699 -2.66699 -5.33398 -2.66699 -8.00098 0z" />
    <glyph glyph-name="Oslash" unicode="&#xd8;" horiz-adv-x="672" 
d="M130 -51l-9.99805 0.00195312c-4.66699 0 -6 2 -4 6l47 90c-58.667 44 -88 102.333 -88 175v268c0 69.333 24 126.166 72 170.499s111 66.5 189 66.5c61.333 0 113.666 -14 156.999 -42l43 83c0.666992 2.66699 2.66699 4 6 4h10c4.66699 0 6 -2 4 -6l-48 -92
c59.333 -44 89 -105.333 89 -184v-268c0 -64.667 -24.333 -118.834 -73 -162.501s-111.334 -65.5 -188.001 -65.5c-60 0 -112.667 14.333 -158 43l-42 -82c-0.666992 -2.66699 -2.66699 -4 -6 -4zM96.002 220.002c0 -64 25.332 -116 75.999 -156l312 601
c-41.333 26.667 -90.666 40 -147.999 40c-72 0 -130 -20.167 -174 -60.5s-66 -92.5 -66 -156.5v-268zM188.001 53.002c40.667 -27.333 90.001 -41 148.001 -41c71.333 0 129.166 19.833 173.499 59.5s66.5 89.167 66.5 148.5v268c0 70 -25.667 125.333 -77 166z" />
    <glyph glyph-name="Ugrave" unicode="&#xd9;" horiz-adv-x="670" 
d="M576 240c0 -74.667 -21.167 -134.667 -63.5 -180s-101.5 -68 -177.5 -68s-135.167 22.667 -177.5 68s-63.5 105.333 -63.5 180v470c0 3.33301 1.66699 5 5 5h11c3.33301 0 5 -1.66699 5 -5v-470c0 -69.333 19.167 -124.666 57.5 -165.999s92.5 -62 162.5 -62
s124.167 20.667 162.5 62s57.5 96.666 57.5 165.999v470c0 3.33301 1.66699 5 5 5h11c3.33301 0 5 -1.66699 5 -5v-470zM353 793l-115 134c-3.33301 4 -2.33301 6 3 6h17c2.66699 0 4.66699 -1 6 -3l108 -134c2.66699 -4 1.66699 -6 -3 -6h-10c-3.33301 0 -5.33301 1 -6 3z
" />
    <glyph glyph-name="Uacute" unicode="&#xda;" horiz-adv-x="670" 
d="M576 240c0 -74.667 -21.167 -134.667 -63.5 -180s-101.5 -68 -177.5 -68s-135.167 22.667 -177.5 68s-63.5 105.333 -63.5 180v470c0 3.33301 1.66699 5 5 5h11c3.33301 0 5 -1.66699 5 -5v-470c0 -69.333 19.167 -124.666 57.5 -165.999s92.5 -62 162.5 -62
s124.167 20.667 162.5 62s57.5 96.666 57.5 165.999v470c0 3.33301 1.66699 5 5 5h11c3.33301 0 5 -1.66699 5 -5v-470zM431 927l-115 -134c-1.33301 -2 -3.33301 -3 -6 -3h-10c-4.66699 0 -5.66699 2 -3 6l108 134c0.666992 2 2.66699 3 6 3h17c5.33301 0 6.33301 -2 3 -6z
" />
    <glyph glyph-name="Ucircumflex" unicode="&#xdb;" horiz-adv-x="670" 
d="M576 240c0 -74.667 -21.167 -134.667 -63.5 -180s-101.5 -68 -177.5 -68s-135.167 22.667 -177.5 68s-63.5 105.333 -63.5 180v470c0 3.33301 1.66699 5 5 5h11c3.33301 0 5 -1.66699 5 -5v-470c0 -69.333 19.167 -124.666 57.5 -165.999s92.5 -62 162.5 -62
s124.167 20.667 162.5 62s57.5 96.666 57.5 165.999v470c0 3.33301 1.66699 5 5 5h11c3.33301 0 5 -1.66699 5 -5v-470zM205 790h-12c-6 0 -7 2 -3 6l131 134c2 2 4.33301 3 7 3h14c2.66699 0 5 -1 7 -3l131 -134c4 -4 3 -6 -3 -6h-12c-2.66699 0 -5 1 -7 3l-123 121
l-123 -121c-2 -2 -4.33301 -3 -7 -3z" />
    <glyph glyph-name="Udieresis" unicode="&#xdc;" horiz-adv-x="670" 
d="M576 240c0 -74.667 -21.167 -134.667 -63.5 -180s-101.5 -68 -177.5 -68s-135.167 22.667 -177.5 68s-63.5 105.333 -63.5 180v470c0 3.33301 1.66699 5 5 5h11c3.33301 0 5 -1.66699 5 -5v-470c0 -69.333 19.167 -124.666 57.5 -165.999s92.5 -62 162.5 -62
s124.167 20.667 162.5 62s57.5 96.666 57.5 165.999v470c0 3.33301 1.66699 5 5 5h11c3.33301 0 5 -1.66699 5 -5v-470zM256 859c0 -13.333 -6.66699 -20 -20 -20s-20 6.66699 -20 20s6.66699 20 20 20s20 -6.66699 20 -20zM454 859c0 -13.333 -6.66699 -20 -20 -20
s-20 6.66699 -20 20s6.66699 20 20 20s20 -6.66699 20 -20z" />
    <glyph glyph-name="Yacute" unicode="&#xdd;" horiz-adv-x="529" 
d="M270 0h-11c-3.33301 0 -5 1.66699 -5 5v281l-242 423c-2 4 -0.666992 6 4 6h12c2.66699 0 4.66699 -1 6 -3l231 -404l231 404c1.33301 2 3.33301 3 6 3h12c4.66699 0 6 -2 4 -6l-243 -423v-281c0 -3.33301 -1.66699 -5 -5 -5zM366 927l-115 -134
c-0.666992 -2 -2.66699 -3 -6 -3h-10c-4.66699 0 -5.66699 2 -3 6l108 134c1.33301 2 3.33301 3 6 3h17c4.66699 0 5.66699 -2 3 -6z" />
    <glyph glyph-name="Thorn" unicode="&#xde;" horiz-adv-x="622" 
d="M116 0h-11.001c-3.33301 0 -5 1.66699 -5 5v705c0 3.33301 1.66699 5 5 5h11c3.33301 0 5 -1.66699 5 -5v-125h200c78 0 138 -19 180 -57s63 -90.667 63 -158c0 -68 -21.167 -120.667 -63.5 -158s-102.166 -56 -179.499 -56h-200v-151c0 -3.33301 -1.66699 -5 -5 -5z
M120.999 565v-389.001h198c73.333 0 129 16.667 167 50s57 81.333 57 144s-19.167 110.834 -57.5 144.501s-93.833 50.5 -166.5 50.5h-198z" />
    <glyph glyph-name="germandbls" unicode="&#xdf;" horiz-adv-x="531" 
d="M451 540c0 -84 -37.6689 -137.667 -113.002 -161c94 -18.667 141 -81 141 -187c0 -65.333 -18.667 -115.333 -56 -150s-91.666 -52 -162.999 -52c-38 0 -75 8 -111 24c-2.66699 0.666992 -4 2.66699 -4 6v10c0 4 2 5 6 3c38.667 -16 75 -24 109 -24
c65.333 0 114.833 15.5 148.5 46.5s50.5 76.5 50.5 136.5c0 51.333 -14.167 93.833 -42.5 127.5s-75.833 50.5 -142.5 50.5h-111c-3.33301 0 -5 1.66699 -5 5v9c0 3.33301 1.66699 5 5 5h111c56.667 0 97 15 121 45s36 65.333 36 106c0 110.667 -56.667 166 -170 166
c-53.333 0 -93.666 -15 -120.999 -45s-41 -74.333 -41 -133v-523c0 -3.33301 -1.66699 -5 -5 -5h-10c-3.33301 0 -5 1.66699 -5 5v523c0 64 15.667 112.833 47 146.5s76.333 50.5 135 50.5c61.333 0 108.333 -15.833 141 -47.5s49 -77.5 49 -137.5z" />
    <glyph glyph-name="agrave" unicode="&#xe0;" horiz-adv-x="497" 
d="M67 472c47.333 34 106 51.001 176 51.001c61.333 0 107 -16.167 137 -48.5s45 -76.833 45 -133.5v-309c0 -3.33301 -1.33301 -5.33301 -4 -6c-54.667 -24 -114 -36 -178 -36c-60 0 -108.833 14.5 -146.5 43.5s-56.5 67.5 -56.5 115.5c0 49.333 17.667 87.666 53 114.999
s85.333 41 150 41c49.333 0 103.333 -7 162 -21v57c0 108.667 -54 163 -162 163c-62 0 -117 -15.333 -165 -46c-2.66699 -1.33301 -5 -1 -7 1l-4 7c-1.33301 3.33301 -1.33301 5.33301 0 6zM60 149.001c0 -42 17.001 -75.833 51.001 -101.5s78 -38.5 132 -38.5
c56 0 110 10 162 30v227c-54.667 13.333 -108.667 20 -162 20c-58.667 0 -103.834 -11.833 -135.501 -35.5s-47.5 -57.5 -47.5 -101.5zM269.001 600.001h-8c-3.33301 0 -5.33301 1 -6 3l-89 134c-2 4 -1 6 3 6h15c2.66699 0 4.66699 -1 6 -3l83 -134c3.33301 -4 2 -6 -4 -6z
" />
    <glyph glyph-name="aacute" unicode="&#xe1;" horiz-adv-x="497" 
d="M67 472c47.333 34 106 51.001 176 51.001c61.333 0 107 -16.167 137 -48.5s45 -76.833 45 -133.5v-309c0 -3.33301 -1.33301 -5.33301 -4 -6c-54.667 -24 -114 -36 -178 -36c-60 0 -108.833 14.5 -146.5 43.5s-56.5 67.5 -56.5 115.5c0 49.333 17.667 87.666 53 114.999
s85.333 41 150 41c49.333 0 103.333 -7 162 -21v57c0 108.667 -54 163 -162 163c-62 0 -117 -15.333 -165 -46c-2.66699 -1.33301 -5 -1 -7 1l-4 7c-1.33301 3.33301 -1.33301 5.33301 0 6zM60 149.001c0 -42 17.001 -75.833 51.001 -101.5s78 -38.5 132 -38.5
c56 0 110 10 162 30v227c-54.667 13.333 -108.667 20 -162 20c-58.667 0 -103.834 -11.833 -135.501 -35.5s-47.5 -57.5 -47.5 -101.5zM218.001 600.001h-8c-6 0 -7.33301 2 -4 6l83 134c0.666992 2 2.66699 3 6 3h15c4 0 5 -2 3 -6l-89 -134c-1.33301 -2 -3.33301 -3 -6 -3
z" />
    <glyph glyph-name="acircumflex" unicode="&#xe2;" horiz-adv-x="497" 
d="M67 472c47.333 34 106 51.001 176 51.001c61.333 0 107 -16.167 137 -48.5s45 -76.833 45 -133.5v-309c0 -3.33301 -1.33301 -5.33301 -4 -6c-54.667 -24 -114 -36 -178 -36c-60 0 -108.833 14.5 -146.5 43.5s-56.5 67.5 -56.5 115.5c0 49.333 17.667 87.666 53 114.999
s85.333 41 150 41c49.333 0 103.333 -7 162 -21v57c0 108.667 -54 163 -162 163c-62 0 -117 -15.333 -165 -46c-2.66699 -1.33301 -5 -1 -7 1l-4 7c-1.33301 3.33301 -1.33301 5.33301 0 6zM60 149.001c0 -42 17.001 -75.833 51.001 -101.5s78 -38.5 132 -38.5
c56 0 110 10 162 30v227c-54.667 13.333 -108.667 20 -162 20c-58.667 0 -103.834 -11.833 -135.501 -35.5s-47.5 -57.5 -47.5 -101.5zM135.001 600.001h-13c-5.33301 0 -6.33301 2 -3 6l114 134c0.666992 2 2.66699 3 6 3h10c3.33301 0 5.33301 -1 6 -3l114 -134
c3.33301 -4 2.33301 -6 -3 -6h-13c-3.33301 0 -5.33301 1 -6 3l-103 123l-103 -123c-0.666992 -2 -2.66699 -3 -6 -3z" />
    <glyph glyph-name="atilde" unicode="&#xe3;" horiz-adv-x="497" 
d="M67 472c47.333 34 106 51.001 176 51.001c61.333 0 107 -16.167 137 -48.5s45 -76.833 45 -133.5v-309c0 -3.33301 -1.33301 -5.33301 -4 -6c-54.667 -24 -114 -36 -178 -36c-60 0 -108.833 14.5 -146.5 43.5s-56.5 67.5 -56.5 115.5c0 49.333 17.667 87.666 53 114.999
s85.333 41 150 41c49.333 0 103.333 -7 162 -21v57c0 108.667 -54 163 -162 163c-62 0 -117 -15.333 -165 -46c-2.66699 -1.33301 -5 -1 -7 1l-4 7c-1.33301 3.33301 -1.33301 5.33301 0 6zM60 149.001c0 -42 17.001 -75.833 51.001 -101.5s78 -38.5 132 -38.5
c56 0 110 10 162 30v227c-54.667 13.333 -108.667 20 -162 20c-58.667 0 -103.834 -11.833 -135.501 -35.5s-47.5 -57.5 -47.5 -101.5zM380.001 674.001c-4.66699 -13.333 -12.832 -24.833 -24.499 -34.5s-24.834 -14.5 -39.501 -14.5c-14 0 -36.333 7.66699 -67 23
c-28 15.333 -50 23 -66 23c-22.667 0 -39 -12.333 -49 -37c-1.33301 -2 -3.33301 -2.66699 -6 -2l-7 3c-2.66699 2 -3.66699 4.33301 -3 7c13.333 31.333 35.333 47 66 47c14.667 0 38 -8 70 -24c30.667 -14.667 51 -22 61 -22c22 0 38.333 12.667 49 38
c1.33301 3.33301 3.33301 4 6 2l7 -3c2.66699 -1.33301 3.66699 -3.33301 3 -6z" />
    <glyph glyph-name="adieresis" unicode="&#xe4;" horiz-adv-x="497" 
d="M67 472c47.333 34 106 51.001 176 51.001c61.333 0 107 -16.167 137 -48.5s45 -76.833 45 -133.5v-309c0 -3.33301 -1.33301 -5.33301 -4 -6c-54.667 -24 -114 -36 -178 -36c-60 0 -108.833 14.5 -146.5 43.5s-56.5 67.5 -56.5 115.5c0 49.333 17.667 87.666 53 114.999
s85.333 41 150 41c49.333 0 103.333 -7 162 -21v57c0 108.667 -54 163 -162 163c-62 0 -117 -15.333 -165 -46c-2.66699 -1.33301 -5 -1 -7 1l-4 7c-1.33301 3.33301 -1.33301 5.33301 0 6zM60 149.001c0 -42 17.001 -75.833 51.001 -101.5s78 -38.5 132 -38.5
c56 0 110 10 162 30v227c-54.667 13.333 -108.667 20 -162 20c-58.667 0 -103.834 -11.833 -135.501 -35.5s-47.5 -57.5 -47.5 -101.5zM185.001 650.001c0 -13.333 -6.66699 -20 -20 -20s-20 6.66699 -20 20s6.66699 20 20 20s20 -6.66699 20 -20zM353.001 650.001
c0 -13.333 -6.66699 -20 -20 -20s-20 6.66699 -20 20s6.66699 20 20 20s20 -6.66699 20 -20z" />
    <glyph glyph-name="aring" unicode="&#xe5;" horiz-adv-x="497" 
d="M67 472c47.333 34 106 51.001 176 51.001c61.333 0 107 -16.167 137 -48.5s45 -76.833 45 -133.5v-309c0 -3.33301 -1.33301 -5.33301 -4 -6c-54.667 -24 -114 -36 -178 -36c-60 0 -108.833 14.5 -146.5 43.5s-56.5 67.5 -56.5 115.5c0 49.333 17.667 87.666 53 114.999
s85.333 41 150 41c49.333 0 103.333 -7 162 -21v57c0 108.667 -54 163 -162 163c-62 0 -117 -15.333 -165 -46c-2.66699 -1.33301 -5 -1 -7 1l-4 7c-1.33301 3.33301 -1.33301 5.33301 0 6zM60 149.001c0 -42 17.001 -75.833 51.001 -101.5s78 -38.5 132 -38.5
c56 0 110 10 162 30v227c-54.667 13.333 -108.667 20 -162 20c-58.667 0 -103.834 -11.833 -135.501 -35.5s-47.5 -57.5 -47.5 -101.5zM343.001 677.001c0 -26 -8.66699 -47.667 -26 -65s-40 -26 -68 -26s-50.667 8.66699 -68 26s-26 39 -26 65s8.83301 47.833 26.5 65.5
s40.167 26.5 67.5 26.5s49.833 -8.83301 67.5 -26.5s26.5 -39.5 26.5 -65.5zM174.001 677.001c0 -22 6.83301 -39.667 20.5 -53s32.167 -20 55.5 -20s41.5 6.66699 54.5 20s19.5 31 19.5 53s-6.5 39.833 -19.5 53.5s-31.167 20.5 -54.5 20.5s-41.833 -6.83301 -55.5 -20.5
s-20.5 -31.5 -20.5 -53.5z" />
    <glyph glyph-name="ae" unicode="&#xe6;" horiz-adv-x="837" 
d="M582 -8c-66 0 -116.999 23.002 -152.999 69.002c-54.667 -47.333 -117.667 -71 -189 -71c-58.667 0 -106.667 14.5 -144 43.5s-56 67.5 -56 115.5s17.5 85.167 52.5 111.5s84.167 39.5 147.5 39.5c44 0 97 -6.66699 159 -20v61c0 108.667 -53 163 -159 163
c-62 0 -117 -15.333 -165 -46c-2.66699 -1.33301 -5 -1 -7 1l-4 7c-1.33301 3.33301 -1 5.66602 1 6.99902c48 33.333 107 50 177 50c46.667 0 84.5 -11 113.5 -33s47.5 -52.667 55.5 -92c9.33301 40 30.333 70.833 63 92.5s72 32.5 118 32.5
c58.667 0 105.5 -16.833 140.5 -50.5s52.5 -79.5 52.5 -137.5v-71c0 -3.33301 -1.66699 -5 -5 -5h-361v-98c0 -48.667 15.167 -85.834 45.5 -111.501s69.5 -38.5 117.5 -38.5c70.667 0 131 24.333 181 73c2.66699 2 5 1.66699 7 -1l6 -6c2.66699 -2.66699 2.66699 -5 0 -7
c-54.667 -52 -119.334 -78 -194.001 -78zM60.001 149.002c0 -42 16.668 -75.832 50.001 -101.499s76.666 -38.5 129.999 -38.5c65.333 0 125 22 179 66c-13.333 25.333 -20 54 -20 86v100c-54.667 13.333 -107.667 20 -159 20c-58 0 -102.5 -11.333 -133.5 -34
s-46.5 -55.334 -46.5 -98.001zM419.002 335.003v-57h346v57c0 52.667 -15.667 94 -47 124s-73.333 45 -126 45c-53.333 0 -95.5 -14.833 -126.5 -44.5s-46.5 -71.167 -46.5 -124.5z" />
    <glyph glyph-name="ccedilla" unicode="&#xe7;" horiz-adv-x="462" 
d="M429 53c-51.333 -41.333 -107.998 -62.333 -169.998 -63l-18 -51c61.333 0 92 -22.333 92 -67c0 -22 -8.33301 -39.833 -25 -53.5s-39.667 -20.5 -69 -20.5c-20.667 0 -40.334 3 -59.001 9c-2.66699 0.666992 -4 2.66699 -4 6v8c0 3.33301 2 4.66602 6 3.99902
c20 -6 39 -9 57 -9c24 0 42.333 5 55 15s19 23.667 19 41c0 18 -6.66699 31 -20 39s-35.666 12.333 -66.999 13c-2.66699 0 -4.66699 1 -6 3c-2 2 -2.33301 4 -1 6l21 58c-55.333 2.66699 -99.166 21.334 -131.499 56.001s-48.5 76.667 -48.5 126v167
c0 52 17.667 95.5 53 130.5s82.666 52.5 141.999 52.5c58 0 111.333 -18 160 -54c3.33301 -2 3.66602 -4.33301 0.999023 -7l-5 -7c-2 -2 -4.33301 -2.33301 -7 -1c-46 33.333 -96 50 -150 50c-54.667 0 -97.334 -15.667 -128.001 -47s-46 -70.333 -46 -117v-167
c0 -46.667 15.667 -85.667 47 -117s73.666 -47 126.999 -47c58 0 112.667 19.667 164 59c2.66699 1.33301 5 1 7 -1l5 -7c2.66699 -2.66699 2.33398 -5 -0.999023 -7z" />
    <glyph glyph-name="egrave" unicode="&#xe8;" horiz-adv-x="505" 
d="M452 335v-88.001c0 -3.33301 -1.66699 -5 -5 -5h-367v-71c0 -49.333 17 -88.666 51 -117.999s75.667 -44 125 -44c63.333 0 121.333 24.333 174 73c2.66699 2 5 1.66699 7 -1l6 -6c2.66699 -2.66699 2.66699 -5 0 -7c-56 -52 -118.333 -78 -187 -78
c-54.667 0 -101 16.667 -139 50s-57 77 -57 131v164c0 58 17.667 103.833 53 137.5s83 50.5 143 50.5c59.333 0 106.833 -16.833 142.5 -50.5s53.5 -79.5 53.5 -137.5zM432 334.999c0 52.667 -16 94 -48 124s-74.667 45 -128 45c-54.667 0 -97.667 -14.833 -129 -44.5
s-47 -71.167 -47 -124.5v-74h352v74zM276 599.999h-8.00098c-2.66699 0 -4.66699 1 -6 3l-89 134c-2 4 -1 6 3 6h15c3.33301 0 5.33301 -1 6 -3l83 -134c2.66699 -4 1.33398 -6 -3.99902 -6z" />
    <glyph glyph-name="eacute" unicode="&#xe9;" horiz-adv-x="505" 
d="M452 335v-88.001c0 -3.33301 -1.66699 -5 -5 -5h-367v-71c0 -49.333 17 -88.666 51 -117.999s75.667 -44 125 -44c63.333 0 121.333 24.333 174 73c2.66699 2 5 1.66699 7 -1l6 -6c2.66699 -2.66699 2.66699 -5 0 -7c-56 -52 -118.333 -78 -187 -78
c-54.667 0 -101 16.667 -139 50s-57 77 -57 131v164c0 58 17.667 103.833 53 137.5s83 50.5 143 50.5c59.333 0 106.833 -16.833 142.5 -50.5s53.5 -79.5 53.5 -137.5zM432 334.999c0 52.667 -16 94 -48 124s-74.667 45 -128 45c-54.667 0 -97.667 -14.833 -129 -44.5
s-47 -71.167 -47 -124.5v-74h352v74zM225 599.999h-8c-6 0 -7.33301 2 -4 6l83 134c1.33301 2 3.33301 3 6 3h15c4 0 5 -2 3 -6l-89 -134c-0.666992 -2 -2.66699 -3 -6 -3z" />
    <glyph glyph-name="ecircumflex" unicode="&#xea;" horiz-adv-x="505" 
d="M452 335v-88.001c0 -3.33301 -1.66699 -5 -5 -5h-367v-71c0 -49.333 17 -88.666 51 -117.999s75.667 -44 125 -44c63.333 0 121.333 24.333 174 73c2.66699 2 5 1.66699 7 -1l6 -6c2.66699 -2.66699 2.66699 -5 0 -7c-56 -52 -118.333 -78 -187 -78
c-54.667 0 -101 16.667 -139 50s-57 77 -57 131v164c0 58 17.667 103.833 53 137.5s83 50.5 143 50.5c59.333 0 106.833 -16.833 142.5 -50.5s53.5 -79.5 53.5 -137.5zM432 334.999c0 52.667 -16 94 -48 124s-74.667 45 -128 45c-54.667 0 -97.667 -14.833 -129 -44.5
s-47 -71.167 -47 -124.5v-74h352v74zM147 599.999h-13c-5.33301 0 -6.33301 2 -3 6l114 134c0.666992 2 2.66699 3 6 3h10c3.33301 0 5.33301 -1 6 -3l114 -134c3.33301 -4 2.33301 -6 -3 -6h-13c-3.33301 0 -5.33301 1 -6 3l-103 123l-103 -123
c-0.666992 -2 -2.66699 -3 -6 -3z" />
    <glyph glyph-name="edieresis" unicode="&#xeb;" horiz-adv-x="505" 
d="M452 335v-88.001c0 -3.33301 -1.66699 -5 -5 -5h-367v-71c0 -49.333 17 -88.666 51 -117.999s75.667 -44 125 -44c63.333 0 121.333 24.333 174 73c2.66699 2 5 1.66699 7 -1l6 -6c2.66699 -2.66699 2.66699 -5 0 -7c-56 -52 -118.333 -78 -187 -78
c-54.667 0 -101 16.667 -139 50s-57 77 -57 131v164c0 58 17.667 103.833 53 137.5s83 50.5 143 50.5c59.333 0 106.833 -16.833 142.5 -50.5s53.5 -79.5 53.5 -137.5zM432 334.999c0 52.667 -16 94 -48 124s-74.667 45 -128 45c-54.667 0 -97.667 -14.833 -129 -44.5
s-47 -71.167 -47 -124.5v-74h352v74zM192 649.999c0 -13.333 -6.66699 -20 -20 -20s-20 6.66699 -20 20s6.66699 20 20 20s20 -6.66699 20 -20zM360 649.999c0 -13.333 -6.66699 -20 -20 -20s-20 6.66699 -20 20s6.66699 20 20 20s20 -6.66699 20 -20z" />
    <glyph glyph-name="igrave" unicode="&#xec;" horiz-adv-x="178" 
d="M94 0h-10c-3.33301 0 -5 1.66699 -5 5v503c0 3.33301 1.66699 5 5 5h10c3.33301 0 5 -1.66699 5 -5v-503c0 -3.33301 -1.66699 -5 -5 -5zM109 600h-8.00098c-3.33301 0 -5.33301 1 -6 3l-89 134c-2 4 -1 6 3 6h15c2.66699 0 4.66699 -1 6 -3l83 -134
c2.66699 -4 1.33398 -6 -3.99902 -6z" />
    <glyph glyph-name="iacute" unicode="&#xed;" horiz-adv-x="178" 
d="M94 0h-10c-3.33301 0 -5 1.66699 -5 5v503c0 3.33301 1.66699 5 5 5h10c3.33301 0 5 -1.66699 5 -5v-503c0 -3.33301 -1.66699 -5 -5 -5zM84 600h-8.00098c-5.33301 0 -6.66602 2 -3.99902 6l83 134c0.666992 2 2.66699 3 6 3h15c4 0 5 -2 3 -6l-89 -134
c-1.33301 -2 -3.33301 -3 -6 -3z" />
    <glyph glyph-name="icircumflex" unicode="&#xee;" horiz-adv-x="178" 
d="M93 0h-10c-3.33301 0 -5 1.66699 -5 5v503c0 3.33301 1.66699 5 5 5h10c3.33301 0 5 -1.66699 5 -5v-503c0 -3.33301 -1.66699 -5 -5 -5zM-10 600h-12c-4.66699 0 -5.66699 2 -3 6l101 134c1.33301 2 3.33301 3 6 3h14c2.66699 0 4.66699 -1 6 -3l101 -134
c2.66699 -4 1.66699 -6 -3 -6h-12c-2.66699 0 -4.66699 1 -6 3l-93 126l-93 -126c-1.33301 -2 -3.33301 -3 -6 -3z" />
    <glyph glyph-name="idieresis" unicode="&#xef;" horiz-adv-x="178" 
d="M94 0h-10c-3.33301 0 -5 1.66699 -5 5v503c0 3.33301 1.66699 5 5 5h10c3.33301 0 5 -1.66699 5 -5v-503c0 -3.33301 -1.66699 -5 -5 -5zM47 650c0 -13.333 -6.66699 -20 -20 -20s-20 6.66699 -20 20s6.66699 20 20 20s20 -6.66699 20 -20zM171 650
c0 -13.333 -6.66699 -20 -20 -20s-20 6.66699 -20 20s6.66699 20 20 20s20 -6.66699 20 -20z" />
    <glyph glyph-name="eth" unicode="&#xf0;" horiz-adv-x="534" 
d="M450 711l-86.001 -69c66 -60 99 -159.333 99 -298v-168c0 -54 -17.5 -98.5 -52.5 -133.5s-84.833 -52.5 -149.5 -52.5c-64 0 -113.667 17.5 -149 52.5s-53 79.5 -53 133.5v139c0 53.333 17.667 97.5 53 132.5s84.333 52.5 147 52.5c90 0 151 -32.667 183 -98
c-7.33301 102.667 -38.666 178.667 -93.999 228l-115 -92c-2.66699 -1.33301 -4.66699 -1.33301 -6 0l-6 7c-2 2 -2 4.33301 0 7l113 89c-34.667 26.667 -86.667 49.667 -156 69c-3.33301 1.33301 -4.66602 3.33301 -3.99902 6l2 9
c1.33301 3.33301 3.66602 4.33301 6.99902 3c74 -19.333 129.667 -44 167 -74l89 71c2.66699 1.33301 4.66699 1 6 -1l5 -6c2 -4 2 -6.33301 0 -7zM78.999 176c0 -48.667 15.667 -88.667 47 -120s76.333 -47 135 -47s103.667 15.667 135 47s47 71.333 47 120v139
c0 49.333 -15.5 89.333 -46.5 120s-76.167 46 -135.5 46c-58.667 0 -103.667 -15.667 -135 -47s-47 -71 -47 -119v-139z" />
    <glyph glyph-name="ntilde" unicode="&#xf1;" horiz-adv-x="545" 
d="M93 0l-9.99805 0.000976562c-3.33301 0 -5 1.66699 -5 5v474c0 3.33301 1.33301 5.33301 4 6c56 25.333 116 38 180 38c66.667 0 118.167 -17 154.5 -51s54.5 -83.333 54.5 -148v-319c0 -3.33301 -1.66699 -5 -5 -5h-10c-3.33301 0 -5 1.66699 -5 5v319
c0 59.333 -16.333 104.166 -49 134.499s-79.334 45.5 -140.001 45.5c-56.667 0 -111.334 -10.667 -164.001 -32v-467c0 -3.33301 -1.66699 -5 -5 -5zM398.002 674.001c-4.66699 -13.333 -12.832 -24.833 -24.499 -34.5s-24.834 -14.5 -39.501 -14.5
c-14 0 -36.333 7.66699 -67 23c-28 15.333 -50 23 -66 23c-22.667 0 -39 -12.333 -49 -37c-1.33301 -2 -3.33301 -2.66699 -6 -2l-7 3c-2.66699 2 -3.66699 4.33301 -3 7c13.333 31.333 35.333 47 66 47c14.667 0 38 -8 70 -24c30.667 -14.667 51 -22 61 -22
c22 0 38.333 12.667 49 38c1.33301 3.33301 3.33301 4 6 2l7 -3c2.66699 -1.33301 3.66699 -3.33301 3 -6z" />
    <glyph glyph-name="ograve" unicode="&#xf2;" horiz-adv-x="530" 
d="M470 176c0 -54 -17.833 -98.5 -53.5 -133.5s-86.167 -52.5 -151.5 -52.5s-115.833 17.5 -151.5 52.5s-53.5 79.5 -53.5 133.5v162c0 53.333 18 97.5 54 132.5s86.333 52.5 151 52.5c65.333 0 115.833 -17.5 151.5 -52.5s53.5 -79.167 53.5 -132.5v-162zM80 176
c0 -48.667 16 -88.667 48 -120s77.667 -47 137 -47c60 0 105.833 15.667 137.5 47s47.5 71.333 47.5 120v162c0 48 -15.833 87.667 -47.5 119s-77.5 47 -137.5 47c-59.333 0 -105 -15.667 -137 -47s-48 -71 -48 -119v-162zM285 600h-8.00098c-3.33301 0 -5.33301 1 -6 3
l-89 134c-2 4 -1 6 3 6h15c2.66699 0 4.66699 -1 6 -3l83 -134c2.66699 -4 1.33398 -6 -3.99902 -6z" />
    <glyph glyph-name="oacute" unicode="&#xf3;" horiz-adv-x="530" 
d="M470 176c0 -54 -17.833 -98.5 -53.5 -133.5s-86.167 -52.5 -151.5 -52.5s-115.833 17.5 -151.5 52.5s-53.5 79.5 -53.5 133.5v162c0 53.333 18 97.5 54 132.5s86.333 52.5 151 52.5c65.333 0 115.833 -17.5 151.5 -52.5s53.5 -79.167 53.5 -132.5v-162zM80 176
c0 -48.667 16 -88.667 48 -120s77.667 -47 137 -47c60 0 105.833 15.667 137.5 47s47.5 71.333 47.5 120v162c0 48 -15.833 87.667 -47.5 119s-77.5 47 -137.5 47c-59.333 0 -105 -15.667 -137 -47s-48 -71 -48 -119v-162zM234 600h-8.00098
c-5.33301 0 -6.66602 2 -3.99902 6l83 134c0.666992 2 2.66699 3 6 3h15c4 0 5 -2 3 -6l-89 -134c-1.33301 -2 -3.33301 -3 -6 -3z" />
    <glyph glyph-name="ocircumflex" unicode="&#xf4;" horiz-adv-x="530" 
d="M470 176c0 -54 -17.833 -98.5 -53.5 -133.5s-86.167 -52.5 -151.5 -52.5s-115.833 17.5 -151.5 52.5s-53.5 79.5 -53.5 133.5v162c0 53.333 18 97.5 54 132.5s86.333 52.5 151 52.5c65.333 0 115.833 -17.5 151.5 -52.5s53.5 -79.167 53.5 -132.5v-162zM80 176
c0 -48.667 16 -88.667 48 -120s77.667 -47 137 -47c60 0 105.833 15.667 137.5 47s47.5 71.333 47.5 120v162c0 48 -15.833 87.667 -47.5 119s-77.5 47 -137.5 47c-59.333 0 -105 -15.667 -137 -47s-48 -71 -48 -119v-162zM156 600h-13c-5.33301 0 -6.33301 2 -3 6l114 134
c1.33301 2 3.33301 3 6 3h10c2.66699 0 4.66699 -1 6 -3l114 -134c2.66699 -4 1.66699 -6 -3 -6h-13c-2.66699 0 -4.66699 1 -6 3l-103 123l-103 -123c-1.33301 -2 -3.33301 -3 -6 -3z" />
    <glyph glyph-name="otilde" unicode="&#xf5;" horiz-adv-x="530" 
d="M470 176c0 -54 -17.833 -98.5 -53.5 -133.5s-86.167 -52.5 -151.5 -52.5s-115.833 17.5 -151.5 52.5s-53.5 79.5 -53.5 133.5v162c0 53.333 18 97.5 54 132.5s86.333 52.5 151 52.5c65.333 0 115.833 -17.5 151.5 -52.5s53.5 -79.167 53.5 -132.5v-162zM80 176
c0 -48.667 16 -88.667 48 -120s77.667 -47 137 -47c60 0 105.833 15.667 137.5 47s47.5 71.333 47.5 120v162c0 48 -15.833 87.667 -47.5 119s-77.5 47 -137.5 47c-59.333 0 -105 -15.667 -137 -47s-48 -71 -48 -119v-162zM396 674
c-4.66699 -13.333 -12.832 -24.833 -24.499 -34.5s-24.834 -14.5 -39.501 -14.5c-14 0 -36.333 7.66699 -67 23c-28 15.333 -50 23 -66 23c-22.667 0 -39 -12.333 -49 -37c-1.33301 -2 -3.33301 -2.66699 -6 -2l-7 3c-2.66699 2 -3.66699 4.33301 -3 7
c13.333 31.333 35.333 47 66 47c14.667 0 38 -8 70 -24c30.667 -14.667 51 -22 61 -22c22 0 38.333 12.667 49 38c1.33301 3.33301 3.33301 4 6 2l7 -3c2.66699 -1.33301 3.66699 -3.33301 3 -6z" />
    <glyph glyph-name="odieresis" unicode="&#xf6;" horiz-adv-x="530" 
d="M470 176c0 -54 -17.833 -98.5 -53.5 -133.5s-86.167 -52.5 -151.5 -52.5s-115.833 17.5 -151.5 52.5s-53.5 79.5 -53.5 133.5v162c0 53.333 18 97.5 54 132.5s86.333 52.5 151 52.5c65.333 0 115.833 -17.5 151.5 -52.5s53.5 -79.167 53.5 -132.5v-162zM80 176
c0 -48.667 16 -88.667 48 -120s77.667 -47 137 -47c60 0 105.833 15.667 137.5 47s47.5 71.333 47.5 120v162c0 48 -15.833 87.667 -47.5 119s-77.5 47 -137.5 47c-59.333 0 -105 -15.667 -137 -47s-48 -71 -48 -119v-162zM201 650c0 -13.333 -6.66699 -20 -20 -20
s-20 6.66699 -20 20s6.66699 20 20 20s20 -6.66699 20 -20zM369 650c0 -13.333 -6.66699 -20 -20 -20s-20 6.66699 -20 20s6.66699 20 20 20s20 -6.66699 20 -20z" />
    <glyph glyph-name="divide" unicode="&#xf7;" 
d="M475 323h-410c-3.33301 0 -5 1.66699 -5 5v10c0 3.33301 1.66699 5 5 5h410c3.33301 0 5 -1.66699 5 -5v-10c0 -3.33301 -1.66699 -5 -5 -5zM290 165c0 -13.333 -6.66699 -20 -20 -20s-20 6.66699 -20 20s6.66699 20 20 20s20 -6.66699 20 -20zM290 491
c0 -13.333 -6.66699 -20 -20 -20s-20 6.66699 -20 20s6.66699 20 20 20s20 -6.66699 20 -20z" />
    <glyph glyph-name="oslash" unicode="&#xf8;" horiz-adv-x="530" 
d="M75 -52h-9.99902c-4 0 -5 2 -3 6l54 87c-37.333 34 -56 79 -56 135v162c0 53.333 18 97.5 54 132.5s86.333 52.5 151 52.5c51.333 0 94.666 -11.667 129.999 -35l54 87c0.666992 2 2.66699 3 6 3h10c4 0 5 -2 3 -6l-59 -95c40.667 -34 61 -80.333 61 -139v-162
c0 -54 -17.833 -98.5 -53.5 -133.5s-86.167 -52.5 -151.5 -52.5c-54 0 -99 13 -135 39l-49 -78c-0.666992 -2 -2.66699 -3 -6 -3zM80.001 176c0 -48.667 15.333 -88 46 -118l259 413c-31.333 22 -71.333 33 -120 33c-59.333 0 -105 -15.667 -137 -47s-48 -71 -48 -119v-162z
M265.001 9c60 0 105.833 15.667 137.5 47s47.5 71.333 47.5 120v162c0 51.333 -17 92 -51 122l-259 -414c32 -24.667 73.667 -37 125 -37z" />
    <glyph glyph-name="ugrave" unicode="&#xf9;" horiz-adv-x="537" 
d="M444 513l10.001 0.000976562c3.33301 0 5 -1.66699 5 -5v-474c0 -3.33301 -1.33301 -5.33301 -4 -6c-54.667 -25.333 -113.334 -38 -176.001 -38c-65.333 0 -115.833 17 -151.5 51s-53.5 83.333 -53.5 148v319c0 3.33301 1.66699 5 5 5h10c3.33301 0 5 -1.66699 5 -5
v-319c0 -58.667 16 -103.334 48 -134.001s77.667 -46 137 -46c50.667 0 104 10.667 160 32v467c0 3.33301 1.66699 5 5 5zM286.001 600.001h-8.00098c-2.66699 0 -4.66699 1 -6 3l-89 134c-2 4 -1 6 3 6h15c3.33301 0 5.33301 -1 6 -3l83 -134
c2.66699 -4 1.33398 -6 -3.99902 -6z" />
    <glyph glyph-name="uacute" unicode="&#xfa;" horiz-adv-x="537" 
d="M444 513l10.001 0.000976562c3.33301 0 5 -1.66699 5 -5v-474c0 -3.33301 -1.33301 -5.33301 -4 -6c-54.667 -25.333 -113.334 -38 -176.001 -38c-65.333 0 -115.833 17 -151.5 51s-53.5 83.333 -53.5 148v319c0 3.33301 1.66699 5 5 5h10c3.33301 0 5 -1.66699 5 -5
v-319c0 -58.667 16 -103.334 48 -134.001s77.667 -46 137 -46c50.667 0 104 10.667 160 32v467c0 3.33301 1.66699 5 5 5zM240.001 600.001h-8.00098c-5.33301 0 -6.66602 2 -3.99902 6l83 134c0.666992 2 2.66699 3 6 3h15c4 0 5 -2 3 -6l-89 -134
c-1.33301 -2 -3.33301 -3 -6 -3z" />
    <glyph glyph-name="ucircumflex" unicode="&#xfb;" horiz-adv-x="537" 
d="M444 513l10.001 0.000976562c3.33301 0 5 -1.66699 5 -5v-474c0 -3.33301 -1.33301 -5.33301 -4 -6c-54.667 -25.333 -113.334 -38 -176.001 -38c-65.333 0 -115.833 17 -151.5 51s-53.5 83.333 -53.5 148v319c0 3.33301 1.66699 5 5 5h10c3.33301 0 5 -1.66699 5 -5
v-319c0 -58.667 16 -103.334 48 -134.001s77.667 -46 137 -46c50.667 0 104 10.667 160 32v467c0 3.33301 1.66699 5 5 5zM157.001 600.001h-13c-5.33301 0 -6.33301 2 -3 6l114 134c0.666992 2 2.66699 3 6 3h10c3.33301 0 5.33301 -1 6 -3l114 -134
c2.66699 -4 1.66699 -6 -3 -6h-13c-3.33301 0 -5.33301 1 -6 3l-103 123l-103 -123c-0.666992 -2 -2.66699 -3 -6 -3z" />
    <glyph glyph-name="udieresis" unicode="&#xfc;" horiz-adv-x="537" 
d="M444 513l10.001 0.000976562c3.33301 0 5 -1.66699 5 -5v-474c0 -3.33301 -1.33301 -5.33301 -4 -6c-54.667 -25.333 -113.334 -38 -176.001 -38c-65.333 0 -115.833 17 -151.5 51s-53.5 83.333 -53.5 148v319c0 3.33301 1.66699 5 5 5h10c3.33301 0 5 -1.66699 5 -5
v-319c0 -58.667 16 -103.334 48 -134.001s77.667 -46 137 -46c50.667 0 104 10.667 160 32v467c0 3.33301 1.66699 5 5 5zM202.001 650.001c0 -13.333 -6.66699 -20 -20 -20s-20 6.66699 -20 20s6.66699 20 20 20s20 -6.66699 20 -20zM370.001 650.001
c0 -13.333 -6.66699 -20 -20 -20s-20 6.66699 -20 20s6.66699 20 20 20s20 -6.66699 20 -20z" />
    <glyph glyph-name="yacute" unicode="&#xfd;" horiz-adv-x="538" 
d="M439 78v429.999c0 3.33301 1.66699 5 5 5h10c3.33301 0 5 -1.66699 5 -5v-530c0 -53.333 -15.833 -96.333 -47.5 -129s-78.834 -49 -141.501 -49c-65.333 0 -127 26.667 -185 80c-2 2.66699 -2 5 0 7l6 7c2 2.66699 4.33301 2.66699 7 0c54.667 -50 112 -75 172 -75
c57.333 0 99.833 14.333 127.5 43s41.5 67.334 41.5 116.001v80c-46.667 -25.333 -99.667 -38 -159 -38c-64.667 0 -115.167 16.167 -151.5 48.5s-54.5 79.833 -54.5 142.5v297c0 3.33301 1.66699 5 5 5h10c3.33301 0 5 -1.66699 5 -5v-297
c0 -57.333 16.333 -100.333 49 -129s78.667 -43 138 -43c56.667 0 109.334 13 158.001 39zM246 599.999h-8.00098c-5.33301 0 -6.66602 2 -3.99902 6l83 134c0.666992 2 2.66699 3 6 3h15c4 0 5 -2 3 -6l-89 -134c-1.33301 -2 -3.33301 -3 -6 -3z" />
    <glyph glyph-name="thorn" unicode="&#xfe;" horiz-adv-x="531" 
d="M99 490c52 22 107 33 165 33c65.333 0 116.166 -16.333 152.499 -49s54.5 -79.667 54.5 -141v-153c0 -61.333 -18.167 -108.333 -54.5 -141s-87.166 -49 -152.499 -49c-57.333 0 -112.333 11 -165 33v-209c0 -3.33301 -1.66699 -5 -5 -5h-10c-3.33301 0 -5 1.66699 -5 5
v896c0 3.33301 1.66699 5 5 5h10c3.33301 0 5 -1.66699 5 -5v-220zM264 9c60 0 106.167 14.832 138.5 44.499s48.5 73.167 48.5 130.5v145c0 58 -16 101.833 -48 131.5s-79 44.167 -141 43.5c-58 -1.33301 -112.333 -12.666 -163 -33.999v-427
c52.667 -22.667 107.667 -34 165 -34z" />
    <glyph glyph-name="ydieresis" unicode="&#xff;" horiz-adv-x="538" 
d="M439 78v429.999c0 3.33301 1.66699 5 5 5h10c3.33301 0 5 -1.66699 5 -5v-530c0 -53.333 -15.833 -96.333 -47.5 -129s-78.834 -49 -141.501 -49c-65.333 0 -127 26.667 -185 80c-2 2.66699 -2 5 0 7l6 7c2 2.66699 4.33301 2.66699 7 0c54.667 -50 112 -75 172 -75
c57.333 0 99.833 14.333 127.5 43s41.5 67.334 41.5 116.001v80c-46.667 -25.333 -99.667 -38 -159 -38c-64.667 0 -115.167 16.167 -151.5 48.5s-54.5 79.833 -54.5 142.5v297c0 3.33301 1.66699 5 5 5h10c3.33301 0 5 -1.66699 5 -5v-297
c0 -57.333 16.333 -100.333 49 -129s78.667 -43 138 -43c56.667 0 109.334 13 158.001 39zM207 649.999c0 -13.333 -6.66699 -20 -20 -20s-20 6.66699 -20 20s6.66699 20 20 20s20 -6.66699 20 -20zM375 649.999c0 -13.333 -6.66699 -20 -20 -20s-20 6.66699 -20 20
s6.66699 20 20 20s20 -6.66699 20 -20z" />
    <glyph glyph-name="Amacron" unicode="&#x100;" horiz-adv-x="582" 
d="M28 0h-12c-4 0 -5.33301 2 -4 6l266 705c1.33301 2.66699 3 4 5 4h16c2 0 3.66699 -1.33301 5 -4l266 -705c1.33301 -4 0 -6 -4 -6h-12c-2 -0 -3.66699 1.33301 -5 4l-86 229h-344l-86 -229c-1.33301 -2.66699 -3 -4 -5 -4zM290 687l-163 -434h328l-163 434h-2zM415 845
h-249c-3.33301 0 -5 1.66699 -5 5v10c0 3.33301 1.66699 5 5 5h249c3.33301 0 5 -1.66699 5 -5v-10c0 -3.33301 -1.66699 -5 -5 -5z" />
    <glyph glyph-name="amacron" unicode="&#x101;" horiz-adv-x="497" 
d="M67 472c47.333 34 106 51.001 176 51.001c61.333 0 107 -16.167 137 -48.5s45 -76.833 45 -133.5v-309c0 -3.33301 -1.33301 -5.33301 -4 -6c-54.667 -24 -114 -36 -178 -36c-60 0 -108.833 14.5 -146.5 43.5s-56.5 67.5 -56.5 115.5c0 49.333 17.667 87.666 53 114.999
s85.333 41 150 41c49.333 0 103.333 -7 162 -21v57c0 108.667 -54 163 -162 163c-62 0 -117 -15.333 -165 -46c-2.66699 -1.33301 -5 -1 -7 1l-4 7c-1.33301 3.33301 -1.33301 5.33301 0 6zM60 149.001c0 -42 17.001 -75.833 51.001 -101.5s78 -38.5 132 -38.5
c56 0 110 10 162 30v227c-54.667 13.333 -108.667 20 -162 20c-58.667 0 -103.834 -11.833 -135.501 -35.5s-47.5 -57.5 -47.5 -101.5zM129.001 659.001v8c0 3.33301 1.66699 5 5 5h230c3.33301 0 5 -1.66699 5 -5v-8c0 -3.33301 -1.66699 -5 -5 -5h-230
c-3.33301 0 -5 1.66699 -5 5z" />
    <glyph glyph-name="Abreve" unicode="&#x102;" horiz-adv-x="582" 
d="M28 0h-12c-4 0 -5.33301 2 -4 6l266 705c1.33301 2.66699 3 4 5 4h16c2 0 3.66699 -1.33301 5 -4l266 -705c1.33301 -4 0 -6 -4 -6h-12c-2 -0 -3.66699 1.33301 -5 4l-86 229h-344l-86 -229c-1.33301 -2.66699 -3 -4 -5 -4zM290 687l-163 -434h328l-163 434h-2zM440 931
c-5.33301 -42 -21.166 -76.333 -47.499 -103s-60.166 -40 -101.499 -40s-75.166 13.333 -101.499 40s-41.833 61 -46.5 103c-0.666992 2.66699 0.666016 4.66699 3.99902 6l9 2c2.66699 0.666992 4.66699 -0.666016 6 -3.99902c4 -38.667 17.167 -69.667 39.5 -93
s52.166 -35 89.499 -35s67.166 11.667 89.499 35s35.5 54.333 39.5 93c1.33301 3.33301 3.33301 4.66602 6 3.99902l9 -2c3.33301 -1.33301 5 -3.33301 5 -6z" />
    <glyph glyph-name="abreve" unicode="&#x103;" horiz-adv-x="497" 
d="M67 472c47.333 34 106 51.001 176 51.001c61.333 0 107 -16.167 137 -48.5s45 -76.833 45 -133.5v-309c0 -3.33301 -1.33301 -5.33301 -4 -6c-54.667 -24 -114 -36 -178 -36c-60 0 -108.833 14.5 -146.5 43.5s-56.5 67.5 -56.5 115.5c0 49.333 17.667 87.666 53 114.999
s85.333 41 150 41c49.333 0 103.333 -7 162 -21v57c0 108.667 -54 163 -162 163c-62 0 -117 -15.333 -165 -46c-2.66699 -1.33301 -5 -1 -7 1l-4 7c-1.33301 3.33301 -1.33301 5.33301 0 6zM60 149.001c0 -42 17.001 -75.833 51.001 -101.5s78 -38.5 132 -38.5
c56 0 110 10 162 30v227c-54.667 13.333 -108.667 20 -162 20c-58.667 0 -103.834 -11.833 -135.501 -35.5s-47.5 -57.5 -47.5 -101.5zM386.001 736.001c-4.66699 -40 -19.6689 -72.832 -45.002 -98.499s-57.666 -38.5 -96.999 -38.5s-71.666 12.833 -96.999 38.5
s-40.333 58.5 -45 98.5c-1.33301 3.33301 0 5.33301 4 6l10 1c3.33301 0 5.33301 -1.33301 6 -4c4.66699 -36.667 17.5 -66 38.5 -88s48.833 -33 83.5 -33s62.5 11 83.5 33s33.833 51.333 38.5 88c1.33301 3.33301 3.33301 4.66602 6 3.99902l10 -1c4 0 5.33301 -2 4 -6z
" />
    <glyph glyph-name="Aogonek" unicode="&#x104;" horiz-adv-x="582" 
d="M594 -180c-22 -12 -45.999 -18.002 -71.999 -18.002c-20 0 -36.5 6.16699 -49.5 18.5s-19.5 28.5 -19.5 48.5c0 24.667 9.5 49.834 28.5 75.501s41.167 45.834 66.5 60.501l-11 29l-74 199h-344l-86 -229c-1.33301 -2.66699 -3 -4 -5 -4h-12c-4 0 -5.33301 2 -4 6
l266 705c1.33301 2.66699 3 4 5 4h16c2 0 3.66699 -1.33301 5 -4l266 -707c1.33301 -3.33301 0.666016 -5.33301 -2.00098 -6c-30 -18.667 -53.167 -39.5 -69.5 -62.5s-24.5 -43.5 -24.5 -61.5c0 -34.667 16 -52 48 -52c24.667 0 45.334 5 62.001 15
c3.33301 2 5.66602 1.33301 6.99902 -2l4 -9c1.33301 -2.66699 1 -4.66699 -1 -6zM290.001 686.998l-163 -434h328l-163 434h-2z" />
    <glyph glyph-name="aogonek" unicode="&#x105;" horiz-adv-x="498" 
d="M426 341l0.00195312 -308.997c0 -3.33301 -1.33301 -5.33301 -4 -6c-30 -13.333 -57.333 -35.333 -82 -66s-37 -59.334 -37 -86.001c0 -35.333 17 -53 51 -53c24 0 43.333 5 58 15c3.33301 2 5.66602 1.33301 6.99902 -2l5 -8c1.33301 -2.66699 0.333008 -5 -3 -7
c-18 -11.333 -40.667 -17 -68 -17c-21.333 0 -38.333 6.16699 -51 18.5s-19 30.166 -19 53.499c0 21.333 7.66699 44.5 23 69.5s35.666 46.833 60.999 65.5c-41.333 -12.667 -82.333 -19 -123 -19c-60 0 -108.833 14.5 -146.5 43.5s-56.5 67.5 -56.5 115.5
c0 49.333 17.667 87.666 53 114.999s85.333 41 150 41c48 0 102 -7 162 -21v57c0 108.667 -54 163 -162 163c-63.333 0 -119.666 -15.333 -168.999 -46c-2.66699 -1.33301 -5 -1 -7 1l-4 7c-2.66699 2.66699 -2.33398 5 0.999023 7c49.333 33.333 109.666 50 180.999 50
c60.667 0 105.834 -16.167 135.501 -48.5s44.5 -76.833 44.5 -133.5zM61.002 149.003c0 -42 17.001 -75.833 51.001 -101.5s78 -38.5 132 -38.5c60.667 0 114.667 9.66699 162 29v228c-54.667 13.333 -108.667 20 -162 20c-58.667 0 -103.834 -11.833 -135.501 -35.5
s-47.5 -57.5 -47.5 -101.5z" />
    <glyph glyph-name="Cacute" unicode="&#x106;" horiz-adv-x="573" 
d="M536 74c-62 -56 -136.331 -84 -222.998 -84c-76 0 -134.667 21.833 -176 65.5s-62 100.167 -62 169.5v265c0 69.333 20.5 125.833 61.5 169.5s98.833 65.5 173.5 65.5c80 0 150.333 -25 211 -75c3.33301 -2 3.66602 -4.33301 0.999023 -7l-6 -8
c-2 -2 -4.33301 -2.33301 -7 -1c-58.667 47.333 -125.334 71 -200.001 71c-68.667 0 -121.334 -19.833 -158.001 -59.5s-55 -91.5 -55 -155.5v-265c0 -64 18.667 -115.833 56 -155.5s90.666 -59.5 159.999 -59.5c80.667 0 151.334 26.667 212.001 80
c2.66699 2.66699 5 2.66699 7 0l6 -9c2.66699 -2.66699 2.33398 -5 -0.999023 -7zM421.002 927l-115 -134c-1.33301 -2 -3.33301 -3 -6 -3h-10c-4.66699 0 -5.66699 2 -3 6l108 134c0.666992 2 2.66699 3 6 3h17c4.66699 0 5.66699 -2 3 -6z" />
    <glyph glyph-name="cacute" unicode="&#x107;" horiz-adv-x="462" 
d="M429 53c-52 -42 -109.998 -63 -173.998 -63c-59.333 0 -106.666 17.5 -141.999 52.5s-53 78.5 -53 130.5v167c0 52 17.667 95.5 53 130.5s82.666 52.5 141.999 52.5c58 0 111.333 -18 160 -54c3.33301 -2 3.66602 -4.33301 0.999023 -7l-5 -7
c-2 -2 -4.33301 -2.33301 -7 -1c-46 33.333 -96 50 -150 50c-54.667 0 -97.334 -15.667 -128.001 -47s-46 -70.333 -46 -117v-167c0 -46.667 15.667 -85.667 47 -117s73.666 -47 126.999 -47c58 0 112.667 19.667 164 59c2.66699 1.33301 5 1 7 -1l5 -7
c2.66699 -2.66699 2.33398 -5 -0.999023 -7zM223.002 600h-8c-6 0 -7.33301 2 -4 6l83 134c1.33301 2 3.33301 3 6 3h15c4 0 5 -2 3 -6l-89 -134c-0.666992 -2 -2.66699 -3 -6 -3z" />
    <glyph glyph-name="Cdotaccent" unicode="&#x10a;" horiz-adv-x="573" 
d="M536 74c-62 -56 -136.331 -84 -222.998 -84c-76 0 -134.667 21.833 -176 65.5s-62 100.167 -62 169.5v265c0 69.333 20.5 125.833 61.5 169.5s98.833 65.5 173.5 65.5c80 0 150.333 -25 211 -75c3.33301 -2 3.66602 -4.33301 0.999023 -7l-6 -8
c-2 -2 -4.33301 -2.33301 -7 -1c-58.667 47.333 -125.334 71 -200.001 71c-68.667 0 -121.334 -19.833 -158.001 -59.5s-55 -91.5 -55 -155.5v-265c0 -64 18.667 -115.833 56 -155.5s90.666 -59.5 159.999 -59.5c80.667 0 151.334 26.667 212.001 80
c2.66699 2.66699 5 2.66699 7 0l6 -9c2.66699 -2.66699 2.33398 -5 -0.999023 -7zM337.002 859c0 -14.667 -7.33301 -22 -22 -22s-22 7.33301 -22 22s7.33301 22 22 22s22 -7.33301 22 -22z" />
    <glyph glyph-name="cdotaccent" unicode="&#x10b;" horiz-adv-x="462" 
d="M429 53c-52 -42 -109.998 -63 -173.998 -63c-59.333 0 -106.666 17.5 -141.999 52.5s-53 78.5 -53 130.5v167c0 52 17.667 95.5 53 130.5s82.666 52.5 141.999 52.5c58 0 111.333 -18 160 -54c3.33301 -2 3.66602 -4.33301 0.999023 -7l-5 -7
c-2 -2 -4.33301 -2.33301 -7 -1c-46 33.333 -96 50 -150 50c-54.667 0 -97.334 -15.667 -128.001 -47s-46 -70.333 -46 -117v-167c0 -46.667 15.667 -85.667 47 -117s73.666 -47 126.999 -47c58 0 112.667 19.667 164 59c2.66699 1.33301 5 1 7 -1l5 -7
c2.66699 -2.66699 2.33398 -5 -0.999023 -7zM272.002 650c0 -14.667 -7.33301 -22 -22 -22s-22 7.33301 -22 22s7.33301 22 22 22s22 -7.33301 22 -22z" />
    <glyph glyph-name="Ccaron" unicode="&#x10c;" horiz-adv-x="573" 
d="M536 74c-62 -56 -136.331 -84 -222.998 -84c-76 0 -134.667 21.833 -176 65.5s-62 100.167 -62 169.5v265c0 69.333 20.5 125.833 61.5 169.5s98.833 65.5 173.5 65.5c80 0 150.333 -25 211 -75c3.33301 -2 3.66602 -4.33301 0.999023 -7l-6 -8
c-2 -2 -4.33301 -2.33301 -7 -1c-58.667 47.333 -125.334 71 -200.001 71c-68.667 0 -121.334 -19.833 -158.001 -59.5s-55 -91.5 -55 -155.5v-265c0 -64 18.667 -115.833 56 -155.5s90.666 -59.5 159.999 -59.5c80.667 0 151.334 26.667 212.001 80
c2.66699 2.66699 5 2.66699 7 0l6 -9c2.66699 -2.66699 2.33398 -5 -0.999023 -7zM173.002 933h12c2.66699 0 5 -1 7 -3l123 -121l123 121c2 2 4.33301 3 7 3h12c6 0 7 -2 3 -6l-131 -134c-2 -2 -4.33301 -3 -7 -3h-14c-2.66699 0 -5 1 -7 3l-131 134c-4 4 -3 6 3 6z" />
    <glyph glyph-name="ccaron" unicode="&#x10d;" horiz-adv-x="462" 
d="M429 53c-52 -42 -109.998 -63 -173.998 -63c-59.333 0 -106.666 17.5 -141.999 52.5s-53 78.5 -53 130.5v167c0 52 17.667 95.5 53 130.5s82.666 52.5 141.999 52.5c58 0 111.333 -18 160 -54c3.33301 -2 3.66602 -4.33301 0.999023 -7l-5 -7
c-2 -2 -4.33301 -2.33301 -7 -1c-46 33.333 -96 50 -150 50c-54.667 0 -97.334 -15.667 -128.001 -47s-46 -70.333 -46 -117v-167c0 -46.667 15.667 -85.667 47 -117s73.666 -47 126.999 -47c58 0 112.667 19.667 164 59c2.66699 1.33301 5 1 7 -1l5 -7
c2.66699 -2.66699 2.33398 -5 -0.999023 -7zM132.002 743h13c3.33301 0 5.33301 -1 6 -3l103 -123l103 123c0.666992 2 2.66699 3 6 3h13c5.33301 0 6.33301 -2 3 -6l-114 -134c-0.666992 -2 -2.66699 -3 -6 -3h-10c-3.33301 0 -5.33301 1 -6 3l-114 134
c-3.33301 4 -2.33301 6 3 6z" />
    <glyph glyph-name="Dcaron" unicode="&#x10e;" horiz-adv-x="657" 
d="M340 0h-235c-3.33301 0 -5 1.66699 -5 5v705c0 3.33301 1.66699 5 5 5h235c74 0 132.833 -22.167 176.5 -66.5s65.5 -104.5 65.5 -180.5v-224c0 -76 -21.833 -135.667 -65.5 -179s-102.5 -65 -176.5 -65zM121 695v-675h219c68.667 0 122.667 19.667 162 59
s59 94.333 59 165v224c0 71.333 -19.667 127 -59 167s-93.333 60 -162 60h-219zM177 933h12c2.66699 0 5 -1 7 -3l123 -121l123 121c2 2 4.33301 3 7 3h12c6 0 7 -2 3 -6l-131 -134c-2 -2 -4.33301 -3 -7 -3h-14c-2.66699 0 -5 1 -7 3l-131 134c-4 4 -3 6 3 6z" />
    <glyph glyph-name="dcaron" unicode="&#x10f;" horiz-adv-x="549" 
d="M268 523c60.667 0 115 -16.333 163 -49v236c0 3.33301 1.66699 5 5 5h10c3.33301 0 5 -1.66699 5 -5v-679c0 -3.33301 -1.33301 -5.33301 -4 -6c-56 -23.333 -115.667 -35 -179 -35c-139.333 0 -209 71 -209 213v105c0 143.333 69.667 215 209 215zM507 568l37.999 143
c0.666992 2.66699 2.33398 4 5.00098 4h12c4 0 5.33301 -2 4 -6l-42 -143c-1.33301 -2.66699 -3 -4 -5 -4h-7c-4 0 -5.66699 2 -5 6zM78.999 203c0 -129.333 63 -194 189 -194c55.333 0 109.666 10 162.999 30v414c-51.333 34 -105.666 51 -162.999 51
c-126 0 -189 -65.333 -189 -196v-105z" />
    <glyph glyph-name="Dcroat" unicode="&#x110;" horiz-adv-x="683" 
d="M131 715h235c74 0 132.833 -22.167 176.5 -66.5s65.5 -104.5 65.5 -180.5v-224c0 -76 -21.833 -135.667 -65.5 -179s-102.5 -65 -176.5 -65h-235c-3.33301 0 -5 1.66699 -5 5v361h-106c-3.33301 0 -5 1.66699 -5 5v10c0 3.33301 1.66699 5 5 5h106v324
c0 3.33301 1.66699 5 5 5zM366 20c68.667 0 122.667 19.667 162 59s59 94.333 59 165v224c0 71.333 -19.667 127 -59 167s-93.333 60 -162 60h-219v-309h207c3.33301 0 5 -1.66699 5 -5v-10c0 -3.33301 -1.66699 -5 -5 -5h-207v-346h219z" />
    <glyph glyph-name="dcroat" unicode="&#x111;" horiz-adv-x="529" 
d="M451 627h78c3.33301 0 5 -1.66699 5 -5v-9c0 -3.33301 -1.66699 -5 -5 -5h-78v-577c0 -3.33301 -1.33301 -5.33301 -4 -6c-56 -23.333 -115.667 -35 -179 -35c-139.333 0 -209 71 -209 213v105c0 143.333 69.667 215 209 215c60.667 0 115 -16.333 163 -49v134h-187
c-3.33301 0 -5 1.66699 -5 5v9c0 3.33301 1.66699 5 5 5h187v83c0 3.33301 1.66699 5 5 5h10c3.33301 0 5 -1.66699 5 -5v-83zM79 203c0 -129.333 63 -194 189 -194c55.333 0 109.666 10 162.999 30v414c-51.333 34 -105.666 51 -162.999 51c-126 0 -189 -65.333 -189 -196
v-105z" />
    <glyph glyph-name="Emacron" unicode="&#x112;" horiz-adv-x="559" 
d="M121 355v-335h386c3.33301 0 5 -1.66699 5 -5v-10c0 -3.33301 -1.66699 -5 -5 -5h-402c-3.33301 0 -5 1.66699 -5 5v705c0 3.33301 1.66699 5 5 5h387c3.33301 0 5 -1.66699 5 -5v-10c0 -3.33301 -1.66699 -5 -5 -5h-371v-320h351c3.33301 0 5 -1.66699 5 -5v-10
c0 -3.33301 -1.66699 -5 -5 -5h-351zM423 845h-249c-3.33301 0 -5 1.66699 -5 5v10c0 3.33301 1.66699 5 5 5h249c3.33301 0 5 -1.66699 5 -5v-10c0 -3.33301 -1.66699 -5 -5 -5z" />
    <glyph glyph-name="emacron" unicode="&#x113;" horiz-adv-x="505" 
d="M452 335v-88.001c0 -3.33301 -1.66699 -5 -5 -5h-367v-71c0 -49.333 17 -88.666 51 -117.999s75.667 -44 125 -44c63.333 0 121.333 24.333 174 73c2.66699 2 5 1.66699 7 -1l6 -6c2.66699 -2.66699 2.66699 -5 0 -7c-56 -52 -118.333 -78 -187 -78
c-54.667 0 -101 16.667 -139 50s-57 77 -57 131v164c0 58 17.667 103.833 53 137.5s83 50.5 143 50.5c59.333 0 106.833 -16.833 142.5 -50.5s53.5 -79.5 53.5 -137.5zM432 334.999c0 52.667 -16 94 -48 124s-74.667 45 -128 45c-54.667 0 -97.667 -14.833 -129 -44.5
s-47 -71.167 -47 -124.5v-74h352v74zM136 658.999v8c0 3.33301 1.66699 5 5 5h230c3.33301 0 5 -1.66699 5 -5v-8c0 -3.33301 -1.66699 -5 -5 -5h-230c-3.33301 0 -5 1.66699 -5 5z" />
    <glyph glyph-name="Edotaccent" unicode="&#x116;" horiz-adv-x="559" 
d="M121 355v-335h386c3.33301 0 5 -1.66699 5 -5v-10c0 -3.33301 -1.66699 -5 -5 -5h-402c-3.33301 0 -5 1.66699 -5 5v705c0 3.33301 1.66699 5 5 5h387c3.33301 0 5 -1.66699 5 -5v-10c0 -3.33301 -1.66699 -5 -5 -5h-371v-320h351c3.33301 0 5 -1.66699 5 -5v-10
c0 -3.33301 -1.66699 -5 -5 -5h-351zM321 859c0 -14.667 -7.33301 -22 -22 -22s-22 7.33301 -22 22s7.33301 22 22 22s22 -7.33301 22 -22z" />
    <glyph glyph-name="edotaccent" unicode="&#x117;" horiz-adv-x="505" 
d="M452 335v-88.001c0 -3.33301 -1.66699 -5 -5 -5h-367v-71c0 -49.333 17 -88.666 51 -117.999s75.667 -44 125 -44c63.333 0 121.333 24.333 174 73c2.66699 2 5 1.66699 7 -1l6 -6c2.66699 -2.66699 2.66699 -5 0 -7c-56 -52 -118.333 -78 -187 -78
c-54.667 0 -101 16.667 -139 50s-57 77 -57 131v164c0 58 17.667 103.833 53 137.5s83 50.5 143 50.5c59.333 0 106.833 -16.833 142.5 -50.5s53.5 -79.5 53.5 -137.5zM432 334.999c0 52.667 -16 94 -48 124s-74.667 45 -128 45c-54.667 0 -97.667 -14.833 -129 -44.5
s-47 -71.167 -47 -124.5v-74h352v74zM278 649.999c0 -14.667 -7.33301 -22 -22 -22s-22 7.33301 -22 22s7.33301 22 22 22s22 -7.33301 22 -22z" />
    <glyph glyph-name="Eogonek" unicode="&#x118;" horiz-adv-x="559" 
d="M467 -179c17.333 0 36.334 5.33691 57.001 16.0039c3.33301 2 5.66602 1.33301 6.99902 -2l4 -9c0.666992 -2.66699 0 -4.66699 -2 -6c-18.667 -12 -41.334 -18 -68.001 -18c-22 0 -39.333 6 -52 18s-19 28.333 -19 49c0 25.333 9 50.166 27 74.499
s39.667 43.166 65 56.499h-381c-3.33301 0 -5 1.66699 -5 5v705c0 3.33301 1.66699 5 5 5h387c3.33301 0 5 -1.66699 5 -5v-10c0 -3.33301 -1.66699 -5 -5 -5h-371v-320h351c3.33301 0 5 -1.66699 5 -5v-10c0 -3.33301 -1.66699 -5 -5 -5h-351v-335h386
c3.33301 0 5 -1.66699 5 -5v-11c0 -2.66699 -1 -4.66699 -3 -6c-18 -12 -32.167 -22.333 -42.5 -31s-21.666 -22.334 -33.999 -41.001s-18.5 -37.334 -18.5 -56.001c0 -32.667 17.667 -49 53 -49z" />
    <glyph glyph-name="eogonek" unicode="&#x119;" horiz-adv-x="505" 
d="M396 -180c-19.333 -12 -42.665 -17.998 -69.998 -17.998c-22 0 -39.333 6.16699 -52 18.5s-19 30.166 -19 53.499c0 44 25.333 87 76 129c-22 -8.66699 -47 -13 -75 -13c-54 0 -100.167 16.667 -138.5 50s-57.5 77 -57.5 131v164c0 58 17.667 103.833 53 137.5
s83 50.5 143 50.5c59.333 0 106.833 -16.833 142.5 -50.5s53.5 -79.5 53.5 -137.5v-88c0 -3.33301 -1.66699 -5 -5 -5h-367v-71c0 -48.667 17.167 -87.834 51.5 -117.501s75.833 -44.5 124.5 -44.5c63.333 0 121.333 24.333 174 73c2.66699 2 5 1.66699 7 -1l6 -6
c2 -2 2 -4.33301 0 -7c-10 -10 -29 -24.333 -57 -43c-36.667 -24 -64.334 -49.5 -83.001 -76.5s-28 -51.833 -28 -74.5c0 -35.333 17 -53 51 -53c24.667 0 44.667 5 60 15c3.33301 2 5.66602 1.33301 6.99902 -2l4 -8c1.33301 -2.66699 1 -4.66699 -1 -6zM80.001 335.002
v-74h352v74c0 52.667 -16 94 -48 124s-74.667 45 -128 45c-54.667 0 -97.667 -14.833 -129 -44.5s-47 -71.167 -47 -124.5z" />
    <glyph glyph-name="Ecaron" unicode="&#x11a;" horiz-adv-x="559" 
d="M121 355v-335h386c3.33301 0 5 -1.66699 5 -5v-10c0 -3.33301 -1.66699 -5 -5 -5h-402c-3.33301 0 -5 1.66699 -5 5v705c0 3.33301 1.66699 5 5 5h387c3.33301 0 5 -1.66699 5 -5v-10c0 -3.33301 -1.66699 -5 -5 -5h-371v-320h351c3.33301 0 5 -1.66699 5 -5v-10
c0 -3.33301 -1.66699 -5 -5 -5h-351zM157 933h12c2.66699 0 5 -1 7 -3l123 -121l123 121c2 2 4.33301 3 7 3h12c6 0 7 -2 3 -6l-131 -134c-2 -2 -4.33301 -3 -7 -3h-14c-2.66699 0 -5 1 -7 3l-131 134c-4 4 -3 6 3 6z" />
    <glyph glyph-name="ecaron" unicode="&#x11b;" horiz-adv-x="505" 
d="M452 335v-88.001c0 -3.33301 -1.66699 -5 -5 -5h-367v-71c0 -49.333 17 -88.666 51 -117.999s75.667 -44 125 -44c63.333 0 121.333 24.333 174 73c2.66699 2 5 1.66699 7 -1l6 -6c2.66699 -2.66699 2.66699 -5 0 -7c-56 -52 -118.333 -78 -187 -78
c-54.667 0 -101 16.667 -139 50s-57 77 -57 131v164c0 58 17.667 103.833 53 137.5s83 50.5 143 50.5c59.333 0 106.833 -16.833 142.5 -50.5s53.5 -79.5 53.5 -137.5zM432 334.999c0 52.667 -16 94 -48 124s-74.667 45 -128 45c-54.667 0 -97.667 -14.833 -129 -44.5
s-47 -71.167 -47 -124.5v-74h352v74zM134 742.999h13c3.33301 0 5.33301 -1 6 -3l103 -123l103 123c0.666992 2 2.66699 3 6 3h13c5.33301 0 6.33301 -2 3 -6l-114 -134c-0.666992 -2 -2.66699 -3 -6 -3h-10c-3.33301 0 -5.33301 1 -6 3l-114 134c-3.33301 4 -2.33301 6 3 6
z" />
    <glyph glyph-name="Gbreve" unicode="&#x11e;" horiz-adv-x="633" 
d="M561 85c-66 -63.333 -146.33 -94.999 -240.997 -94.999c-78 0 -138.333 21.833 -181 65.5s-64 100.5 -64 170.5v264c0 70 21.167 126.667 63.5 170s102.166 65 179.499 65c88 0 164 -26.667 228 -80c3.33301 -2 3.66602 -4.33301 0.999023 -7l-6 -8
c-2 -2 -4.33301 -2.33301 -7 -1c-61.333 50.667 -133.333 76 -216 76c-72 0 -127 -19.667 -165 -59s-57 -91.333 -57 -156v-264c0 -64.667 19.167 -116.834 57.5 -156.501s93.833 -59.5 166.5 -59.5c85.333 0 159.666 28.667 222.999 86v248h-221
c-3.33301 0 -5 1.66699 -5 5v10c0 3.33301 1.66699 5 5 5h237c3.33301 0 5 -1.66699 5 -5v-267c0 -2.66699 -1 -5 -3 -7zM466.003 931.001c-5.33301 -42 -21.166 -76.333 -47.499 -103s-60.166 -40 -101.499 -40s-75.166 13.333 -101.499 40s-41.833 61 -46.5 103
c-0.666992 2.66699 0.666016 4.66699 3.99902 6l9 2c2.66699 0.666992 4.66699 -0.666016 6 -3.99902c4 -38.667 17.167 -69.667 39.5 -93s52.166 -35 89.499 -35s67.166 11.667 89.499 35s35.5 54.333 39.5 93c1.33301 3.33301 3.33301 4.66602 6 3.99902l9 -2
c3.33301 -1.33301 5 -3.33301 5 -6z" />
    <glyph glyph-name="gbreve" unicode="&#x11f;" horiz-adv-x="527" 
d="M449 -22c0 -53.333 -16.167 -96.333 -48.5 -129s-80.166 -49 -143.499 -49c-68.667 0 -131 27.333 -187 82c-2 2 -2 4.33301 0 7l5 7c2 2.66699 4.33301 2.66699 7 0c53.333 -51.333 111.666 -77 174.999 -77c58 0 101.167 14.333 129.5 43s42.5 67.334 42.5 116.001v81
c-50.667 -26 -104 -39 -160 -39c-67.333 0 -119.166 16.667 -155.499 50s-54.5 82.333 -54.5 147v111c0 65.333 18.333 114.166 55 146.499s87.667 48.5 153 48.5s124.666 -11.667 177.999 -35c2.66699 -0.666992 4 -2.66699 4 -6v-504zM79 217
c0 -118.667 63.333 -178 190 -178c54.667 0 108 13.333 160 40v396c-52 19.333 -106.667 29 -164 29c-60 0 -106 -14.833 -138 -44.5s-48 -73.5 -48 -131.5v-111zM407 736c-4.66699 -40 -19.6689 -72.832 -45.002 -98.499s-57.666 -38.5 -96.999 -38.5
s-71.666 12.833 -96.999 38.5s-40.333 58.5 -45 98.5c-1.33301 3.33301 0 5.33301 4 6l10 1c3.33301 0 5.33301 -1.33301 6 -4c4.66699 -36.667 17.5 -66 38.5 -88s48.833 -33 83.5 -33s62.5 11 83.5 33s33.833 51.333 38.5 88c1.33301 3.33301 3.33301 4.66602 6 3.99902
l10 -1c4 0 5.33301 -2 4 -6z" />
    <glyph glyph-name="Gdotaccent" unicode="&#x120;" horiz-adv-x="633" 
d="M561 85c-66 -63.333 -146.33 -94.999 -240.997 -94.999c-78 0 -138.333 21.833 -181 65.5s-64 100.5 -64 170.5v264c0 70 21.167 126.667 63.5 170s102.166 65 179.499 65c88 0 164 -26.667 228 -80c3.33301 -2 3.66602 -4.33301 0.999023 -7l-6 -8
c-2 -2 -4.33301 -2.33301 -7 -1c-61.333 50.667 -133.333 76 -216 76c-72 0 -127 -19.667 -165 -59s-57 -91.333 -57 -156v-264c0 -64.667 19.167 -116.834 57.5 -156.501s93.833 -59.5 166.5 -59.5c85.333 0 159.666 28.667 222.999 86v248h-221
c-3.33301 0 -5 1.66699 -5 5v10c0 3.33301 1.66699 5 5 5h237c3.33301 0 5 -1.66699 5 -5v-267c0 -2.66699 -1 -5 -3 -7zM339.003 859.001c0 -14.667 -7.33301 -22 -22 -22s-22 7.33301 -22 22s7.33301 22 22 22s22 -7.33301 22 -22z" />
    <glyph glyph-name="gdotaccent" unicode="&#x121;" horiz-adv-x="527" 
d="M449 -22c0 -53.333 -16.167 -96.333 -48.5 -129s-80.166 -49 -143.499 -49c-68.667 0 -131 27.333 -187 82c-2 2 -2 4.33301 0 7l5 7c2 2.66699 4.33301 2.66699 7 0c53.333 -51.333 111.666 -77 174.999 -77c58 0 101.167 14.333 129.5 43s42.5 67.334 42.5 116.001v81
c-50.667 -26 -104 -39 -160 -39c-67.333 0 -119.166 16.667 -155.499 50s-54.5 82.333 -54.5 147v111c0 65.333 18.333 114.166 55 146.499s87.667 48.5 153 48.5s124.666 -11.667 177.999 -35c2.66699 -0.666992 4 -2.66699 4 -6v-504zM79 217
c0 -118.667 63.333 -178 190 -178c54.667 0 108 13.333 160 40v396c-52 19.333 -106.667 29 -164 29c-60 0 -106 -14.833 -138 -44.5s-48 -73.5 -48 -131.5v-111zM280 650c0 -14.667 -7.33301 -22 -22 -22s-22 7.33301 -22 22s7.33301 22 22 22s22 -7.33301 22 -22z" />
    <glyph glyph-name="uni0122" unicode="&#x122;" horiz-adv-x="633" 
d="M561 85c-66 -63.333 -146.33 -94.999 -240.997 -94.999c-78 0 -138.333 21.833 -181 65.5s-64 100.5 -64 170.5v264c0 70 21.167 126.667 63.5 170s102.166 65 179.499 65c88 0 164 -26.667 228 -80c3.33301 -2 3.66602 -4.33301 0.999023 -7l-6 -8
c-2 -2 -4.33301 -2.33301 -7 -1c-61.333 50.667 -133.333 76 -216 76c-72 0 -127 -19.667 -165 -59s-57 -91.333 -57 -156v-264c0 -64.667 19.167 -116.834 57.5 -156.501s93.833 -59.5 166.5 -59.5c85.333 0 159.666 28.667 222.999 86v248h-221
c-3.33301 0 -5 1.66699 -5 5v10c0 3.33301 1.66699 5 5 5h237c3.33301 0 5 -1.66699 5 -5v-267c0 -2.66699 -1 -5 -3 -7zM298.003 -226.999h-8c-4 0 -5.66699 2 -5 6l38 144c1.33301 2.66699 3 4 5 4h14c4 0 5.33301 -2 4 -6l-43 -144c-1.33301 -2.66699 -3 -4 -5 -4z" />
    <glyph glyph-name="uni0123" unicode="&#x123;" horiz-adv-x="527" 
d="M449 -22c0 -53.333 -16.167 -96.333 -48.5 -129s-80.166 -49 -143.499 -49c-68.667 0 -131 27.333 -187 82c-2 2 -2 4.33301 0 7l5 7c2 2.66699 4.33301 2.66699 7 0c53.333 -51.333 111.666 -77 174.999 -77c58 0 101.167 14.333 129.5 43s42.5 67.334 42.5 116.001v81
c-50.667 -26 -104 -39 -160 -39c-67.333 0 -119.166 16.667 -155.499 50s-54.5 82.333 -54.5 147v111c0 65.333 18.333 114.166 55 146.499s87.667 48.5 153 48.5s124.666 -11.667 177.999 -35c2.66699 -0.666992 4 -2.66699 4 -6v-504zM79 217
c0 -118.667 63.333 -178 190 -178c54.667 0 108 13.333 160 40v396c-52 19.333 -106.667 29 -164 29c-60 0 -106 -14.833 -138 -44.5s-48 -73.5 -48 -131.5v-111zM250 600h-13c-3.33301 0 -4.66602 2 -3.99902 6l46 144c1.33301 2.66699 3 4 5 4h7
c3.33301 0 4.66602 -2 3.99902 -6l-40 -144c-1.33301 -2.66699 -3 -4 -5 -4z" />
    <glyph glyph-name="Hbar" unicode="&#x126;" horiz-adv-x="675" 
d="M573 585h72c3.33301 0 5 -1.66699 5 -5v-10c0 -3.33301 -1.66699 -5 -5 -5h-72v-560c0 -3.33301 -1.66699 -5 -5 -5h-11c-3.33301 0 -5 1.66699 -5 5v350h-430v-350c0 -3.33301 -1.66699 -5 -5 -5h-11c-3.33301 0 -5 1.66699 -5 5v560h-71c-3.33301 0 -5 1.66699 -5 5v10
c0 3.33301 1.66699 5 5 5h71v125c0 3.33301 1.66699 5 5 5h11c3.33301 0 5 -1.66699 5 -5v-125h430v125c0 3.33301 1.66699 5 5 5h11c3.33301 0 5 -1.66699 5 -5v-125zM122 375h430v190h-430v-190z" />
    <glyph glyph-name="hbar" unicode="&#x127;" horiz-adv-x="546" 
d="M99 482c54.667 27.333 109.333 41 164 41c66.667 0 118.167 -16.833 154.5 -50.5s54.5 -83.167 54.5 -148.5v-319c0 -3.33301 -1.66699 -5 -5 -5h-10c-3.33301 0 -5 1.66699 -5 5v319c0 120 -63 180 -189 180c-55.333 0 -110 -14 -164 -42v-457
c0 -3.33301 -1.66699 -5 -5 -5h-10c-3.33301 0 -5 1.66699 -5 5v603h-78c-3.33301 0 -5 1.66699 -5 5v9c0 3.33301 1.66699 5 5 5h78v83c0 3.33301 1.66699 5 5 5h10c3.33301 0 5 -1.66699 5 -5v-83h187c3.33301 0 5 -1.66699 5 -5v-9c0 -3.33301 -1.66699 -5 -5 -5h-187
v-126z" />
    <glyph glyph-name="Imacron" unicode="&#x12a;" horiz-adv-x="221" 
d="M-9 858v10c0 3.33301 1.66699 5 5 5h229c3.33301 0 5 -1.66699 5 -5v-10c0 -3.33301 -1.66699 -5 -5 -5h-229c-3.33301 0 -5 1.66699 -5 5zM121 710v-705c0 -3.33301 -1.66699 -5 -5 -5h-11c-3.33301 0 -5 1.66699 -5 5v705c0 3.33301 1.66699 5 5 5h11
c3.33301 0 5 -1.66699 5 -5z" />
    <glyph glyph-name="imacron" unicode="&#x12b;" horiz-adv-x="178" 
d="M179 649h-180c-3.33301 0 -5 1.66699 -5 5v8c0 3.33301 1.66699 5 5 5h180c3.33301 0 5 -1.66699 5 -5v-8c0 -3.33301 -1.66699 -5 -5 -5zM94 0h-10c-3.33301 0 -5 1.66699 -5 5v503c0 3.33301 1.66699 5 5 5h10c3.33301 0 5 -1.66699 5 -5v-503
c0 -3.33301 -1.66699 -5 -5 -5z" />
    <glyph glyph-name="Iogonek" unicode="&#x12e;" horiz-adv-x="221" 
d="M112 -178c18 0 35.334 4.33398 52.001 13.001c3.33301 1.33301 5.66602 0.333008 6.99902 -3l4 -9c1.33301 -3.33301 0.666016 -5.33301 -2.00098 -6c-17.333 -10 -37.666 -15 -60.999 -15c-22.667 0 -40.5 6.66699 -53.5 20s-19.5 32 -19.5 56
c0 44 20.333 85.333 61 124v708c0 3.33301 1.66699 5 5 5h11c3.33301 0 5 -1.66699 5 -5v-706c0 -2.66699 -1 -5 -3 -7c-38.667 -38.667 -58 -78.334 -58 -119.001c0 -37.333 17.333 -56 52 -56z" />
    <glyph glyph-name="iogonek" unicode="&#x12f;" horiz-adv-x="178" 
d="M162 -175c-22.667 -15.333 -47.332 -23 -73.999 -23c-24 0 -43 6.66699 -57 20s-21 32.666 -21 57.999c0 44 23 85.333 69 124v504c0 3.33301 1.66699 5 5 5h10c3.33301 0 5 -1.66699 5 -5v-504c0 -2.66699 -1 -5 -3 -7c-44 -39.333 -66 -78.333 -66 -117
c0 -39.333 19.667 -59 59 -59c24 0 45.667 7 65 21c2.66699 2.66699 4.66699 2 6 -2l4 -8c1.33301 -3.33301 0.666016 -5.66602 -2.00098 -6.99902zM110.002 650c0 -14 -7 -21 -21 -21s-21 7 -21 21s7 21 21 21s21 -7 21 -21z" />
    <glyph glyph-name="Idotaccent" unicode="&#x130;" horiz-adv-x="221" 
d="M121 710v-705c0 -3.33301 -1.66699 -5 -5 -5h-11c-3.33301 0 -5 1.66699 -5 5v705c0 3.33301 1.66699 5 5 5h11c3.33301 0 5 -1.66699 5 -5zM133 859c0 -14.667 -7.33301 -22 -22 -22s-22 7.33301 -22 22s7.33301 22 22 22s22 -7.33301 22 -22z" />
    <glyph glyph-name="dotlessi" unicode="&#x131;" horiz-adv-x="178" 
d="M94 0h-10c-3.33301 0 -5 1.66699 -5 5v503c0 3.33301 1.66699 5 5 5h10c3.33301 0 5 -1.66699 5 -5v-503c0 -3.33301 -1.66699 -5 -5 -5z" />
    <glyph glyph-name="IJ" unicode="&#x132;" horiz-adv-x="724" 
d="M121 710v-705c0 -3.33301 -1.66699 -5 -5 -5h-11c-3.33301 0 -5 1.66699 -5 5v705c0 3.33301 1.66699 5 5 5h11c3.33301 0 5 -1.66699 5 -5zM629 198c0 -70.667 -15.168 -123 -45.501 -157s-76.5 -51 -138.5 -51c-66 0 -128 27.333 -186 82c-2 2 -2.33301 4.33301 -1 7
l7 8c2 2.66699 4.33301 2.66699 7 0c54.667 -51.333 112.334 -77 173.001 -77c56 0 97.167 15 123.5 45s39.5 77.667 39.5 143v512c0 3.33301 1.66699 5 5 5h11c3.33301 0 5 -1.66699 5 -5v-512z" />
    <glyph glyph-name="ij" unicode="&#x133;" horiz-adv-x="442" 
d="M94 0h-10c-3.33301 0 -5 1.66699 -5 5v503c0 3.33301 1.66699 5 5 5h10c3.33301 0 5 -1.66699 5 -5v-503c0 -3.33301 -1.66699 -5 -5 -5zM109 650c0 -13.333 -6.66699 -20 -20 -20s-20 6.66699 -20 20s6.66699 20 20 20s20 -6.66699 20 -20zM363 -39
c0 -107.333 -39.999 -161 -119.999 -161c-20.667 0 -38 1.66699 -52 5c-3.33301 1.33301 -5 3.33301 -5 6v8c0 2 0.333008 3.5 1 4.5s2 1.16699 4 0.5c15.333 -3.33301 32.666 -5 51.999 -5c66.667 0 100 47.333 100 142v547c0 3.33301 1.66699 5 5 5h10
c3.33301 0 5 -1.66699 5 -5v-547zM373.001 650c0 -13.333 -6.66699 -20 -20 -20s-20 6.66699 -20 20s6.66699 20 20 20s20 -6.66699 20 -20z" />
    <glyph glyph-name="uni0136" unicode="&#x136;" horiz-adv-x="602" 
d="M116 0h-11c-3.33301 0 -5 1.66699 -5 5v705c0 3.33301 1.66699 5 5 5h11c3.33301 0 5 -1.66699 5 -5v-408l421 410c2 2 4.33301 3 7 3h16c6 0 7 -2 3 -6l-325 -317l344 -386c3.33301 -4 2.33301 -6 -3 -6h-16c-2.66699 0 -4.66699 1 -6 3l-334 375l-107 -104v-269
c0 -3.33301 -1.66699 -5 -5 -5zM277 -227h-7.99805c-4.66699 0 -6.33398 2 -5.00098 6l38 144c1.33301 2.66699 3 4 5 4h14c3.33301 0 4.66602 -2 3.99902 -6l-43 -144c-1.33301 -2.66699 -3 -4 -5 -4z" />
    <glyph glyph-name="uni0137" unicode="&#x137;" horiz-adv-x="471" 
d="M453 0h-13.999c-3.33301 0 -5.33301 1 -6 3l-248 276l-86 -74v-200c0 -3.33301 -1.66699 -5 -5 -5h-10c-3.33301 0 -5 1.66699 -5 5v705c0 3.33301 1.66699 5 5 5h10c3.33301 0 5 -1.66699 5 -5v-480l322 281c1.33301 1.33301 3.66602 2 6.99902 2h16
c5.33301 0 6 -2 2 -6l-246 -215l256 -286c2.66699 -4 1.66699 -6 -3 -6zM227.001 -223h-5.99902c-4.66699 0 -6.33398 2 -5.00098 6l37 140c1.33301 2.66699 3 4 5 4h12c4 0 5.33301 -2 4 -6l-42 -140c-1.33301 -2.66699 -3 -4 -5 -4z" />
    <glyph glyph-name="Lacute" unicode="&#x139;" horiz-adv-x="489" 
d="M471 0h-367c-3.33301 0 -5 1.66699 -5 5v705c0 3.33301 1.66699 5 5 5h11c3.33301 0 5 -1.66699 5 -5v-690h351c3.33301 0 5 -1.66699 5 -5v-10c0 -3.33301 -1.66699 -5 -5 -5zM224 927l-115 -134c-0.666992 -2 -2.66699 -3 -6 -3h-10c-4.66699 0 -5.66699 2 -3 6
l108 134c1.33301 2 3.33301 3 6 3h17c4.66699 0 5.66699 -2 3 -6z" />
    <glyph glyph-name="lacute" unicode="&#x13a;" horiz-adv-x="266" 
d="M254 -5c-18.667 -3.33301 -38.333 -5 -59 -5c-80.667 0 -121 53.667 -121 161v559c0 3.33301 1.66699 5 5 5h10c3.33301 0 5 -1.66699 5 -5v-563c0 -92 33.667 -138 101 -138c16 0 35.667 1.66699 59 5c3.33301 0 5 -1.33301 5 -4v-9c0 -2.66699 -1.66699 -4.66699 -5 -6
zM197.001 927l-115 -134c-1.33301 -2 -3.33301 -3 -6 -3h-10c-4.66699 0 -5.66699 2 -3 6l108 134c0.666992 2 2.66699 3 6 3h17c4.66699 0 5.66699 -2 3 -6z" />
    <glyph glyph-name="uni013B" unicode="&#x13b;" horiz-adv-x="489" 
d="M472 0h-367c-3.33301 0 -5 1.66699 -5 5v705c0 3.33301 1.66699 5 5 5h11c3.33301 0 5 -1.66699 5 -5v-690h351c3.33301 0 5 -1.66699 5 -5v-10c0 -3.33301 -1.66699 -5 -5 -5zM231 -227h-7.99805c-4.66699 0 -6.33398 2 -5.00098 6l38 144c1.33301 2.66699 3 4 5 4h14
c3.33301 0 4.66602 -2 3.99902 -6l-43 -144c-1.33301 -2.66699 -3 -4 -5 -4z" />
    <glyph glyph-name="uni013C" unicode="&#x13c;" horiz-adv-x="266" 
d="M255 -5c-18.667 -3.33301 -38.333 -5 -59 -5c-80.667 0 -121 53.667 -121 161v559c0 3.33301 1.66699 5 5 5h10c3.33301 0 5 -1.66699 5 -5v-563c0 -92 33.667 -138 101 -138c16 0 35.667 1.66699 59 5c3.33301 0 5 -1.33301 5 -4v-9c0 -2.66699 -1.66699 -4.66699 -5 -6
zM150.001 -223h-5.99902c-4 0 -5.66699 2 -5 6l37 140c1.33301 2.66699 3 4 5 4h12c3.33301 0 4.66602 -2 3.99902 -6l-42 -140c-1.33301 -2.66699 -3 -4 -5 -4z" />
    <glyph glyph-name="Lcaron" unicode="&#x13d;" horiz-adv-x="489" 
d="M472 0h-367c-3.33301 0 -5 1.66699 -5 5v705c0 3.33301 1.66699 5 5 5h11c3.33301 0 5 -1.66699 5 -5v-690h351c3.33301 0 5 -1.66699 5 -5v-10c0 -3.33301 -1.66699 -5 -5 -5zM325 561h-7.99805c-4.66699 0 -6.33398 2 -5.00098 6l38 144c1.33301 2.66699 3 4 5 4h14
c3.33301 0 4.66602 -2 3.99902 -6l-43 -144c-1.33301 -2.66699 -3 -4 -5 -4z" />
    <glyph glyph-name="lcaron" unicode="&#x13e;" horiz-adv-x="276" 
d="M255 -5c-18.667 -3.33301 -38.333 -5 -59 -5c-80.667 0 -121 53.667 -121 161v559c0 3.33301 1.66699 5 5 5h10c3.33301 0 5 -1.66699 5 -5v-563c0 -92 33.667 -138 101 -138c16 0 35.667 1.66699 59 5c3.33301 0 5 -1.33301 5 -4v-9c0 -2.66699 -1.66699 -4.66699 -5 -6
zM216.001 572h-7.00098c-3.33301 0 -4.66602 2 -3.99902 6l42 133c1.33301 2.66699 3 4 5 4h12c4 0 5.33301 -2 4 -6l-47 -133c-1.33301 -2.66699 -3 -4 -5 -4z" />
    <glyph glyph-name="Ldot" unicode="&#x13f;" horiz-adv-x="489" 
d="M472 0h-367c-3.33301 0 -5 1.66699 -5 5v705c0 3.33301 1.66699 5 5 5h11c3.33301 0 5 -1.66699 5 -5v-690h351c3.33301 0 5 -1.66699 5 -5v-10c0 -3.33301 -1.66699 -5 -5 -5zM313 355c0 -13.333 -6.66699 -20 -20 -20s-20 6.66699 -20 20s6.66699 20 20 20
s20 -6.66699 20 -20z" />
    <glyph glyph-name="ldot" unicode="&#x140;" horiz-adv-x="278" 
d="M255 -5c-18.667 -3.33301 -38.333 -5 -59 -5c-80.667 0 -121 53.667 -121 161v559c0 3.33301 1.66699 5 5 5h10c3.33301 0 5 -1.66699 5 -5v-563c0 -92 33.667 -138 101 -138c16 0 35.667 1.66699 59 5c3.33301 0 5 -1.33301 5 -4v-9c0 -2.66699 -1.66699 -4.66699 -5 -6
zM244.001 325c0 -13.333 -6.66699 -20 -20 -20s-20 6.66699 -20 20s6.66699 20 20 20s20 -6.66699 20 -20z" />
    <glyph glyph-name="Lslash" unicode="&#x141;" horiz-adv-x="491" 
d="M123 322v-302h351c3.33301 0 5 -1.66699 5 -5v-10c0 -3.33301 -1.66699 -5 -5 -5h-367c-3.33301 0 -5 1.66699 -5 5v303l-76 -51c-4 -3.33301 -6 -2.33301 -6 3v13c0 2 1 4 3 6l79 53v378c0 3.33301 1.66699 5 5 5h11c3.33301 0 5 -1.66699 5 -5v-364l172 116
c4 2.66699 6 1.66699 6 -3v-13c0 -2 -1 -4 -3 -6z" />
    <glyph glyph-name="lslash" unicode="&#x142;" horiz-adv-x="345" 
d="M300 -5c-18.667 -3.33301 -38.333 -5.00098 -59 -5.00098c-80.667 0 -121 53.667 -121 161v162l-88 -64c-4 -3.33301 -6 -2 -6 4v11c0 2.66699 1 4.66699 3 6l91 66v374c0 3.33301 1.66699 5 5 5h10c3.33301 0 5 -1.66699 5 -5v-360l154 113
c4 2.66699 6 1.33398 6 -3.99902v-11c0 -2.66699 -1 -4.66699 -3 -6l-157 -115v-180c0 -92 33.667 -138 101 -138c16 0 35.667 1.66699 59 5c3.33301 0 5 -1.33301 5 -4v-9c0 -2.66699 -1.66699 -4.66699 -5 -6z" />
    <glyph glyph-name="Nacute" unicode="&#x143;" horiz-adv-x="699" 
d="M116 0h-11c-3.33301 0 -5 1.66699 -5 5v705c0 3.33301 1.66699 5 5 5h14c3.33301 0 5.33301 -1 6 -3l453 -678v676c0 3.33301 1.66699 5 5 5h11c3.33301 0 5 -1.66699 5 -5v-705c0 -3.33301 -1.66699 -5 -5 -5h-14c-2.66699 0 -4.66699 1 -6 3l-453 678v-676
c0 -3.33301 -1.66699 -5 -5 -5zM451 927l-115 -134c-1.33301 -2 -3.33301 -3 -6 -3h-10c-4.66699 0 -5.66699 2 -3 6l108 134c0.666992 2 2.66699 3 6 3h17c4.66699 0 5.66699 -2 3 -6z" />
    <glyph glyph-name="nacute" unicode="&#x144;" horiz-adv-x="545" 
d="M93 0l-9.99805 0.000976562c-3.33301 0 -5 1.66699 -5 5v474c0 3.33301 1.33301 5.33301 4 6c56 25.333 116 38 180 38c66.667 0 118.167 -17 154.5 -51s54.5 -83.333 54.5 -148v-319c0 -3.33301 -1.66699 -5 -5 -5h-10c-3.33301 0 -5 1.66699 -5 5v319
c0 59.333 -16.333 104.166 -49 134.499s-79.334 45.5 -140.001 45.5c-56.667 0 -111.334 -10.667 -164.001 -32v-467c0 -3.33301 -1.66699 -5 -5 -5zM236.002 600.001h-8c-6 0 -7.33301 2 -4 6l83 134c0.666992 2 2.66699 3 6 3h15c4 0 5 -2 3 -6l-89 -134
c-1.33301 -2 -3.33301 -3 -6 -3z" />
    <glyph glyph-name="uni0145" unicode="&#x145;" horiz-adv-x="699" 
d="M116 0h-11c-3.33301 0 -5 1.66699 -5 5v705c0 3.33301 1.66699 5 5 5h14c3.33301 0 5.33301 -1 6 -3l453 -678v676c0 3.33301 1.66699 5 5 5h11c3.33301 0 5 -1.66699 5 -5v-705c0 -3.33301 -1.66699 -5 -5 -5h-14c-2.66699 0 -4.66699 1 -6 3l-453 678v-676
c0 -3.33301 -1.66699 -5 -5 -5zM326 -227h-8c-4 0 -5.66699 2 -5 6l38 144c1.33301 2.66699 3 4 5 4h14c4 0 5.33301 -2 4 -6l-43 -144c-1.33301 -2.66699 -3 -4 -5 -4z" />
    <glyph glyph-name="uni0146" unicode="&#x146;" horiz-adv-x="545" 
d="M93 0l-9.99805 0.000976562c-3.33301 0 -5 1.66699 -5 5v474c0 3.33301 1.33301 5.33301 4 6c56 25.333 116 38 180 38c66.667 0 118.167 -17 154.5 -51s54.5 -83.333 54.5 -148v-319c0 -3.33301 -1.66699 -5 -5 -5h-10c-3.33301 0 -5 1.66699 -5 5v319
c0 59.333 -16.333 104.166 -49 134.499s-79.334 45.5 -140.001 45.5c-56.667 0 -111.334 -10.667 -164.001 -32v-467c0 -3.33301 -1.66699 -5 -5 -5zM245.002 -222.999h-5.99902c-4.66699 0 -6.33398 2 -5.00098 6l37 140c1.33301 2.66699 3 4 5 4h12c4 0 5.33301 -2 4 -6
l-42 -140c-1.33301 -2.66699 -3 -4 -5 -4z" />
    <glyph glyph-name="Ncaron" unicode="&#x147;" horiz-adv-x="699" 
d="M116 0h-11c-3.33301 0 -5 1.66699 -5 5v705c0 3.33301 1.66699 5 5 5h14c3.33301 0 5.33301 -1 6 -3l453 -678v676c0 3.33301 1.66699 5 5 5h11c3.33301 0 5 -1.66699 5 -5v-705c0 -3.33301 -1.66699 -5 -5 -5h-14c-2.66699 0 -4.66699 1 -6 3l-453 678v-676
c0 -3.33301 -1.66699 -5 -5 -5zM208 933h12c2.66699 0 5 -1 7 -3l123 -121l123 121c2 2 4.33301 3 7 3h12c6 0 7 -2 3 -6l-131 -134c-2 -2 -4.33301 -3 -7 -3h-14c-2.66699 0 -5 1 -7 3l-131 134c-4 4 -3 6 3 6z" />
    <glyph glyph-name="ncaron" unicode="&#x148;" horiz-adv-x="545" 
d="M93 0l-9.99805 0.000976562c-3.33301 0 -5 1.66699 -5 5v474c0 3.33301 1.33301 5.33301 4 6c56 25.333 116 38 180 38c66.667 0 118.167 -17 154.5 -51s54.5 -83.333 54.5 -148v-319c0 -3.33301 -1.66699 -5 -5 -5h-10c-3.33301 0 -5 1.66699 -5 5v319
c0 59.333 -16.333 104.166 -49 134.499s-79.334 45.5 -140.001 45.5c-56.667 0 -111.334 -10.667 -164.001 -32v-467c0 -3.33301 -1.66699 -5 -5 -5zM145.002 743.001h13c2.66699 0 4.66699 -1 6 -3l103 -123l103 123c1.33301 2 3.33301 3 6 3h13c4.66699 0 5.66699 -2 3 -6
l-114 -134c-1.33301 -2 -3.33301 -3 -6 -3h-10c-2.66699 0 -4.66699 1 -6 3l-114 134c-3.33301 4 -2.33301 6 3 6z" />
    <glyph glyph-name="Eng" unicode="&#x14a;" horiz-adv-x="699" 
d="M578 710c0 3.33301 1.66602 5 4.99902 5h11c3.33301 0 5 -1.66699 5 -5v-719c0 -70.667 -8.83301 -120 -26.5 -148s-48.5 -42 -92.5 -42c-1.33301 0 -16 1 -44 3c-3.33301 1.33301 -5 3.33301 -5 6v10c0 4 1.66699 5.33301 5 4c14.667 -2 28.334 -3 41.001 -3
c39.333 0 66 12.833 80 38.5s21 71.5 21 137.5l-457 683v-675c0 -3.33301 -1.66699 -5 -5 -5h-11c-3.33301 0 -5 1.66699 -5 5v705c0 3.33301 1.66699 5 5 5h14c3.33301 0 5.33301 -1 6 -3l453 -679v677z" />
    <glyph glyph-name="eng" unicode="&#x14b;" horiz-adv-x="545" 
d="M471 -39c0 -107.333 -39.9971 -160.999 -119.997 -160.999c-20.667 0 -38 1.66699 -52 5c-3.33301 1.33301 -5 3.33301 -5 6v8c0 2 0.333008 3.5 1 4.5s2 1.16699 4 0.5c15.333 -3.33301 32.666 -5 51.999 -5c66.667 0 100 47.333 100 142v363
c0 59.333 -16.333 104.166 -49 134.499s-79.334 45.5 -140.001 45.5c-56.667 0 -111.334 -10.667 -164.001 -32v-467c0 -3.33301 -1.66699 -5 -5 -5h-10c-3.33301 0 -5 1.66699 -5 5v474c0 2 1 4 3 6c56.667 25.333 117 38 181 38c66.667 0 118.167 -17 154.5 -51
s54.5 -83.333 54.5 -148v-363z" />
    <glyph glyph-name="Omacron" unicode="&#x14c;" horiz-adv-x="666" 
d="M591 218c0 -65.333 -23.998 -119.666 -71.998 -162.999s-110 -65 -186 -65s-138 21.667 -186 65s-72 97.666 -72 162.999v270c0 70 23.667 127 71 171s109.666 66 186.999 66s139.666 -22 186.999 -66s71 -101 71 -171v-270zM96.002 218
c0 -60 21.8291 -109.667 65.4961 -149s100.834 -59 171.501 -59s127.834 19.667 171.501 59s65.5 89 65.5 149v270c0 64.667 -21.667 117 -65 157s-100.666 60 -171.999 60s-128.666 -20 -171.999 -60s-65 -92.333 -65 -157v-270zM456.998 845h-249
c-3.33301 0 -5 1.66699 -5 5v10c0 3.33301 1.66699 5 5 5h249c3.33301 0 5 -1.66699 5 -5v-10c0 -3.33301 -1.66699 -5 -5 -5z" />
    <glyph glyph-name="omacron" unicode="&#x14d;" horiz-adv-x="530" 
d="M470 176c0 -54 -17.833 -98.5 -53.5 -133.5s-86.167 -52.5 -151.5 -52.5s-115.833 17.5 -151.5 52.5s-53.5 79.5 -53.5 133.5v162c0 53.333 18 97.5 54 132.5s86.333 52.5 151 52.5c65.333 0 115.833 -17.5 151.5 -52.5s53.5 -79.167 53.5 -132.5v-162zM80 176
c0 -48.667 16 -88.667 48 -120s77.667 -47 137 -47c60 0 105.833 15.667 137.5 47s47.5 71.333 47.5 120v162c0 48 -15.833 87.667 -47.5 119s-77.5 47 -137.5 47c-59.333 0 -105 -15.667 -137 -47s-48 -71 -48 -119v-162zM145 659v8c0 3.33301 1.66699 5 5 5h230
c3.33301 0 5 -1.66699 5 -5v-8c0 -3.33301 -1.66699 -5 -5 -5h-230c-3.33301 0 -5 1.66699 -5 5z" />
    <glyph glyph-name="Ohungarumlaut" unicode="&#x150;" horiz-adv-x="666" 
d="M591 218c0 -65.333 -23.998 -119.666 -71.998 -162.999s-110 -65 -186 -65s-138 21.667 -186 65s-72 97.666 -72 162.999v270c0 70 23.667 127 71 171s109.666 66 186.999 66s139.666 -22 186.999 -66s71 -101 71 -171v-270zM96.002 218
c0 -60 21.8291 -109.667 65.4961 -149s100.834 -59 171.501 -59s127.834 19.667 171.501 59s65.5 89 65.5 149v270c0 64.667 -21.667 117 -65 157s-100.666 60 -171.999 60s-128.666 -20 -171.999 -60s-65 -92.333 -65 -157v-270zM234.998 790h-9
c-4.66699 0 -5.66699 2 -3 6l109 134c1.33301 2 3.33301 3 6 3h17c4.66699 0 5.66699 -2 3 -6l-117 -134c-0.666992 -2 -2.66699 -3 -6 -3zM388.998 790h-9c-4.66699 0 -5.66699 2 -3 6l109 134c1.33301 2 3.33301 3 6 3h17c4.66699 0 5.66699 -2 3 -6l-117 -134
c-0.666992 -2 -2.66699 -3 -6 -3z" />
    <glyph glyph-name="ohungarumlaut" unicode="&#x151;" horiz-adv-x="530" 
d="M470 176c0 -54 -17.833 -98.5 -53.5 -133.5s-86.167 -52.5 -151.5 -52.5s-115.833 17.5 -151.5 52.5s-53.5 79.5 -53.5 133.5v162c0 53.333 18 97.5 54 132.5s86.333 52.5 151 52.5c65.333 0 115.833 -17.5 151.5 -52.5s53.5 -79.167 53.5 -132.5v-162zM80 176
c0 -48.667 16 -88.667 48 -120s77.667 -47 137 -47c60 0 105.833 15.667 137.5 47s47.5 71.333 47.5 120v162c0 48 -15.833 87.667 -47.5 119s-77.5 47 -137.5 47c-59.333 0 -105 -15.667 -137 -47s-48 -71 -48 -119v-162zM196 600h-9c-4.66699 0 -6 2 -4 6l77 134
c1.33301 2 3.33301 3 6 3h15c4 0 5 -2 3 -6l-82 -134c-1.33301 -2 -3.33301 -3 -6 -3zM309 600h-9c-4.66699 0 -6 2 -4 6l77 134c0.666992 2 2.66699 3 6 3h15c4 0 5 -2 3 -6l-82 -134c-0.666992 -2 -2.66699 -3 -6 -3z" />
    <glyph glyph-name="OE" unicode="&#x152;" horiz-adv-x="1005" 
d="M551 0c-3.33301 0 -5 1.66895 -5 5.00195v122c-15.333 -40.667 -43 -73.667 -83 -99s-85.667 -38 -137 -38c-74.667 0 -135.167 22.667 -181.5 68s-69.5 102.666 -69.5 171.999v246c0 74 23 134 69 180s106.667 69 182 69c52 0 97.833 -12.833 137.5 -38.5
s67.167 -59.834 82.5 -102.501v126c0 3.33301 1.66699 5 5 5h387c3.33301 0 5 -1.66699 5 -5v-10c0 -3.33301 -1.66699 -5 -5 -5h-371v-320h351c3.33301 0 5 -1.66699 5 -5v-10c0 -3.33301 -1.66699 -5 -5 -5h-351v-335h386c3.33301 0 5 -1.66699 5 -5v-10
c0 -3.33301 -1.66699 -5 -5 -5h-402zM96 230.002c0 -64 21.167 -116.667 63.5 -158s97.833 -62 166.5 -62c65.333 0 118.333 20 159 60s61 90 61 150v266c0 64 -20.167 116.5 -60.5 157.5s-93.5 61.5 -159.5 61.5c-70 0 -125.833 -21 -167.5 -63s-62.5 -97.333 -62.5 -166
v-246z" />
    <glyph glyph-name="oe" unicode="&#x153;" horiz-adv-x="895" 
d="M646 -10c-43.333 0 -82.168 10.834 -116.501 32.501s-57.5 51.5 -69.5 89.5c-12.667 -37.333 -35.5 -67 -68.5 -89s-75.167 -33 -126.5 -33c-65.333 0 -115.833 17.5 -151.5 52.5s-53.5 79.5 -53.5 133.5v162c0 53.333 18 97.5 54 132.5s86.333 52.5 151 52.5
c50.667 0 92.834 -11.333 126.501 -34s56.5 -52.334 68.5 -89.001c11.333 39.333 33.5 69.666 66.5 90.999s72.833 32 119.5 32c59.333 0 106.833 -16.833 142.5 -50.5s53.5 -79.5 53.5 -137.5v-88c0 -3.33301 -1.66699 -5 -5 -5h-367v-71c0 -49.333 17 -88.666 51 -117.999
s75.667 -44 125 -44c63.333 0 121.333 25 174 75c2.66699 2 5 1.66699 7 -1l6 -6c2.66699 -2.66699 2.66699 -5 0 -7c-56 -53.333 -118.333 -80 -187 -80zM79.998 176.001c0 -48.667 16 -88.667 48 -120s77.667 -47 137 -47c60 0 105.833 15.5 137.5 46.5
s47.5 71.167 47.5 120.5v162c0 48 -15.833 87.667 -47.5 119s-77.5 47 -137.5 47c-59.333 0 -105 -15.667 -137 -47s-48 -71 -48 -119v-162zM469.998 335.001v-74h352v74c0 52.667 -16 94 -48 124s-74.667 45 -128 45c-54.667 0 -97.667 -14.833 -129 -44.5
s-47 -71.167 -47 -124.5z" />
    <glyph glyph-name="Racute" unicode="&#x154;" horiz-adv-x="616" 
d="M564 0h-15.001c-3.33301 0 -5.33301 1 -6 3l-239 307h-183v-305c0 -3.33301 -1.66699 -5 -5 -5h-11c-3.33301 0 -5 1.66699 -5 5v705c0 3.33301 1.66699 5 5 5h218c72.667 0 130 -18 172 -54s63 -85.667 63 -149c0 -62 -20.167 -110.833 -60.5 -146.5
s-96.166 -54.167 -167.499 -55.5l237 -304c2.66699 -4 1.66699 -6 -3 -6zM322.999 695h-202v-365h202c67.333 0 119.833 15.833 157.5 47.5s56.5 76.5 56.5 134.5s-19 103 -57 135s-90.333 48 -157 48zM390.999 927l-115 -134c-1.33301 -2 -3.33301 -3 -6 -3h-10
c-4.66699 0 -5.66699 2 -3 6l108 134c0.666992 2 2.66699 3 6 3h17c4.66699 0 5.66699 -2 3 -6z" />
    <glyph glyph-name="racute" unicode="&#x155;" horiz-adv-x="372" 
d="M93 0h-9.99902c-3.33301 0 -5 1.66699 -5 5v478c0 3.33301 1.33301 5.33301 4 6c49.333 22.667 105 34 167 34c30 0 63.667 -3 101 -9c3.33301 -0.666992 5 -2.66699 5 -6v-9c0 -4 -1.66699 -5.33301 -5 -4c-38.667 6 -72.334 9 -101.001 9
c-52.667 0 -103 -9.33301 -151 -28v-471c0 -3.33301 -1.66699 -5 -5 -5zM184.001 600h-8.00098c-5.33301 0 -6.66602 2 -3.99902 6l83 134c0.666992 2 2.66699 3 6 3h15c4 0 5 -2 3 -6l-89 -134c-1.33301 -2 -3.33301 -3 -6 -3z" />
    <glyph glyph-name="uni0156" unicode="&#x156;" horiz-adv-x="616" 
d="M564 0h-15.001c-3.33301 0 -5.33301 1 -6 3l-239 307h-183v-305c0 -3.33301 -1.66699 -5 -5 -5h-11c-3.33301 0 -5 1.66699 -5 5v705c0 3.33301 1.66699 5 5 5h218c72.667 0 130 -18 172 -54s63 -85.667 63 -149c0 -62 -20.167 -110.833 -60.5 -146.5
s-96.166 -54.167 -167.499 -55.5l237 -304c2.66699 -4 1.66699 -6 -3 -6zM322.999 695h-202v-365h202c67.333 0 119.833 15.833 157.5 47.5s56.5 76.5 56.5 134.5s-19 103 -57 135s-90.333 48 -157 48zM281.999 -227h-8c-4 0 -5.66699 2 -5 6l38 144
c1.33301 2.66699 3 4 5 4h14c4 0 5.33301 -2 4 -6l-43 -144c-1.33301 -2.66699 -3 -4 -5 -4z" />
    <glyph glyph-name="uni0157" unicode="&#x157;" horiz-adv-x="372" 
d="M93 0h-9.99902c-3.33301 0 -5 1.66699 -5 5v478c0 3.33301 1.33301 5.33301 4 6c49.333 22.667 105 34 167 34c30 0 63.667 -3 101 -9c3.33301 -0.666992 5 -2.66699 5 -6v-9c0 -4 -1.66699 -5.33301 -5 -4c-38.667 6 -72.334 9 -101.001 9
c-52.667 0 -103 -9.33301 -151 -28v-471c0 -3.33301 -1.66699 -5 -5 -5zM65.001 -223h-5.99902c-4.66699 0 -6.33398 2 -5.00098 6l37 140c1.33301 2.66699 3 4 5 4h12c4 0 5.33301 -2 4 -6l-42 -140c-1.33301 -2.66699 -3 -4 -5 -4z" />
    <glyph glyph-name="Rcaron" unicode="&#x158;" horiz-adv-x="616" 
d="M564 0h-15.001c-3.33301 0 -5.33301 1 -6 3l-239 307h-183v-305c0 -3.33301 -1.66699 -5 -5 -5h-11c-3.33301 0 -5 1.66699 -5 5v705c0 3.33301 1.66699 5 5 5h218c72.667 0 130 -18 172 -54s63 -85.667 63 -149c0 -62 -20.167 -110.833 -60.5 -146.5
s-96.166 -54.167 -167.499 -55.5l237 -304c2.66699 -4 1.66699 -6 -3 -6zM322.999 695h-202v-365h202c67.333 0 119.833 15.833 157.5 47.5s56.5 76.5 56.5 134.5s-19 103 -57 135s-90.333 48 -157 48zM149.999 933h12c2.66699 0 5 -1 7 -3l123 -121l123 121
c2 2 4.33301 3 7 3h12c6 0 7 -2 3 -6l-131 -134c-2 -2 -4.33301 -3 -7 -3h-14c-2.66699 0 -5 1 -7 3l-131 134c-4 4 -3 6 3 6z" />
    <glyph glyph-name="rcaron" unicode="&#x159;" horiz-adv-x="372" 
d="M93 0h-9.99902c-3.33301 0 -5 1.66699 -5 5v478c0 3.33301 1.33301 5.33301 4 6c49.333 22.667 105 34 167 34c30 0 63.667 -3 101 -9c3.33301 -0.666992 5 -2.66699 5 -6v-9c0 -4 -1.66699 -5.33301 -5 -4c-38.667 6 -72.334 9 -101.001 9
c-52.667 0 -103 -9.33301 -151 -28v-471c0 -3.33301 -1.66699 -5 -5 -5zM94.001 743h13c3.33301 0 5.33301 -1 6 -3l103 -123l103 123c0.666992 2 2.66699 3 6 3h13c5.33301 0 6.33301 -2 3 -6l-114 -134c-0.666992 -2 -2.66699 -3 -6 -3h-10c-3.33301 0 -5.33301 1 -6 3
l-114 134c-2.66699 4 -1.66699 6 3 6z" />
    <glyph glyph-name="Sacute" unicode="&#x15a;" horiz-adv-x="589" 
d="M541 176c0 -58.667 -21.502 -104.335 -64.502 -137.002s-101.833 -49 -176.5 -49c-49.333 0 -92.666 7.33301 -129.999 22s-75.333 38.667 -114 72c-3.33301 2 -3.66602 4.33301 -0.999023 7l7 8c2 2 4.33301 2.33301 7 1c37.333 -31.333 74 -54.166 110 -68.499
s76.333 -21.5 121 -21.5c68 0 121.667 14.167 161 42.5s59 69.5 59 123.5c0 47.333 -16.333 84 -49 110s-91.667 49 -177 69c-80.667 18.667 -140.167 44 -178.5 76s-57.5 73.333 -57.5 124c0 55.333 21.833 97.5 65.5 126.5s98.5 43.5 164.5 43.5
c88.667 0 166.334 -26.667 233.001 -80c2 -1.33301 2.33301 -3.66602 1 -6.99902l-5 -8c-2.66699 -3.33301 -5 -4 -7 -2c-62 51.333 -137 77 -225 77c-58.667 0 -107.667 -12.833 -147 -38.5s-59 -63.167 -59 -112.5c0 -46 17.5 -82.833 52.5 -110.5s90.5 -50.5 166.5 -68.5
c91.333 -22 154.666 -48 189.999 -78s53 -70.333 53 -121zM397.998 926.999l-115 -134c-0.666992 -2 -2.66699 -3 -6 -3h-10c-4.66699 0 -5.66699 2 -3 6l108 134c1.33301 2 3.33301 3 6 3h17c4.66699 0 5.66699 -2 3 -6z" />
    <glyph glyph-name="sacute" unicode="&#x15b;" horiz-adv-x="459" 
d="M418 131c0 -42 -16.1719 -76 -48.5049 -102s-78.166 -39 -137.499 -39c-70 0 -132.667 21.333 -188 64c-3.33301 2 -3.66602 4.33301 -0.999023 7l5 8c2 2 4.33301 2.33301 7 1c54 -40.667 113 -61 177 -61c50.667 0 91 10.667 121 32s45 51.333 45 90
c0 16.667 -3.66699 31.667 -11 45s-15.333 23.833 -24 31.5s-21.834 14.667 -39.501 21s-32 11 -43 14s-27.167 6.5 -48.5 10.5c-24.667 4.66699 -46.334 10.167 -65.001 16.5s-37.667 14.833 -57 25.5s-34.166 24.667 -44.499 42s-15.5 37.333 -15.5 60
c0 38 15.833 68.5 47.5 91.5s72.834 34.5 123.501 34.5c60.667 0 119.667 -16.333 177 -49c2.66699 -2.66699 3 -5 1 -7l-4 -8c-1.33301 -2.66699 -3.66602 -3 -6.99902 -1c-53.333 30.667 -109 46 -167 46c-44 0 -80.167 -9.5 -108.5 -28.5s-42.5 -45.167 -42.5 -78.5
c0 -16 3.33301 -30.5 10 -43.5s15 -23.5 25 -31.5s22.833 -15.5 38.5 -22.5s30.334 -12.333 44.001 -16s29.834 -7.5 48.501 -11.5c22.667 -4.66699 41 -9 55 -13s30 -9.66699 48 -17s32 -15.5 42 -24.5s18.667 -21 26 -36s11 -31.833 11 -50.5zM201.995 600h-8.00098
c-5.33301 0 -6.66602 2 -3.99902 6l83 134c0.666992 2 2.66699 3 6 3h15c4 0 5 -2 3 -6l-89 -134c-1.33301 -2 -3.33301 -3 -6 -3z" />
    <glyph glyph-name="Scedilla" unicode="&#x15e;" horiz-adv-x="589" 
d="M541 176c0 -57.333 -21.001 -102.334 -63.001 -135.001s-99.333 -49.667 -172 -51l-19 -52c62.667 0 94 -22.333 94 -67c0 -22 -8.5 -39.833 -25.5 -53.5s-40.167 -20.5 -69.5 -20.5c-21.333 0 -41.666 3.33301 -60.999 10c-2.66699 0.666992 -4 2.66699 -4 6v8
c0 3.33301 2 4.66602 6 3.99902c20 -6.66699 39.667 -10 59 -10c24.667 0 43.5 5 56.5 15s19.5 24 19.5 42c0 17.333 -6.83301 30 -20.5 38s-36.834 12.333 -69.501 13c-2.66699 0 -4.66699 1 -6 3c-2 2 -2.33301 4 -1 6l22 58c-84.667 2.66699 -161.667 34 -231 94
c-3.33301 2 -3.66602 4.33301 -0.999023 7l7 8c2 2 4.33301 2.33301 7 1c37.333 -31.333 74 -54.166 110 -68.499s76.333 -21.5 121 -21.5c68 0 121.667 14.167 161 42.5s59 69.5 59 123.5c0 47.333 -16.333 84 -49 110s-91.667 49 -177 69
c-80.667 18.667 -140.167 44 -178.5 76s-57.5 73.333 -57.5 124c0 55.333 21.833 97.5 65.5 126.5s98.5 43.5 164.5 43.5c88.667 0 166.334 -26.667 233.001 -80c2 -1.33301 2.33301 -3.66602 1 -6.99902l-5 -8c-2.66699 -3.33301 -5 -4 -7 -2c-62 51.333 -137 77 -225 77
c-58.667 0 -107.667 -12.833 -147 -38.5s-59 -63.167 -59 -112.5c0 -46 17.5 -82.833 52.5 -110.5s90.5 -50.5 166.5 -68.5c91.333 -22 154.666 -48 189.999 -78s53 -70.333 53 -121z" />
    <glyph glyph-name="scedilla" unicode="&#x15f;" horiz-adv-x="459" 
d="M320 -128c0 -22 -8.33789 -39.832 -25.0049 -53.499s-39.667 -20.5 -69 -20.5c-20 0 -39.667 3 -59 9c-2.66699 0.666992 -4 2.66699 -4 6v8c0 3.33301 2 4.66602 6 3.99902c20 -6 39 -9 57 -9c24 0 42.333 5 55 15s19 23.667 19 41c0 18 -6.66699 31 -20 39
s-35.666 12.333 -66.999 13c-3.33301 0 -5.33301 1 -6 3c-2 2 -2.33301 4 -1 6l20 57c-68 0.666992 -128.667 22 -182 64c-3.33301 2 -3.66602 4.33301 -0.999023 7l5 8c2 2 4.33301 2.33301 7 1c54 -40.667 113 -61 177 -61c50.667 0 91 10.667 121 32s45 51.333 45 90
c0 16.667 -3.66699 31.667 -11 45s-15.333 23.833 -24 31.5s-21.834 14.667 -39.501 21s-32 11 -43 14s-27.167 6.5 -48.5 10.5c-24.667 4.66699 -46.334 10.167 -65.001 16.5s-37.667 14.833 -57 25.5s-34.166 24.667 -44.499 42s-15.5 37.333 -15.5 60
c0 38 15.833 68.5 47.5 91.5s72.834 34.5 123.501 34.5c60.667 0 119.667 -16.333 177 -49c2.66699 -2.66699 3 -5 1 -7l-4 -8c-1.33301 -2.66699 -3.66602 -3 -6.99902 -1c-53.333 30.667 -109 46 -167 46c-44 0 -80.167 -9.5 -108.5 -28.5s-42.5 -45.167 -42.5 -78.5
c0 -16 3.33301 -30.5 10 -43.5s15 -23.5 25 -31.5s22.833 -15.5 38.5 -22.5s30.334 -12.333 44.001 -16s29.834 -7.5 48.501 -11.5c22.667 -4.66699 41 -9 55 -13s30 -9.66699 48 -17s32 -15.5 42 -24.5s18.667 -21 26 -36s11 -31.833 11 -50.5
c0 -40.667 -14.833 -73.667 -44.5 -99s-72.167 -39 -127.5 -41l-18 -52c61.333 0 92 -22.333 92 -67z" />
    <glyph glyph-name="Scaron" unicode="&#x160;" horiz-adv-x="589" 
d="M541 176c0 -58.667 -21.502 -104.335 -64.502 -137.002s-101.833 -49 -176.5 -49c-49.333 0 -92.666 7.33301 -129.999 22s-75.333 38.667 -114 72c-3.33301 2 -3.66602 4.33301 -0.999023 7l7 8c2 2 4.33301 2.33301 7 1c37.333 -31.333 74 -54.166 110 -68.499
s76.333 -21.5 121 -21.5c68 0 121.667 14.167 161 42.5s59 69.5 59 123.5c0 47.333 -16.333 84 -49 110s-91.667 49 -177 69c-80.667 18.667 -140.167 44 -178.5 76s-57.5 73.333 -57.5 124c0 55.333 21.833 97.5 65.5 126.5s98.5 43.5 164.5 43.5
c88.667 0 166.334 -26.667 233.001 -80c2 -1.33301 2.33301 -3.66602 1 -6.99902l-5 -8c-2.66699 -3.33301 -5 -4 -7 -2c-62 51.333 -137 77 -225 77c-58.667 0 -107.667 -12.833 -147 -38.5s-59 -63.167 -59 -112.5c0 -46 17.5 -82.833 52.5 -110.5s90.5 -50.5 166.5 -68.5
c91.333 -22 154.666 -48 189.999 -78s53 -70.333 53 -121zM149.998 932.999h12c2.66699 0 5 -1 7 -3l123 -121l123 121c2 2 4.33301 3 7 3h12c6 0 7 -2 3 -6l-131 -134c-2 -2 -4.33301 -3 -7 -3h-14c-2.66699 0 -5 1 -7 3l-131 134c-4 4 -3 6 3 6z" />
    <glyph glyph-name="scaron" unicode="&#x161;" horiz-adv-x="459" 
d="M418 131c0 -42 -16.1719 -76 -48.5049 -102s-78.166 -39 -137.499 -39c-70 0 -132.667 21.333 -188 64c-3.33301 2 -3.66602 4.33301 -0.999023 7l5 8c2 2 4.33301 2.33301 7 1c54 -40.667 113 -61 177 -61c50.667 0 91 10.667 121 32s45 51.333 45 90
c0 16.667 -3.66699 31.667 -11 45s-15.333 23.833 -24 31.5s-21.834 14.667 -39.501 21s-32 11 -43 14s-27.167 6.5 -48.5 10.5c-24.667 4.66699 -46.334 10.167 -65.001 16.5s-37.667 14.833 -57 25.5s-34.166 24.667 -44.499 42s-15.5 37.333 -15.5 60
c0 38 15.833 68.5 47.5 91.5s72.834 34.5 123.501 34.5c60.667 0 119.667 -16.333 177 -49c2.66699 -2.66699 3 -5 1 -7l-4 -8c-1.33301 -2.66699 -3.66602 -3 -6.99902 -1c-53.333 30.667 -109 46 -167 46c-44 0 -80.167 -9.5 -108.5 -28.5s-42.5 -45.167 -42.5 -78.5
c0 -16 3.33301 -30.5 10 -43.5s15 -23.5 25 -31.5s22.833 -15.5 38.5 -22.5s30.334 -12.333 44.001 -16s29.834 -7.5 48.501 -11.5c22.667 -4.66699 41 -9 55 -13s30 -9.66699 48 -17s32 -15.5 42 -24.5s18.667 -21 26 -36s11 -31.833 11 -50.5zM108.995 743h13
c2.66699 0 4.66699 -1 6 -3l103 -123l103 123c1.33301 2 3.33301 3 6 3h13c4.66699 0 5.66699 -2 3 -6l-114 -134c-1.33301 -2 -3.33301 -3 -6 -3h-10c-2.66699 0 -4.66699 1 -6 3l-114 134c-3.33301 4 -2.33301 6 3 6z" />
    <glyph glyph-name="uni0162" unicode="&#x162;" horiz-adv-x="527" 
d="M237 -227h-7.99805c-4.66699 0 -6.33398 2 -5.00098 6l38 144c1.33301 2.66699 3 4 5 4h14c3.33301 0 4.66602 -2 3.99902 -6l-43 -144c-1.33301 -2.66699 -3 -4 -5 -4zM17.002 715h493c3.33301 0 5 -1.66699 5 -5v-10c0 -3.33301 -1.66699 -5 -5 -5h-238v-690
c0 -3.33301 -1.66699 -5 -5 -5h-11c-3.33301 0 -5 1.66699 -5 5v690h-234c-3.33301 0 -5 1.66699 -5 5v10c0 3.33301 1.66699 5 5 5z" />
    <glyph glyph-name="uni0163" unicode="&#x163;" horiz-adv-x="298" 
d="M159 -223h-5.99902c-4.66699 0 -6.33398 2 -5.00098 6l37 140c1.33301 2.66699 3 4 5 4h12c4 0 5.33301 -2 4 -6l-42 -140c-1.33301 -2.66699 -3 -4 -5 -4zM95.001 151c0 -44.667 11 -79.166 33 -103.499s54 -36.5 96 -36.5c21.333 0 42 1 62 3c3.33301 1.33301 5 0 5 -4
v-9c0 -2.66699 -1.66699 -4.66699 -5 -6c-20 -2 -40.667 -3 -62 -3c-47.333 0 -84 14.167 -110 42.5s-39 67.166 -39 116.499v487c0 3.33301 1.66699 5 5 5h10c3.33301 0 5 -1.66699 5 -5v-125h178c3.33301 0 5 -1.66699 5 -5v-9c0 -3.33301 -1.66699 -5 -5 -5h-178v-343z
" />
    <glyph glyph-name="Tcaron" unicode="&#x164;" horiz-adv-x="527" 
d="M17 715h493c3.33301 0 5 -1.66699 5 -5v-10c0 -3.33301 -1.66699 -5 -5 -5h-238v-690c0 -3.33301 -1.66699 -5 -5 -5h-11c-3.33301 0 -5 1.66699 -5 5v690h-234c-3.33301 0 -5 1.66699 -5 5v10c0 3.33301 1.66699 5 5 5zM119 933h12c2.66699 0 5 -1 7 -3l123 -121
l123 121c2 2 4.33301 3 7 3h12c6 0 7 -2 3 -6l-131 -134c-2 -2 -4.33301 -3 -7 -3h-14c-2.66699 0 -5 1 -7 3l-131 134c-4 4 -3 6 3 6z" />
    <glyph glyph-name="tcaron" unicode="&#x165;" horiz-adv-x="298" 
d="M286 -5c-20 -2 -40.667 -2.99902 -62 -2.99902c-47.333 0 -84 14.167 -110 42.5s-39 67.166 -39 116.499v487c0 3.33301 1.66699 5 5 5h10c3.33301 0 5 -1.66699 5 -5v-125h178c3.33301 0 5 -1.66699 5 -5v-9c0 -3.33301 -1.66699 -5 -5 -5h-178v-343
c0 -44.667 11 -79.167 33 -103.5s54 -36.5 96 -36.5c21.333 0 42 1 62 3c3.33301 1.33301 5 0 5 -4v-9c0 -2.66699 -1.66699 -4.66699 -5 -6zM222 593.001h-5.99902c-4 0 -5.66699 2 -5 6l37 140c1.33301 2.66699 3 4 5 4h12c3.33301 0 4.66602 -2 3.99902 -6l-42 -140
c-1.33301 -2.66699 -3 -4 -5 -4z" />
    <glyph glyph-name="Tbar" unicode="&#x166;" horiz-adv-x="544" 
d="M276 0h-11c-3.33301 0 -5 1.66699 -5 5v334h-156c-3.33301 0 -5 1.66699 -5 5v10c0 3.33301 1.66699 5 5 5h156v336h-234c-3.33301 0 -5 1.66699 -5 5v10c0 3.33301 1.66699 5 5 5h493c3.33301 0 5 -1.66699 5 -5v-10c0 -3.33301 -1.66699 -5 -5 -5h-238v-336h156
c3.33301 0 5 -1.66699 5 -5v-10c0 -3.33301 -1.66699 -5 -5 -5h-156v-334c0 -3.33301 -1.66699 -5 -5 -5z" />
    <glyph glyph-name="tbar" unicode="&#x167;" horiz-adv-x="300" 
d="M288 -5c-20 -2 -40.667 -2.99902 -62 -2.99902c-47.333 0 -84 14.167 -110 42.5s-39 67.166 -39 116.499v120h-52c-3.33301 0 -5 1.66699 -5 5v9c0 3.33301 1.66699 5 5 5h52v348c0 3.33301 1.66699 5 5 5h10c3.33301 0 5 -1.66699 5 -5v-125h178
c3.33301 0 5 -1.66699 5 -5v-9c0 -3.33301 -1.66699 -5 -5 -5h-178v-204h135c3.33301 0 5 -1.66699 5 -5v-9c0 -3.33301 -1.66699 -5 -5 -5h-135v-120c0 -44.667 11 -79.167 33 -103.5s54 -36.5 96 -36.5c21.333 0 42 1 62 3c3.33301 1.33301 5 0 5 -4v-9
c0 -2.66699 -1.66699 -4.66699 -5 -6z" />
    <glyph glyph-name="Umacron" unicode="&#x16a;" horiz-adv-x="670" 
d="M576 240c0 -74.667 -21.167 -134.667 -63.5 -180s-101.5 -68 -177.5 -68s-135.167 22.667 -177.5 68s-63.5 105.333 -63.5 180v470c0 3.33301 1.66699 5 5 5h11c3.33301 0 5 -1.66699 5 -5v-470c0 -69.333 19.167 -124.666 57.5 -165.999s92.5 -62 162.5 -62
s124.167 20.667 162.5 62s57.5 96.666 57.5 165.999v470c0 3.33301 1.66699 5 5 5h11c3.33301 0 5 -1.66699 5 -5v-470zM459 845h-249c-3.33301 0 -5 1.66699 -5 5v10c0 3.33301 1.66699 5 5 5h249c3.33301 0 5 -1.66699 5 -5v-10c0 -3.33301 -1.66699 -5 -5 -5z" />
    <glyph glyph-name="umacron" unicode="&#x16b;" horiz-adv-x="537" 
d="M444 513l10.001 0.000976562c3.33301 0 5 -1.66699 5 -5v-474c0 -3.33301 -1.33301 -5.33301 -4 -6c-54.667 -25.333 -113.334 -38 -176.001 -38c-65.333 0 -115.833 17 -151.5 51s-53.5 83.333 -53.5 148v319c0 3.33301 1.66699 5 5 5h10c3.33301 0 5 -1.66699 5 -5
v-319c0 -58.667 16 -103.334 48 -134.001s77.667 -46 137 -46c50.667 0 104 10.667 160 32v467c0 3.33301 1.66699 5 5 5zM146.001 659.001v8c0 3.33301 1.66699 5 5 5h230c3.33301 0 5 -1.66699 5 -5v-8c0 -3.33301 -1.66699 -5 -5 -5h-230c-3.33301 0 -5 1.66699 -5 5z
" />
    <glyph glyph-name="Uring" unicode="&#x16e;" horiz-adv-x="670" 
d="M576 240c0 -74.667 -21.167 -134.667 -63.5 -180s-101.5 -68 -177.5 -68s-135.167 22.667 -177.5 68s-63.5 105.333 -63.5 180v470c0 3.33301 1.66699 5 5 5h11c3.33301 0 5 -1.66699 5 -5v-470c0 -69.333 19.167 -124.666 57.5 -165.999s92.5 -62 162.5 -62
s124.167 20.667 162.5 62s57.5 96.666 57.5 165.999v470c0 3.33301 1.66699 5 5 5h11c3.33301 0 5 -1.66699 5 -5v-470zM429 866c0 -26.667 -8.66699 -48.167 -26 -64.5s-39.666 -24.5 -66.999 -24.5c-28.667 0 -51.667 8.16699 -69 24.5s-26 37.833 -26 64.5
c0 26 8.66699 47.167 26 63.5s40.333 24.5 69 24.5c27.333 0 49.666 -8.16699 66.999 -24.5s26 -37.5 26 -63.5zM260 866c0 -21.333 6.83301 -38.5 20.5 -51.5s32.167 -19.5 55.5 -19.5s41.5 6.5 54.5 19.5s19.5 30.167 19.5 51.5c0 20.667 -6.5 37.5 -19.5 50.5
s-31.167 19.5 -54.5 19.5s-41.833 -6.5 -55.5 -19.5s-20.5 -29.833 -20.5 -50.5z" />
    <glyph glyph-name="uring" unicode="&#x16f;" horiz-adv-x="537" 
d="M444 513l10.001 0.000976562c3.33301 0 5 -1.66699 5 -5v-474c0 -3.33301 -1.33301 -5.33301 -4 -6c-54.667 -25.333 -113.334 -38 -176.001 -38c-65.333 0 -115.833 17 -151.5 51s-53.5 83.333 -53.5 148v319c0 3.33301 1.66699 5 5 5h10c3.33301 0 5 -1.66699 5 -5
v-319c0 -58.667 16 -103.334 48 -134.001s77.667 -46 137 -46c50.667 0 104 10.667 160 32v467c0 3.33301 1.66699 5 5 5zM360.001 677.001c0 -26 -8.66699 -47.667 -26 -65s-40 -26 -68 -26s-50.667 8.66699 -68 26s-26 39 -26 65s8.66699 47.833 26 65.5s40 26.5 68 26.5
s50.667 -8.83301 68 -26.5s26 -39.5 26 -65.5zM191.001 677.001c0 -22 6.83301 -39.667 20.5 -53s32.167 -20 55.5 -20s41.5 6.66699 54.5 20s19.5 31 19.5 53s-6.5 39.833 -19.5 53.5s-31.167 20.5 -54.5 20.5s-41.833 -6.83301 -55.5 -20.5s-20.5 -31.5 -20.5 -53.5z" />
    <glyph glyph-name="Uhungarumlaut" unicode="&#x170;" horiz-adv-x="670" 
d="M576 240c0 -74.667 -21.167 -134.667 -63.5 -180s-101.5 -68 -177.5 -68s-135.167 22.667 -177.5 68s-63.5 105.333 -63.5 180v470c0 3.33301 1.66699 5 5 5h11c3.33301 0 5 -1.66699 5 -5v-470c0 -69.333 19.167 -124.666 57.5 -165.999s92.5 -62 162.5 -62
s124.167 20.667 162.5 62s57.5 96.666 57.5 165.999v470c0 3.33301 1.66699 5 5 5h11c3.33301 0 5 -1.66699 5 -5v-470zM237 790h-9c-4.66699 0 -5.66699 2 -3 6l109 134c1.33301 2 3.33301 3 6 3h17c4.66699 0 5.66699 -2 3 -6l-117 -134c-0.666992 -2 -2.66699 -3 -6 -3z
M391 790h-9c-4.66699 0 -5.66699 2 -3 6l109 134c1.33301 2 3.33301 3 6 3h17c4.66699 0 5.66699 -2 3 -6l-117 -134c-0.666992 -2 -2.66699 -3 -6 -3z" />
    <glyph glyph-name="uhungarumlaut" unicode="&#x171;" horiz-adv-x="537" 
d="M444 513l10.001 0.000976562c3.33301 0 5 -1.66699 5 -5v-474c0 -3.33301 -1.33301 -5.33301 -4 -6c-54.667 -25.333 -113.334 -38 -176.001 -38c-65.333 0 -115.833 17 -151.5 51s-53.5 83.333 -53.5 148v319c0 3.33301 1.66699 5 5 5h10c3.33301 0 5 -1.66699 5 -5
v-319c0 -58.667 16 -103.334 48 -134.001s77.667 -46 137 -46c50.667 0 104 10.667 160 32v467c0 3.33301 1.66699 5 5 5zM197.001 600.001h-9c-4.66699 0 -6 2 -4 6l77 134c0.666992 2 2.66699 3 6 3h15c4 0 5 -2 3 -6l-82 -134c-0.666992 -2 -2.66699 -3 -6 -3z
M310.001 600.001h-9c-4.66699 0 -6 2 -4 6l77 134c1.33301 2 3.33301 3 6 3h15c4 0 5 -2 3 -6l-82 -134c-1.33301 -2 -3.33301 -3 -6 -3z" />
    <glyph glyph-name="Uogonek" unicode="&#x172;" horiz-adv-x="670" 
d="M480 -180c-20.667 -12 -45.001 -18.001 -73.001 -18.001c-20.667 0 -37.167 6.16699 -49.5 18.5s-18.5 29.833 -18.5 52.5c0 44 25.667 88 77 132v1c-26 -9.33301 -53 -14 -81 -14c-70.667 0 -128.5 21.833 -173.5 65.5s-67.5 98.167 -67.5 163.5v489
c0 3.33301 1.66699 5 5 5h11c3.33301 0 5 -1.66699 5 -5v-489c0 -59.333 20.333 -109 61 -149s93.667 -60 159 -60s118.333 20 159 60s61 89.667 61 149v489c0 3.33301 1.66699 5 5 5h11c3.33301 0 5 -1.66699 5 -5v-489c0 -80.667 -36 -145.667 -108 -195
c-35.333 -24 -62.166 -49.667 -80.499 -77s-27.5 -52.666 -27.5 -75.999c0 -34 16 -51 48 -51c24.667 0 45.334 5 62.001 15c3.33301 2 5.66602 1.33301 6.99902 -2l4 -9c1.33301 -2.66699 1 -4.66699 -1 -6z" />
    <glyph glyph-name="uogonek" unicode="&#x173;" horiz-adv-x="537" 
d="M440 -175c-22.667 -15.333 -47.334 -22.999 -74.001 -22.999c-24 0 -43 6.33301 -57 19s-21 31 -21 55c0 23.333 9.66699 46.666 29 69.999s46 44.333 80 63c-37.333 -12.667 -76.333 -19 -117 -19c-66 0 -116.833 16.667 -152.5 50s-53.5 82.333 -53.5 147v321
c0 3.33301 1.66699 5 5 5h10c3.33301 0 5 -1.66699 5 -5v-321c0 -58.667 15.833 -103 47.5 -133s77.834 -45 138.501 -45c51.333 0 104.333 9.66699 159 29v470c0 3.33301 1.66699 5 5 5h10c3.33301 0 5 -1.66699 5 -5v-478c0 -3.33301 -1.33301 -5.33301 -4 -6
c-39.333 -18 -73.666 -40.5 -102.999 -67.5s-44 -53.833 -44 -80.5c0 -36.667 19.333 -55 58 -55c22 0 43.667 7 65 21c3.33301 1.33301 5.33301 0.666016 6 -2.00098l5 -8c1.33301 -3.33301 0.666016 -5.66602 -2.00098 -6.99902z" />
    <glyph glyph-name="Wcircumflex" unicode="&#x174;" horiz-adv-x="928" 
d="M244 0h-16c-2 -0 -3.66699 1.33301 -5 4l-207 705c-1.33301 4 0 6 4 6h12c2 0 3.66699 -1.33301 5 -4l199 -683l217 669c1.33301 2.66699 3 4 5 4h12c2 0 3.66699 -1.33301 5 -4l217 -669l199 683c1.33301 2.66699 3 4 5 4h12c4 0 5.33301 -2 4 -6l-207 -705
c-1.33301 -2.66699 -3 -4 -5 -4h-16c-2 -0 -3.66699 1.33301 -5 4l-215 662l-215 -662c-1.33301 -2.66699 -3 -4 -5 -4zM334 790h-12c-6 0 -7 2 -3 6l131 134c2 2 4.33301 3 7 3h14c2.66699 0 5 -1 7 -3l131 -134c4 -4 3 -6 -3 -6h-12c-2.66699 0 -5 1 -7 3l-123 121
l-123 -121c-2 -2 -4.33301 -3 -7 -3z" />
    <glyph glyph-name="wcircumflex" unicode="&#x175;" horiz-adv-x="738" 
d="M191 0c-2 0 -3.66699 1.33301 -5 4l-162 503c-1.33301 4 0 6 4 6h11c2 0 3.66699 -1.33301 5 -4l155 -481l158 469c1.33301 2.66699 3 4 5 4h14c2 0 3.66699 -1.33301 5 -4l158 -469l155 481c1.33301 2.66699 3 4 5 4h11c4 0 5.33301 -2 4 -6l-162 -503
c-1.33301 -2.66699 -3 -4 -5 -4h-15c-2 -0 -3.66699 1.33301 -5 4l-158 469l-158 -469c-1.33301 -2.66699 -3 -4 -5 -4h-15zM260 600h-13c-4.66699 0 -5.66699 2 -3 6l114 134c1.33301 2 3.33301 3 6 3h10c2.66699 0 4.66699 -1 6 -3l114 -134c2.66699 -4 1.66699 -6 -3 -6
h-13c-2.66699 0 -4.66699 1 -6 3l-103 123l-103 -123c-1.33301 -2 -3.33301 -3 -6 -3z" />
    <glyph glyph-name="Ycircumflex" unicode="&#x176;" horiz-adv-x="529" 
d="M270 0h-11c-3.33301 0 -5 1.66699 -5 5v281l-242 423c-2 4 -0.666992 6 4 6h12c2.66699 0 4.66699 -1 6 -3l231 -404l231 404c1.33301 2 3.33301 3 6 3h12c4.66699 0 6 -2 4 -6l-243 -423v-281c0 -3.33301 -1.66699 -5 -5 -5zM135 790h-12c-6 0 -7 2 -3 6l131 134
c2 2 4.33301 3 7 3h14c2.66699 0 5 -1 7 -3l131 -134c4 -4 3 -6 -3 -6h-12c-2.66699 0 -5 1 -7 3l-123 121l-123 -121c-2 -2 -4.33301 -3 -7 -3z" />
    <glyph glyph-name="ycircumflex" unicode="&#x177;" horiz-adv-x="538" 
d="M439 78v429.999c0 3.33301 1.66699 5 5 5h10c3.33301 0 5 -1.66699 5 -5v-530c0 -53.333 -15.833 -96.333 -47.5 -129s-78.834 -49 -141.501 -49c-65.333 0 -127 26.667 -185 80c-2 2.66699 -2 5 0 7l6 7c2 2.66699 4.33301 2.66699 7 0c54.667 -50 112 -75 172 -75
c57.333 0 99.833 14.333 127.5 43s41.5 67.334 41.5 116.001v80c-46.667 -25.333 -99.667 -38 -159 -38c-64.667 0 -115.167 16.167 -151.5 48.5s-54.5 79.833 -54.5 142.5v297c0 3.33301 1.66699 5 5 5h10c3.33301 0 5 -1.66699 5 -5v-297
c0 -57.333 16.333 -100.333 49 -129s78.667 -43 138 -43c56.667 0 109.334 13 158.001 39zM162 599.999h-13c-5.33301 0 -6.33301 2 -3 6l114 134c1.33301 2 3.33301 3 6 3h10c2.66699 0 4.66699 -1 6 -3l114 -134c2.66699 -4 1.66699 -6 -3 -6h-13
c-2.66699 0 -4.66699 1 -6 3l-103 123l-103 -123c-1.33301 -2 -3.33301 -3 -6 -3z" />
    <glyph glyph-name="Ydieresis" unicode="&#x178;" horiz-adv-x="529" 
d="M270 0h-11c-3.33301 0 -5 1.66699 -5 5v281l-242 423c-2 4 -0.666992 6 4 6h12c2.66699 0 4.66699 -1 6 -3l231 -404l231 404c1.33301 2 3.33301 3 6 3h12c4.66699 0 6 -2 4 -6l-243 -423v-281c0 -3.33301 -1.66699 -5 -5 -5zM186 859c0 -13.333 -6.66699 -20 -20 -20
s-20 6.66699 -20 20s6.66699 20 20 20s20 -6.66699 20 -20zM384 859c0 -13.333 -6.66699 -20 -20 -20s-20 6.66699 -20 20s6.66699 20 20 20s20 -6.66699 20 -20z" />
    <glyph glyph-name="Zacute" unicode="&#x179;" horiz-adv-x="546" 
d="M507 0h-470c-3.33301 0 -5 1.66699 -5 5v5c0 1.33301 0.666992 3.33301 2 6l444 679h-427c-3.33301 0 -5 1.66699 -5 5v10c0 3.33301 1.66699 5 5 5h450c3.33301 0 5 -1.66699 5 -5v-7c0 -1.33301 -0.666992 -3.33301 -2 -6l-443 -677h446c3.33301 0 5 -1.66699 5 -5v-10
c0 -3.33301 -1.66699 -5 -5 -5zM371 927l-115 -134c-1.33301 -2 -3.33301 -3 -6 -3h-10c-4.66699 0 -5.66699 2 -3 6l108 134c0.666992 2 2.66699 3 6 3h17c5.33301 0 6.33301 -2 3 -6z" />
    <glyph glyph-name="zacute" unicode="&#x17a;" horiz-adv-x="442" 
d="M408 0h-374c-3.33301 0 -5 1.66699 -5 5v7c0 1.33301 0.666992 3.33301 2 6l345 476h-327c-3.33301 0 -5 1.66699 -5 5v9c0 3.33301 1.66699 5 5 5h350c3.33301 0 5 -1.66699 5 -5v-6c0 -1.33301 -0.666992 -3.33301 -2 -6l-346 -477h352c3.33301 0 5 -1.66699 5 -5v-9
c0 -3.33301 -1.66699 -5 -5 -5zM192 600h-8.00098c-5.33301 0 -6.66602 2 -3.99902 6l83 134c0.666992 2 2.66699 3 6 3h15c4 0 5 -2 3 -6l-89 -134c-1.33301 -2 -3.33301 -3 -6 -3z" />
    <glyph glyph-name="Zdotaccent" unicode="&#x17b;" horiz-adv-x="546" 
d="M507 0h-470c-3.33301 0 -5 1.66699 -5 5v5c0 1.33301 0.666992 3.33301 2 6l444 679h-427c-3.33301 0 -5 1.66699 -5 5v10c0 3.33301 1.66699 5 5 5h450c3.33301 0 5 -1.66699 5 -5v-7c0 -1.33301 -0.666992 -3.33301 -2 -6l-443 -677h446c3.33301 0 5 -1.66699 5 -5v-10
c0 -3.33301 -1.66699 -5 -5 -5zM292 859c0 -14.667 -7.33301 -22 -22 -22s-22 7.33301 -22 22s7.33301 22 22 22s22 -7.33301 22 -22z" />
    <glyph glyph-name="zdotaccent" unicode="&#x17c;" horiz-adv-x="442" 
d="M408 0h-374c-3.33301 0 -5 1.66699 -5 5v7c0 1.33301 0.666992 3.33301 2 6l345 476h-327c-3.33301 0 -5 1.66699 -5 5v9c0 3.33301 1.66699 5 5 5h350c3.33301 0 5 -1.66699 5 -5v-6c0 -1.33301 -0.666992 -3.33301 -2 -6l-346 -477h352c3.33301 0 5 -1.66699 5 -5v-9
c0 -3.33301 -1.66699 -5 -5 -5zM245 650c0 -14.667 -7.33301 -22 -22 -22s-22 7.33301 -22 22s7.33301 22 22 22s22 -7.33301 22 -22z" />
    <glyph glyph-name="Zcaron" unicode="&#x17d;" horiz-adv-x="546" 
d="M507 0h-470c-3.33301 0 -5 1.66699 -5 5v5c0 1.33301 0.666992 3.33301 2 6l444 679h-427c-3.33301 0 -5 1.66699 -5 5v10c0 3.33301 1.66699 5 5 5h450c3.33301 0 5 -1.66699 5 -5v-7c0 -1.33301 -0.666992 -3.33301 -2 -6l-443 -677h446c3.33301 0 5 -1.66699 5 -5v-10
c0 -3.33301 -1.66699 -5 -5 -5zM128 933h12c2.66699 0 5 -1 7 -3l123 -121l123 121c2 2 4.33301 3 7 3h12c6 0 7 -2 3 -6l-131 -134c-2 -2 -4.33301 -3 -7 -3h-14c-2.66699 0 -5 1 -7 3l-131 134c-4 4 -3 6 3 6z" />
    <glyph glyph-name="zcaron" unicode="&#x17e;" horiz-adv-x="442" 
d="M408 0h-374c-3.33301 0 -5 1.66699 -5 5v7c0 1.33301 0.666992 3.33301 2 6l345 476h-327c-3.33301 0 -5 1.66699 -5 5v9c0 3.33301 1.66699 5 5 5h350c3.33301 0 5 -1.66699 5 -5v-6c0 -1.33301 -0.666992 -3.33301 -2 -6l-346 -477h352c3.33301 0 5 -1.66699 5 -5v-9
c0 -3.33301 -1.66699 -5 -5 -5zM101 743h13c2.66699 0 4.66699 -1 6 -3l103 -123l103 123c1.33301 2 3.33301 3 6 3h13c4.66699 0 5.66699 -2 3 -6l-114 -134c-1.33301 -2 -3.33301 -3 -6 -3h-10c-2.66699 0 -4.66699 1 -6 3l-114 134c-3.33301 4 -2.33301 6 3 6z" />
    <glyph glyph-name="florin" unicode="&#x192;" horiz-adv-x="424" 
d="M138 1c-16.667 -86 -49.998 -129 -99.998 -129c-20.667 0 -41.334 4 -62.001 12c-3.33301 1.33301 -4.33301 3.66602 -3 6.99902l3 8c1.33301 3.33301 3.66602 4.33301 6.99902 3c15.333 -7.33301 33.333 -11 54 -11c22.667 0 40 9 52 27s22 48.333 30 91l64 342h-100
c-3.33301 0 -5 1.66699 -5 5v9c0 3.33301 1.66699 5 5 5h104l40 215c8.66699 48 21.167 83.333 37.5 106s42.5 34 78.5 34c18.667 0 39 -3.66699 61 -11c3.33301 -1.33301 4.33301 -3.66602 3 -6.99902l-2 -9c-0.666992 -3.33301 -2.66699 -4.33301 -6 -3
c-19.333 7.33301 -39 11 -59 11c-28 0 -48.5 -9.66699 -61.5 -29s-23.833 -52 -32.5 -98l-39 -209h113c3.33301 0 5 -1.66699 5 -5v-9c0 -3.33301 -1.66699 -5 -5 -5h-116z" />
    <glyph glyph-name="uni0218" unicode="&#x218;" horiz-adv-x="589" 
d="M541 176c0 -58.667 -21.502 -104.335 -64.502 -137.002s-101.833 -49 -176.5 -49c-49.333 0 -92.666 7.33301 -129.999 22s-75.333 38.667 -114 72c-3.33301 2 -3.66602 4.33301 -0.999023 7l7 8c2 2 4.33301 2.33301 7 1c37.333 -31.333 74 -54.166 110 -68.499
s76.333 -21.5 121 -21.5c68 0 121.667 14.167 161 42.5s59 69.5 59 123.5c0 47.333 -16.333 84 -49 110s-91.667 49 -177 69c-80.667 18.667 -140.167 44 -178.5 76s-57.5 73.333 -57.5 124c0 55.333 21.833 97.5 65.5 126.5s98.5 43.5 164.5 43.5
c88.667 0 166.334 -26.667 233.001 -80c2 -1.33301 2.33301 -3.66602 1 -6.99902l-5 -8c-2.66699 -3.33301 -5 -4 -7 -2c-62 51.333 -137 77 -225 77c-58.667 0 -107.667 -12.833 -147 -38.5s-59 -63.167 -59 -112.5c0 -46 17.5 -82.833 52.5 -110.5s90.5 -50.5 166.5 -68.5
c91.333 -22 154.666 -48 189.999 -78s53 -70.333 53 -121zM272.998 -227.001h-7.99805c-4.66699 0 -6.33398 2 -5.00098 6l38 144c1.33301 2.66699 3 4 5 4h14c3.33301 0 4.66602 -2 3.99902 -6l-43 -144c-1.33301 -2.66699 -3 -4 -5 -4z" />
    <glyph glyph-name="uni0219" unicode="&#x219;" horiz-adv-x="459" 
d="M418 131c0 -42 -16.1719 -76 -48.5049 -102s-78.166 -39 -137.499 -39c-70 0 -132.667 21.333 -188 64c-3.33301 2 -3.66602 4.33301 -0.999023 7l5 8c2 2 4.33301 2.33301 7 1c54 -40.667 113 -61 177 -61c50.667 0 91 10.667 121 32s45 51.333 45 90
c0 16.667 -3.66699 31.667 -11 45s-15.333 23.833 -24 31.5s-21.834 14.667 -39.501 21s-32 11 -43 14s-27.167 6.5 -48.5 10.5c-24.667 4.66699 -46.334 10.167 -65.001 16.5s-37.667 14.833 -57 25.5s-34.166 24.667 -44.499 42s-15.5 37.333 -15.5 60
c0 38 15.833 68.5 47.5 91.5s72.834 34.5 123.501 34.5c60.667 0 119.667 -16.333 177 -49c2.66699 -2.66699 3 -5 1 -7l-4 -8c-1.33301 -2.66699 -3.66602 -3 -6.99902 -1c-53.333 30.667 -109 46 -167 46c-44 0 -80.167 -9.5 -108.5 -28.5s-42.5 -45.167 -42.5 -78.5
c0 -16 3.33301 -30.5 10 -43.5s15 -23.5 25 -31.5s22.833 -15.5 38.5 -22.5s30.334 -12.333 44.001 -16s29.834 -7.5 48.501 -11.5c22.667 -4.66699 41 -9 55 -13s30 -9.66699 48 -17s32 -15.5 42 -24.5s18.667 -21 26 -36s11 -31.833 11 -50.5zM199.995 -223h-5.99902
c-4 0 -5.66699 2 -5 6l37 140c1.33301 2.66699 3 4 5 4h12c3.33301 0 4.66602 -2 3.99902 -6l-42 -140c-1.33301 -2.66699 -3 -4 -5 -4z" />
    <glyph glyph-name="uni021A" unicode="&#x21a;" horiz-adv-x="527" 
d="M17 715h493c3.33301 0 5 -1.66699 5 -5v-10c0 -3.33301 -1.66699 -5 -5 -5h-238v-690c0 -3.33301 -1.66699 -5 -5 -5h-11c-3.33301 0 -5 1.66699 -5 5v690h-234c-3.33301 0 -5 1.66699 -5 5v10c0 3.33301 1.66699 5 5 5zM237 -227h-7.99805
c-4.66699 0 -6.33398 2 -5.00098 6l38 144c1.33301 2.66699 3 4 5 4h14c3.33301 0 4.66602 -2 3.99902 -6l-43 -144c-1.33301 -2.66699 -3 -4 -5 -4z" />
    <glyph glyph-name="uni021B" unicode="&#x21b;" horiz-adv-x="298" 
d="M95 151c0 -44.667 11 -79.166 33 -103.499s54 -36.5 96 -36.5c21.333 0 42 1 62 3c3.33301 1.33301 5 0 5 -4v-9c0 -2.66699 -1.66699 -4.66699 -5 -6c-20 -2 -40.667 -3 -62 -3c-47.333 0 -84 14.167 -110 42.5s-39 67.166 -39 116.499v487c0 3.33301 1.66699 5 5 5h10
c3.33301 0 5 -1.66699 5 -5v-125h178c3.33301 0 5 -1.66699 5 -5v-9c0 -3.33301 -1.66699 -5 -5 -5h-178v-343zM150 -222.999h-5.99902c-4 0 -5.66699 2 -5 6l37 140c1.33301 2.66699 3 4 5 4h12c3.33301 0 4.66602 -2 3.99902 -6l-42 -140c-1.33301 -2.66699 -3 -4 -5 -4z
" />
    <glyph glyph-name="uni0237" unicode="&#x237;" horiz-adv-x="186" 
d="M107 -39c0 -107.333 -40.001 -160.997 -120.001 -160.997c-6 0 -23.333 1.66699 -52 5c-3.33301 1.33301 -5 3.33301 -5 6v8c0 1.33301 0.5 2.66602 1.5 3.99902s2.16699 1.66602 3.5 0.999023c20 -3.33301 36.667 -5 50 -5c32.667 0 57.834 10.667 75.501 32
s26.5 56.666 26.5 105.999v551c0 3.33301 1.66699 5 5 5h10c3.33301 0 5 -1.66699 5 -5v-547z" />
    <glyph glyph-name="circumflex" unicode="&#x2c6;" horiz-adv-x="294" 
d="M38 600h-13c-4.66699 0 -5.66699 2 -3 6l114 134c1.33301 2 3.33301 3 6 3h10c2.66699 0 4.66699 -1 6 -3l114 -134c2.66699 -4 1.66699 -6 -3 -6h-13c-2.66699 0 -4.66699 1 -6 3l-103 123l-103 -123c-1.33301 -2 -3.33301 -3 -6 -3z" />
    <glyph glyph-name="caron" unicode="&#x2c7;" horiz-adv-x="294" 
d="M25 743h13c2.66699 0 4.66699 -1 6 -3l103 -123l103 123c1.33301 2 3.33301 3 6 3h13c4.66699 0 5.66699 -2 3 -6l-114 -134c-1.33301 -2 -3.33301 -3 -6 -3h-10c-2.66699 0 -4.66699 1 -6 3l-114 134c-2.66699 4 -1.66699 6 3 6z" />
    <glyph glyph-name="breve" unicode="&#x2d8;" horiz-adv-x="290" 
d="M285 736c-4.66699 -40 -19.6689 -72.832 -45.002 -98.499s-57.666 -38.5 -96.999 -38.5s-71.666 12.833 -96.999 38.5s-40.333 58.5 -45 98.5c-1.33301 3.33301 0 5.33301 4 6l10 1c3.33301 0 5.33301 -1.33301 6 -4c4.66699 -36.667 17.5 -66 38.5 -88
s48.833 -33 83.5 -33s62.5 11 83.5 33s33.833 51.333 38.5 88c1.33301 3.33301 3.33301 4.66602 6 3.99902l10 -1c4 0 5.33301 -2 4 -6z" />
    <glyph glyph-name="dotaccent" unicode="&#x2d9;" horiz-adv-x="64" 
d="M54 650c0 -14.667 -7.33301 -22 -22 -22s-22 7.33301 -22 22s7.33301 22 22 22s22 -7.33301 22 -22z" />
    <glyph glyph-name="ring" unicode="&#x2da;" horiz-adv-x="192" 
d="M190 677c0 -26 -8.66699 -47.667 -26 -65s-40 -26 -68 -26s-50.667 8.66699 -68 26s-26 39 -26 65s8.66699 47.833 26 65.5s40 26.5 68 26.5s50.667 -8.83301 68 -26.5s26 -39.5 26 -65.5zM21 677c0 -22 6.83301 -39.667 20.5 -53s32.167 -20 55.5 -20
s41.5 6.66699 54.5 20s19.5 31 19.5 53s-6.5 39.833 -19.5 53.5s-31.167 20.5 -54.5 20.5s-41.833 -6.83301 -55.5 -20.5s-20.5 -31.5 -20.5 -53.5z" />
    <glyph glyph-name="ogonek" unicode="&#x2db;" horiz-adv-x="155" 
d="M137 -180c-20.667 -12 -44.998 -17.999 -72.998 -17.999c-20.667 0 -37.167 6 -49.5 18s-18.5 29 -18.5 51s8.5 44.5 25.5 67.5s39.5 42.833 67.5 59.5c1.33301 1.33301 3.33301 2 6 2h10c6 0 6.33301 -2 1 -6c-28.667 -18.667 -50.834 -39.334 -66.501 -62.001
s-23.5 -43 -23.5 -61c0 -33.333 16.333 -50 49 -50c22 0 42.667 5 62 15c3.33301 2 5.66602 1.33301 6.99902 -2l4 -8c1.33301 -2.66699 1 -4.66699 -1 -6z" />
    <glyph glyph-name="tilde" unicode="&#x2dc;" horiz-adv-x="265" 
d="M264 679c-4.66699 -13.333 -12.832 -24.834 -24.499 -34.501s-24.834 -14.5 -39.501 -14.5c-14 0 -36.333 7.66699 -67 23c-28 15.333 -50 23 -66 23c-22.667 0 -39 -12.333 -49 -37c-1.33301 -2 -3.33301 -2.66699 -6 -2l-7 3c-2.66699 2 -3.66699 4.33301 -3 7
c13.333 31.333 35.333 47 66 47c14.667 0 38 -8 70 -24c30.667 -14.667 51 -22 61 -22c22 0 38.333 12.667 49 38c1.33301 2.66699 3.33301 3.33398 6 2.00098l7 -3c2.66699 -1.33301 3.66699 -3.33301 3 -6z" />
    <glyph glyph-name="hungarumlaut" unicode="&#x2dd;" horiz-adv-x="293" 
d="M13 600h-9c-4.66699 0 -6 2 -4 6l77 134c0.666992 2 2.66699 3 6 3h15c4 0 5 -2 3 -6l-82 -134c-0.666992 -2 -2.66699 -3 -6 -3zM126 600h-9c-4.66699 0 -6 2 -4 6l77 134c1.33301 2 3.33301 3 6 3h15c4 0 5 -2 3 -6l-82 -134c-1.33301 -2 -3.33301 -3 -6 -3z" />
    <glyph glyph-name="gravecomb" unicode="&#x300;" horiz-adv-x="107" 
d="M102 600h-8.00098c-2.66699 0 -4.66699 1 -6 3l-89 134c-2 4 -1 6 3 6h15c3.33301 0 5.33301 -1 6 -3l83 -134c2.66699 -4 1.33398 -6 -3.99902 -6z" />
    <glyph glyph-name="acutecomb" unicode="&#x301;" horiz-adv-x="109" 
d="M13 600h-8.00098c-5.33301 0 -6.66602 2 -3.99902 6l83 134c1.33301 2 3.33301 3 6 3h15c4 0 5 -2 3 -6l-89 -134c-0.666992 -2 -2.66699 -3 -6 -3z" />
    <glyph glyph-name="uni0302" unicode="&#x302;" horiz-adv-x="294" 
d="M38 600h-13c-4.66699 0 -5.66699 2 -3 6l114 134c1.33301 2 3.33301 3 6 3h10c2.66699 0 4.66699 -1 6 -3l114 -134c2.66699 -4 1.66699 -6 -3 -6h-13c-2.66699 0 -4.66699 1 -6 3l-103 123l-103 -123c-1.33301 -2 -3.33301 -3 -6 -3z" />
    <glyph glyph-name="tildecomb" unicode="&#x303;" horiz-adv-x="265" 
d="M264 679c-4.66699 -13.333 -12.832 -24.834 -24.499 -34.501s-24.834 -14.5 -39.501 -14.5c-14 0 -36.333 7.66699 -67 23c-28 15.333 -50 23 -66 23c-22.667 0 -39 -12.333 -49 -37c-1.33301 -2 -3.33301 -2.66699 -6 -2l-7 3c-2.66699 2 -3.66699 4.33301 -3 7
c13.333 31.333 35.333 47 66 47c14.667 0 38 -8 70 -24c30.667 -14.667 51 -22 61 -22c22 0 38.333 12.667 49 38c1.33301 2.66699 3.33301 3.33398 6 2.00098l7 -3c2.66699 -1.33301 3.66699 -3.33301 3 -6z" />
    <glyph glyph-name="uni0304" unicode="&#x304;" horiz-adv-x="240" 
d="M0 659v8c0 3.33301 1.66699 5 5 5h230c3.33301 0 5 -1.66699 5 -5v-8c0 -3.33301 -1.66699 -5 -5 -5h-230c-3.33301 0 -5 1.66699 -5 5z" />
    <glyph glyph-name="uni0306" unicode="&#x306;" horiz-adv-x="286" 
d="M285 736c-4.66699 -40 -19.6689 -72.832 -45.002 -98.499s-57.666 -38.5 -96.999 -38.5s-71.666 12.833 -96.999 38.5s-40.333 58.5 -45 98.5c-1.33301 3.33301 0 5.33301 4 6l10 1c3.33301 0 5.33301 -1.33301 6 -4c4.66699 -36.667 17.5 -66 38.5 -88
s48.833 -33 83.5 -33s62.5 11 83.5 33s33.833 51.333 38.5 88c1.33301 3.33301 3.33301 4.66602 6 3.99902l10 -1c4 0 5.33301 -2 4 -6z" />
    <glyph glyph-name="uni0307" unicode="&#x307;" horiz-adv-x="122" 
d="M83 650c0 -14.667 -7.33301 -22 -22 -22s-22 7.33301 -22 22s7.33301 22 22 22s22 -7.33301 22 -22z" />
    <glyph glyph-name="uni0308" unicode="&#x308;" horiz-adv-x="226" 
d="M49 650c0 -13.333 -6.66699 -20 -20 -20s-20 6.66699 -20 20s6.66699 20 20 20s20 -6.66699 20 -20zM217 650c0 -13.333 -6.66699 -20 -20 -20s-20 6.66699 -20 20s6.66699 20 20 20s20 -6.66699 20 -20z" />
    <glyph glyph-name="uni030A" unicode="&#x30a;" horiz-adv-x="192" 
d="M190 677c0 -26 -8.66699 -47.667 -26 -65s-40 -26 -68 -26s-50.667 8.66699 -68 26s-26 39 -26 65s8.66699 47.833 26 65.5s40 26.5 68 26.5s50.667 -8.83301 68 -26.5s26 -39.5 26 -65.5zM21 677c0 -22 6.83301 -39.667 20.5 -53s32.167 -20 55.5 -20
s41.5 6.66699 54.5 20s19.5 31 19.5 53s-6.5 39.833 -19.5 53.5s-31.167 20.5 -54.5 20.5s-41.833 -6.83301 -55.5 -20.5s-20.5 -31.5 -20.5 -53.5z" />
    <glyph glyph-name="uni030B" unicode="&#x30b;" horiz-adv-x="216" 
d="M13 600h-9c-4.66699 0 -6 2 -4 6l77 134c0.666992 2 2.66699 3 6 3h15c4 0 5 -2 3 -6l-82 -134c-0.666992 -2 -2.66699 -3 -6 -3zM126 600h-9c-4.66699 0 -6 2 -4 6l77 134c1.33301 2 3.33301 3 6 3h15c4 0 5 -2 3 -6l-82 -134c-1.33301 -2 -3.33301 -3 -6 -3z" />
    <glyph glyph-name="uni030C" unicode="&#x30c;" horiz-adv-x="294" 
d="M25 743h13c2.66699 0 4.66699 -1 6 -3l103 -123l103 123c1.33301 2 3.33301 3 6 3h13c4.66699 0 5.66699 -2 3 -6l-114 -134c-1.33301 -2 -3.33301 -3 -6 -3h-10c-2.66699 0 -4.66699 1 -6 3l-114 134c-2.66699 4 -1.66699 6 3 6z" />
    <glyph glyph-name="uni0312" unicode="&#x312;" horiz-adv-x="63" 
d="M19 600h-13c-4 0 -5.33301 2 -4 6l46 144c1.33301 2.66699 3 4 5 4h7c4 0 5.33301 -2 4 -6l-40 -144c-1.33301 -2.66699 -3 -4 -5 -4z" />
    <glyph glyph-name="uni0326" unicode="&#x326;" horiz-adv-x="62" 
d="M13 -223h-5.99902c-4.66699 0 -6.33398 2 -5.00098 6l37 140c1.33301 2.66699 3 4 5 4h12c4 0 5.33301 -2 4 -6l-42 -140c-1.33301 -2.66699 -3 -4 -5 -4z" />
    <glyph glyph-name="uni0327" unicode="&#x327;" horiz-adv-x="156" 
d="M157 -128c0 -22 -8.33301 -39.832 -25 -53.499s-39.667 -20.5 -69 -20.5c-20.667 0 -40.334 3 -59.001 9c-2.66699 0.666992 -4 2.66699 -4 6v8c0 3.33301 2 4.66602 6 3.99902c20 -6 39 -9 57 -9c24 0 42.333 5 55 15s19 23.667 19 41c0 18 -6.66699 31 -20 39
s-35.666 12.333 -66.999 13c-2.66699 0 -4.66699 1 -6 3c-2 2 -2.33301 4 -1 6l24 66c1.33301 2.66699 3 4 5 4h10c4 0 5.33301 -2 4 -6l-21 -58c61.333 0 92 -22.333 92 -67z" />
    <glyph glyph-name="uni0328" unicode="&#x328;" horiz-adv-x="134" 
d="M141 -180c-20.667 -12 -44.998 -17.999 -72.998 -17.999c-20.667 0 -37.167 6 -49.5 18s-18.5 29 -18.5 51s8.5 44.5 25.5 67.5s39.5 42.833 67.5 59.5c1.33301 1.33301 3.33301 2 6 2h10c6 0 6.33301 -2 1 -6c-28.667 -18.667 -50.834 -39.334 -66.501 -62.001
s-23.5 -43 -23.5 -61c0 -33.333 16.333 -50 49 -50c22 0 42.667 5 62 15c3.33301 2 5.66602 1.33301 6.99902 -2l4 -8c1.33301 -2.66699 1 -4.66699 -1 -6z" />
    <glyph glyph-name="uni0335" unicode="&#x335;" horiz-adv-x="324" 
d="M319 606h-314c-3.33301 0 -5 1.66699 -5 5v8c0 3.33301 1.66699 5 5 5h314c3.33301 0 5 -1.66699 5 -5v-8c0 -3.33301 -1.66699 -5 -5 -5z" />
    <glyph glyph-name="uni0336" unicode="&#x336;" horiz-adv-x="515" 
d="M0 258v8c0 3.33301 1.66699 5 5 5h505c3.33301 0 5 -1.66699 5 -5v-8c0 -3.33301 -1.66699 -5 -5 -5h-505c-3.33301 0 -5 1.66699 -5 5z" />
    <glyph glyph-name="uni0337" unicode="&#x337;" horiz-adv-x="262" 
d="M3 303l253 226c4 4 6 3 6 -3v-14c0 -2.66699 -1 -4.66699 -3 -6l-253 -226c-4 -4 -6 -3 -6 3v14c0 3.33301 1 5.33301 3 6z" />
    <glyph glyph-name="uni0338" unicode="&#x338;" horiz-adv-x="504" 
d="M47 -37h-10c-4.66699 0 -6 2 -4 6l418 772c1.33301 2.66699 3.33301 4 6 4h10c4.66699 0 6 -2 4 -6l-418 -772c-1.33301 -2.66699 -3.33301 -4 -6 -4z" />
    <glyph glyph-name="tonos" unicode="&#x384;" horiz-adv-x="107" 
d="M13 600h-8.00098c-5.33301 0 -6.66602 2 -3.99902 6l83 134c1.33301 2 3.33301 3 6 3h15c4 0 5 -2 3 -6l-89 -134c-0.666992 -2 -2.66699 -3 -6 -3z" />
    <glyph glyph-name="dieresistonos" unicode="&#x385;" horiz-adv-x="221" 
d="M86 600h-9c-4.66699 0 -6 2 -4 6l76 134c0.666992 2 2.66699 3 6 3h15c4 0 5 -2 3 -6l-81 -134c-1.33301 -2 -3.33301 -3 -6 -3zM40 650c0 -13.333 -6.66699 -20 -20 -20s-20 6.66699 -20 20s6.66699 20 20 20s20 -6.66699 20 -20zM221 650
c0 -13.333 -6.66699 -20 -20 -20s-20 6.66699 -20 20s6.66699 20 20 20s20 -6.66699 20 -20z" />
    <glyph glyph-name="Alphatonos" unicode="&#x386;" horiz-adv-x="597" 
d="M85 572h-8c-6 0 -7.33301 2 -4 6l83 134c1.33301 2 3.33301 3 6 3h15c4 0 5 -2 3 -6l-89 -134c-0.666992 -2 -2.66699 -3 -6 -3zM43 0h-12.002c-3.33301 0 -4.66602 2 -3.99902 6l266 705c1.33301 2.66699 3 4 5 4h16c2 0 3.66699 -1.33301 5 -4l266 -705
c0.666992 -4 -0.666016 -6 -3.99902 -6h-12c-2 -0 -3.66699 1.33301 -5 4l-86 229h-344l-86 -229c-1.33301 -2.66699 -3 -4 -5 -4zM304.998 687l-163 -434h328l-163 434h-2z" />
    <glyph glyph-name="Epsilontonos" unicode="&#x388;" horiz-adv-x="672" 
d="M33 572h-8c-6 0 -7.33301 2 -4 6l83 134c1.33301 2 3.33301 3 6 3h15c4 0 5 -2 3 -6l-89 -134c-0.666992 -2 -2.66699 -3 -6 -3zM234 355v-335h386c3.33301 0 5 -1.66699 5 -5v-10c0 -3.33301 -1.66699 -5 -5 -5h-402c-3.33301 0 -5 1.66699 -5 5v705
c0 3.33301 1.66699 5 5 5h387c3.33301 0 5 -1.66699 5 -5v-10c0 -3.33301 -1.66699 -5 -5 -5h-371v-320h351c3.33301 0 5 -1.66699 5 -5v-10c0 -3.33301 -1.66699 -5 -5 -5h-351z" />
    <glyph glyph-name="Etatonos" unicode="&#x389;" horiz-adv-x="818" 
d="M33 572h-8c-6 0 -7.33301 2 -4 6l83 134c1.33301 2 3.33301 3 6 3h15c4 0 5 -2 3 -6l-89 -134c-0.666992 -2 -2.66699 -3 -6 -3zM697 375v335c0 3.33301 1.66699 5 5 5h11c3.33301 0 5 -1.66699 5 -5v-705c0 -3.33301 -1.66699 -5 -5 -5h-11c-3.33301 0 -5 1.66699 -5 5
v350h-430v-350c0 -3.33301 -1.66699 -5 -5 -5h-11c-3.33301 0 -5 1.66699 -5 5v705c0 3.33301 1.66699 5 5 5h11c3.33301 0 5 -1.66699 5 -5v-335h430z" />
    <glyph glyph-name="Iotatonos" unicode="&#x38a;" horiz-adv-x="326" 
d="M33 572h-8c-6 0 -7.33301 2 -4 6l83 134c1.33301 2 3.33301 3 6 3h15c4 0 5 -2 3 -6l-89 -134c-0.666992 -2 -2.66699 -3 -6 -3zM226 710v-705c0 -3.33301 -1.66699 -5 -5 -5h-11c-3.33301 0 -5 1.66699 -5 5v705c0 3.33301 1.66699 5 5 5h11c3.33301 0 5 -1.66699 5 -5z
" />
    <glyph glyph-name="Omicrontonos" unicode="&#x38c;" horiz-adv-x="755" 
d="M55 572h-8.00098c-5.33301 0 -6.66602 2 -3.99902 6l83 134c1.33301 2 3.33301 3 6 3h15c4 0 5 -2 3 -6l-89 -134c-0.666992 -2 -2.66699 -3 -6 -3zM679.999 218c0 -65.333 -23.998 -119.666 -71.998 -162.999s-110 -65 -186 -65s-138 21.667 -186 65
s-72 97.666 -72 162.999v270c0 70 23.667 127 71 171s109.666 66 186.999 66s139.666 -22 186.999 -66s71 -101 71 -171v-270zM185.001 218c0 -60 21.8291 -109.667 65.4961 -149s100.834 -59 171.501 -59s127.834 19.667 171.501 59s65.5 89 65.5 149v270
c0 64.667 -21.667 117 -65 157s-100.666 60 -171.999 60s-128.666 -20 -171.999 -60s-65 -92.333 -65 -157v-270z" />
    <glyph glyph-name="Upsilontonos" unicode="&#x38e;" horiz-adv-x="686" 
d="M40 572h-8.00098c-5.33301 0 -6.66602 2 -3.99902 6l83 134c0.666992 2 2.66699 3 6 3h15c4 0 5 -2 3 -6l-89 -134c-1.33301 -2 -3.33301 -3 -6 -3zM426.999 0h-11c-3.33301 0 -5 1.66699 -5 5v281l-242 423c-2 4 -0.666992 6 4 6h12c3.33301 0 5.33301 -1 6 -3l231 -404
l231 404c0.666992 2 2.66699 3 6 3h12c4.66699 0 6 -2 4 -6l-243 -423v-281c0 -3.33301 -1.66699 -5 -5 -5z" />
    <glyph glyph-name="Omegatonos" unicode="&#x38f;" horiz-adv-x="761" 
d="M364 0h-181.002c-3.33301 0 -5 1.66699 -5 5v10c0 3.33301 1.66699 5 5 5h149c-47.333 32 -85 70.833 -113 116.5s-42 95.167 -42 148.5v182c0 80.667 22.5 143.834 67.5 189.501s107.5 68.5 187.5 68.5s142.5 -22.833 187.5 -68.5s67.5 -108.834 67.5 -189.501v-182
c0 -53.333 -14 -102.833 -42 -148.5s-65.667 -84.5 -113 -116.5h149c3.33301 0 5 -1.66699 5 -5v-10c0 -3.33301 -1.66699 -5 -5 -5h-181c-3.33301 0 -5 1.66699 -5 5v6c0 3.33301 1 5.33301 3 6c54.667 36 96.334 77 125.001 123s43 94.333 43 145v182
c0 75.333 -20.5 133.833 -61.5 175.5s-98.5 62.5 -172.5 62.5s-131.5 -20.833 -172.5 -62.5s-61.5 -100.167 -61.5 -175.5v-182c0 -50.667 14.333 -99 43 -145s70.334 -87 125.001 -123c2 -0.666992 3 -2.66699 3 -6v-6c0 -3.33301 -1.66699 -5 -5 -5zM34.998 572h-8
c-6 0 -7.33301 2 -4 6l83 134c1.33301 2 3.33301 3 6 3h15c4 0 5 -2 3 -6l-89 -134c-0.666992 -2 -2.66699 -3 -6 -3z" />
    <glyph glyph-name="iotadieresistonos" unicode="&#x390;" horiz-adv-x="178" 
d="M94 0h-10c-3.33301 0 -5 1.66699 -5 5v503c0 3.33301 1.66699 5 5 5h10c3.33301 0 5 -1.66699 5 -5v-503c0 -3.33301 -1.66699 -5 -5 -5zM43 659c0 -13.333 -6.66699 -20 -20 -20s-20 6.66699 -20 20s6.66699 20 20 20s20 -6.66699 20 -20zM65 600h-9
c-4.66699 0 -6 2 -4 6l76 134c1.33301 2 3.33301 3 6 3h15c4 0 5 -2 3 -6l-81 -134c-0.666992 -2 -2.66699 -3 -6 -3zM190 659c0 -13.333 -6.66699 -20 -20 -20s-20 6.66699 -20 20s6.66699 20 20 20s20 -6.66699 20 -20z" />
    <glyph glyph-name="Alpha" unicode="&#x391;" horiz-adv-x="582" 
d="M28 0h-12c-4 0 -5.33301 2 -4 6l266 705c1.33301 2.66699 3 4 5 4h16c2 0 3.66699 -1.33301 5 -4l266 -705c1.33301 -4 0 -6 -4 -6h-12c-2 -0 -3.66699 1.33301 -5 4l-86 229h-344l-86 -229c-1.33301 -2.66699 -3 -4 -5 -4zM290 687l-163 -434h328l-163 434h-2z" />
    <glyph glyph-name="Beta" unicode="&#x392;" horiz-adv-x="618" 
d="M530 546c0 -42 -11.666 -76.832 -34.999 -104.499s-55.333 -46.5 -96 -56.5c51.333 -8 90.833 -28.333 118.5 -61s41.5 -75.334 41.5 -128.001c0 -62.667 -21.333 -111 -64 -145s-104 -51 -184 -51h-206c-3.33301 0 -5 1.66699 -5 5v705c0 3.33301 1.66699 5 5 5h206
c77.333 0 133.166 -15.833 167.499 -47.5s51.5 -72.167 51.5 -121.5zM121.001 20.001h190c75.333 0 132 15.333 170 46s57 74 57 130s-17 99.833 -51 131.5s-85.667 47.5 -155 47.5h-211v-355zM509.001 546.001c0 43.333 -15 79 -45 107s-81 42 -153 42h-190v-300h211
c56 0 99.5 13.333 130.5 40s46.5 63.667 46.5 111z" />
    <glyph glyph-name="Gamma" unicode="&#x393;" horiz-adv-x="494" 
d="M116 0h-11c-3.33301 0 -5 1.66699 -5 5v705c0 3.33301 1.66699 5 5 5h372c3.33301 0 5 -1.66699 5 -5v-10c0 -3.33301 -1.66699 -5 -5 -5h-356v-690c0 -3.33301 -1.66699 -5 -5 -5z" />
    <glyph glyph-name="uni0394" unicode="&#x394;" horiz-adv-x="590" 
d="M574 0h-558c-4 0 -5.33301 2 -4 6l268 705c1.33301 2.66699 3.33301 4 6 4h18c2.66699 0 4.66699 -1.33301 6 -4l268 -705c1.33301 -4 0 -6 -4 -6zM294 688l-254 -668h510l-254 668h-2z" />
    <glyph glyph-name="Epsilon" unicode="&#x395;" horiz-adv-x="559" 
d="M121 355v-335h386c3.33301 0 5 -1.66699 5 -5v-10c0 -3.33301 -1.66699 -5 -5 -5h-402c-3.33301 0 -5 1.66699 -5 5v705c0 3.33301 1.66699 5 5 5h387c3.33301 0 5 -1.66699 5 -5v-10c0 -3.33301 -1.66699 -5 -5 -5h-371v-320h351c3.33301 0 5 -1.66699 5 -5v-10
c0 -3.33301 -1.66699 -5 -5 -5h-351z" />
    <glyph glyph-name="Zeta" unicode="&#x396;" horiz-adv-x="546" 
d="M507 0h-470c-3.33301 0 -5 1.66699 -5 5v5c0 1.33301 0.666992 3.33301 2 6l444 679h-427c-3.33301 0 -5 1.66699 -5 5v10c0 3.33301 1.66699 5 5 5h450c3.33301 0 5 -1.66699 5 -5v-7c0 -1.33301 -0.666992 -3.33301 -2 -6l-443 -677h446c3.33301 0 5 -1.66699 5 -5v-10
c0 -3.33301 -1.66699 -5 -5 -5z" />
    <glyph glyph-name="Eta" unicode="&#x397;" horiz-adv-x="672" 
d="M551 375v335c0 3.33301 1.66699 5 5 5h11c3.33301 0 5 -1.66699 5 -5v-705c0 -3.33301 -1.66699 -5 -5 -5h-11c-3.33301 0 -5 1.66699 -5 5v350h-430v-350c0 -3.33301 -1.66699 -5 -5 -5h-11c-3.33301 0 -5 1.66699 -5 5v705c0 3.33301 1.66699 5 5 5h11
c3.33301 0 5 -1.66699 5 -5v-335h430z" />
    <glyph glyph-name="Theta" unicode="&#x398;" horiz-adv-x="672" 
d="M597 218c0 -65.333 -24.1689 -119.666 -72.502 -162.999s-111.166 -65 -188.499 -65s-140.166 21.667 -188.499 65s-72.5 97.666 -72.5 162.999v270c0 70 24 127 72 171s111 66 189 66s141 -22 189 -66s72 -101 72 -171v-270zM95.998 218
c0 -60 22.1709 -109.667 66.5039 -149s102.166 -59 173.499 -59s129.166 19.667 173.499 59s66.5 89 66.5 149v270c0 64.667 -21.833 117 -65.5 157s-101.834 60 -174.501 60s-130.834 -20 -174.501 -60s-65.5 -92.333 -65.5 -157v-270zM522.002 356h-371
c-3.33301 0 -5 1.66699 -5 5v10c0 3.33301 1.66699 5 5 5h371c3.33301 0 5 -1.66699 5 -5v-10c0 -3.33301 -1.66699 -5 -5 -5z" />
    <glyph glyph-name="Iota" unicode="&#x399;" horiz-adv-x="221" 
d="M121 710v-705c0 -3.33301 -1.66699 -5 -5 -5h-11c-3.33301 0 -5 1.66699 -5 5v705c0 3.33301 1.66699 5 5 5h11c3.33301 0 5 -1.66699 5 -5z" />
    <glyph glyph-name="Kappa" unicode="&#x39a;" horiz-adv-x="602" 
d="M116 0h-11c-3.33301 0 -5 1.66699 -5 5v705c0 3.33301 1.66699 5 5 5h11c3.33301 0 5 -1.66699 5 -5v-408l421 410c2 2 4.33301 3 7 3h16c6 0 7 -2 3 -6l-325 -317l344 -386c3.33301 -4 2.33301 -6 -3 -6h-16c-2.66699 0 -4.66699 1 -6 3l-334 375l-107 -104v-269
c0 -3.33301 -1.66699 -5 -5 -5z" />
    <glyph glyph-name="Lambda" unicode="&#x39b;" horiz-adv-x="590" 
d="M28 0h-12c-4 0 -5.33301 2 -4 6l268 705c1.33301 2.66699 3.33301 4 6 4h18c2.66699 0 4.66699 -1.33301 6 -4l268 -705c1.33301 -4 0 -6 -4 -6h-12c-2.66699 -0 -4.66699 1.33301 -6 4l-260 685h-2l-260 -685c-1.33301 -2.66699 -3.33301 -4 -6 -4z" />
    <glyph glyph-name="Mu" unicode="&#x39c;" horiz-adv-x="838" 
d="M116 0h-11c-3.33301 0 -5 1.66699 -5 5v705c0 3.33301 1.66699 5 5 5h17c2.66699 0 4.66699 -1 6 -3l221 -385l70 -123l69 120l222 388c1.33301 2 3.33301 3 6 3h17c3.33301 0 5 -1.66699 5 -5v-705c0 -3.33301 -1.66699 -5 -5 -5h-11c-3.33301 0 -5 1.66699 -5 5v678
l-93 -162l-195 -341c-0.666992 -2 -2.66699 -3 -6 -3h-8c-3.33301 0 -5.33301 1 -6 3l-195 341l-93 162v-678c0 -3.33301 -1.66699 -5 -5 -5z" />
    <glyph glyph-name="Nu" unicode="&#x39d;" horiz-adv-x="699" 
d="M116 0h-11c-3.33301 0 -5 1.66699 -5 5v705c0 3.33301 1.66699 5 5 5h14c3.33301 0 5.33301 -1 6 -3l453 -678v676c0 3.33301 1.66699 5 5 5h11c3.33301 0 5 -1.66699 5 -5v-705c0 -3.33301 -1.66699 -5 -5 -5h-14c-2.66699 0 -4.66699 1 -6 3l-453 678v-676
c0 -3.33301 -1.66699 -5 -5 -5z" />
    <glyph glyph-name="Xi" unicode="&#x39e;" horiz-adv-x="514" 
d="M456 695h-399c-3.33301 0 -5 1.66699 -5 5v10c0 3.33301 1.66699 5 5 5h399c3.33301 0 5 -1.66699 5 -5v-10c0 -3.33301 -1.66699 -5 -5 -5zM426 352h-338c-3.33301 0 -5 1.66699 -5 5v10c0 3.33301 1.66699 5 5 5h338c3.33301 0 5 -1.66699 5 -5v-10
c0 -3.33301 -1.66699 -5 -5 -5zM460 0h-407c-3.33301 0 -5 1.66699 -5 5v11c0 3.33301 1.66699 5 5 5h407c3.33301 0 5 -1.66699 5 -5v-11c0 -3.33301 -1.66699 -5 -5 -5z" />
    <glyph glyph-name="Omicron" unicode="&#x39f;" horiz-adv-x="666" 
d="M591 218c0 -65.333 -23.998 -119.666 -71.998 -162.999s-110 -65 -186 -65s-138 21.667 -186 65s-72 97.666 -72 162.999v270c0 70 23.667 127 71 171s109.666 66 186.999 66s139.666 -22 186.999 -66s71 -101 71 -171v-270zM96.002 218
c0 -60 21.8291 -109.667 65.4961 -149s100.834 -59 171.501 -59s127.834 19.667 171.501 59s65.5 89 65.5 149v270c0 64.667 -21.667 117 -65 157s-100.666 60 -171.999 60s-128.666 -20 -171.999 -60s-65 -92.333 -65 -157v-270z" />
    <glyph glyph-name="Pi" unicode="&#x3a0;" horiz-adv-x="672" 
d="M116 0h-11c-3.33301 0 -5 1.66699 -5 5v705c0 3.33301 1.66699 5 5 5h462c3.33301 0 5 -1.66699 5 -5v-705c0 -3.33301 -1.66699 -5 -5 -5h-11c-3.33301 0 -5 1.66699 -5 5v690h-430v-690c0 -3.33301 -1.66699 -5 -5 -5z" />
    <glyph glyph-name="Rho" unicode="&#x3a1;" horiz-adv-x="609" 
d="M105 715h217.999c78 0 138 -19 180 -57s63 -90.667 63 -158c0 -68 -21.167 -120.667 -63.5 -158s-102.166 -56 -179.499 -56h-202v-281c0 -3.33301 -1.66699 -5 -5 -5h-11c-3.33301 0 -5 1.66699 -5 5v705c0 3.33301 1.66699 5 5 5zM120.999 306l200 -0.000976562
c73.333 0 129 16.667 167 50s57 81.333 57 144s-19.167 110.834 -57.5 144.501s-93.833 50.5 -166.5 50.5h-200v-389z" />
    <glyph glyph-name="Sigma" unicode="&#x3a3;" horiz-adv-x="505" 
d="M44 715h418c3.33301 0 5 -1.66699 5 -5v-10c0 -3.33301 -1.66699 -5 -5 -5h-394l260 -324c1.33301 -2.66699 1.33301 -5 0 -7l-261 -344h395c3.33301 0 5 -1.66699 5 -5v-10c0 -3.33301 -1.66699 -5 -5 -5h-418c-3.33301 0 -5 1.66699 -5 5v10
c0 1.33301 0.666992 3.33301 2 6l264 347l-264 326c-1.33301 2.66699 -2 4.66699 -2 6v10c0 3.33301 1.66699 5 5 5z" />
    <glyph glyph-name="Tau" unicode="&#x3a4;" horiz-adv-x="527" 
d="M17 715h493c3.33301 0 5 -1.66699 5 -5v-10c0 -3.33301 -1.66699 -5 -5 -5h-238v-690c0 -3.33301 -1.66699 -5 -5 -5h-11c-3.33301 0 -5 1.66699 -5 5v690h-234c-3.33301 0 -5 1.66699 -5 5v10c0 3.33301 1.66699 5 5 5z" />
    <glyph glyph-name="Upsilon" unicode="&#x3a5;" horiz-adv-x="529" 
d="M270 0h-11c-3.33301 0 -5 1.66699 -5 5v281l-242 423c-2 4 -0.666992 6 4 6h12c2.66699 0 4.66699 -1 6 -3l231 -404l231 404c1.33301 2 3.33301 3 6 3h12c4.66699 0 6 -2 4 -6l-243 -423v-281c0 -3.33301 -1.66699 -5 -5 -5z" />
    <glyph glyph-name="Phi" unicode="&#x3a6;" horiz-adv-x="841" 
d="M426 -61l-10.999 0.000976562c-3.33301 0 -5 1.66699 -5 5v91h-84c-32 0 -62.833 5.33301 -92.5 16s-56.834 26.334 -81.501 47.001s-44.5 48.834 -59.5 84.501s-22.5 76.167 -22.5 121.5v106c0 45.333 7.5 85.666 22.5 120.999s35 63.333 60 84
s52.167 36.334 81.5 47.001s60 16 92 16h84v85c0 3.33301 1.66699 5 5 5h11c3.33301 0 5 -1.66699 5 -5v-85h83c43.333 0 83.833 -8.83301 121.5 -26.5s69.667 -47.334 96 -89.001s39.5 -92.5 39.5 -152.5v-106c0 -45.333 -7.5 -85.833 -22.5 -121.5
s-35 -63.834 -60 -84.501s-52.333 -36.334 -82 -47.001s-60.5 -16 -92.5 -16h-83v-91c0 -3.33301 -1.66699 -5 -5 -5zM91.001 304.001c0 -82 23.167 -144 69.5 -186s101.5 -63 165.5 -63h84v603h-84c-30 0 -58.667 -4.83301 -86 -14.5s-52.333 -24.167 -75 -43.5
s-40.667 -45.333 -54 -78s-20 -70 -20 -112v-106zM431.001 658.001l-0.000976562 -603h83c30 0 58.667 4.83301 86 14.5s52.333 24.167 75 43.5s40.834 45.5 54.501 78.5s20.5 70.5 20.5 112.5v106c0 81.333 -23.167 143 -69.5 185s-101.833 63 -166.5 63h-83z" />
    <glyph glyph-name="Chi" unicode="&#x3a7;" horiz-adv-x="569" 
d="M299 361l245 -355c2.66699 -4 1.66699 -6 -3 -6h-14c-3.33301 0 -5.33301 1 -6 3l-236 342l-237 -342c-1.33301 -2 -3.33301 -3 -6 -3h-14c-4.66699 0 -5.66699 2 -3 6l246 355l-235 348c-2.66699 4 -1.66699 6 3 6h14c3.33301 0 5.33301 -1 6 -3l226 -335l225 335
c1.33301 2 3.33301 3 6 3h14c4.66699 0 5.66699 -2 3 -6z" />
    <glyph glyph-name="Psi" unicode="&#x3a8;" horiz-adv-x="782" 
d="M394 0h-11c-3.33301 0 -5 1.66699 -5 5v159h-84c-66.667 0 -121 20.833 -163 62.5s-63 96.167 -63 163.5v320c0 3.33301 1.66699 5 5 5h11c3.33301 0 5 -1.66699 5 -5v-320c0 -62 18.833 -111.833 56.5 -149.5s87.167 -56.5 148.5 -56.5h84v526c0 3.33301 1.66699 5 5 5
h11c3.33301 0 5 -1.66699 5 -5v-526h89c61.333 0 110.833 18.833 148.5 56.5s56.5 87.5 56.5 149.5v320c0 3.33301 1.66699 5 5 5h11c3.33301 0 5 -1.66699 5 -5v-320c0 -67.333 -21 -121.833 -63 -163.5s-96.333 -62.5 -163 -62.5h-89v-159c0 -3.33301 -1.66699 -5 -5 -5z
" />
    <glyph glyph-name="uni03A9" unicode="&#x3a9;" horiz-adv-x="658" 
d="M261 0h-181.002c-3.33301 0 -5 1.66699 -5 5v10c0 3.33301 1.66699 5 5 5h149c-47.333 32 -85 70.833 -113 116.5s-42 95.167 -42 148.5v182c0 80.667 22.5 143.834 67.5 189.501s107.5 68.5 187.5 68.5s142.5 -22.833 187.5 -68.5s67.5 -108.834 67.5 -189.501v-182
c0 -53.333 -14 -102.833 -42 -148.5s-65.667 -84.5 -113 -116.5h149c3.33301 0 5 -1.66699 5 -5v-10c0 -3.33301 -1.66699 -5 -5 -5h-181c-3.33301 0 -5 1.66699 -5 5v6c0 3.33301 1 5.33301 3 6c54.667 36 96.334 77 125.001 123s43 94.333 43 145v182
c0 75.333 -20.5 133.833 -61.5 175.5s-98.5 62.5 -172.5 62.5s-131.5 -20.833 -172.5 -62.5s-61.5 -100.167 -61.5 -175.5v-182c0 -50.667 14.333 -99 43 -145s70.334 -87 125.001 -123c2 -0.666992 3 -2.66699 3 -6v-6c0 -3.33301 -1.66699 -5 -5 -5z" />
    <glyph glyph-name="Iotadieresis" unicode="&#x3aa;" horiz-adv-x="221" 
d="M116 0h-11c-3.33301 0 -5 1.66699 -5 5v705c0 3.33301 1.66699 5 5 5h11c3.33301 0 5 -1.66699 5 -5v-705c0 -3.33301 -1.66699 -5 -5 -5zM51 859c0 -13.333 -6.66699 -20 -20 -20s-20 6.66699 -20 20s6.66699 20 20 20s20 -6.66699 20 -20zM211 859
c0 -13.333 -6.66699 -20 -20 -20s-20 6.66699 -20 20s6.66699 20 20 20s20 -6.66699 20 -20z" />
    <glyph glyph-name="Upsilondieresis" unicode="&#x3ab;" horiz-adv-x="529" 
d="M186 859c0 -13.333 -6.66699 -20 -20 -20s-20 6.66699 -20 20s6.66699 20 20 20s20 -6.66699 20 -20zM384 859c0 -13.333 -6.66699 -20 -20 -20s-20 6.66699 -20 20s6.66699 20 20 20s20 -6.66699 20 -20zM270 0h-11c-3.33301 0 -5 1.66699 -5 5v281l-242 423
c-2 4 -0.666992 6 4 6h12c2.66699 0 4.66699 -1 6 -3l231 -404l231 404c1.33301 2 3.33301 3 6 3h12c4.66699 0 6 -2 4 -6l-243 -423v-281c0 -3.33301 -1.66699 -5 -5 -5z" />
    <glyph glyph-name="alphatonos" unicode="&#x3ac;" horiz-adv-x="526" 
d="M428 68c-48.667 -52 -106.334 -77.998 -173.001 -77.998c-60 0 -107.667 16.833 -143 50.5s-53 80.167 -53 139.5v142c0 61.333 18.167 110.166 54.5 146.499s84.833 54.5 145.5 54.5c56.667 0 118.334 -12.667 185.001 -38c2.66699 -0.666992 4 -2.33398 4 -5.00098
v-475c0 -3.33301 -1.66699 -5 -5 -5h-10c-3.33301 0 -5 1.66699 -5 5v63zM79 180.002c0 -54 15.832 -96 47.499 -126s74.834 -45 129.501 -45c63.333 0 120.666 28 171.999 84v378c-62 22 -118.333 33 -169 33c-55.333 0 -99.166 -16.333 -131.499 -49s-48.5 -77 -48.5 -133
v-142zM243.999 600.002h-8.00098c-5.33301 0 -6.66602 2 -3.99902 6l83 134c0.666992 2 2.66699 3 6 3h15c4 0 5 -2 3 -6l-89 -134c-1.33301 -2 -3.33301 -3 -6 -3z" />
    </font>
</defs>
</svg>
